%FSLAX45Y45*%
G04 Gerber Fmt 4.5, Leading zero omitted, Abs format (unit mm)*
G04 Created by KiCad (PCBNEW (5.1.4)-1) date 2022-01-07 23:36:08*
%MOMM*%
%LPD*%
G04 APERTURE LIST*
%ADD10C,0.200000*%
%ADD11C,0.050000*%
%ADD12C,0.300000*%
G04 APERTURE END LIST*
D10*
X6435287Y-9286850D02*
G75*
G03X6435287Y-9286850I-125000J0D01*
G01*
X14412475Y-9286850D02*
G75*
G03X14412475Y-9286850I-125000J0D01*
G01*
X22389662Y-9286850D02*
G75*
G03X22389662Y-9286850I-125000J0D01*
G01*
X30366850Y-3809975D02*
G75*
G03X30366850Y-3809975I-125000J0D01*
G01*
X30366850Y1666900D02*
G75*
G03X30366850Y1666900I-125000J0D01*
G01*
X30366850Y-9286850D02*
G75*
G03X30366850Y-9286850I-125000J0D01*
G01*
X-1541900Y1666900D02*
G75*
G03X-1541900Y1666900I-125000J0D01*
G01*
D11*
X-1905000Y1666875D02*
X-1905000Y-9286875D01*
X30241875Y1905000D02*
X-1666875Y1905000D01*
X30480000Y-9286875D02*
X30480000Y1666875D01*
X-1666875Y-9525000D02*
X30241875Y-9525000D01*
X-1666875Y-9525000D02*
G75*
G02X-1905000Y-9286875I0J238125D01*
G01*
X-1905000Y1666875D02*
G75*
G02X-1666875Y1905000I238125J0D01*
G01*
X30241875Y1905000D02*
G75*
G02X30480000Y1666875I0J-238125D01*
G01*
X30480000Y-9286875D02*
G75*
G02X30241875Y-9525000I-238125J0D01*
G01*
D10*
X1504000Y83500D02*
X1544000Y43500D01*
X1544000Y83500D02*
X1504000Y43500D01*
X5352100Y845500D02*
X5392100Y805500D01*
X5392100Y845500D02*
X5352100Y805500D01*
X6164900Y248600D02*
X6204900Y208600D01*
X6204900Y248600D02*
X6164900Y208600D01*
X6407431Y228500D02*
X6447431Y188500D01*
X6447431Y228500D02*
X6407431Y188500D01*
X6455314Y316291D02*
X6495314Y276291D01*
X6495314Y316291D02*
X6455314Y276291D01*
X6571300Y83500D02*
X6611300Y43500D01*
X6611300Y83500D02*
X6571300Y43500D01*
X6625800Y-252086D02*
X6665800Y-292086D01*
X6665800Y-252086D02*
X6625800Y-292086D01*
X6625800Y-1720028D02*
X6665800Y-1760028D01*
X6665800Y-1720028D02*
X6625800Y-1760028D01*
X6663215Y44108D02*
X6703215Y4108D01*
X6703215Y44108D02*
X6663215Y4108D01*
X6675923Y-1944800D02*
X6715923Y-1984800D01*
X6715923Y-1944800D02*
X6675923Y-1984800D01*
X6698300Y-1799800D02*
X6738300Y-1839800D01*
X6738300Y-1799800D02*
X6698300Y-1839800D01*
X6787200Y-1944800D02*
X6827200Y-1984800D01*
X6827200Y-1944800D02*
X6787200Y-1984800D01*
X7282500Y413700D02*
X7322500Y373700D01*
X7322500Y413700D02*
X7282500Y373700D01*
X7393419Y1013981D02*
X7433419Y973981D01*
X7433419Y1013981D02*
X7393419Y973981D01*
X8832365Y-1603700D02*
X8872365Y-1643700D01*
X8872365Y-1603700D02*
X8832365Y-1643700D01*
X9786169Y-1989801D02*
X9826169Y-2029801D01*
X9826169Y-1989801D02*
X9786169Y-2029801D01*
X9860600Y-1799800D02*
X9900600Y-1839800D01*
X9900600Y-1799800D02*
X9860600Y-1839800D01*
X9886000Y-1944800D02*
X9926000Y-1984800D01*
X9926000Y-1944800D02*
X9886000Y-1984800D01*
X9973465Y-1743865D02*
X10013465Y-1783865D01*
X10013465Y-1743865D02*
X9973465Y-1783865D01*
X10093407Y-1726454D02*
X10133407Y-1766454D01*
X10133407Y-1726454D02*
X10093407Y-1766454D01*
X11210529Y-555200D02*
X11250529Y-595200D01*
X11250529Y-555200D02*
X11210529Y-595200D01*
X11283029Y-1106600D02*
X11323029Y-1146600D01*
X11323029Y-1106600D02*
X11283029Y-1146600D01*
X11369789Y-1182800D02*
X11409789Y-1222800D01*
X11409789Y-1182800D02*
X11369789Y-1222800D01*
X11841800Y746299D02*
X11881800Y706299D01*
X11881800Y746299D02*
X11841800Y706299D01*
X14228764Y-1150073D02*
X14268764Y-1190073D01*
X14268764Y-1150073D02*
X14228764Y-1190073D01*
X18141000Y-1150073D02*
X18181000Y-1190073D01*
X18181000Y-1150073D02*
X18141000Y-1190073D01*
X23865750Y690814D02*
X23905750Y650814D01*
X23905750Y690814D02*
X23865750Y650814D01*
X23869154Y590872D02*
X23909154Y550872D01*
X23909154Y590872D02*
X23869154Y550872D01*
X23906800Y782000D02*
X23946800Y742000D01*
X23946800Y782000D02*
X23906800Y742000D01*
X23995700Y1201100D02*
X24035700Y1161100D01*
X24035700Y1201100D02*
X23995700Y1161100D01*
X23995700Y997900D02*
X24035700Y957900D01*
X24035700Y997900D02*
X23995700Y957900D01*
X26230900Y-8920800D02*
X26270900Y-8960800D01*
X26270900Y-8920800D02*
X26230900Y-8960800D01*
X26256300Y-5860100D02*
X26296300Y-5900100D01*
X26296300Y-5860100D02*
X26256300Y-5900100D01*
X26319800Y-8857300D02*
X26359800Y-8897300D01*
X26359800Y-8857300D02*
X26319800Y-8897300D01*
X26383300Y-5898200D02*
X26423300Y-5938200D01*
X26423300Y-5898200D02*
X26383300Y-5938200D01*
X26455800Y-6114100D02*
X26495800Y-6154100D01*
X26495800Y-6114100D02*
X26455800Y-6154100D01*
X26528300Y-6571300D02*
X26568300Y-6611300D01*
X26568300Y-6571300D02*
X26528300Y-6611300D01*
X26600800Y-6914200D02*
X26640800Y-6954200D01*
X26640800Y-6914200D02*
X26600800Y-6954200D01*
X26624600Y-4767900D02*
X26664600Y-4807900D01*
X26664600Y-4767900D02*
X26624600Y-4807900D01*
X26637300Y-4666300D02*
X26677300Y-4706300D01*
X26677300Y-4666300D02*
X26637300Y-4706300D01*
X26673300Y-7168200D02*
X26713300Y-7208200D01*
X26713300Y-7168200D02*
X26673300Y-7208200D01*
X26745800Y-7333300D02*
X26785800Y-7373300D01*
X26785800Y-7333300D02*
X26745800Y-7373300D01*
X26764300Y-2202500D02*
X26804300Y-2242500D01*
X26804300Y-2202500D02*
X26764300Y-2242500D01*
X26815100Y-4590100D02*
X26855100Y-4630100D01*
X26855100Y-4590100D02*
X26815100Y-4630100D01*
X26818300Y-7866700D02*
X26858300Y-7906700D01*
X26858300Y-7866700D02*
X26818300Y-7906700D01*
X26840500Y-7688900D02*
X26880500Y-7728900D01*
X26880500Y-7688900D02*
X26840500Y-7728900D01*
X26904000Y-4488500D02*
X26944000Y-4528500D01*
X26944000Y-4488500D02*
X26904000Y-4528500D01*
X26904000Y-8285800D02*
X26944000Y-8325800D01*
X26944000Y-8285800D02*
X26904000Y-8325800D01*
X26904000Y-8527100D02*
X26944000Y-8567100D01*
X26944000Y-8527100D02*
X26904000Y-8567100D01*
X26950768Y-1635032D02*
X26990768Y-1675032D01*
X26990768Y-1635032D02*
X26950768Y-1675032D01*
X26967500Y-8031800D02*
X27007500Y-8071800D01*
X27007500Y-8031800D02*
X26967500Y-8071800D01*
X27066320Y-1477111D02*
X27106320Y-1517111D01*
X27106320Y-1477111D02*
X27066320Y-1517111D01*
X27143625Y-1540545D02*
X27183625Y-1580545D01*
X27183625Y-1540545D02*
X27143625Y-1580545D01*
X27273422Y-1452078D02*
X27313422Y-1492078D01*
X27313422Y-1452078D02*
X27273422Y-1492078D01*
X27602500Y-1484578D02*
X27642500Y-1524578D01*
X27642500Y-1484578D02*
X27602500Y-1524578D01*
X28618500Y-4758401D02*
X28658500Y-4798401D01*
X28658500Y-4758401D02*
X28618500Y-4798401D01*
X28631047Y-1412078D02*
X28671047Y-1452078D01*
X28671047Y-1412078D02*
X28631047Y-1452078D01*
X28738588Y-4738958D02*
X28778588Y-4778958D01*
X28778588Y-4738958D02*
X28738588Y-4778958D01*
X28758200Y-4640900D02*
X28798200Y-4680900D01*
X28798200Y-4640900D02*
X28758200Y-4680900D01*
X28859800Y-5555300D02*
X28899800Y-5595300D01*
X28899800Y-5555300D02*
X28859800Y-5595300D01*
X29507500Y-8666800D02*
X29547500Y-8706800D01*
X29547500Y-8666800D02*
X29507500Y-8706800D01*
X29520200Y-5428300D02*
X29560200Y-5468300D01*
X29560200Y-5428300D02*
X29520200Y-5468300D01*
X29520200Y-5860100D02*
X29560200Y-5900100D01*
X29560200Y-5860100D02*
X29520200Y-5900100D01*
X29774200Y-8666800D02*
X29814200Y-8706800D01*
X29814200Y-8666800D02*
X29774200Y-8706800D01*
X29784302Y-2266000D02*
X29824302Y-2306000D01*
X29824302Y-2266000D02*
X29784302Y-2306000D01*
X28170500Y1657375D02*
G75*
G03X28170500Y1657375I-40000J0D01*
G01*
X28415660Y433375D02*
G75*
G03X28415660Y433375I-40000J0D01*
G01*
X28415660Y233375D02*
G75*
G03X28415660Y233375I-40000J0D01*
G01*
X28424500Y1657375D02*
G75*
G03X28424500Y1657375I-40000J0D01*
G01*
X28615660Y433375D02*
G75*
G03X28615660Y433375I-40000J0D01*
G01*
X28615660Y233375D02*
G75*
G03X28615660Y233375I-40000J0D01*
G01*
X28815660Y433375D02*
G75*
G03X28815660Y433375I-40000J0D01*
G01*
X28815660Y233375D02*
G75*
G03X28815660Y233375I-40000J0D01*
G01*
X2107692Y1252436D02*
X2107692Y1152436D01*
X2057692Y1202436D02*
X2157692Y1202436D01*
X2107692Y1002436D02*
X2107692Y902436D01*
X2057692Y952436D02*
X2157692Y952436D01*
X2107692Y752436D02*
X2107692Y652436D01*
X2057692Y702436D02*
X2157692Y702436D01*
X3557692Y1252436D02*
X3557692Y1152436D01*
X3507692Y1202436D02*
X3607692Y1202436D01*
X3557692Y752436D02*
X3557692Y652436D01*
X3507692Y702436D02*
X3607692Y702436D01*
X24015192Y299936D02*
X24015192Y199936D01*
X23965192Y249936D02*
X24065192Y249936D01*
X24015192Y49936D02*
X24015192Y-50064D01*
X23965192Y-64D02*
X24065192Y-64D01*
X24015192Y-200064D02*
X24015192Y-300064D01*
X23965192Y-250064D02*
X24065192Y-250064D01*
X25465192Y299936D02*
X25465192Y199936D01*
X25415192Y249936D02*
X25515192Y249936D01*
X25465192Y-200064D02*
X25465192Y-300064D01*
X25415192Y-250064D02*
X25515192Y-250064D01*
X6844400Y951700D02*
X6844400Y851700D01*
X6794400Y901700D02*
X6894400Y901700D01*
X6844400Y697700D02*
X6844400Y597700D01*
X6794400Y647700D02*
X6894400Y647700D01*
X6844400Y443700D02*
X6844400Y343700D01*
X6794400Y393700D02*
X6894400Y393700D01*
X6844400Y189700D02*
X6844400Y89700D01*
X6794400Y139700D02*
X6894400Y139700D01*
X6844400Y-64300D02*
X6844400Y-164300D01*
X6794400Y-114300D02*
X6894400Y-114300D01*
X6844400Y-318300D02*
X6844400Y-418300D01*
X6794400Y-368300D02*
X6894400Y-368300D01*
X6844400Y-572300D02*
X6844400Y-672300D01*
X6794400Y-622300D02*
X6894400Y-622300D01*
X6844400Y-826300D02*
X6844400Y-926300D01*
X6794400Y-876300D02*
X6894400Y-876300D01*
X20205192Y299936D02*
X20205192Y199936D01*
X20155192Y249936D02*
X20255192Y249936D01*
X20205192Y49936D02*
X20205192Y-50064D01*
X20155192Y-64D02*
X20255192Y-64D01*
X20205192Y-200064D02*
X20205192Y-300064D01*
X20155192Y-250064D02*
X20255192Y-250064D01*
X21655192Y299936D02*
X21655192Y199936D01*
X21605192Y249936D02*
X21705192Y249936D01*
X21655192Y-200064D02*
X21655192Y-300064D01*
X21605192Y-250064D02*
X21705192Y-250064D01*
X16395192Y299936D02*
X16395192Y199936D01*
X16345192Y249936D02*
X16445192Y249936D01*
X16395192Y49936D02*
X16395192Y-50064D01*
X16345192Y-64D02*
X16445192Y-64D01*
X16395192Y-200064D02*
X16395192Y-300064D01*
X16345192Y-250064D02*
X16445192Y-250064D01*
X17845192Y299936D02*
X17845192Y199936D01*
X17795192Y249936D02*
X17895192Y249936D01*
X17845192Y-200064D02*
X17845192Y-300064D01*
X17795192Y-250064D02*
X17895192Y-250064D01*
X12585192Y299936D02*
X12585192Y199936D01*
X12535192Y249936D02*
X12635192Y249936D01*
X12585192Y49936D02*
X12585192Y-50064D01*
X12535192Y-64D02*
X12635192Y-64D01*
X12585192Y-200064D02*
X12585192Y-300064D01*
X12535192Y-250064D02*
X12635192Y-250064D01*
X14035192Y299936D02*
X14035192Y199936D01*
X13985192Y249936D02*
X14085192Y249936D01*
X14035192Y-200064D02*
X14035192Y-300064D01*
X13985192Y-250064D02*
X14085192Y-250064D01*
X5362600Y1130800D02*
X5362600Y1030800D01*
X5312600Y1080800D02*
X5412600Y1080800D01*
X5412600Y1120800D02*
X5312600Y1120800D01*
X5412600Y1040800D02*
X5312600Y1040800D01*
X5312600Y1120800D02*
G75*
G03X5312600Y1040800I0J-40000D01*
G01*
X5412600Y1040800D02*
G75*
G03X5412600Y1120800I0J40000D01*
G01*
X5362600Y580800D02*
X5362600Y480800D01*
X5312600Y530800D02*
X5412600Y530800D01*
X5412600Y570800D02*
X5312600Y570800D01*
X5412600Y490800D02*
X5312600Y490800D01*
X5312600Y570800D02*
G75*
G03X5312600Y490800I0J-40000D01*
G01*
X5412600Y490800D02*
G75*
G03X5412600Y570800I0J40000D01*
G01*
X5562600Y1370800D02*
X5562600Y1270800D01*
X5512600Y1320800D02*
X5612600Y1320800D01*
X5612600Y1360800D02*
X5512600Y1360800D01*
X5612600Y1280800D02*
X5512600Y1280800D01*
X5512600Y1360800D02*
G75*
G03X5512600Y1280800I0J-40000D01*
G01*
X5612600Y1280800D02*
G75*
G03X5612600Y1360800I0J40000D01*
G01*
X7592421Y535579D02*
X7592421Y607421D01*
X7520579Y607421D01*
X7520579Y535579D01*
X7592421Y535579D01*
X7592421Y281579D02*
X7592421Y353421D01*
X7520579Y353421D01*
X7520579Y281579D01*
X7592421Y281579D01*
X7592421Y27579D02*
X7592421Y99421D01*
X7520579Y99421D01*
X7520579Y27579D01*
X7592421Y27579D01*
X7592421Y-480421D02*
X7592421Y-408579D01*
X7520579Y-408579D01*
X7520579Y-480421D01*
X7592421Y-480421D01*
X7846421Y535579D02*
X7846421Y607421D01*
X7774579Y607421D01*
X7774579Y535579D01*
X7846421Y535579D01*
X7846421Y281579D02*
X7846421Y353421D01*
X7774579Y353421D01*
X7774579Y281579D01*
X7846421Y281579D01*
X7846421Y27579D02*
X7846421Y99421D01*
X7774579Y99421D01*
X7774579Y27579D01*
X7846421Y27579D01*
X7846421Y-226421D02*
X7846421Y-154579D01*
X7774579Y-154579D01*
X7774579Y-226421D01*
X7846421Y-226421D01*
X7846421Y-480421D02*
X7846421Y-408579D01*
X7774579Y-408579D01*
X7774579Y-480421D01*
X7846421Y-480421D01*
X8227421Y1678579D02*
X8227421Y1750421D01*
X8155579Y1750421D01*
X8155579Y1678579D01*
X8227421Y1678579D01*
X8227421Y1424579D02*
X8227421Y1496421D01*
X8155579Y1496421D01*
X8155579Y1424579D01*
X8227421Y1424579D01*
X8227421Y1170579D02*
X8227421Y1242421D01*
X8155579Y1242421D01*
X8155579Y1170579D01*
X8227421Y1170579D01*
X8227421Y916579D02*
X8227421Y988421D01*
X8155579Y988421D01*
X8155579Y916579D01*
X8227421Y916579D01*
X8227421Y662579D02*
X8227421Y734421D01*
X8155579Y734421D01*
X8155579Y662579D01*
X8227421Y662579D01*
X8227421Y408579D02*
X8227421Y480421D01*
X8155579Y480421D01*
X8155579Y408579D01*
X8227421Y408579D01*
X8227421Y154579D02*
X8227421Y226421D01*
X8155579Y226421D01*
X8155579Y154579D01*
X8227421Y154579D01*
X8227421Y-99421D02*
X8227421Y-27579D01*
X8155579Y-27579D01*
X8155579Y-99421D01*
X8227421Y-99421D01*
X8227421Y-353421D02*
X8227421Y-281579D01*
X8155579Y-281579D01*
X8155579Y-353421D01*
X8227421Y-353421D01*
X8227421Y-607421D02*
X8227421Y-535579D01*
X8155579Y-535579D01*
X8155579Y-607421D01*
X8227421Y-607421D01*
X8227421Y-861421D02*
X8227421Y-789579D01*
X8155579Y-789579D01*
X8155579Y-861421D01*
X8227421Y-861421D01*
X8227421Y-1115421D02*
X8227421Y-1043579D01*
X8155579Y-1043579D01*
X8155579Y-1115421D01*
X8227421Y-1115421D01*
X8227421Y-1369421D02*
X8227421Y-1297579D01*
X8155579Y-1297579D01*
X8155579Y-1369421D01*
X8227421Y-1369421D01*
X8227421Y-1623421D02*
X8227421Y-1551579D01*
X8155579Y-1551579D01*
X8155579Y-1623421D01*
X8227421Y-1623421D01*
X8735421Y1678579D02*
X8735421Y1750421D01*
X8663579Y1750421D01*
X8663579Y1678579D01*
X8735421Y1678579D01*
X8989421Y1678579D02*
X8989421Y1750421D01*
X8917579Y1750421D01*
X8917579Y1678579D01*
X8989421Y1678579D01*
X9751421Y1678579D02*
X9751421Y1750421D01*
X9679579Y1750421D01*
X9679579Y1678579D01*
X9751421Y1678579D01*
X9751421Y1424579D02*
X9751421Y1496421D01*
X9679579Y1496421D01*
X9679579Y1424579D01*
X9751421Y1424579D01*
X9751421Y1170579D02*
X9751421Y1242421D01*
X9679579Y1242421D01*
X9679579Y1170579D01*
X9751421Y1170579D01*
X9751421Y916579D02*
X9751421Y988421D01*
X9679579Y988421D01*
X9679579Y916579D01*
X9751421Y916579D01*
X9751421Y662579D02*
X9751421Y734421D01*
X9679579Y734421D01*
X9679579Y662579D01*
X9751421Y662579D01*
X9751421Y408579D02*
X9751421Y480421D01*
X9679579Y480421D01*
X9679579Y408579D01*
X9751421Y408579D01*
X9751421Y154579D02*
X9751421Y226421D01*
X9679579Y226421D01*
X9679579Y154579D01*
X9751421Y154579D01*
X9751421Y-99421D02*
X9751421Y-27579D01*
X9679579Y-27579D01*
X9679579Y-99421D01*
X9751421Y-99421D01*
X9751421Y-353421D02*
X9751421Y-281579D01*
X9679579Y-281579D01*
X9679579Y-353421D01*
X9751421Y-353421D01*
X9751421Y-607421D02*
X9751421Y-535579D01*
X9679579Y-535579D01*
X9679579Y-607421D01*
X9751421Y-607421D01*
X9751421Y-861421D02*
X9751421Y-789579D01*
X9679579Y-789579D01*
X9679579Y-861421D01*
X9751421Y-861421D01*
X9751421Y-1115421D02*
X9751421Y-1043579D01*
X9679579Y-1043579D01*
X9679579Y-1115421D01*
X9751421Y-1115421D01*
X9751421Y-1369421D02*
X9751421Y-1297579D01*
X9679579Y-1297579D01*
X9679579Y-1369421D01*
X9751421Y-1369421D01*
X9751421Y-1623421D02*
X9751421Y-1551579D01*
X9679579Y-1551579D01*
X9679579Y-1623421D01*
X9751421Y-1623421D01*
X10320635Y-800461D02*
X10320635Y-728619D01*
X10248793Y-728619D01*
X10248793Y-800461D01*
X10320635Y-800461D01*
X10578699Y-800461D02*
X10578699Y-728619D01*
X10506857Y-728619D01*
X10506857Y-800461D01*
X10578699Y-800461D01*
X10832445Y-800461D02*
X10832445Y-728619D01*
X10760603Y-728619D01*
X10760603Y-800461D01*
X10832445Y-800461D01*
X10919821Y1424579D02*
X10919821Y1496421D01*
X10847979Y1496421D01*
X10847979Y1424579D01*
X10919821Y1424579D01*
X10919821Y1170579D02*
X10919821Y1242421D01*
X10847979Y1242421D01*
X10847979Y1170579D01*
X10919821Y1170579D01*
X10919821Y916579D02*
X10919821Y988421D01*
X10847979Y988421D01*
X10847979Y916579D01*
X10919821Y916579D01*
X18567500Y-7545000D02*
X18619500Y-7493000D01*
X18567500Y-7441000D01*
X18515500Y-7493000D01*
X18567500Y-7545000D01*
X18567500Y-7799000D02*
X18619500Y-7747000D01*
X18567500Y-7695000D01*
X18515500Y-7747000D01*
X18567500Y-7799000D01*
X8445500Y-3379500D02*
X8497500Y-3327500D01*
X8445500Y-3275500D01*
X8393500Y-3327500D01*
X8445500Y-3379500D01*
X8699500Y-3379500D02*
X8751500Y-3327500D01*
X8699500Y-3275500D01*
X8647500Y-3327500D01*
X8699500Y-3379500D01*
X4635500Y-1474500D02*
X4687500Y-1422500D01*
X4635500Y-1370500D01*
X4583500Y-1422500D01*
X4635500Y-1474500D01*
X4889500Y-1474500D02*
X4941500Y-1422500D01*
X4889500Y-1370500D01*
X4837500Y-1422500D01*
X4889500Y-1474500D01*
X19399250Y-5284500D02*
X19451250Y-5232500D01*
X19399250Y-5180500D01*
X19347250Y-5232500D01*
X19399250Y-5284500D01*
X19653250Y-5284500D02*
X19705250Y-5232500D01*
X19653250Y-5180500D01*
X19601250Y-5232500D01*
X19653250Y-5284500D01*
X2730500Y-1474500D02*
X2782500Y-1422500D01*
X2730500Y-1370500D01*
X2678500Y-1422500D01*
X2730500Y-1474500D01*
X2984500Y-1474500D02*
X3036500Y-1422500D01*
X2984500Y-1370500D01*
X2932500Y-1422500D01*
X2984500Y-1474500D01*
X17018000Y-5284500D02*
X17070000Y-5232500D01*
X17018000Y-5180500D01*
X16966000Y-5232500D01*
X17018000Y-5284500D01*
X17272000Y-5284500D02*
X17324000Y-5232500D01*
X17272000Y-5180500D01*
X17220000Y-5232500D01*
X17272000Y-5284500D01*
X26187500Y-7545000D02*
X26239500Y-7493000D01*
X26187500Y-7441000D01*
X26135500Y-7493000D01*
X26187500Y-7545000D01*
X26187500Y-7799000D02*
X26239500Y-7747000D01*
X26187500Y-7695000D01*
X26135500Y-7747000D01*
X26187500Y-7799000D01*
X6064250Y-5284500D02*
X6116250Y-5232500D01*
X6064250Y-5180500D01*
X6012250Y-5232500D01*
X6064250Y-5284500D01*
X6318250Y-5284500D02*
X6370250Y-5232500D01*
X6318250Y-5180500D01*
X6266250Y-5232500D01*
X6318250Y-5284500D01*
X7137500Y-7545000D02*
X7189500Y-7493000D01*
X7137500Y-7441000D01*
X7085500Y-7493000D01*
X7137500Y-7545000D01*
X7137500Y-7799000D02*
X7189500Y-7747000D01*
X7137500Y-7695000D01*
X7085500Y-7747000D01*
X7137500Y-7799000D01*
X-1079500Y-5284500D02*
X-1027500Y-5232500D01*
X-1079500Y-5180500D01*
X-1131500Y-5232500D01*
X-1079500Y-5284500D01*
X-825500Y-5284500D02*
X-773500Y-5232500D01*
X-825500Y-5180500D01*
X-877500Y-5232500D01*
X-825500Y-5284500D01*
X20472500Y-7545000D02*
X20524500Y-7493000D01*
X20472500Y-7441000D01*
X20420500Y-7493000D01*
X20472500Y-7545000D01*
X20472500Y-7799000D02*
X20524500Y-7747000D01*
X20472500Y-7695000D01*
X20420500Y-7747000D01*
X20472500Y-7799000D01*
X16065500Y-3379500D02*
X16117500Y-3327500D01*
X16065500Y-3275500D01*
X16013500Y-3327500D01*
X16065500Y-3379500D01*
X16319500Y-3379500D02*
X16371500Y-3327500D01*
X16319500Y-3275500D01*
X16267500Y-3327500D01*
X16319500Y-3379500D01*
X22377500Y-7545000D02*
X22429500Y-7493000D01*
X22377500Y-7441000D01*
X22325500Y-7493000D01*
X22377500Y-7545000D01*
X22377500Y-7799000D02*
X22429500Y-7747000D01*
X22377500Y-7695000D01*
X22325500Y-7747000D01*
X22377500Y-7799000D01*
X12852500Y-7545000D02*
X12904500Y-7493000D01*
X12852500Y-7441000D01*
X12800500Y-7493000D01*
X12852500Y-7545000D01*
X12852500Y-7799000D02*
X12904500Y-7747000D01*
X12852500Y-7695000D01*
X12800500Y-7747000D01*
X12852500Y-7799000D01*
X-1079500Y-7189500D02*
X-1027500Y-7137500D01*
X-1079500Y-7085500D01*
X-1131500Y-7137500D01*
X-1079500Y-7189500D01*
X-825500Y-7189500D02*
X-773500Y-7137500D01*
X-825500Y-7085500D01*
X-877500Y-7137500D01*
X-825500Y-7189500D01*
X5232500Y-7545000D02*
X5284500Y-7493000D01*
X5232500Y-7441000D01*
X5180500Y-7493000D01*
X5232500Y-7545000D01*
X5232500Y-7799000D02*
X5284500Y-7747000D01*
X5232500Y-7695000D01*
X5180500Y-7747000D01*
X5232500Y-7799000D01*
X3683000Y-5284500D02*
X3735000Y-5232500D01*
X3683000Y-5180500D01*
X3631000Y-5232500D01*
X3683000Y-5284500D01*
X3937000Y-5284500D02*
X3989000Y-5232500D01*
X3937000Y-5180500D01*
X3885000Y-5232500D01*
X3937000Y-5284500D01*
X19875500Y-3379500D02*
X19927500Y-3327500D01*
X19875500Y-3275500D01*
X19823500Y-3327500D01*
X19875500Y-3379500D01*
X20129500Y-3379500D02*
X20181500Y-3327500D01*
X20129500Y-3275500D01*
X20077500Y-3327500D01*
X20129500Y-3379500D01*
X10350500Y-3379500D02*
X10402500Y-3327500D01*
X10350500Y-3275500D01*
X10298500Y-3327500D01*
X10350500Y-3379500D01*
X10604500Y-3379500D02*
X10656500Y-3327500D01*
X10604500Y-3275500D01*
X10552500Y-3327500D01*
X10604500Y-3379500D01*
X25114250Y-5284500D02*
X25166250Y-5232500D01*
X25114250Y-5180500D01*
X25062250Y-5232500D01*
X25114250Y-5284500D01*
X25368250Y-5284500D02*
X25420250Y-5232500D01*
X25368250Y-5180500D01*
X25316250Y-5232500D01*
X25368250Y-5284500D01*
X14160500Y-3379500D02*
X14212500Y-3327500D01*
X14160500Y-3275500D01*
X14108500Y-3327500D01*
X14160500Y-3379500D01*
X14414500Y-3379500D02*
X14466500Y-3327500D01*
X14414500Y-3275500D01*
X14362500Y-3327500D01*
X14414500Y-3379500D01*
X17970500Y-3379500D02*
X18022500Y-3327500D01*
X17970500Y-3275500D01*
X17918500Y-3327500D01*
X17970500Y-3379500D01*
X18224500Y-3379500D02*
X18276500Y-3327500D01*
X18224500Y-3275500D01*
X18172500Y-3327500D01*
X18224500Y-3379500D01*
X14636750Y-5284500D02*
X14688750Y-5232500D01*
X14636750Y-5180500D01*
X14584750Y-5232500D01*
X14636750Y-5284500D01*
X14890750Y-5284500D02*
X14942750Y-5232500D01*
X14890750Y-5180500D01*
X14838750Y-5232500D01*
X14890750Y-5284500D01*
X1301750Y-5284500D02*
X1353750Y-5232500D01*
X1301750Y-5180500D01*
X1249750Y-5232500D01*
X1301750Y-5284500D01*
X1555750Y-5284500D02*
X1607750Y-5232500D01*
X1555750Y-5180500D01*
X1503750Y-5232500D01*
X1555750Y-5284500D01*
X14757500Y-7545000D02*
X14809500Y-7493000D01*
X14757500Y-7441000D01*
X14705500Y-7493000D01*
X14757500Y-7545000D01*
X14757500Y-7799000D02*
X14809500Y-7747000D01*
X14757500Y-7695000D01*
X14705500Y-7747000D01*
X14757500Y-7799000D01*
X22256750Y-5284500D02*
X22308750Y-5232500D01*
X22256750Y-5180500D01*
X22204750Y-5232500D01*
X22256750Y-5284500D01*
X22510750Y-5284500D02*
X22562750Y-5232500D01*
X22510750Y-5180500D01*
X22458750Y-5232500D01*
X22510750Y-5284500D01*
X825500Y-3379500D02*
X877500Y-3327500D01*
X825500Y-3275500D01*
X773500Y-3327500D01*
X825500Y-3379500D01*
X1079500Y-3379500D02*
X1131500Y-3327500D01*
X1079500Y-3275500D01*
X1027500Y-3327500D01*
X1079500Y-3379500D01*
X11779250Y-5284500D02*
X11831250Y-5232500D01*
X11779250Y-5180500D01*
X11727250Y-5232500D01*
X11779250Y-5284500D01*
X12033250Y-5284500D02*
X12085250Y-5232500D01*
X12033250Y-5180500D01*
X11981250Y-5232500D01*
X12033250Y-5284500D01*
X10947500Y-7545000D02*
X10999500Y-7493000D01*
X10947500Y-7441000D01*
X10895500Y-7493000D01*
X10947500Y-7545000D01*
X10947500Y-7799000D02*
X10999500Y-7747000D01*
X10947500Y-7695000D01*
X10895500Y-7747000D01*
X10947500Y-7799000D01*
X-1079500Y-9094500D02*
X-1027500Y-9042500D01*
X-1079500Y-8990500D01*
X-1131500Y-9042500D01*
X-1079500Y-9094500D01*
X-825500Y-9094500D02*
X-773500Y-9042500D01*
X-825500Y-8990500D01*
X-877500Y-9042500D01*
X-825500Y-9094500D01*
X25590500Y-3379500D02*
X25642500Y-3327500D01*
X25590500Y-3275500D01*
X25538500Y-3327500D01*
X25590500Y-3379500D01*
X25844500Y-3379500D02*
X25896500Y-3327500D01*
X25844500Y-3275500D01*
X25792500Y-3327500D01*
X25844500Y-3379500D01*
X9042500Y-7545000D02*
X9094500Y-7493000D01*
X9042500Y-7441000D01*
X8990500Y-7493000D01*
X9042500Y-7545000D01*
X9042500Y-7799000D02*
X9094500Y-7747000D01*
X9042500Y-7695000D01*
X8990500Y-7747000D01*
X9042500Y-7799000D01*
X-1079500Y-3379500D02*
X-1027500Y-3327500D01*
X-1079500Y-3275500D01*
X-1131500Y-3327500D01*
X-1079500Y-3379500D01*
X-825500Y-3379500D02*
X-773500Y-3327500D01*
X-825500Y-3275500D01*
X-877500Y-3327500D01*
X-825500Y-3379500D01*
X4635500Y-3379500D02*
X4687500Y-3327500D01*
X4635500Y-3275500D01*
X4583500Y-3327500D01*
X4635500Y-3379500D01*
X4889500Y-3379500D02*
X4941500Y-3327500D01*
X4889500Y-3275500D01*
X4837500Y-3327500D01*
X4889500Y-3379500D01*
X2730500Y-3379500D02*
X2782500Y-3327500D01*
X2730500Y-3275500D01*
X2678500Y-3327500D01*
X2730500Y-3379500D01*
X2984500Y-3379500D02*
X3036500Y-3327500D01*
X2984500Y-3275500D01*
X2932500Y-3327500D01*
X2984500Y-3379500D01*
X3327500Y-7545000D02*
X3379500Y-7493000D01*
X3327500Y-7441000D01*
X3275500Y-7493000D01*
X3327500Y-7545000D01*
X3327500Y-7799000D02*
X3379500Y-7747000D01*
X3327500Y-7695000D01*
X3275500Y-7747000D01*
X3327500Y-7799000D01*
X23685500Y-3379500D02*
X23737500Y-3327500D01*
X23685500Y-3275500D01*
X23633500Y-3327500D01*
X23685500Y-3379500D01*
X23939500Y-3379500D02*
X23991500Y-3327500D01*
X23939500Y-3275500D01*
X23887500Y-3327500D01*
X23939500Y-3379500D01*
X8921750Y-5284500D02*
X8973750Y-5232500D01*
X8921750Y-5180500D01*
X8869750Y-5232500D01*
X8921750Y-5284500D01*
X9175750Y-5284500D02*
X9227750Y-5232500D01*
X9175750Y-5180500D01*
X9123750Y-5232500D01*
X9175750Y-5284500D01*
X6540500Y-3379500D02*
X6592500Y-3327500D01*
X6540500Y-3275500D01*
X6488500Y-3327500D01*
X6540500Y-3379500D01*
X6794500Y-3379500D02*
X6846500Y-3327500D01*
X6794500Y-3275500D01*
X6742500Y-3327500D01*
X6794500Y-3379500D01*
X21780500Y-3379500D02*
X21832500Y-3327500D01*
X21780500Y-3275500D01*
X21728500Y-3327500D01*
X21780500Y-3379500D01*
X22034500Y-3379500D02*
X22086500Y-3327500D01*
X22034500Y-3275500D01*
X21982500Y-3327500D01*
X22034500Y-3379500D01*
X12255500Y-3379500D02*
X12307500Y-3327500D01*
X12255500Y-3275500D01*
X12203500Y-3327500D01*
X12255500Y-3379500D01*
X12509500Y-3379500D02*
X12561500Y-3327500D01*
X12509500Y-3275500D01*
X12457500Y-3327500D01*
X12509500Y-3379500D01*
X24282500Y-7545000D02*
X24334500Y-7493000D01*
X24282500Y-7441000D01*
X24230500Y-7493000D01*
X24282500Y-7545000D01*
X24282500Y-7799000D02*
X24334500Y-7747000D01*
X24282500Y-7695000D01*
X24230500Y-7747000D01*
X24282500Y-7799000D01*
X16662500Y-7545000D02*
X16714500Y-7493000D01*
X16662500Y-7441000D01*
X16610500Y-7493000D01*
X16662500Y-7545000D01*
X16662500Y-7799000D02*
X16714500Y-7747000D01*
X16662500Y-7695000D01*
X16610500Y-7747000D01*
X16662500Y-7799000D01*
X1422500Y-7545000D02*
X1474500Y-7493000D01*
X1422500Y-7441000D01*
X1370500Y-7493000D01*
X1422500Y-7545000D01*
X1422500Y-7799000D02*
X1474500Y-7747000D01*
X1422500Y-7695000D01*
X1370500Y-7747000D01*
X1422500Y-7799000D01*
X27440500Y1785375D02*
X27550500Y1675375D01*
X27550500Y1785375D02*
X27440500Y1675375D01*
X27550500Y1730375D02*
G75*
G03X27550500Y1730375I-55000J0D01*
G01*
X27440500Y1531375D02*
X27550500Y1421375D01*
X27550500Y1531375D02*
X27440500Y1421375D01*
X27550500Y1476375D02*
G75*
G03X27550500Y1476375I-55000J0D01*
G01*
X27440500Y1277375D02*
X27550500Y1167375D01*
X27550500Y1277375D02*
X27440500Y1167375D01*
X27550500Y1222375D02*
G75*
G03X27550500Y1222375I-55000J0D01*
G01*
X27440500Y1023375D02*
X27550500Y913375D01*
X27550500Y1023375D02*
X27440500Y913375D01*
X27550500Y968375D02*
G75*
G03X27550500Y968375I-55000J0D01*
G01*
X27440500Y769375D02*
X27550500Y659375D01*
X27550500Y769375D02*
X27440500Y659375D01*
X27550500Y714375D02*
G75*
G03X27550500Y714375I-55000J0D01*
G01*
X27440500Y515375D02*
X27550500Y405375D01*
X27550500Y515375D02*
X27440500Y405375D01*
X27550500Y460375D02*
G75*
G03X27550500Y460375I-55000J0D01*
G01*
X27440500Y261375D02*
X27550500Y151375D01*
X27550500Y261375D02*
X27440500Y151375D01*
X27550500Y206375D02*
G75*
G03X27550500Y206375I-55000J0D01*
G01*
X27440500Y7375D02*
X27550500Y-102625D01*
X27550500Y7375D02*
X27440500Y-102625D01*
X27550500Y-47625D02*
G75*
G03X27550500Y-47625I-55000J0D01*
G01*
X27440500Y-246625D02*
X27550500Y-356625D01*
X27550500Y-246625D02*
X27440500Y-356625D01*
X27550500Y-301625D02*
G75*
G03X27550500Y-301625I-55000J0D01*
G01*
X27440500Y-500625D02*
X27550500Y-610625D01*
X27550500Y-500625D02*
X27440500Y-610625D01*
X27550500Y-555625D02*
G75*
G03X27550500Y-555625I-55000J0D01*
G01*
X27440500Y-754625D02*
X27550500Y-864625D01*
X27550500Y-754625D02*
X27440500Y-864625D01*
X27550500Y-809625D02*
G75*
G03X27550500Y-809625I-55000J0D01*
G01*
X27440500Y-1008625D02*
X27550500Y-1118625D01*
X27550500Y-1008625D02*
X27440500Y-1118625D01*
X27550500Y-1063625D02*
G75*
G03X27550500Y-1063625I-55000J0D01*
G01*
X27440500Y-1262625D02*
X27550500Y-1372625D01*
X27550500Y-1262625D02*
X27440500Y-1372625D01*
X27550500Y-1317625D02*
G75*
G03X27550500Y-1317625I-55000J0D01*
G01*
X27440500Y-1516625D02*
X27550500Y-1626625D01*
X27550500Y-1516625D02*
X27440500Y-1626625D01*
X27550500Y-1571625D02*
G75*
G03X27550500Y-1571625I-55000J0D01*
G01*
X27440500Y-1770625D02*
X27550500Y-1880625D01*
X27550500Y-1770625D02*
X27440500Y-1880625D01*
X27550500Y-1825625D02*
G75*
G03X27550500Y-1825625I-55000J0D01*
G01*
X27440500Y-2024625D02*
X27550500Y-2134625D01*
X27550500Y-2024625D02*
X27440500Y-2134625D01*
X27550500Y-2079625D02*
G75*
G03X27550500Y-2079625I-55000J0D01*
G01*
X27440500Y-2278625D02*
X27550500Y-2388625D01*
X27550500Y-2278625D02*
X27440500Y-2388625D01*
X27550500Y-2333625D02*
G75*
G03X27550500Y-2333625I-55000J0D01*
G01*
X27440500Y-2532625D02*
X27550500Y-2642625D01*
X27550500Y-2532625D02*
X27440500Y-2642625D01*
X27550500Y-2587625D02*
G75*
G03X27550500Y-2587625I-55000J0D01*
G01*
X27440500Y-2786625D02*
X27550500Y-2896625D01*
X27550500Y-2786625D02*
X27440500Y-2896625D01*
X27550500Y-2841625D02*
G75*
G03X27550500Y-2841625I-55000J0D01*
G01*
X27440500Y-3040625D02*
X27550500Y-3150625D01*
X27550500Y-3040625D02*
X27440500Y-3150625D01*
X27550500Y-3095625D02*
G75*
G03X27550500Y-3095625I-55000J0D01*
G01*
X27440500Y-3294625D02*
X27550500Y-3404625D01*
X27550500Y-3294625D02*
X27440500Y-3404625D01*
X27550500Y-3349625D02*
G75*
G03X27550500Y-3349625I-55000J0D01*
G01*
X27440500Y-3548625D02*
X27550500Y-3658625D01*
X27550500Y-3548625D02*
X27440500Y-3658625D01*
X27550500Y-3603625D02*
G75*
G03X27550500Y-3603625I-55000J0D01*
G01*
X27440500Y-3802625D02*
X27550500Y-3912625D01*
X27550500Y-3802625D02*
X27440500Y-3912625D01*
X27550500Y-3857625D02*
G75*
G03X27550500Y-3857625I-55000J0D01*
G01*
X27440500Y-4056625D02*
X27550500Y-4166625D01*
X27550500Y-4056625D02*
X27440500Y-4166625D01*
X27550500Y-4111625D02*
G75*
G03X27550500Y-4111625I-55000J0D01*
G01*
X27694500Y-2786625D02*
X27804500Y-2896625D01*
X27804500Y-2786625D02*
X27694500Y-2896625D01*
X27804500Y-2841625D02*
G75*
G03X27804500Y-2841625I-55000J0D01*
G01*
X27745580Y1155455D02*
X27855580Y1045455D01*
X27855580Y1155455D02*
X27745580Y1045455D01*
X27855580Y1100455D02*
G75*
G03X27855580Y1100455I-55000J0D01*
G01*
X27745580Y901455D02*
X27855580Y791455D01*
X27855580Y901455D02*
X27745580Y791455D01*
X27855580Y846455D02*
G75*
G03X27855580Y846455I-55000J0D01*
G01*
X27745580Y647455D02*
X27855580Y537455D01*
X27855580Y647455D02*
X27745580Y537455D01*
X27855580Y592455D02*
G75*
G03X27855580Y592455I-55000J0D01*
G01*
X27745580Y393455D02*
X27855580Y283455D01*
X27855580Y393455D02*
X27745580Y283455D01*
X27855580Y338455D02*
G75*
G03X27855580Y338455I-55000J0D01*
G01*
X27745580Y139455D02*
X27855580Y29455D01*
X27855580Y139455D02*
X27745580Y29455D01*
X27855580Y84455D02*
G75*
G03X27855580Y84455I-55000J0D01*
G01*
X27948500Y-2786625D02*
X28058500Y-2896625D01*
X28058500Y-2786625D02*
X27948500Y-2896625D01*
X28058500Y-2841625D02*
G75*
G03X28058500Y-2841625I-55000J0D01*
G01*
X28202500Y-2786625D02*
X28312500Y-2896625D01*
X28312500Y-2786625D02*
X28202500Y-2896625D01*
X28312500Y-2841625D02*
G75*
G03X28312500Y-2841625I-55000J0D01*
G01*
X28456500Y-2786625D02*
X28566500Y-2896625D01*
X28566500Y-2786625D02*
X28456500Y-2896625D01*
X28566500Y-2841625D02*
G75*
G03X28566500Y-2841625I-55000J0D01*
G01*
X28710500Y1531375D02*
X28820500Y1421375D01*
X28820500Y1531375D02*
X28710500Y1421375D01*
X28820500Y1476375D02*
G75*
G03X28820500Y1476375I-55000J0D01*
G01*
X28710500Y-2786625D02*
X28820500Y-2896625D01*
X28820500Y-2786625D02*
X28710500Y-2896625D01*
X28820500Y-2841625D02*
G75*
G03X28820500Y-2841625I-55000J0D01*
G01*
X28964500Y1785375D02*
X29074500Y1675375D01*
X29074500Y1785375D02*
X28964500Y1675375D01*
X29074500Y1730375D02*
G75*
G03X29074500Y1730375I-55000J0D01*
G01*
X28964500Y1531375D02*
X29074500Y1421375D01*
X29074500Y1531375D02*
X28964500Y1421375D01*
X29074500Y1476375D02*
G75*
G03X29074500Y1476375I-55000J0D01*
G01*
X28964500Y1277375D02*
X29074500Y1167375D01*
X29074500Y1277375D02*
X28964500Y1167375D01*
X29074500Y1222375D02*
G75*
G03X29074500Y1222375I-55000J0D01*
G01*
X28964500Y1023375D02*
X29074500Y913375D01*
X29074500Y1023375D02*
X28964500Y913375D01*
X29074500Y968375D02*
G75*
G03X29074500Y968375I-55000J0D01*
G01*
X28964500Y769375D02*
X29074500Y659375D01*
X29074500Y769375D02*
X28964500Y659375D01*
X29074500Y714375D02*
G75*
G03X29074500Y714375I-55000J0D01*
G01*
X28964500Y515375D02*
X29074500Y405375D01*
X29074500Y515375D02*
X28964500Y405375D01*
X29074500Y460375D02*
G75*
G03X29074500Y460375I-55000J0D01*
G01*
X28964500Y261375D02*
X29074500Y151375D01*
X29074500Y261375D02*
X28964500Y151375D01*
X29074500Y206375D02*
G75*
G03X29074500Y206375I-55000J0D01*
G01*
X28964500Y7375D02*
X29074500Y-102625D01*
X29074500Y7375D02*
X28964500Y-102625D01*
X29074500Y-47625D02*
G75*
G03X29074500Y-47625I-55000J0D01*
G01*
X28964500Y-246625D02*
X29074500Y-356625D01*
X29074500Y-246625D02*
X28964500Y-356625D01*
X29074500Y-301625D02*
G75*
G03X29074500Y-301625I-55000J0D01*
G01*
X28964500Y-500625D02*
X29074500Y-610625D01*
X29074500Y-500625D02*
X28964500Y-610625D01*
X29074500Y-555625D02*
G75*
G03X29074500Y-555625I-55000J0D01*
G01*
X28964500Y-754625D02*
X29074500Y-864625D01*
X29074500Y-754625D02*
X28964500Y-864625D01*
X29074500Y-809625D02*
G75*
G03X29074500Y-809625I-55000J0D01*
G01*
X28964500Y-1008625D02*
X29074500Y-1118625D01*
X29074500Y-1008625D02*
X28964500Y-1118625D01*
X29074500Y-1063625D02*
G75*
G03X29074500Y-1063625I-55000J0D01*
G01*
X28964500Y-1262625D02*
X29074500Y-1372625D01*
X29074500Y-1262625D02*
X28964500Y-1372625D01*
X29074500Y-1317625D02*
G75*
G03X29074500Y-1317625I-55000J0D01*
G01*
X28964500Y-1516625D02*
X29074500Y-1626625D01*
X29074500Y-1516625D02*
X28964500Y-1626625D01*
X29074500Y-1571625D02*
G75*
G03X29074500Y-1571625I-55000J0D01*
G01*
X28964500Y-1770625D02*
X29074500Y-1880625D01*
X29074500Y-1770625D02*
X28964500Y-1880625D01*
X29074500Y-1825625D02*
G75*
G03X29074500Y-1825625I-55000J0D01*
G01*
X28964500Y-2024625D02*
X29074500Y-2134625D01*
X29074500Y-2024625D02*
X28964500Y-2134625D01*
X29074500Y-2079625D02*
G75*
G03X29074500Y-2079625I-55000J0D01*
G01*
X28964500Y-2278625D02*
X29074500Y-2388625D01*
X29074500Y-2278625D02*
X28964500Y-2388625D01*
X29074500Y-2333625D02*
G75*
G03X29074500Y-2333625I-55000J0D01*
G01*
X28964500Y-2532625D02*
X29074500Y-2642625D01*
X29074500Y-2532625D02*
X28964500Y-2642625D01*
X29074500Y-2587625D02*
G75*
G03X29074500Y-2587625I-55000J0D01*
G01*
X28964500Y-2786625D02*
X29074500Y-2896625D01*
X29074500Y-2786625D02*
X28964500Y-2896625D01*
X29074500Y-2841625D02*
G75*
G03X29074500Y-2841625I-55000J0D01*
G01*
X28964500Y-3040625D02*
X29074500Y-3150625D01*
X29074500Y-3040625D02*
X28964500Y-3150625D01*
X29074500Y-3095625D02*
G75*
G03X29074500Y-3095625I-55000J0D01*
G01*
X28964500Y-3294625D02*
X29074500Y-3404625D01*
X29074500Y-3294625D02*
X28964500Y-3404625D01*
X29074500Y-3349625D02*
G75*
G03X29074500Y-3349625I-55000J0D01*
G01*
X28964500Y-3548625D02*
X29074500Y-3658625D01*
X29074500Y-3548625D02*
X28964500Y-3658625D01*
X29074500Y-3603625D02*
G75*
G03X29074500Y-3603625I-55000J0D01*
G01*
X28964500Y-3802625D02*
X29074500Y-3912625D01*
X29074500Y-3802625D02*
X28964500Y-3912625D01*
X29074500Y-3857625D02*
G75*
G03X29074500Y-3857625I-55000J0D01*
G01*
X28964500Y-4056625D02*
X29074500Y-4166625D01*
X29074500Y-4056625D02*
X28964500Y-4166625D01*
X29074500Y-4111625D02*
G75*
G03X29074500Y-4111625I-55000J0D01*
G01*
X6131250Y-4112500D02*
X6251250Y-4232500D01*
X6251250Y-4112500D02*
X6131250Y-4232500D01*
X6191250Y-4112500D02*
X6191250Y-4232500D01*
X6131250Y-4172500D02*
X6251250Y-4172500D01*
X6631250Y-4322500D02*
X6751250Y-4442500D01*
X6751250Y-4322500D02*
X6631250Y-4442500D01*
X6691250Y-4322500D02*
X6691250Y-4442500D01*
X6631250Y-4382500D02*
X6751250Y-4382500D01*
X6017500Y-7560000D02*
X6137500Y-7680000D01*
X6137500Y-7560000D02*
X6017500Y-7680000D01*
X6077500Y-7560000D02*
X6077500Y-7680000D01*
X6017500Y-7620000D02*
X6137500Y-7620000D01*
X6227500Y-7060000D02*
X6347500Y-7180000D01*
X6347500Y-7060000D02*
X6227500Y-7180000D01*
X6287500Y-7060000D02*
X6287500Y-7180000D01*
X6227500Y-7120000D02*
X6347500Y-7120000D01*
X-1012500Y-4112500D02*
X-892500Y-4232500D01*
X-892500Y-4112500D02*
X-1012500Y-4232500D01*
X-952500Y-4112500D02*
X-952500Y-4232500D01*
X-1012500Y-4172500D02*
X-892500Y-4172500D01*
X-512500Y-4322500D02*
X-392500Y-4442500D01*
X-392500Y-4322500D02*
X-512500Y-4442500D01*
X-452500Y-4322500D02*
X-452500Y-4442500D01*
X-512500Y-4382500D02*
X-392500Y-4382500D01*
X19352500Y-7560000D02*
X19472500Y-7680000D01*
X19472500Y-7560000D02*
X19352500Y-7680000D01*
X19412500Y-7560000D02*
X19412500Y-7680000D01*
X19352500Y-7620000D02*
X19472500Y-7620000D01*
X19562500Y-7060000D02*
X19682500Y-7180000D01*
X19682500Y-7060000D02*
X19562500Y-7180000D01*
X19622500Y-7060000D02*
X19622500Y-7180000D01*
X19562500Y-7120000D02*
X19682500Y-7120000D01*
X16132500Y-2207500D02*
X16252500Y-2327500D01*
X16252500Y-2207500D02*
X16132500Y-2327500D01*
X16192500Y-2207500D02*
X16192500Y-2327500D01*
X16132500Y-2267500D02*
X16252500Y-2267500D01*
X16632500Y-2417500D02*
X16752500Y-2537500D01*
X16752500Y-2417500D02*
X16632500Y-2537500D01*
X16692500Y-2417500D02*
X16692500Y-2537500D01*
X16632500Y-2477500D02*
X16752500Y-2477500D01*
X21257500Y-7560000D02*
X21377500Y-7680000D01*
X21377500Y-7560000D02*
X21257500Y-7680000D01*
X21317500Y-7560000D02*
X21317500Y-7680000D01*
X21257500Y-7620000D02*
X21377500Y-7620000D01*
X21467500Y-7060000D02*
X21587500Y-7180000D01*
X21587500Y-7060000D02*
X21467500Y-7180000D01*
X21527500Y-7060000D02*
X21527500Y-7180000D01*
X21467500Y-7120000D02*
X21587500Y-7120000D01*
X11732500Y-7560000D02*
X11852500Y-7680000D01*
X11852500Y-7560000D02*
X11732500Y-7680000D01*
X11792500Y-7560000D02*
X11792500Y-7680000D01*
X11732500Y-7620000D02*
X11852500Y-7620000D01*
X11942500Y-7060000D02*
X12062500Y-7180000D01*
X12062500Y-7060000D02*
X11942500Y-7180000D01*
X12002500Y-7060000D02*
X12002500Y-7180000D01*
X11942500Y-7120000D02*
X12062500Y-7120000D01*
X-1012500Y-6017500D02*
X-892500Y-6137500D01*
X-892500Y-6017500D02*
X-1012500Y-6137500D01*
X-952500Y-6017500D02*
X-952500Y-6137500D01*
X-1012500Y-6077500D02*
X-892500Y-6077500D01*
X-512500Y-6227500D02*
X-392500Y-6347500D01*
X-392500Y-6227500D02*
X-512500Y-6347500D01*
X-452500Y-6227500D02*
X-452500Y-6347500D01*
X-512500Y-6287500D02*
X-392500Y-6287500D01*
X4112500Y-7560000D02*
X4232500Y-7680000D01*
X4232500Y-7560000D02*
X4112500Y-7680000D01*
X4172500Y-7560000D02*
X4172500Y-7680000D01*
X4112500Y-7620000D02*
X4232500Y-7620000D01*
X4322500Y-7060000D02*
X4442500Y-7180000D01*
X4442500Y-7060000D02*
X4322500Y-7180000D01*
X4382500Y-7060000D02*
X4382500Y-7180000D01*
X4322500Y-7120000D02*
X4442500Y-7120000D01*
X3750000Y-4112500D02*
X3870000Y-4232500D01*
X3870000Y-4112500D02*
X3750000Y-4232500D01*
X3810000Y-4112500D02*
X3810000Y-4232500D01*
X3750000Y-4172500D02*
X3870000Y-4172500D01*
X4250000Y-4322500D02*
X4370000Y-4442500D01*
X4370000Y-4322500D02*
X4250000Y-4442500D01*
X4310000Y-4322500D02*
X4310000Y-4442500D01*
X4250000Y-4382500D02*
X4370000Y-4382500D01*
X19942500Y-2207500D02*
X20062500Y-2327500D01*
X20062500Y-2207500D02*
X19942500Y-2327500D01*
X20002500Y-2207500D02*
X20002500Y-2327500D01*
X19942500Y-2267500D02*
X20062500Y-2267500D01*
X20442500Y-2417500D02*
X20562500Y-2537500D01*
X20562500Y-2417500D02*
X20442500Y-2537500D01*
X20502500Y-2417500D02*
X20502500Y-2537500D01*
X20442500Y-2477500D02*
X20562500Y-2477500D01*
X10417500Y-2207500D02*
X10537500Y-2327500D01*
X10537500Y-2207500D02*
X10417500Y-2327500D01*
X10477500Y-2207500D02*
X10477500Y-2327500D01*
X10417500Y-2267500D02*
X10537500Y-2267500D01*
X10917500Y-2417500D02*
X11037500Y-2537500D01*
X11037500Y-2417500D02*
X10917500Y-2537500D01*
X10977500Y-2417500D02*
X10977500Y-2537500D01*
X10917500Y-2477500D02*
X11037500Y-2477500D01*
X25181250Y-4112500D02*
X25301250Y-4232500D01*
X25301250Y-4112500D02*
X25181250Y-4232500D01*
X25241250Y-4112500D02*
X25241250Y-4232500D01*
X25181250Y-4172500D02*
X25301250Y-4172500D01*
X25681250Y-4322500D02*
X25801250Y-4442500D01*
X25801250Y-4322500D02*
X25681250Y-4442500D01*
X25741250Y-4322500D02*
X25741250Y-4442500D01*
X25681250Y-4382500D02*
X25801250Y-4382500D01*
X14227500Y-2207500D02*
X14347500Y-2327500D01*
X14347500Y-2207500D02*
X14227500Y-2327500D01*
X14287500Y-2207500D02*
X14287500Y-2327500D01*
X14227500Y-2267500D02*
X14347500Y-2267500D01*
X14727500Y-2417500D02*
X14847500Y-2537500D01*
X14847500Y-2417500D02*
X14727500Y-2537500D01*
X14787500Y-2417500D02*
X14787500Y-2537500D01*
X14727500Y-2477500D02*
X14847500Y-2477500D01*
X18037500Y-2207500D02*
X18157500Y-2327500D01*
X18157500Y-2207500D02*
X18037500Y-2327500D01*
X18097500Y-2207500D02*
X18097500Y-2327500D01*
X18037500Y-2267500D02*
X18157500Y-2267500D01*
X18537500Y-2417500D02*
X18657500Y-2537500D01*
X18657500Y-2417500D02*
X18537500Y-2537500D01*
X18597500Y-2417500D02*
X18597500Y-2537500D01*
X18537500Y-2477500D02*
X18657500Y-2477500D01*
X14703750Y-4112500D02*
X14823750Y-4232500D01*
X14823750Y-4112500D02*
X14703750Y-4232500D01*
X14763750Y-4112500D02*
X14763750Y-4232500D01*
X14703750Y-4172500D02*
X14823750Y-4172500D01*
X15203750Y-4322500D02*
X15323750Y-4442500D01*
X15323750Y-4322500D02*
X15203750Y-4442500D01*
X15263750Y-4322500D02*
X15263750Y-4442500D01*
X15203750Y-4382500D02*
X15323750Y-4382500D01*
X1368750Y-4112500D02*
X1488750Y-4232500D01*
X1488750Y-4112500D02*
X1368750Y-4232500D01*
X1428750Y-4112500D02*
X1428750Y-4232500D01*
X1368750Y-4172500D02*
X1488750Y-4172500D01*
X1868750Y-4322500D02*
X1988750Y-4442500D01*
X1988750Y-4322500D02*
X1868750Y-4442500D01*
X1928750Y-4322500D02*
X1928750Y-4442500D01*
X1868750Y-4382500D02*
X1988750Y-4382500D01*
X13637500Y-7560000D02*
X13757500Y-7680000D01*
X13757500Y-7560000D02*
X13637500Y-7680000D01*
X13697500Y-7560000D02*
X13697500Y-7680000D01*
X13637500Y-7620000D02*
X13757500Y-7620000D01*
X13847500Y-7060000D02*
X13967500Y-7180000D01*
X13967500Y-7060000D02*
X13847500Y-7180000D01*
X13907500Y-7060000D02*
X13907500Y-7180000D01*
X13847500Y-7120000D02*
X13967500Y-7120000D01*
X22323750Y-4112500D02*
X22443750Y-4232500D01*
X22443750Y-4112500D02*
X22323750Y-4232500D01*
X22383750Y-4112500D02*
X22383750Y-4232500D01*
X22323750Y-4172500D02*
X22443750Y-4172500D01*
X22823750Y-4322500D02*
X22943750Y-4442500D01*
X22943750Y-4322500D02*
X22823750Y-4442500D01*
X22883750Y-4322500D02*
X22883750Y-4442500D01*
X22823750Y-4382500D02*
X22943750Y-4382500D01*
X892500Y-2207500D02*
X1012500Y-2327500D01*
X1012500Y-2207500D02*
X892500Y-2327500D01*
X952500Y-2207500D02*
X952500Y-2327500D01*
X892500Y-2267500D02*
X1012500Y-2267500D01*
X1392500Y-2417500D02*
X1512500Y-2537500D01*
X1512500Y-2417500D02*
X1392500Y-2537500D01*
X1452500Y-2417500D02*
X1452500Y-2537500D01*
X1392500Y-2477500D02*
X1512500Y-2477500D01*
X11846250Y-4112500D02*
X11966250Y-4232500D01*
X11966250Y-4112500D02*
X11846250Y-4232500D01*
X11906250Y-4112500D02*
X11906250Y-4232500D01*
X11846250Y-4172500D02*
X11966250Y-4172500D01*
X12346250Y-4322500D02*
X12466250Y-4442500D01*
X12466250Y-4322500D02*
X12346250Y-4442500D01*
X12406250Y-4322500D02*
X12406250Y-4442500D01*
X12346250Y-4382500D02*
X12466250Y-4382500D01*
X9827500Y-7560000D02*
X9947500Y-7680000D01*
X9947500Y-7560000D02*
X9827500Y-7680000D01*
X9887500Y-7560000D02*
X9887500Y-7680000D01*
X9827500Y-7620000D02*
X9947500Y-7620000D01*
X10037500Y-7060000D02*
X10157500Y-7180000D01*
X10157500Y-7060000D02*
X10037500Y-7180000D01*
X10097500Y-7060000D02*
X10097500Y-7180000D01*
X10037500Y-7120000D02*
X10157500Y-7120000D01*
X-1012500Y-7922500D02*
X-892500Y-8042500D01*
X-892500Y-7922500D02*
X-1012500Y-8042500D01*
X-952500Y-7922500D02*
X-952500Y-8042500D01*
X-1012500Y-7982500D02*
X-892500Y-7982500D01*
X-512500Y-8132500D02*
X-392500Y-8252500D01*
X-392500Y-8132500D02*
X-512500Y-8252500D01*
X-452500Y-8132500D02*
X-452500Y-8252500D01*
X-512500Y-8192500D02*
X-392500Y-8192500D01*
X25657500Y-2207500D02*
X25777500Y-2327500D01*
X25777500Y-2207500D02*
X25657500Y-2327500D01*
X25717500Y-2207500D02*
X25717500Y-2327500D01*
X25657500Y-2267500D02*
X25777500Y-2267500D01*
X26157500Y-2417500D02*
X26277500Y-2537500D01*
X26277500Y-2417500D02*
X26157500Y-2537500D01*
X26217500Y-2417500D02*
X26217500Y-2537500D01*
X26157500Y-2477500D02*
X26277500Y-2477500D01*
X7922500Y-7560000D02*
X8042500Y-7680000D01*
X8042500Y-7560000D02*
X7922500Y-7680000D01*
X7982500Y-7560000D02*
X7982500Y-7680000D01*
X7922500Y-7620000D02*
X8042500Y-7620000D01*
X8132500Y-7060000D02*
X8252500Y-7180000D01*
X8252500Y-7060000D02*
X8132500Y-7180000D01*
X8192500Y-7060000D02*
X8192500Y-7180000D01*
X8132500Y-7120000D02*
X8252500Y-7120000D01*
X-1012500Y-2207500D02*
X-892500Y-2327500D01*
X-892500Y-2207500D02*
X-1012500Y-2327500D01*
X-952500Y-2207500D02*
X-952500Y-2327500D01*
X-1012500Y-2267500D02*
X-892500Y-2267500D01*
X-512500Y-2417500D02*
X-392500Y-2537500D01*
X-392500Y-2417500D02*
X-512500Y-2537500D01*
X-452500Y-2417500D02*
X-452500Y-2537500D01*
X-512500Y-2477500D02*
X-392500Y-2477500D01*
X4702500Y-2207500D02*
X4822500Y-2327500D01*
X4822500Y-2207500D02*
X4702500Y-2327500D01*
X4762500Y-2207500D02*
X4762500Y-2327500D01*
X4702500Y-2267500D02*
X4822500Y-2267500D01*
X5202500Y-2417500D02*
X5322500Y-2537500D01*
X5322500Y-2417500D02*
X5202500Y-2537500D01*
X5262500Y-2417500D02*
X5262500Y-2537500D01*
X5202500Y-2477500D02*
X5322500Y-2477500D01*
X2797500Y-2207500D02*
X2917500Y-2327500D01*
X2917500Y-2207500D02*
X2797500Y-2327500D01*
X2857500Y-2207500D02*
X2857500Y-2327500D01*
X2797500Y-2267500D02*
X2917500Y-2267500D01*
X3297500Y-2417500D02*
X3417500Y-2537500D01*
X3417500Y-2417500D02*
X3297500Y-2537500D01*
X3357500Y-2417500D02*
X3357500Y-2537500D01*
X3297500Y-2477500D02*
X3417500Y-2477500D01*
X2207500Y-7560000D02*
X2327500Y-7680000D01*
X2327500Y-7560000D02*
X2207500Y-7680000D01*
X2267500Y-7560000D02*
X2267500Y-7680000D01*
X2207500Y-7620000D02*
X2327500Y-7620000D01*
X2417500Y-7060000D02*
X2537500Y-7180000D01*
X2537500Y-7060000D02*
X2417500Y-7180000D01*
X2477500Y-7060000D02*
X2477500Y-7180000D01*
X2417500Y-7120000D02*
X2537500Y-7120000D01*
X23752500Y-2207500D02*
X23872500Y-2327500D01*
X23872500Y-2207500D02*
X23752500Y-2327500D01*
X23812500Y-2207500D02*
X23812500Y-2327500D01*
X23752500Y-2267500D02*
X23872500Y-2267500D01*
X24252500Y-2417500D02*
X24372500Y-2537500D01*
X24372500Y-2417500D02*
X24252500Y-2537500D01*
X24312500Y-2417500D02*
X24312500Y-2537500D01*
X24252500Y-2477500D02*
X24372500Y-2477500D01*
X8988750Y-4112500D02*
X9108750Y-4232500D01*
X9108750Y-4112500D02*
X8988750Y-4232500D01*
X9048750Y-4112500D02*
X9048750Y-4232500D01*
X8988750Y-4172500D02*
X9108750Y-4172500D01*
X9488750Y-4322500D02*
X9608750Y-4442500D01*
X9608750Y-4322500D02*
X9488750Y-4442500D01*
X9548750Y-4322500D02*
X9548750Y-4442500D01*
X9488750Y-4382500D02*
X9608750Y-4382500D01*
X6607500Y-2207500D02*
X6727500Y-2327500D01*
X6727500Y-2207500D02*
X6607500Y-2327500D01*
X6667500Y-2207500D02*
X6667500Y-2327500D01*
X6607500Y-2267500D02*
X6727500Y-2267500D01*
X7107500Y-2417500D02*
X7227500Y-2537500D01*
X7227500Y-2417500D02*
X7107500Y-2537500D01*
X7167500Y-2417500D02*
X7167500Y-2537500D01*
X7107500Y-2477500D02*
X7227500Y-2477500D01*
X21847500Y-2207500D02*
X21967500Y-2327500D01*
X21967500Y-2207500D02*
X21847500Y-2327500D01*
X21907500Y-2207500D02*
X21907500Y-2327500D01*
X21847500Y-2267500D02*
X21967500Y-2267500D01*
X22347500Y-2417500D02*
X22467500Y-2537500D01*
X22467500Y-2417500D02*
X22347500Y-2537500D01*
X22407500Y-2417500D02*
X22407500Y-2537500D01*
X22347500Y-2477500D02*
X22467500Y-2477500D01*
X12322500Y-2207500D02*
X12442500Y-2327500D01*
X12442500Y-2207500D02*
X12322500Y-2327500D01*
X12382500Y-2207500D02*
X12382500Y-2327500D01*
X12322500Y-2267500D02*
X12442500Y-2267500D01*
X12822500Y-2417500D02*
X12942500Y-2537500D01*
X12942500Y-2417500D02*
X12822500Y-2537500D01*
X12882500Y-2417500D02*
X12882500Y-2537500D01*
X12822500Y-2477500D02*
X12942500Y-2477500D01*
X23162500Y-7560000D02*
X23282500Y-7680000D01*
X23282500Y-7560000D02*
X23162500Y-7680000D01*
X23222500Y-7560000D02*
X23222500Y-7680000D01*
X23162500Y-7620000D02*
X23282500Y-7620000D01*
X23372500Y-7060000D02*
X23492500Y-7180000D01*
X23492500Y-7060000D02*
X23372500Y-7180000D01*
X23432500Y-7060000D02*
X23432500Y-7180000D01*
X23372500Y-7120000D02*
X23492500Y-7120000D01*
X15542500Y-7560000D02*
X15662500Y-7680000D01*
X15662500Y-7560000D02*
X15542500Y-7680000D01*
X15602500Y-7560000D02*
X15602500Y-7680000D01*
X15542500Y-7620000D02*
X15662500Y-7620000D01*
X15752500Y-7060000D02*
X15872500Y-7180000D01*
X15872500Y-7060000D02*
X15752500Y-7180000D01*
X15812500Y-7060000D02*
X15812500Y-7180000D01*
X15752500Y-7120000D02*
X15872500Y-7120000D01*
X302500Y-7560000D02*
X422500Y-7680000D01*
X422500Y-7560000D02*
X302500Y-7680000D01*
X362500Y-7560000D02*
X362500Y-7680000D01*
X302500Y-7620000D02*
X422500Y-7620000D01*
X512500Y-7060000D02*
X632500Y-7180000D01*
X632500Y-7060000D02*
X512500Y-7180000D01*
X572500Y-7060000D02*
X572500Y-7180000D01*
X512500Y-7120000D02*
X632500Y-7120000D01*
X17447500Y-7560000D02*
X17567500Y-7680000D01*
X17567500Y-7560000D02*
X17447500Y-7680000D01*
X17507500Y-7560000D02*
X17507500Y-7680000D01*
X17447500Y-7620000D02*
X17567500Y-7620000D01*
X17657500Y-7060000D02*
X17777500Y-7180000D01*
X17777500Y-7060000D02*
X17657500Y-7180000D01*
X17717500Y-7060000D02*
X17717500Y-7180000D01*
X17657500Y-7120000D02*
X17777500Y-7120000D01*
X8512500Y-2207500D02*
X8632500Y-2327500D01*
X8632500Y-2207500D02*
X8512500Y-2327500D01*
X8572500Y-2207500D02*
X8572500Y-2327500D01*
X8512500Y-2267500D02*
X8632500Y-2267500D01*
X9012500Y-2417500D02*
X9132500Y-2537500D01*
X9132500Y-2417500D02*
X9012500Y-2537500D01*
X9072500Y-2417500D02*
X9072500Y-2537500D01*
X9012500Y-2477500D02*
X9132500Y-2477500D01*
X4702500Y-302500D02*
X4822500Y-422500D01*
X4822500Y-302500D02*
X4702500Y-422500D01*
X4762500Y-302500D02*
X4762500Y-422500D01*
X4702500Y-362500D02*
X4822500Y-362500D01*
X5202500Y-512500D02*
X5322500Y-632500D01*
X5322500Y-512500D02*
X5202500Y-632500D01*
X5262500Y-512500D02*
X5262500Y-632500D01*
X5202500Y-572500D02*
X5322500Y-572500D01*
X19466250Y-4112500D02*
X19586250Y-4232500D01*
X19586250Y-4112500D02*
X19466250Y-4232500D01*
X19526250Y-4112500D02*
X19526250Y-4232500D01*
X19466250Y-4172500D02*
X19586250Y-4172500D01*
X19966250Y-4322500D02*
X20086250Y-4442500D01*
X20086250Y-4322500D02*
X19966250Y-4442500D01*
X20026250Y-4322500D02*
X20026250Y-4442500D01*
X19966250Y-4382500D02*
X20086250Y-4382500D01*
X2797500Y-302500D02*
X2917500Y-422500D01*
X2917500Y-302500D02*
X2797500Y-422500D01*
X2857500Y-302500D02*
X2857500Y-422500D01*
X2797500Y-362500D02*
X2917500Y-362500D01*
X3297500Y-512500D02*
X3417500Y-632500D01*
X3417500Y-512500D02*
X3297500Y-632500D01*
X3357500Y-512500D02*
X3357500Y-632500D01*
X3297500Y-572500D02*
X3417500Y-572500D01*
X17085000Y-4112500D02*
X17205000Y-4232500D01*
X17205000Y-4112500D02*
X17085000Y-4232500D01*
X17145000Y-4112500D02*
X17145000Y-4232500D01*
X17085000Y-4172500D02*
X17205000Y-4172500D01*
X17585000Y-4322500D02*
X17705000Y-4442500D01*
X17705000Y-4322500D02*
X17585000Y-4442500D01*
X17645000Y-4322500D02*
X17645000Y-4442500D01*
X17585000Y-4382500D02*
X17705000Y-4382500D01*
X25067500Y-7560000D02*
X25187500Y-7680000D01*
X25187500Y-7560000D02*
X25067500Y-7680000D01*
X25127500Y-7560000D02*
X25127500Y-7680000D01*
X25067500Y-7620000D02*
X25187500Y-7620000D01*
X25277500Y-7060000D02*
X25397500Y-7180000D01*
X25397500Y-7060000D02*
X25277500Y-7180000D01*
X25337500Y-7060000D02*
X25337500Y-7180000D01*
X25277500Y-7120000D02*
X25397500Y-7120000D01*
X24690192Y634936D02*
X24840192Y484936D01*
X24840192Y634936D02*
X24690192Y484936D01*
X24818225Y506902D02*
X24818225Y612970D01*
X24712158Y612970D01*
X24712158Y506902D01*
X24818225Y506902D01*
X24700192Y494936D02*
X24830192Y494936D01*
X24700192Y624936D02*
X24830192Y624936D01*
X24830192Y494936D02*
G75*
G03X24830192Y624936I0J65000D01*
G01*
X24700192Y624936D02*
G75*
G03X24700192Y494936I0J-65000D01*
G01*
X24690192Y-485064D02*
X24840192Y-635064D01*
X24840192Y-485064D02*
X24690192Y-635064D01*
X24818225Y-613098D02*
X24818225Y-507030D01*
X24712158Y-507030D01*
X24712158Y-613098D01*
X24818225Y-613098D01*
X24700192Y-625064D02*
X24830192Y-625064D01*
X24700192Y-495064D02*
X24830192Y-495064D01*
X24830192Y-625064D02*
G75*
G03X24830192Y-495064I0J65000D01*
G01*
X24700192Y-495064D02*
G75*
G03X24700192Y-625064I0J-65000D01*
G01*
X20880192Y634936D02*
X21030192Y484936D01*
X21030192Y634936D02*
X20880192Y484936D01*
X21008226Y506902D02*
X21008226Y612970D01*
X20902159Y612970D01*
X20902159Y506902D01*
X21008226Y506902D01*
X20890192Y494936D02*
X21020192Y494936D01*
X20890192Y624936D02*
X21020192Y624936D01*
X21020192Y494936D02*
G75*
G03X21020192Y624936I0J65000D01*
G01*
X20890192Y624936D02*
G75*
G03X20890192Y494936I0J-65000D01*
G01*
X20880192Y-485064D02*
X21030192Y-635064D01*
X21030192Y-485064D02*
X20880192Y-635064D01*
X21008226Y-613098D02*
X21008226Y-507030D01*
X20902159Y-507030D01*
X20902159Y-613098D01*
X21008226Y-613098D01*
X20890192Y-625064D02*
X21020192Y-625064D01*
X20890192Y-495064D02*
X21020192Y-495064D01*
X21020192Y-625064D02*
G75*
G03X21020192Y-495064I0J65000D01*
G01*
X20890192Y-495064D02*
G75*
G03X20890192Y-625064I0J-65000D01*
G01*
X17070192Y634936D02*
X17220192Y484936D01*
X17220192Y634936D02*
X17070192Y484936D01*
X17198226Y506902D02*
X17198226Y612970D01*
X17092159Y612970D01*
X17092159Y506902D01*
X17198226Y506902D01*
X17080192Y494936D02*
X17210192Y494936D01*
X17080192Y624936D02*
X17210192Y624936D01*
X17210192Y494936D02*
G75*
G03X17210192Y624936I0J65000D01*
G01*
X17080192Y624936D02*
G75*
G03X17080192Y494936I0J-65000D01*
G01*
X17070192Y-485064D02*
X17220192Y-635064D01*
X17220192Y-485064D02*
X17070192Y-635064D01*
X17198226Y-613098D02*
X17198226Y-507030D01*
X17092159Y-507030D01*
X17092159Y-613098D01*
X17198226Y-613098D01*
X17080192Y-625064D02*
X17210192Y-625064D01*
X17080192Y-495064D02*
X17210192Y-495064D01*
X17210192Y-625064D02*
G75*
G03X17210192Y-495064I0J65000D01*
G01*
X17080192Y-495064D02*
G75*
G03X17080192Y-625064I0J-65000D01*
G01*
X13260192Y634936D02*
X13410192Y484936D01*
X13410192Y634936D02*
X13260192Y484936D01*
X13388225Y506902D02*
X13388225Y612970D01*
X13282158Y612970D01*
X13282158Y506902D01*
X13388225Y506902D01*
X13270192Y494936D02*
X13400192Y494936D01*
X13270192Y624936D02*
X13400192Y624936D01*
X13400192Y494936D02*
G75*
G03X13400192Y624936I0J65000D01*
G01*
X13270192Y624936D02*
G75*
G03X13270192Y494936I0J-65000D01*
G01*
X13260192Y-485064D02*
X13410192Y-635064D01*
X13410192Y-485064D02*
X13260192Y-635064D01*
X13388225Y-613098D02*
X13388225Y-507030D01*
X13282158Y-507030D01*
X13282158Y-613098D01*
X13388225Y-613098D01*
X13270192Y-625064D02*
X13400192Y-625064D01*
X13270192Y-495064D02*
X13400192Y-495064D01*
X13400192Y-625064D02*
G75*
G03X13400192Y-495064I0J65000D01*
G01*
X13270192Y-495064D02*
G75*
G03X13270192Y-625064I0J-65000D01*
G01*
X2782692Y1587436D02*
X2932692Y1437436D01*
X2932692Y1587436D02*
X2782692Y1437436D01*
X2910725Y1459402D02*
X2910725Y1565469D01*
X2804658Y1565469D01*
X2804658Y1459402D01*
X2910725Y1459402D01*
X2792692Y1447436D02*
X2922692Y1447436D01*
X2792692Y1577436D02*
X2922692Y1577436D01*
X2922692Y1447436D02*
G75*
G03X2922692Y1577436I0J65000D01*
G01*
X2792692Y1577436D02*
G75*
G03X2792692Y1447436I0J-65000D01*
G01*
X2782692Y467436D02*
X2932692Y317436D01*
X2932692Y467436D02*
X2782692Y317436D01*
X2910725Y339403D02*
X2910725Y445469D01*
X2804658Y445469D01*
X2804658Y339403D01*
X2910725Y339403D01*
X2792692Y327436D02*
X2922692Y327436D01*
X2792692Y457436D02*
X2922692Y457436D01*
X2922692Y327436D02*
G75*
G03X2922692Y457436I0J65000D01*
G01*
X2792692Y457436D02*
G75*
G03X2792692Y327436I0J-65000D01*
G01*
D12*
X-1621071Y-9993214D02*
X-1621071Y-9693214D01*
X-1549643Y-9693214D01*
X-1506786Y-9707500D01*
X-1478214Y-9736072D01*
X-1463929Y-9764643D01*
X-1449643Y-9821786D01*
X-1449643Y-9864643D01*
X-1463929Y-9921786D01*
X-1478214Y-9950357D01*
X-1506786Y-9978929D01*
X-1549643Y-9993214D01*
X-1621071Y-9993214D01*
X-1321072Y-9993214D02*
X-1321072Y-9793214D01*
X-1321072Y-9850357D02*
X-1306786Y-9821786D01*
X-1292500Y-9807500D01*
X-1263929Y-9793214D01*
X-1235357Y-9793214D01*
X-1135357Y-9993214D02*
X-1135357Y-9793214D01*
X-1135357Y-9693214D02*
X-1149643Y-9707500D01*
X-1135357Y-9721786D01*
X-1121072Y-9707500D01*
X-1135357Y-9693214D01*
X-1135357Y-9721786D01*
X-949643Y-9993214D02*
X-978214Y-9978929D01*
X-992500Y-9950357D01*
X-992500Y-9693214D01*
X-792500Y-9993214D02*
X-821071Y-9978929D01*
X-835357Y-9950357D01*
X-835357Y-9693214D01*
X-449643Y-9993214D02*
X-449643Y-9693214D01*
X-349643Y-9907500D01*
X-249643Y-9693214D01*
X-249643Y-9993214D01*
X21786Y-9993214D02*
X21786Y-9836072D01*
X7500Y-9807500D01*
X-21072Y-9793214D01*
X-78214Y-9793214D01*
X-106786Y-9807500D01*
X21786Y-9978929D02*
X-6786Y-9993214D01*
X-78214Y-9993214D01*
X-106786Y-9978929D01*
X-121071Y-9950357D01*
X-121071Y-9921786D01*
X-106786Y-9893214D01*
X-78214Y-9878929D01*
X-6786Y-9878929D01*
X21786Y-9864643D01*
X164643Y-9793214D02*
X164643Y-10093214D01*
X164643Y-9807500D02*
X193214Y-9793214D01*
X250357Y-9793214D01*
X278928Y-9807500D01*
X293214Y-9821786D01*
X307500Y-9850357D01*
X307500Y-9936072D01*
X293214Y-9964643D01*
X278928Y-9978929D01*
X250357Y-9993214D01*
X193214Y-9993214D01*
X164643Y-9978929D01*
X436071Y-9964643D02*
X450357Y-9978929D01*
X436071Y-9993214D01*
X421786Y-9978929D01*
X436071Y-9964643D01*
X436071Y-9993214D01*
X436071Y-9807500D02*
X450357Y-9821786D01*
X436071Y-9836072D01*
X421786Y-9821786D01*
X436071Y-9807500D01*
X436071Y-9836072D01*
X-1947500Y-10467500D02*
X-1907500Y-10507500D01*
X-1907500Y-10467500D02*
X-1947500Y-10507500D01*
X-1563929Y-10323214D02*
X-1535357Y-10323214D01*
X-1506786Y-10337500D01*
X-1492500Y-10351786D01*
X-1478214Y-10380357D01*
X-1463929Y-10437500D01*
X-1463929Y-10508929D01*
X-1478214Y-10566072D01*
X-1492500Y-10594643D01*
X-1506786Y-10608929D01*
X-1535357Y-10623214D01*
X-1563929Y-10623214D01*
X-1592500Y-10608929D01*
X-1606786Y-10594643D01*
X-1621071Y-10566072D01*
X-1635357Y-10508929D01*
X-1635357Y-10437500D01*
X-1621071Y-10380357D01*
X-1606786Y-10351786D01*
X-1592500Y-10337500D01*
X-1563929Y-10323214D01*
X-1335357Y-10594643D02*
X-1321072Y-10608929D01*
X-1335357Y-10623214D01*
X-1349643Y-10608929D01*
X-1335357Y-10594643D01*
X-1335357Y-10623214D01*
X-1063929Y-10423214D02*
X-1063929Y-10623214D01*
X-1135357Y-10308929D02*
X-1206786Y-10523214D01*
X-1021071Y-10523214D01*
X-849643Y-10323214D02*
X-821071Y-10323214D01*
X-792500Y-10337500D01*
X-778214Y-10351786D01*
X-763929Y-10380357D01*
X-749643Y-10437500D01*
X-749643Y-10508929D01*
X-763929Y-10566072D01*
X-778214Y-10594643D01*
X-792500Y-10608929D01*
X-821071Y-10623214D01*
X-849643Y-10623214D01*
X-878214Y-10608929D01*
X-892500Y-10594643D01*
X-906786Y-10566072D01*
X-921071Y-10508929D01*
X-921071Y-10437500D01*
X-906786Y-10380357D01*
X-892500Y-10351786D01*
X-878214Y-10337500D01*
X-849643Y-10323214D01*
X-621072Y-10623214D02*
X-621072Y-10423214D01*
X-621072Y-10451786D02*
X-606786Y-10437500D01*
X-578214Y-10423214D01*
X-535357Y-10423214D01*
X-506786Y-10437500D01*
X-492500Y-10466072D01*
X-492500Y-10623214D01*
X-492500Y-10466072D02*
X-478214Y-10437500D01*
X-449643Y-10423214D01*
X-406786Y-10423214D01*
X-378214Y-10437500D01*
X-363929Y-10466072D01*
X-363929Y-10623214D01*
X-221071Y-10623214D02*
X-221071Y-10423214D01*
X-221071Y-10451786D02*
X-206786Y-10437500D01*
X-178214Y-10423214D01*
X-135357Y-10423214D01*
X-106786Y-10437500D01*
X-92500Y-10466072D01*
X-92500Y-10623214D01*
X-92500Y-10466072D02*
X-78214Y-10437500D01*
X-49643Y-10423214D01*
X-6786Y-10423214D01*
X21786Y-10437500D01*
X36071Y-10466072D01*
X36071Y-10623214D01*
X621786Y-10308929D02*
X364643Y-10694643D01*
X1007500Y-10323214D02*
X1036071Y-10323214D01*
X1064643Y-10337500D01*
X1078928Y-10351786D01*
X1093214Y-10380357D01*
X1107500Y-10437500D01*
X1107500Y-10508929D01*
X1093214Y-10566072D01*
X1078928Y-10594643D01*
X1064643Y-10608929D01*
X1036071Y-10623214D01*
X1007500Y-10623214D01*
X978928Y-10608929D01*
X964643Y-10594643D01*
X950357Y-10566072D01*
X936071Y-10508929D01*
X936071Y-10437500D01*
X950357Y-10380357D01*
X964643Y-10351786D01*
X978928Y-10337500D01*
X1007500Y-10323214D01*
X1236071Y-10594643D02*
X1250357Y-10608929D01*
X1236071Y-10623214D01*
X1221786Y-10608929D01*
X1236071Y-10594643D01*
X1236071Y-10623214D01*
X1436071Y-10323214D02*
X1464643Y-10323214D01*
X1493214Y-10337500D01*
X1507500Y-10351786D01*
X1521786Y-10380357D01*
X1536071Y-10437500D01*
X1536071Y-10508929D01*
X1521786Y-10566072D01*
X1507500Y-10594643D01*
X1493214Y-10608929D01*
X1464643Y-10623214D01*
X1436071Y-10623214D01*
X1407500Y-10608929D01*
X1393214Y-10594643D01*
X1378928Y-10566072D01*
X1364643Y-10508929D01*
X1364643Y-10437500D01*
X1378928Y-10380357D01*
X1393214Y-10351786D01*
X1407500Y-10337500D01*
X1436071Y-10323214D01*
X1821786Y-10623214D02*
X1650357Y-10623214D01*
X1736071Y-10623214D02*
X1736071Y-10323214D01*
X1707500Y-10366072D01*
X1678928Y-10394643D01*
X1650357Y-10408929D01*
X2078928Y-10323214D02*
X2021786Y-10323214D01*
X1993214Y-10337500D01*
X1978928Y-10351786D01*
X1950357Y-10394643D01*
X1936071Y-10451786D01*
X1936071Y-10566072D01*
X1950357Y-10594643D01*
X1964643Y-10608929D01*
X1993214Y-10623214D01*
X2050357Y-10623214D01*
X2078928Y-10608929D01*
X2093214Y-10594643D01*
X2107500Y-10566072D01*
X2107500Y-10494643D01*
X2093214Y-10466072D01*
X2078928Y-10451786D01*
X2050357Y-10437500D01*
X1993214Y-10437500D01*
X1964643Y-10451786D01*
X1950357Y-10466072D01*
X1936071Y-10494643D01*
X2221786Y-10323214D02*
X2221786Y-10380357D01*
X2336071Y-10323214D02*
X2336071Y-10380357D01*
X2778928Y-10737500D02*
X2764643Y-10723214D01*
X2736071Y-10680357D01*
X2721786Y-10651786D01*
X2707500Y-10608929D01*
X2693214Y-10537500D01*
X2693214Y-10480357D01*
X2707500Y-10408929D01*
X2721786Y-10366072D01*
X2736071Y-10337500D01*
X2764643Y-10294643D01*
X2778928Y-10280357D01*
X3021786Y-10323214D02*
X2964643Y-10323214D01*
X2936071Y-10337500D01*
X2921786Y-10351786D01*
X2893214Y-10394643D01*
X2878928Y-10451786D01*
X2878928Y-10566072D01*
X2893214Y-10594643D01*
X2907500Y-10608929D01*
X2936071Y-10623214D01*
X2993214Y-10623214D01*
X3021786Y-10608929D01*
X3036071Y-10594643D01*
X3050357Y-10566072D01*
X3050357Y-10494643D01*
X3036071Y-10466072D01*
X3021786Y-10451786D01*
X2993214Y-10437500D01*
X2936071Y-10437500D01*
X2907500Y-10451786D01*
X2893214Y-10466072D01*
X2878928Y-10494643D01*
X3321786Y-10323214D02*
X3178928Y-10323214D01*
X3164643Y-10466072D01*
X3178928Y-10451786D01*
X3207500Y-10437500D01*
X3278928Y-10437500D01*
X3307500Y-10451786D01*
X3321786Y-10466072D01*
X3336071Y-10494643D01*
X3336071Y-10566072D01*
X3321786Y-10594643D01*
X3307500Y-10608929D01*
X3278928Y-10623214D01*
X3207500Y-10623214D01*
X3178928Y-10608929D01*
X3164643Y-10594643D01*
X3693214Y-10623214D02*
X3693214Y-10323214D01*
X3821786Y-10623214D02*
X3821786Y-10466072D01*
X3807500Y-10437500D01*
X3778928Y-10423214D01*
X3736071Y-10423214D01*
X3707500Y-10437500D01*
X3693214Y-10451786D01*
X4007500Y-10623214D02*
X3978928Y-10608929D01*
X3964643Y-10594643D01*
X3950357Y-10566072D01*
X3950357Y-10480357D01*
X3964643Y-10451786D01*
X3978928Y-10437500D01*
X4007500Y-10423214D01*
X4050357Y-10423214D01*
X4078928Y-10437500D01*
X4093214Y-10451786D01*
X4107500Y-10480357D01*
X4107500Y-10566072D01*
X4093214Y-10594643D01*
X4078928Y-10608929D01*
X4050357Y-10623214D01*
X4007500Y-10623214D01*
X4278928Y-10623214D02*
X4250357Y-10608929D01*
X4236071Y-10580357D01*
X4236071Y-10323214D01*
X4507500Y-10608929D02*
X4478928Y-10623214D01*
X4421786Y-10623214D01*
X4393214Y-10608929D01*
X4378928Y-10580357D01*
X4378928Y-10466072D01*
X4393214Y-10437500D01*
X4421786Y-10423214D01*
X4478928Y-10423214D01*
X4507500Y-10437500D01*
X4521786Y-10466072D01*
X4521786Y-10494643D01*
X4378928Y-10523214D01*
X4636071Y-10608929D02*
X4664643Y-10623214D01*
X4721786Y-10623214D01*
X4750357Y-10608929D01*
X4764643Y-10580357D01*
X4764643Y-10566072D01*
X4750357Y-10537500D01*
X4721786Y-10523214D01*
X4678928Y-10523214D01*
X4650357Y-10508929D01*
X4636071Y-10480357D01*
X4636071Y-10466072D01*
X4650357Y-10437500D01*
X4678928Y-10423214D01*
X4721786Y-10423214D01*
X4750357Y-10437500D01*
X4864643Y-10737500D02*
X4878928Y-10723214D01*
X4907500Y-10680357D01*
X4921786Y-10651786D01*
X4936071Y-10608929D01*
X4950357Y-10537500D01*
X4950357Y-10480357D01*
X4936071Y-10408929D01*
X4921786Y-10366072D01*
X4907500Y-10337500D01*
X4878928Y-10294643D01*
X4864643Y-10280357D01*
X-1907500Y-10883500D02*
G75*
G03X-1907500Y-10883500I-40000J0D01*
G01*
X-1563929Y-10719214D02*
X-1535357Y-10719214D01*
X-1506786Y-10733500D01*
X-1492500Y-10747786D01*
X-1478214Y-10776357D01*
X-1463929Y-10833500D01*
X-1463929Y-10904929D01*
X-1478214Y-10962072D01*
X-1492500Y-10990643D01*
X-1506786Y-11004929D01*
X-1535357Y-11019214D01*
X-1563929Y-11019214D01*
X-1592500Y-11004929D01*
X-1606786Y-10990643D01*
X-1621071Y-10962072D01*
X-1635357Y-10904929D01*
X-1635357Y-10833500D01*
X-1621071Y-10776357D01*
X-1606786Y-10747786D01*
X-1592500Y-10733500D01*
X-1563929Y-10719214D01*
X-1335357Y-10990643D02*
X-1321072Y-11004929D01*
X-1335357Y-11019214D01*
X-1349643Y-11004929D01*
X-1335357Y-10990643D01*
X-1335357Y-11019214D01*
X-1149643Y-10847786D02*
X-1178214Y-10833500D01*
X-1192500Y-10819214D01*
X-1206786Y-10790643D01*
X-1206786Y-10776357D01*
X-1192500Y-10747786D01*
X-1178214Y-10733500D01*
X-1149643Y-10719214D01*
X-1092500Y-10719214D01*
X-1063929Y-10733500D01*
X-1049643Y-10747786D01*
X-1035357Y-10776357D01*
X-1035357Y-10790643D01*
X-1049643Y-10819214D01*
X-1063929Y-10833500D01*
X-1092500Y-10847786D01*
X-1149643Y-10847786D01*
X-1178214Y-10862072D01*
X-1192500Y-10876357D01*
X-1206786Y-10904929D01*
X-1206786Y-10962072D01*
X-1192500Y-10990643D01*
X-1178214Y-11004929D01*
X-1149643Y-11019214D01*
X-1092500Y-11019214D01*
X-1063929Y-11004929D01*
X-1049643Y-10990643D01*
X-1035357Y-10962072D01*
X-1035357Y-10904929D01*
X-1049643Y-10876357D01*
X-1063929Y-10862072D01*
X-1092500Y-10847786D01*
X-849643Y-10719214D02*
X-821071Y-10719214D01*
X-792500Y-10733500D01*
X-778214Y-10747786D01*
X-763929Y-10776357D01*
X-749643Y-10833500D01*
X-749643Y-10904929D01*
X-763929Y-10962072D01*
X-778214Y-10990643D01*
X-792500Y-11004929D01*
X-821071Y-11019214D01*
X-849643Y-11019214D01*
X-878214Y-11004929D01*
X-892500Y-10990643D01*
X-906786Y-10962072D01*
X-921071Y-10904929D01*
X-921071Y-10833500D01*
X-906786Y-10776357D01*
X-892500Y-10747786D01*
X-878214Y-10733500D01*
X-849643Y-10719214D01*
X-621072Y-11019214D02*
X-621072Y-10819214D01*
X-621072Y-10847786D02*
X-606786Y-10833500D01*
X-578214Y-10819214D01*
X-535357Y-10819214D01*
X-506786Y-10833500D01*
X-492500Y-10862072D01*
X-492500Y-11019214D01*
X-492500Y-10862072D02*
X-478214Y-10833500D01*
X-449643Y-10819214D01*
X-406786Y-10819214D01*
X-378214Y-10833500D01*
X-363929Y-10862072D01*
X-363929Y-11019214D01*
X-221071Y-11019214D02*
X-221071Y-10819214D01*
X-221071Y-10847786D02*
X-206786Y-10833500D01*
X-178214Y-10819214D01*
X-135357Y-10819214D01*
X-106786Y-10833500D01*
X-92500Y-10862072D01*
X-92500Y-11019214D01*
X-92500Y-10862072D02*
X-78214Y-10833500D01*
X-49643Y-10819214D01*
X-6786Y-10819214D01*
X21786Y-10833500D01*
X36071Y-10862072D01*
X36071Y-11019214D01*
X621786Y-10704929D02*
X364643Y-11090643D01*
X1007500Y-10719214D02*
X1036071Y-10719214D01*
X1064643Y-10733500D01*
X1078928Y-10747786D01*
X1093214Y-10776357D01*
X1107500Y-10833500D01*
X1107500Y-10904929D01*
X1093214Y-10962072D01*
X1078928Y-10990643D01*
X1064643Y-11004929D01*
X1036071Y-11019214D01*
X1007500Y-11019214D01*
X978928Y-11004929D01*
X964643Y-10990643D01*
X950357Y-10962072D01*
X936071Y-10904929D01*
X936071Y-10833500D01*
X950357Y-10776357D01*
X964643Y-10747786D01*
X978928Y-10733500D01*
X1007500Y-10719214D01*
X1236071Y-10990643D02*
X1250357Y-11004929D01*
X1236071Y-11019214D01*
X1221786Y-11004929D01*
X1236071Y-10990643D01*
X1236071Y-11019214D01*
X1436071Y-10719214D02*
X1464643Y-10719214D01*
X1493214Y-10733500D01*
X1507500Y-10747786D01*
X1521786Y-10776357D01*
X1536071Y-10833500D01*
X1536071Y-10904929D01*
X1521786Y-10962072D01*
X1507500Y-10990643D01*
X1493214Y-11004929D01*
X1464643Y-11019214D01*
X1436071Y-11019214D01*
X1407500Y-11004929D01*
X1393214Y-10990643D01*
X1378928Y-10962072D01*
X1364643Y-10904929D01*
X1364643Y-10833500D01*
X1378928Y-10776357D01*
X1393214Y-10747786D01*
X1407500Y-10733500D01*
X1436071Y-10719214D01*
X1636071Y-10719214D02*
X1821786Y-10719214D01*
X1721786Y-10833500D01*
X1764643Y-10833500D01*
X1793214Y-10847786D01*
X1807500Y-10862072D01*
X1821786Y-10890643D01*
X1821786Y-10962072D01*
X1807500Y-10990643D01*
X1793214Y-11004929D01*
X1764643Y-11019214D01*
X1678928Y-11019214D01*
X1650357Y-11004929D01*
X1636071Y-10990643D01*
X2107500Y-11019214D02*
X1936071Y-11019214D01*
X2021786Y-11019214D02*
X2021786Y-10719214D01*
X1993214Y-10762072D01*
X1964643Y-10790643D01*
X1936071Y-10804929D01*
X2221786Y-10719214D02*
X2221786Y-10776357D01*
X2336071Y-10719214D02*
X2336071Y-10776357D01*
X2778928Y-11133500D02*
X2764643Y-11119214D01*
X2736071Y-11076357D01*
X2721786Y-11047786D01*
X2707500Y-11004929D01*
X2693214Y-10933500D01*
X2693214Y-10876357D01*
X2707500Y-10804929D01*
X2721786Y-10762072D01*
X2736071Y-10733500D01*
X2764643Y-10690643D01*
X2778928Y-10676357D01*
X2936071Y-10847786D02*
X2907500Y-10833500D01*
X2893214Y-10819214D01*
X2878928Y-10790643D01*
X2878928Y-10776357D01*
X2893214Y-10747786D01*
X2907500Y-10733500D01*
X2936071Y-10719214D01*
X2993214Y-10719214D01*
X3021786Y-10733500D01*
X3036071Y-10747786D01*
X3050357Y-10776357D01*
X3050357Y-10790643D01*
X3036071Y-10819214D01*
X3021786Y-10833500D01*
X2993214Y-10847786D01*
X2936071Y-10847786D01*
X2907500Y-10862072D01*
X2893214Y-10876357D01*
X2878928Y-10904929D01*
X2878928Y-10962072D01*
X2893214Y-10990643D01*
X2907500Y-11004929D01*
X2936071Y-11019214D01*
X2993214Y-11019214D01*
X3021786Y-11004929D01*
X3036071Y-10990643D01*
X3050357Y-10962072D01*
X3050357Y-10904929D01*
X3036071Y-10876357D01*
X3021786Y-10862072D01*
X2993214Y-10847786D01*
X3407500Y-11019214D02*
X3407500Y-10719214D01*
X3536071Y-11019214D02*
X3536071Y-10862072D01*
X3521786Y-10833500D01*
X3493214Y-10819214D01*
X3450357Y-10819214D01*
X3421786Y-10833500D01*
X3407500Y-10847786D01*
X3721786Y-11019214D02*
X3693214Y-11004929D01*
X3678928Y-10990643D01*
X3664643Y-10962072D01*
X3664643Y-10876357D01*
X3678928Y-10847786D01*
X3693214Y-10833500D01*
X3721786Y-10819214D01*
X3764643Y-10819214D01*
X3793214Y-10833500D01*
X3807500Y-10847786D01*
X3821786Y-10876357D01*
X3821786Y-10962072D01*
X3807500Y-10990643D01*
X3793214Y-11004929D01*
X3764643Y-11019214D01*
X3721786Y-11019214D01*
X3993214Y-11019214D02*
X3964643Y-11004929D01*
X3950357Y-10976357D01*
X3950357Y-10719214D01*
X4221786Y-11004929D02*
X4193214Y-11019214D01*
X4136071Y-11019214D01*
X4107500Y-11004929D01*
X4093214Y-10976357D01*
X4093214Y-10862072D01*
X4107500Y-10833500D01*
X4136071Y-10819214D01*
X4193214Y-10819214D01*
X4221786Y-10833500D01*
X4236071Y-10862072D01*
X4236071Y-10890643D01*
X4093214Y-10919214D01*
X4350357Y-11004929D02*
X4378928Y-11019214D01*
X4436071Y-11019214D01*
X4464643Y-11004929D01*
X4478928Y-10976357D01*
X4478928Y-10962072D01*
X4464643Y-10933500D01*
X4436071Y-10919214D01*
X4393214Y-10919214D01*
X4364643Y-10904929D01*
X4350357Y-10876357D01*
X4350357Y-10862072D01*
X4364643Y-10833500D01*
X4393214Y-10819214D01*
X4436071Y-10819214D01*
X4464643Y-10833500D01*
X4578928Y-11133500D02*
X4593214Y-11119214D01*
X4621786Y-11076357D01*
X4636071Y-11047786D01*
X4650357Y-11004929D01*
X4664643Y-10933500D01*
X4664643Y-10876357D01*
X4650357Y-10804929D01*
X4636071Y-10762072D01*
X4621786Y-10733500D01*
X4593214Y-10690643D01*
X4578928Y-10676357D01*
X-1957500Y-11229500D02*
X-1957500Y-11329500D01*
X-2007500Y-11279500D02*
X-1907500Y-11279500D01*
X-1463929Y-11415214D02*
X-1635357Y-11415214D01*
X-1549643Y-11415214D02*
X-1549643Y-11115214D01*
X-1578214Y-11158072D01*
X-1606786Y-11186643D01*
X-1635357Y-11200929D01*
X-1335357Y-11386643D02*
X-1321072Y-11400929D01*
X-1335357Y-11415214D01*
X-1349643Y-11400929D01*
X-1335357Y-11386643D01*
X-1335357Y-11415214D01*
X-1135357Y-11115214D02*
X-1106786Y-11115214D01*
X-1078214Y-11129500D01*
X-1063929Y-11143786D01*
X-1049643Y-11172357D01*
X-1035357Y-11229500D01*
X-1035357Y-11300929D01*
X-1049643Y-11358071D01*
X-1063929Y-11386643D01*
X-1078214Y-11400929D01*
X-1106786Y-11415214D01*
X-1135357Y-11415214D01*
X-1163929Y-11400929D01*
X-1178214Y-11386643D01*
X-1192500Y-11358071D01*
X-1206786Y-11300929D01*
X-1206786Y-11229500D01*
X-1192500Y-11172357D01*
X-1178214Y-11143786D01*
X-1163929Y-11129500D01*
X-1135357Y-11115214D01*
X-849643Y-11115214D02*
X-821071Y-11115214D01*
X-792500Y-11129500D01*
X-778214Y-11143786D01*
X-763929Y-11172357D01*
X-749643Y-11229500D01*
X-749643Y-11300929D01*
X-763929Y-11358071D01*
X-778214Y-11386643D01*
X-792500Y-11400929D01*
X-821071Y-11415214D01*
X-849643Y-11415214D01*
X-878214Y-11400929D01*
X-892500Y-11386643D01*
X-906786Y-11358071D01*
X-921071Y-11300929D01*
X-921071Y-11229500D01*
X-906786Y-11172357D01*
X-892500Y-11143786D01*
X-878214Y-11129500D01*
X-849643Y-11115214D01*
X-621072Y-11415214D02*
X-621072Y-11215214D01*
X-621072Y-11243786D02*
X-606786Y-11229500D01*
X-578214Y-11215214D01*
X-535357Y-11215214D01*
X-506786Y-11229500D01*
X-492500Y-11258071D01*
X-492500Y-11415214D01*
X-492500Y-11258071D02*
X-478214Y-11229500D01*
X-449643Y-11215214D01*
X-406786Y-11215214D01*
X-378214Y-11229500D01*
X-363929Y-11258071D01*
X-363929Y-11415214D01*
X-221071Y-11415214D02*
X-221071Y-11215214D01*
X-221071Y-11243786D02*
X-206786Y-11229500D01*
X-178214Y-11215214D01*
X-135357Y-11215214D01*
X-106786Y-11229500D01*
X-92500Y-11258071D01*
X-92500Y-11415214D01*
X-92500Y-11258071D02*
X-78214Y-11229500D01*
X-49643Y-11215214D01*
X-6786Y-11215214D01*
X21786Y-11229500D01*
X36071Y-11258071D01*
X36071Y-11415214D01*
X621786Y-11100929D02*
X364643Y-11486643D01*
X1007500Y-11115214D02*
X1036071Y-11115214D01*
X1064643Y-11129500D01*
X1078928Y-11143786D01*
X1093214Y-11172357D01*
X1107500Y-11229500D01*
X1107500Y-11300929D01*
X1093214Y-11358071D01*
X1078928Y-11386643D01*
X1064643Y-11400929D01*
X1036071Y-11415214D01*
X1007500Y-11415214D01*
X978928Y-11400929D01*
X964643Y-11386643D01*
X950357Y-11358071D01*
X936071Y-11300929D01*
X936071Y-11229500D01*
X950357Y-11172357D01*
X964643Y-11143786D01*
X978928Y-11129500D01*
X1007500Y-11115214D01*
X1236071Y-11386643D02*
X1250357Y-11400929D01*
X1236071Y-11415214D01*
X1221786Y-11400929D01*
X1236071Y-11386643D01*
X1236071Y-11415214D01*
X1436071Y-11115214D02*
X1464643Y-11115214D01*
X1493214Y-11129500D01*
X1507500Y-11143786D01*
X1521786Y-11172357D01*
X1536071Y-11229500D01*
X1536071Y-11300929D01*
X1521786Y-11358071D01*
X1507500Y-11386643D01*
X1493214Y-11400929D01*
X1464643Y-11415214D01*
X1436071Y-11415214D01*
X1407500Y-11400929D01*
X1393214Y-11386643D01*
X1378928Y-11358071D01*
X1364643Y-11300929D01*
X1364643Y-11229500D01*
X1378928Y-11172357D01*
X1393214Y-11143786D01*
X1407500Y-11129500D01*
X1436071Y-11115214D01*
X1636071Y-11115214D02*
X1821786Y-11115214D01*
X1721786Y-11229500D01*
X1764643Y-11229500D01*
X1793214Y-11243786D01*
X1807500Y-11258071D01*
X1821786Y-11286643D01*
X1821786Y-11358071D01*
X1807500Y-11386643D01*
X1793214Y-11400929D01*
X1764643Y-11415214D01*
X1678928Y-11415214D01*
X1650357Y-11400929D01*
X1636071Y-11386643D01*
X1964643Y-11415214D02*
X2021786Y-11415214D01*
X2050357Y-11400929D01*
X2064643Y-11386643D01*
X2093214Y-11343786D01*
X2107500Y-11286643D01*
X2107500Y-11172357D01*
X2093214Y-11143786D01*
X2078928Y-11129500D01*
X2050357Y-11115214D01*
X1993214Y-11115214D01*
X1964643Y-11129500D01*
X1950357Y-11143786D01*
X1936071Y-11172357D01*
X1936071Y-11243786D01*
X1950357Y-11272357D01*
X1964643Y-11286643D01*
X1993214Y-11300929D01*
X2050357Y-11300929D01*
X2078928Y-11286643D01*
X2093214Y-11272357D01*
X2107500Y-11243786D01*
X2221786Y-11115214D02*
X2221786Y-11172357D01*
X2336071Y-11115214D02*
X2336071Y-11172357D01*
X2778928Y-11529500D02*
X2764643Y-11515214D01*
X2736071Y-11472357D01*
X2721786Y-11443786D01*
X2707500Y-11400929D01*
X2693214Y-11329500D01*
X2693214Y-11272357D01*
X2707500Y-11200929D01*
X2721786Y-11158072D01*
X2736071Y-11129500D01*
X2764643Y-11086643D01*
X2778928Y-11072357D01*
X2864643Y-11115214D02*
X3050357Y-11115214D01*
X2950357Y-11229500D01*
X2993214Y-11229500D01*
X3021786Y-11243786D01*
X3036071Y-11258071D01*
X3050357Y-11286643D01*
X3050357Y-11358071D01*
X3036071Y-11386643D01*
X3021786Y-11400929D01*
X2993214Y-11415214D01*
X2907500Y-11415214D01*
X2878928Y-11400929D01*
X2864643Y-11386643D01*
X3150357Y-11115214D02*
X3336071Y-11115214D01*
X3236071Y-11229500D01*
X3278928Y-11229500D01*
X3307500Y-11243786D01*
X3321786Y-11258071D01*
X3336071Y-11286643D01*
X3336071Y-11358071D01*
X3321786Y-11386643D01*
X3307500Y-11400929D01*
X3278928Y-11415214D01*
X3193214Y-11415214D01*
X3164643Y-11400929D01*
X3150357Y-11386643D01*
X3693214Y-11415214D02*
X3693214Y-11115214D01*
X3821786Y-11415214D02*
X3821786Y-11258071D01*
X3807500Y-11229500D01*
X3778928Y-11215214D01*
X3736071Y-11215214D01*
X3707500Y-11229500D01*
X3693214Y-11243786D01*
X4007500Y-11415214D02*
X3978928Y-11400929D01*
X3964643Y-11386643D01*
X3950357Y-11358071D01*
X3950357Y-11272357D01*
X3964643Y-11243786D01*
X3978928Y-11229500D01*
X4007500Y-11215214D01*
X4050357Y-11215214D01*
X4078928Y-11229500D01*
X4093214Y-11243786D01*
X4107500Y-11272357D01*
X4107500Y-11358071D01*
X4093214Y-11386643D01*
X4078928Y-11400929D01*
X4050357Y-11415214D01*
X4007500Y-11415214D01*
X4278928Y-11415214D02*
X4250357Y-11400929D01*
X4236071Y-11372357D01*
X4236071Y-11115214D01*
X4507500Y-11400929D02*
X4478928Y-11415214D01*
X4421786Y-11415214D01*
X4393214Y-11400929D01*
X4378928Y-11372357D01*
X4378928Y-11258071D01*
X4393214Y-11229500D01*
X4421786Y-11215214D01*
X4478928Y-11215214D01*
X4507500Y-11229500D01*
X4521786Y-11258071D01*
X4521786Y-11286643D01*
X4378928Y-11315214D01*
X4636071Y-11400929D02*
X4664643Y-11415214D01*
X4721786Y-11415214D01*
X4750357Y-11400929D01*
X4764643Y-11372357D01*
X4764643Y-11358071D01*
X4750357Y-11329500D01*
X4721786Y-11315214D01*
X4678928Y-11315214D01*
X4650357Y-11300929D01*
X4636071Y-11272357D01*
X4636071Y-11258071D01*
X4650357Y-11229500D01*
X4678928Y-11215214D01*
X4721786Y-11215214D01*
X4750357Y-11229500D01*
X5121786Y-11300929D02*
X5350357Y-11300929D01*
X5236071Y-11415214D02*
X5236071Y-11186643D01*
X5693214Y-11115214D02*
X5878928Y-11115214D01*
X5778928Y-11229500D01*
X5821786Y-11229500D01*
X5850357Y-11243786D01*
X5864643Y-11258071D01*
X5878928Y-11286643D01*
X5878928Y-11358071D01*
X5864643Y-11386643D01*
X5850357Y-11400929D01*
X5821786Y-11415214D01*
X5736071Y-11415214D01*
X5707500Y-11400929D01*
X5693214Y-11386643D01*
X6221786Y-11400929D02*
X6250357Y-11415214D01*
X6307500Y-11415214D01*
X6336071Y-11400929D01*
X6350357Y-11372357D01*
X6350357Y-11358071D01*
X6336071Y-11329500D01*
X6307500Y-11315214D01*
X6264643Y-11315214D01*
X6236071Y-11300929D01*
X6221786Y-11272357D01*
X6221786Y-11258071D01*
X6236071Y-11229500D01*
X6264643Y-11215214D01*
X6307500Y-11215214D01*
X6336071Y-11229500D01*
X6521786Y-11415214D02*
X6493214Y-11400929D01*
X6478928Y-11372357D01*
X6478928Y-11115214D01*
X6678928Y-11415214D02*
X6650357Y-11400929D01*
X6636071Y-11386643D01*
X6621786Y-11358071D01*
X6621786Y-11272357D01*
X6636071Y-11243786D01*
X6650357Y-11229500D01*
X6678928Y-11215214D01*
X6721786Y-11215214D01*
X6750357Y-11229500D01*
X6764643Y-11243786D01*
X6778928Y-11272357D01*
X6778928Y-11358071D01*
X6764643Y-11386643D01*
X6750357Y-11400929D01*
X6721786Y-11415214D01*
X6678928Y-11415214D01*
X6864643Y-11215214D02*
X6978928Y-11215214D01*
X6907500Y-11115214D02*
X6907500Y-11372357D01*
X6921786Y-11400929D01*
X6950357Y-11415214D01*
X6978928Y-11415214D01*
X7064643Y-11400929D02*
X7093214Y-11415214D01*
X7150357Y-11415214D01*
X7178928Y-11400929D01*
X7193214Y-11372357D01*
X7193214Y-11358071D01*
X7178928Y-11329500D01*
X7150357Y-11315214D01*
X7107500Y-11315214D01*
X7078928Y-11300929D01*
X7064643Y-11272357D01*
X7064643Y-11258071D01*
X7078928Y-11229500D01*
X7107500Y-11215214D01*
X7150357Y-11215214D01*
X7178928Y-11229500D01*
X7293214Y-11529500D02*
X7307500Y-11515214D01*
X7336071Y-11472357D01*
X7350357Y-11443786D01*
X7364643Y-11400929D01*
X7378928Y-11329500D01*
X7378928Y-11272357D01*
X7364643Y-11200929D01*
X7350357Y-11158072D01*
X7336071Y-11129500D01*
X7307500Y-11086643D01*
X7293214Y-11072357D01*
X-1922379Y-11711421D02*
X-1922379Y-11639579D01*
X-1994221Y-11639579D01*
X-1994221Y-11711421D01*
X-1922379Y-11711421D01*
X-1463929Y-11811214D02*
X-1635357Y-11811214D01*
X-1549643Y-11811214D02*
X-1549643Y-11511214D01*
X-1578214Y-11554071D01*
X-1606786Y-11582643D01*
X-1635357Y-11596929D01*
X-1335357Y-11782643D02*
X-1321072Y-11796929D01*
X-1335357Y-11811214D01*
X-1349643Y-11796929D01*
X-1335357Y-11782643D01*
X-1335357Y-11811214D01*
X-1135357Y-11511214D02*
X-1106786Y-11511214D01*
X-1078214Y-11525500D01*
X-1063929Y-11539786D01*
X-1049643Y-11568357D01*
X-1035357Y-11625500D01*
X-1035357Y-11696929D01*
X-1049643Y-11754071D01*
X-1063929Y-11782643D01*
X-1078214Y-11796929D01*
X-1106786Y-11811214D01*
X-1135357Y-11811214D01*
X-1163929Y-11796929D01*
X-1178214Y-11782643D01*
X-1192500Y-11754071D01*
X-1206786Y-11696929D01*
X-1206786Y-11625500D01*
X-1192500Y-11568357D01*
X-1178214Y-11539786D01*
X-1163929Y-11525500D01*
X-1135357Y-11511214D01*
X-921071Y-11539786D02*
X-906786Y-11525500D01*
X-878214Y-11511214D01*
X-806786Y-11511214D01*
X-778214Y-11525500D01*
X-763929Y-11539786D01*
X-749643Y-11568357D01*
X-749643Y-11596929D01*
X-763929Y-11639786D01*
X-935357Y-11811214D01*
X-749643Y-11811214D01*
X-621072Y-11811214D02*
X-621072Y-11611214D01*
X-621072Y-11639786D02*
X-606786Y-11625500D01*
X-578214Y-11611214D01*
X-535357Y-11611214D01*
X-506786Y-11625500D01*
X-492500Y-11654071D01*
X-492500Y-11811214D01*
X-492500Y-11654071D02*
X-478214Y-11625500D01*
X-449643Y-11611214D01*
X-406786Y-11611214D01*
X-378214Y-11625500D01*
X-363929Y-11654071D01*
X-363929Y-11811214D01*
X-221071Y-11811214D02*
X-221071Y-11611214D01*
X-221071Y-11639786D02*
X-206786Y-11625500D01*
X-178214Y-11611214D01*
X-135357Y-11611214D01*
X-106786Y-11625500D01*
X-92500Y-11654071D01*
X-92500Y-11811214D01*
X-92500Y-11654071D02*
X-78214Y-11625500D01*
X-49643Y-11611214D01*
X-6786Y-11611214D01*
X21786Y-11625500D01*
X36071Y-11654071D01*
X36071Y-11811214D01*
X621786Y-11496929D02*
X364643Y-11882643D01*
X1007500Y-11511214D02*
X1036071Y-11511214D01*
X1064643Y-11525500D01*
X1078928Y-11539786D01*
X1093214Y-11568357D01*
X1107500Y-11625500D01*
X1107500Y-11696929D01*
X1093214Y-11754071D01*
X1078928Y-11782643D01*
X1064643Y-11796929D01*
X1036071Y-11811214D01*
X1007500Y-11811214D01*
X978928Y-11796929D01*
X964643Y-11782643D01*
X950357Y-11754071D01*
X936071Y-11696929D01*
X936071Y-11625500D01*
X950357Y-11568357D01*
X964643Y-11539786D01*
X978928Y-11525500D01*
X1007500Y-11511214D01*
X1236071Y-11782643D02*
X1250357Y-11796929D01*
X1236071Y-11811214D01*
X1221786Y-11796929D01*
X1236071Y-11782643D01*
X1236071Y-11811214D01*
X1436071Y-11511214D02*
X1464643Y-11511214D01*
X1493214Y-11525500D01*
X1507500Y-11539786D01*
X1521786Y-11568357D01*
X1536071Y-11625500D01*
X1536071Y-11696929D01*
X1521786Y-11754071D01*
X1507500Y-11782643D01*
X1493214Y-11796929D01*
X1464643Y-11811214D01*
X1436071Y-11811214D01*
X1407500Y-11796929D01*
X1393214Y-11782643D01*
X1378928Y-11754071D01*
X1364643Y-11696929D01*
X1364643Y-11625500D01*
X1378928Y-11568357D01*
X1393214Y-11539786D01*
X1407500Y-11525500D01*
X1436071Y-11511214D01*
X1793214Y-11611214D02*
X1793214Y-11811214D01*
X1721786Y-11496929D02*
X1650357Y-11711214D01*
X1836071Y-11711214D01*
X2007500Y-11511214D02*
X2036071Y-11511214D01*
X2064643Y-11525500D01*
X2078928Y-11539786D01*
X2093214Y-11568357D01*
X2107500Y-11625500D01*
X2107500Y-11696929D01*
X2093214Y-11754071D01*
X2078928Y-11782643D01*
X2064643Y-11796929D01*
X2036071Y-11811214D01*
X2007500Y-11811214D01*
X1978928Y-11796929D01*
X1964643Y-11782643D01*
X1950357Y-11754071D01*
X1936071Y-11696929D01*
X1936071Y-11625500D01*
X1950357Y-11568357D01*
X1964643Y-11539786D01*
X1978928Y-11525500D01*
X2007500Y-11511214D01*
X2221786Y-11511214D02*
X2221786Y-11568357D01*
X2336071Y-11511214D02*
X2336071Y-11568357D01*
X2778928Y-11925500D02*
X2764643Y-11911214D01*
X2736071Y-11868357D01*
X2721786Y-11839786D01*
X2707500Y-11796929D01*
X2693214Y-11725500D01*
X2693214Y-11668357D01*
X2707500Y-11596929D01*
X2721786Y-11554071D01*
X2736071Y-11525500D01*
X2764643Y-11482643D01*
X2778928Y-11468357D01*
X3021786Y-11611214D02*
X3021786Y-11811214D01*
X2950357Y-11496929D02*
X2878928Y-11711214D01*
X3064643Y-11711214D01*
X3321786Y-11511214D02*
X3178928Y-11511214D01*
X3164643Y-11654071D01*
X3178928Y-11639786D01*
X3207500Y-11625500D01*
X3278928Y-11625500D01*
X3307500Y-11639786D01*
X3321786Y-11654071D01*
X3336071Y-11682643D01*
X3336071Y-11754071D01*
X3321786Y-11782643D01*
X3307500Y-11796929D01*
X3278928Y-11811214D01*
X3207500Y-11811214D01*
X3178928Y-11796929D01*
X3164643Y-11782643D01*
X3693214Y-11811214D02*
X3693214Y-11511214D01*
X3821786Y-11811214D02*
X3821786Y-11654071D01*
X3807500Y-11625500D01*
X3778928Y-11611214D01*
X3736071Y-11611214D01*
X3707500Y-11625500D01*
X3693214Y-11639786D01*
X4007500Y-11811214D02*
X3978928Y-11796929D01*
X3964643Y-11782643D01*
X3950357Y-11754071D01*
X3950357Y-11668357D01*
X3964643Y-11639786D01*
X3978928Y-11625500D01*
X4007500Y-11611214D01*
X4050357Y-11611214D01*
X4078928Y-11625500D01*
X4093214Y-11639786D01*
X4107500Y-11668357D01*
X4107500Y-11754071D01*
X4093214Y-11782643D01*
X4078928Y-11796929D01*
X4050357Y-11811214D01*
X4007500Y-11811214D01*
X4278928Y-11811214D02*
X4250357Y-11796929D01*
X4236071Y-11768357D01*
X4236071Y-11511214D01*
X4507500Y-11796929D02*
X4478928Y-11811214D01*
X4421786Y-11811214D01*
X4393214Y-11796929D01*
X4378928Y-11768357D01*
X4378928Y-11654071D01*
X4393214Y-11625500D01*
X4421786Y-11611214D01*
X4478928Y-11611214D01*
X4507500Y-11625500D01*
X4521786Y-11654071D01*
X4521786Y-11682643D01*
X4378928Y-11711214D01*
X4636071Y-11796929D02*
X4664643Y-11811214D01*
X4721786Y-11811214D01*
X4750357Y-11796929D01*
X4764643Y-11768357D01*
X4764643Y-11754071D01*
X4750357Y-11725500D01*
X4721786Y-11711214D01*
X4678928Y-11711214D01*
X4650357Y-11696929D01*
X4636071Y-11668357D01*
X4636071Y-11654071D01*
X4650357Y-11625500D01*
X4678928Y-11611214D01*
X4721786Y-11611214D01*
X4750357Y-11625500D01*
X4864643Y-11925500D02*
X4878928Y-11911214D01*
X4907500Y-11868357D01*
X4921786Y-11839786D01*
X4936071Y-11796929D01*
X4950357Y-11725500D01*
X4950357Y-11668357D01*
X4936071Y-11596929D01*
X4921786Y-11554071D01*
X4907500Y-11525500D01*
X4878928Y-11482643D01*
X4864643Y-11468357D01*
X-1959500Y-12123500D02*
X-1907500Y-12071500D01*
X-1959500Y-12019500D01*
X-2011500Y-12071500D01*
X-1959500Y-12123500D01*
X-1463929Y-12207214D02*
X-1635357Y-12207214D01*
X-1549643Y-12207214D02*
X-1549643Y-11907214D01*
X-1578214Y-11950071D01*
X-1606786Y-11978643D01*
X-1635357Y-11992929D01*
X-1335357Y-12178643D02*
X-1321072Y-12192929D01*
X-1335357Y-12207214D01*
X-1349643Y-12192929D01*
X-1335357Y-12178643D01*
X-1335357Y-12207214D01*
X-1135357Y-11907214D02*
X-1106786Y-11907214D01*
X-1078214Y-11921500D01*
X-1063929Y-11935786D01*
X-1049643Y-11964357D01*
X-1035357Y-12021500D01*
X-1035357Y-12092929D01*
X-1049643Y-12150071D01*
X-1063929Y-12178643D01*
X-1078214Y-12192929D01*
X-1106786Y-12207214D01*
X-1135357Y-12207214D01*
X-1163929Y-12192929D01*
X-1178214Y-12178643D01*
X-1192500Y-12150071D01*
X-1206786Y-12092929D01*
X-1206786Y-12021500D01*
X-1192500Y-11964357D01*
X-1178214Y-11935786D01*
X-1163929Y-11921500D01*
X-1135357Y-11907214D01*
X-778214Y-12007214D02*
X-778214Y-12207214D01*
X-849643Y-11892929D02*
X-921071Y-12107214D01*
X-735357Y-12107214D01*
X-621072Y-12207214D02*
X-621072Y-12007214D01*
X-621072Y-12035786D02*
X-606786Y-12021500D01*
X-578214Y-12007214D01*
X-535357Y-12007214D01*
X-506786Y-12021500D01*
X-492500Y-12050071D01*
X-492500Y-12207214D01*
X-492500Y-12050071D02*
X-478214Y-12021500D01*
X-449643Y-12007214D01*
X-406786Y-12007214D01*
X-378214Y-12021500D01*
X-363929Y-12050071D01*
X-363929Y-12207214D01*
X-221071Y-12207214D02*
X-221071Y-12007214D01*
X-221071Y-12035786D02*
X-206786Y-12021500D01*
X-178214Y-12007214D01*
X-135357Y-12007214D01*
X-106786Y-12021500D01*
X-92500Y-12050071D01*
X-92500Y-12207214D01*
X-92500Y-12050071D02*
X-78214Y-12021500D01*
X-49643Y-12007214D01*
X-6786Y-12007214D01*
X21786Y-12021500D01*
X36071Y-12050071D01*
X36071Y-12207214D01*
X621786Y-11892929D02*
X364643Y-12278643D01*
X1007500Y-11907214D02*
X1036071Y-11907214D01*
X1064643Y-11921500D01*
X1078928Y-11935786D01*
X1093214Y-11964357D01*
X1107500Y-12021500D01*
X1107500Y-12092929D01*
X1093214Y-12150071D01*
X1078928Y-12178643D01*
X1064643Y-12192929D01*
X1036071Y-12207214D01*
X1007500Y-12207214D01*
X978928Y-12192929D01*
X964643Y-12178643D01*
X950357Y-12150071D01*
X936071Y-12092929D01*
X936071Y-12021500D01*
X950357Y-11964357D01*
X964643Y-11935786D01*
X978928Y-11921500D01*
X1007500Y-11907214D01*
X1236071Y-12178643D02*
X1250357Y-12192929D01*
X1236071Y-12207214D01*
X1221786Y-12192929D01*
X1236071Y-12178643D01*
X1236071Y-12207214D01*
X1436071Y-11907214D02*
X1464643Y-11907214D01*
X1493214Y-11921500D01*
X1507500Y-11935786D01*
X1521786Y-11964357D01*
X1536071Y-12021500D01*
X1536071Y-12092929D01*
X1521786Y-12150071D01*
X1507500Y-12178643D01*
X1493214Y-12192929D01*
X1464643Y-12207214D01*
X1436071Y-12207214D01*
X1407500Y-12192929D01*
X1393214Y-12178643D01*
X1378928Y-12150071D01*
X1364643Y-12092929D01*
X1364643Y-12021500D01*
X1378928Y-11964357D01*
X1393214Y-11935786D01*
X1407500Y-11921500D01*
X1436071Y-11907214D01*
X1793214Y-12007214D02*
X1793214Y-12207214D01*
X1721786Y-11892929D02*
X1650357Y-12107214D01*
X1836071Y-12107214D01*
X2107500Y-12207214D02*
X1936071Y-12207214D01*
X2021786Y-12207214D02*
X2021786Y-11907214D01*
X1993214Y-11950071D01*
X1964643Y-11978643D01*
X1936071Y-11992929D01*
X2221786Y-11907214D02*
X2221786Y-11964357D01*
X2336071Y-11907214D02*
X2336071Y-11964357D01*
X2778928Y-12321500D02*
X2764643Y-12307214D01*
X2736071Y-12264357D01*
X2721786Y-12235786D01*
X2707500Y-12192929D01*
X2693214Y-12121500D01*
X2693214Y-12064357D01*
X2707500Y-11992929D01*
X2721786Y-11950071D01*
X2736071Y-11921500D01*
X2764643Y-11878643D01*
X2778928Y-11864357D01*
X2936071Y-12035786D02*
X2907500Y-12021500D01*
X2893214Y-12007214D01*
X2878928Y-11978643D01*
X2878928Y-11964357D01*
X2893214Y-11935786D01*
X2907500Y-11921500D01*
X2936071Y-11907214D01*
X2993214Y-11907214D01*
X3021786Y-11921500D01*
X3036071Y-11935786D01*
X3050357Y-11964357D01*
X3050357Y-11978643D01*
X3036071Y-12007214D01*
X3021786Y-12021500D01*
X2993214Y-12035786D01*
X2936071Y-12035786D01*
X2907500Y-12050071D01*
X2893214Y-12064357D01*
X2878928Y-12092929D01*
X2878928Y-12150071D01*
X2893214Y-12178643D01*
X2907500Y-12192929D01*
X2936071Y-12207214D01*
X2993214Y-12207214D01*
X3021786Y-12192929D01*
X3036071Y-12178643D01*
X3050357Y-12150071D01*
X3050357Y-12092929D01*
X3036071Y-12064357D01*
X3021786Y-12050071D01*
X2993214Y-12035786D01*
X3221786Y-12035786D02*
X3193214Y-12021500D01*
X3178928Y-12007214D01*
X3164643Y-11978643D01*
X3164643Y-11964357D01*
X3178928Y-11935786D01*
X3193214Y-11921500D01*
X3221786Y-11907214D01*
X3278928Y-11907214D01*
X3307500Y-11921500D01*
X3321786Y-11935786D01*
X3336071Y-11964357D01*
X3336071Y-11978643D01*
X3321786Y-12007214D01*
X3307500Y-12021500D01*
X3278928Y-12035786D01*
X3221786Y-12035786D01*
X3193214Y-12050071D01*
X3178928Y-12064357D01*
X3164643Y-12092929D01*
X3164643Y-12150071D01*
X3178928Y-12178643D01*
X3193214Y-12192929D01*
X3221786Y-12207214D01*
X3278928Y-12207214D01*
X3307500Y-12192929D01*
X3321786Y-12178643D01*
X3336071Y-12150071D01*
X3336071Y-12092929D01*
X3321786Y-12064357D01*
X3307500Y-12050071D01*
X3278928Y-12035786D01*
X3693214Y-12207214D02*
X3693214Y-11907214D01*
X3821786Y-12207214D02*
X3821786Y-12050071D01*
X3807500Y-12021500D01*
X3778928Y-12007214D01*
X3736071Y-12007214D01*
X3707500Y-12021500D01*
X3693214Y-12035786D01*
X4007500Y-12207214D02*
X3978928Y-12192929D01*
X3964643Y-12178643D01*
X3950357Y-12150071D01*
X3950357Y-12064357D01*
X3964643Y-12035786D01*
X3978928Y-12021500D01*
X4007500Y-12007214D01*
X4050357Y-12007214D01*
X4078928Y-12021500D01*
X4093214Y-12035786D01*
X4107500Y-12064357D01*
X4107500Y-12150071D01*
X4093214Y-12178643D01*
X4078928Y-12192929D01*
X4050357Y-12207214D01*
X4007500Y-12207214D01*
X4278928Y-12207214D02*
X4250357Y-12192929D01*
X4236071Y-12164357D01*
X4236071Y-11907214D01*
X4507500Y-12192929D02*
X4478928Y-12207214D01*
X4421786Y-12207214D01*
X4393214Y-12192929D01*
X4378928Y-12164357D01*
X4378928Y-12050071D01*
X4393214Y-12021500D01*
X4421786Y-12007214D01*
X4478928Y-12007214D01*
X4507500Y-12021500D01*
X4521786Y-12050071D01*
X4521786Y-12078643D01*
X4378928Y-12107214D01*
X4636071Y-12192929D02*
X4664643Y-12207214D01*
X4721786Y-12207214D01*
X4750357Y-12192929D01*
X4764643Y-12164357D01*
X4764643Y-12150071D01*
X4750357Y-12121500D01*
X4721786Y-12107214D01*
X4678928Y-12107214D01*
X4650357Y-12092929D01*
X4636071Y-12064357D01*
X4636071Y-12050071D01*
X4650357Y-12021500D01*
X4678928Y-12007214D01*
X4721786Y-12007214D01*
X4750357Y-12021500D01*
X4864643Y-12321500D02*
X4878928Y-12307214D01*
X4907500Y-12264357D01*
X4921786Y-12235786D01*
X4936071Y-12192929D01*
X4950357Y-12121500D01*
X4950357Y-12064357D01*
X4936071Y-11992929D01*
X4921786Y-11950071D01*
X4907500Y-11921500D01*
X4878928Y-11878643D01*
X4864643Y-11864357D01*
X-2017500Y-12412500D02*
X-1907500Y-12522500D01*
X-1907500Y-12412500D02*
X-2017500Y-12522500D01*
X-1907500Y-12467500D02*
G75*
G03X-1907500Y-12467500I-55000J0D01*
G01*
X-1463929Y-12603214D02*
X-1635357Y-12603214D01*
X-1549643Y-12603214D02*
X-1549643Y-12303214D01*
X-1578214Y-12346071D01*
X-1606786Y-12374643D01*
X-1635357Y-12388929D01*
X-1335357Y-12574643D02*
X-1321072Y-12588929D01*
X-1335357Y-12603214D01*
X-1349643Y-12588929D01*
X-1335357Y-12574643D01*
X-1335357Y-12603214D01*
X-1035357Y-12603214D02*
X-1206786Y-12603214D01*
X-1121072Y-12603214D02*
X-1121072Y-12303214D01*
X-1149643Y-12346071D01*
X-1178214Y-12374643D01*
X-1206786Y-12388929D01*
X-849643Y-12303214D02*
X-821071Y-12303214D01*
X-792500Y-12317500D01*
X-778214Y-12331786D01*
X-763929Y-12360357D01*
X-749643Y-12417500D01*
X-749643Y-12488929D01*
X-763929Y-12546071D01*
X-778214Y-12574643D01*
X-792500Y-12588929D01*
X-821071Y-12603214D01*
X-849643Y-12603214D01*
X-878214Y-12588929D01*
X-892500Y-12574643D01*
X-906786Y-12546071D01*
X-921071Y-12488929D01*
X-921071Y-12417500D01*
X-906786Y-12360357D01*
X-892500Y-12331786D01*
X-878214Y-12317500D01*
X-849643Y-12303214D01*
X-621072Y-12603214D02*
X-621072Y-12403214D01*
X-621072Y-12431786D02*
X-606786Y-12417500D01*
X-578214Y-12403214D01*
X-535357Y-12403214D01*
X-506786Y-12417500D01*
X-492500Y-12446071D01*
X-492500Y-12603214D01*
X-492500Y-12446071D02*
X-478214Y-12417500D01*
X-449643Y-12403214D01*
X-406786Y-12403214D01*
X-378214Y-12417500D01*
X-363929Y-12446071D01*
X-363929Y-12603214D01*
X-221071Y-12603214D02*
X-221071Y-12403214D01*
X-221071Y-12431786D02*
X-206786Y-12417500D01*
X-178214Y-12403214D01*
X-135357Y-12403214D01*
X-106786Y-12417500D01*
X-92500Y-12446071D01*
X-92500Y-12603214D01*
X-92500Y-12446071D02*
X-78214Y-12417500D01*
X-49643Y-12403214D01*
X-6786Y-12403214D01*
X21786Y-12417500D01*
X36071Y-12446071D01*
X36071Y-12603214D01*
X621786Y-12288929D02*
X364643Y-12674643D01*
X1007500Y-12303214D02*
X1036071Y-12303214D01*
X1064643Y-12317500D01*
X1078928Y-12331786D01*
X1093214Y-12360357D01*
X1107500Y-12417500D01*
X1107500Y-12488929D01*
X1093214Y-12546071D01*
X1078928Y-12574643D01*
X1064643Y-12588929D01*
X1036071Y-12603214D01*
X1007500Y-12603214D01*
X978928Y-12588929D01*
X964643Y-12574643D01*
X950357Y-12546071D01*
X936071Y-12488929D01*
X936071Y-12417500D01*
X950357Y-12360357D01*
X964643Y-12331786D01*
X978928Y-12317500D01*
X1007500Y-12303214D01*
X1236071Y-12574643D02*
X1250357Y-12588929D01*
X1236071Y-12603214D01*
X1221786Y-12588929D01*
X1236071Y-12574643D01*
X1236071Y-12603214D01*
X1436071Y-12303214D02*
X1464643Y-12303214D01*
X1493214Y-12317500D01*
X1507500Y-12331786D01*
X1521786Y-12360357D01*
X1536071Y-12417500D01*
X1536071Y-12488929D01*
X1521786Y-12546071D01*
X1507500Y-12574643D01*
X1493214Y-12588929D01*
X1464643Y-12603214D01*
X1436071Y-12603214D01*
X1407500Y-12588929D01*
X1393214Y-12574643D01*
X1378928Y-12546071D01*
X1364643Y-12488929D01*
X1364643Y-12417500D01*
X1378928Y-12360357D01*
X1393214Y-12331786D01*
X1407500Y-12317500D01*
X1436071Y-12303214D01*
X1793214Y-12403214D02*
X1793214Y-12603214D01*
X1721786Y-12288929D02*
X1650357Y-12503214D01*
X1836071Y-12503214D01*
X1921786Y-12303214D02*
X2107500Y-12303214D01*
X2007500Y-12417500D01*
X2050357Y-12417500D01*
X2078928Y-12431786D01*
X2093214Y-12446071D01*
X2107500Y-12474643D01*
X2107500Y-12546071D01*
X2093214Y-12574643D01*
X2078928Y-12588929D01*
X2050357Y-12603214D01*
X1964643Y-12603214D01*
X1936071Y-12588929D01*
X1921786Y-12574643D01*
X2221786Y-12303214D02*
X2221786Y-12360357D01*
X2336071Y-12303214D02*
X2336071Y-12360357D01*
X2778928Y-12717500D02*
X2764643Y-12703214D01*
X2736071Y-12660357D01*
X2721786Y-12631786D01*
X2707500Y-12588929D01*
X2693214Y-12517500D01*
X2693214Y-12460357D01*
X2707500Y-12388929D01*
X2721786Y-12346071D01*
X2736071Y-12317500D01*
X2764643Y-12274643D01*
X2778928Y-12260357D01*
X3036071Y-12303214D02*
X2893214Y-12303214D01*
X2878928Y-12446071D01*
X2893214Y-12431786D01*
X2921786Y-12417500D01*
X2993214Y-12417500D01*
X3021786Y-12431786D01*
X3036071Y-12446071D01*
X3050357Y-12474643D01*
X3050357Y-12546071D01*
X3036071Y-12574643D01*
X3021786Y-12588929D01*
X2993214Y-12603214D01*
X2921786Y-12603214D01*
X2893214Y-12588929D01*
X2878928Y-12574643D01*
X3193214Y-12603214D02*
X3250357Y-12603214D01*
X3278928Y-12588929D01*
X3293214Y-12574643D01*
X3321786Y-12531786D01*
X3336071Y-12474643D01*
X3336071Y-12360357D01*
X3321786Y-12331786D01*
X3307500Y-12317500D01*
X3278928Y-12303214D01*
X3221786Y-12303214D01*
X3193214Y-12317500D01*
X3178928Y-12331786D01*
X3164643Y-12360357D01*
X3164643Y-12431786D01*
X3178928Y-12460357D01*
X3193214Y-12474643D01*
X3221786Y-12488929D01*
X3278928Y-12488929D01*
X3307500Y-12474643D01*
X3321786Y-12460357D01*
X3336071Y-12431786D01*
X3693214Y-12603214D02*
X3693214Y-12303214D01*
X3821786Y-12603214D02*
X3821786Y-12446071D01*
X3807500Y-12417500D01*
X3778928Y-12403214D01*
X3736071Y-12403214D01*
X3707500Y-12417500D01*
X3693214Y-12431786D01*
X4007500Y-12603214D02*
X3978928Y-12588929D01*
X3964643Y-12574643D01*
X3950357Y-12546071D01*
X3950357Y-12460357D01*
X3964643Y-12431786D01*
X3978928Y-12417500D01*
X4007500Y-12403214D01*
X4050357Y-12403214D01*
X4078928Y-12417500D01*
X4093214Y-12431786D01*
X4107500Y-12460357D01*
X4107500Y-12546071D01*
X4093214Y-12574643D01*
X4078928Y-12588929D01*
X4050357Y-12603214D01*
X4007500Y-12603214D01*
X4278928Y-12603214D02*
X4250357Y-12588929D01*
X4236071Y-12560357D01*
X4236071Y-12303214D01*
X4507500Y-12588929D02*
X4478928Y-12603214D01*
X4421786Y-12603214D01*
X4393214Y-12588929D01*
X4378928Y-12560357D01*
X4378928Y-12446071D01*
X4393214Y-12417500D01*
X4421786Y-12403214D01*
X4478928Y-12403214D01*
X4507500Y-12417500D01*
X4521786Y-12446071D01*
X4521786Y-12474643D01*
X4378928Y-12503214D01*
X4636071Y-12588929D02*
X4664643Y-12603214D01*
X4721786Y-12603214D01*
X4750357Y-12588929D01*
X4764643Y-12560357D01*
X4764643Y-12546071D01*
X4750357Y-12517500D01*
X4721786Y-12503214D01*
X4678928Y-12503214D01*
X4650357Y-12488929D01*
X4636071Y-12460357D01*
X4636071Y-12446071D01*
X4650357Y-12417500D01*
X4678928Y-12403214D01*
X4721786Y-12403214D01*
X4750357Y-12417500D01*
X4864643Y-12717500D02*
X4878928Y-12703214D01*
X4907500Y-12660357D01*
X4921786Y-12631786D01*
X4936071Y-12588929D01*
X4950357Y-12517500D01*
X4950357Y-12460357D01*
X4936071Y-12388929D01*
X4921786Y-12346071D01*
X4907500Y-12317500D01*
X4878928Y-12274643D01*
X4864643Y-12260357D01*
X-2027500Y-12803500D02*
X-1907500Y-12923500D01*
X-1907500Y-12803500D02*
X-2027500Y-12923500D01*
X-1967500Y-12803500D02*
X-1967500Y-12923500D01*
X-2027500Y-12863500D02*
X-1907500Y-12863500D01*
X-1463929Y-12999214D02*
X-1635357Y-12999214D01*
X-1549643Y-12999214D02*
X-1549643Y-12699214D01*
X-1578214Y-12742071D01*
X-1606786Y-12770643D01*
X-1635357Y-12784929D01*
X-1335357Y-12970643D02*
X-1321072Y-12984929D01*
X-1335357Y-12999214D01*
X-1349643Y-12984929D01*
X-1335357Y-12970643D01*
X-1335357Y-12999214D01*
X-1206786Y-12727786D02*
X-1192500Y-12713500D01*
X-1163929Y-12699214D01*
X-1092500Y-12699214D01*
X-1063929Y-12713500D01*
X-1049643Y-12727786D01*
X-1035357Y-12756357D01*
X-1035357Y-12784929D01*
X-1049643Y-12827786D01*
X-1221072Y-12999214D01*
X-1035357Y-12999214D01*
X-849643Y-12699214D02*
X-821071Y-12699214D01*
X-792500Y-12713500D01*
X-778214Y-12727786D01*
X-763929Y-12756357D01*
X-749643Y-12813500D01*
X-749643Y-12884929D01*
X-763929Y-12942071D01*
X-778214Y-12970643D01*
X-792500Y-12984929D01*
X-821071Y-12999214D01*
X-849643Y-12999214D01*
X-878214Y-12984929D01*
X-892500Y-12970643D01*
X-906786Y-12942071D01*
X-921071Y-12884929D01*
X-921071Y-12813500D01*
X-906786Y-12756357D01*
X-892500Y-12727786D01*
X-878214Y-12713500D01*
X-849643Y-12699214D01*
X-621072Y-12999214D02*
X-621072Y-12799214D01*
X-621072Y-12827786D02*
X-606786Y-12813500D01*
X-578214Y-12799214D01*
X-535357Y-12799214D01*
X-506786Y-12813500D01*
X-492500Y-12842071D01*
X-492500Y-12999214D01*
X-492500Y-12842071D02*
X-478214Y-12813500D01*
X-449643Y-12799214D01*
X-406786Y-12799214D01*
X-378214Y-12813500D01*
X-363929Y-12842071D01*
X-363929Y-12999214D01*
X-221071Y-12999214D02*
X-221071Y-12799214D01*
X-221071Y-12827786D02*
X-206786Y-12813500D01*
X-178214Y-12799214D01*
X-135357Y-12799214D01*
X-106786Y-12813500D01*
X-92500Y-12842071D01*
X-92500Y-12999214D01*
X-92500Y-12842071D02*
X-78214Y-12813500D01*
X-49643Y-12799214D01*
X-6786Y-12799214D01*
X21786Y-12813500D01*
X36071Y-12842071D01*
X36071Y-12999214D01*
X621786Y-12684929D02*
X364643Y-13070643D01*
X1007500Y-12699214D02*
X1036071Y-12699214D01*
X1064643Y-12713500D01*
X1078928Y-12727786D01*
X1093214Y-12756357D01*
X1107500Y-12813500D01*
X1107500Y-12884929D01*
X1093214Y-12942071D01*
X1078928Y-12970643D01*
X1064643Y-12984929D01*
X1036071Y-12999214D01*
X1007500Y-12999214D01*
X978928Y-12984929D01*
X964643Y-12970643D01*
X950357Y-12942071D01*
X936071Y-12884929D01*
X936071Y-12813500D01*
X950357Y-12756357D01*
X964643Y-12727786D01*
X978928Y-12713500D01*
X1007500Y-12699214D01*
X1236071Y-12970643D02*
X1250357Y-12984929D01*
X1236071Y-12999214D01*
X1221786Y-12984929D01*
X1236071Y-12970643D01*
X1236071Y-12999214D01*
X1436071Y-12699214D02*
X1464643Y-12699214D01*
X1493214Y-12713500D01*
X1507500Y-12727786D01*
X1521786Y-12756357D01*
X1536071Y-12813500D01*
X1536071Y-12884929D01*
X1521786Y-12942071D01*
X1507500Y-12970643D01*
X1493214Y-12984929D01*
X1464643Y-12999214D01*
X1436071Y-12999214D01*
X1407500Y-12984929D01*
X1393214Y-12970643D01*
X1378928Y-12942071D01*
X1364643Y-12884929D01*
X1364643Y-12813500D01*
X1378928Y-12756357D01*
X1393214Y-12727786D01*
X1407500Y-12713500D01*
X1436071Y-12699214D01*
X1793214Y-12799214D02*
X1793214Y-12999214D01*
X1721786Y-12684929D02*
X1650357Y-12899214D01*
X1836071Y-12899214D01*
X1921786Y-12699214D02*
X2121786Y-12699214D01*
X1993214Y-12999214D01*
X2221786Y-12699214D02*
X2221786Y-12756357D01*
X2336071Y-12699214D02*
X2336071Y-12756357D01*
X2778928Y-13113500D02*
X2764643Y-13099214D01*
X2736071Y-13056357D01*
X2721786Y-13027786D01*
X2707500Y-12984929D01*
X2693214Y-12913500D01*
X2693214Y-12856357D01*
X2707500Y-12784929D01*
X2721786Y-12742071D01*
X2736071Y-12713500D01*
X2764643Y-12670643D01*
X2778928Y-12656357D01*
X2936071Y-12827786D02*
X2907500Y-12813500D01*
X2893214Y-12799214D01*
X2878928Y-12770643D01*
X2878928Y-12756357D01*
X2893214Y-12727786D01*
X2907500Y-12713500D01*
X2936071Y-12699214D01*
X2993214Y-12699214D01*
X3021786Y-12713500D01*
X3036071Y-12727786D01*
X3050357Y-12756357D01*
X3050357Y-12770643D01*
X3036071Y-12799214D01*
X3021786Y-12813500D01*
X2993214Y-12827786D01*
X2936071Y-12827786D01*
X2907500Y-12842071D01*
X2893214Y-12856357D01*
X2878928Y-12884929D01*
X2878928Y-12942071D01*
X2893214Y-12970643D01*
X2907500Y-12984929D01*
X2936071Y-12999214D01*
X2993214Y-12999214D01*
X3021786Y-12984929D01*
X3036071Y-12970643D01*
X3050357Y-12942071D01*
X3050357Y-12884929D01*
X3036071Y-12856357D01*
X3021786Y-12842071D01*
X2993214Y-12827786D01*
X3221786Y-12827786D02*
X3193214Y-12813500D01*
X3178928Y-12799214D01*
X3164643Y-12770643D01*
X3164643Y-12756357D01*
X3178928Y-12727786D01*
X3193214Y-12713500D01*
X3221786Y-12699214D01*
X3278928Y-12699214D01*
X3307500Y-12713500D01*
X3321786Y-12727786D01*
X3336071Y-12756357D01*
X3336071Y-12770643D01*
X3321786Y-12799214D01*
X3307500Y-12813500D01*
X3278928Y-12827786D01*
X3221786Y-12827786D01*
X3193214Y-12842071D01*
X3178928Y-12856357D01*
X3164643Y-12884929D01*
X3164643Y-12942071D01*
X3178928Y-12970643D01*
X3193214Y-12984929D01*
X3221786Y-12999214D01*
X3278928Y-12999214D01*
X3307500Y-12984929D01*
X3321786Y-12970643D01*
X3336071Y-12942071D01*
X3336071Y-12884929D01*
X3321786Y-12856357D01*
X3307500Y-12842071D01*
X3278928Y-12827786D01*
X3693214Y-12999214D02*
X3693214Y-12699214D01*
X3821786Y-12999214D02*
X3821786Y-12842071D01*
X3807500Y-12813500D01*
X3778928Y-12799214D01*
X3736071Y-12799214D01*
X3707500Y-12813500D01*
X3693214Y-12827786D01*
X4007500Y-12999214D02*
X3978928Y-12984929D01*
X3964643Y-12970643D01*
X3950357Y-12942071D01*
X3950357Y-12856357D01*
X3964643Y-12827786D01*
X3978928Y-12813500D01*
X4007500Y-12799214D01*
X4050357Y-12799214D01*
X4078928Y-12813500D01*
X4093214Y-12827786D01*
X4107500Y-12856357D01*
X4107500Y-12942071D01*
X4093214Y-12970643D01*
X4078928Y-12984929D01*
X4050357Y-12999214D01*
X4007500Y-12999214D01*
X4278928Y-12999214D02*
X4250357Y-12984929D01*
X4236071Y-12956357D01*
X4236071Y-12699214D01*
X4507500Y-12984929D02*
X4478928Y-12999214D01*
X4421786Y-12999214D01*
X4393214Y-12984929D01*
X4378928Y-12956357D01*
X4378928Y-12842071D01*
X4393214Y-12813500D01*
X4421786Y-12799214D01*
X4478928Y-12799214D01*
X4507500Y-12813500D01*
X4521786Y-12842071D01*
X4521786Y-12870643D01*
X4378928Y-12899214D01*
X4636071Y-12984929D02*
X4664643Y-12999214D01*
X4721786Y-12999214D01*
X4750357Y-12984929D01*
X4764643Y-12956357D01*
X4764643Y-12942071D01*
X4750357Y-12913500D01*
X4721786Y-12899214D01*
X4678928Y-12899214D01*
X4650357Y-12884929D01*
X4636071Y-12856357D01*
X4636071Y-12842071D01*
X4650357Y-12813500D01*
X4678928Y-12799214D01*
X4721786Y-12799214D01*
X4750357Y-12813500D01*
X4864643Y-13113500D02*
X4878928Y-13099214D01*
X4907500Y-13056357D01*
X4921786Y-13027786D01*
X4936071Y-12984929D01*
X4950357Y-12913500D01*
X4950357Y-12856357D01*
X4936071Y-12784929D01*
X4921786Y-12742071D01*
X4907500Y-12713500D01*
X4878928Y-12670643D01*
X4864643Y-12656357D01*
X-2057500Y-13184500D02*
X-1907500Y-13334500D01*
X-1907500Y-13184500D02*
X-2057500Y-13334500D01*
X-1929467Y-13312534D02*
X-1929467Y-13206467D01*
X-2035534Y-13206467D01*
X-2035534Y-13312534D01*
X-1929467Y-13312534D01*
X-1463929Y-13395214D02*
X-1635357Y-13395214D01*
X-1549643Y-13395214D02*
X-1549643Y-13095214D01*
X-1578214Y-13138071D01*
X-1606786Y-13166643D01*
X-1635357Y-13180929D01*
X-1335357Y-13366643D02*
X-1321072Y-13380929D01*
X-1335357Y-13395214D01*
X-1349643Y-13380929D01*
X-1335357Y-13366643D01*
X-1335357Y-13395214D01*
X-1049643Y-13095214D02*
X-1192500Y-13095214D01*
X-1206786Y-13238071D01*
X-1192500Y-13223786D01*
X-1163929Y-13209500D01*
X-1092500Y-13209500D01*
X-1063929Y-13223786D01*
X-1049643Y-13238071D01*
X-1035357Y-13266643D01*
X-1035357Y-13338071D01*
X-1049643Y-13366643D01*
X-1063929Y-13380929D01*
X-1092500Y-13395214D01*
X-1163929Y-13395214D01*
X-1192500Y-13380929D01*
X-1206786Y-13366643D01*
X-849643Y-13095214D02*
X-821071Y-13095214D01*
X-792500Y-13109500D01*
X-778214Y-13123786D01*
X-763929Y-13152357D01*
X-749643Y-13209500D01*
X-749643Y-13280929D01*
X-763929Y-13338071D01*
X-778214Y-13366643D01*
X-792500Y-13380929D01*
X-821071Y-13395214D01*
X-849643Y-13395214D01*
X-878214Y-13380929D01*
X-892500Y-13366643D01*
X-906786Y-13338071D01*
X-921071Y-13280929D01*
X-921071Y-13209500D01*
X-906786Y-13152357D01*
X-892500Y-13123786D01*
X-878214Y-13109500D01*
X-849643Y-13095214D01*
X-621072Y-13395214D02*
X-621072Y-13195214D01*
X-621072Y-13223786D02*
X-606786Y-13209500D01*
X-578214Y-13195214D01*
X-535357Y-13195214D01*
X-506786Y-13209500D01*
X-492500Y-13238071D01*
X-492500Y-13395214D01*
X-492500Y-13238071D02*
X-478214Y-13209500D01*
X-449643Y-13195214D01*
X-406786Y-13195214D01*
X-378214Y-13209500D01*
X-363929Y-13238071D01*
X-363929Y-13395214D01*
X-221071Y-13395214D02*
X-221071Y-13195214D01*
X-221071Y-13223786D02*
X-206786Y-13209500D01*
X-178214Y-13195214D01*
X-135357Y-13195214D01*
X-106786Y-13209500D01*
X-92500Y-13238071D01*
X-92500Y-13395214D01*
X-92500Y-13238071D02*
X-78214Y-13209500D01*
X-49643Y-13195214D01*
X-6786Y-13195214D01*
X21786Y-13209500D01*
X36071Y-13238071D01*
X36071Y-13395214D01*
X621786Y-13080929D02*
X364643Y-13466643D01*
X1007500Y-13095214D02*
X1036071Y-13095214D01*
X1064643Y-13109500D01*
X1078928Y-13123786D01*
X1093214Y-13152357D01*
X1107500Y-13209500D01*
X1107500Y-13280929D01*
X1093214Y-13338071D01*
X1078928Y-13366643D01*
X1064643Y-13380929D01*
X1036071Y-13395214D01*
X1007500Y-13395214D01*
X978928Y-13380929D01*
X964643Y-13366643D01*
X950357Y-13338071D01*
X936071Y-13280929D01*
X936071Y-13209500D01*
X950357Y-13152357D01*
X964643Y-13123786D01*
X978928Y-13109500D01*
X1007500Y-13095214D01*
X1236071Y-13366643D02*
X1250357Y-13380929D01*
X1236071Y-13395214D01*
X1221786Y-13380929D01*
X1236071Y-13366643D01*
X1236071Y-13395214D01*
X1436071Y-13095214D02*
X1464643Y-13095214D01*
X1493214Y-13109500D01*
X1507500Y-13123786D01*
X1521786Y-13152357D01*
X1536071Y-13209500D01*
X1536071Y-13280929D01*
X1521786Y-13338071D01*
X1507500Y-13366643D01*
X1493214Y-13380929D01*
X1464643Y-13395214D01*
X1436071Y-13395214D01*
X1407500Y-13380929D01*
X1393214Y-13366643D01*
X1378928Y-13338071D01*
X1364643Y-13280929D01*
X1364643Y-13209500D01*
X1378928Y-13152357D01*
X1393214Y-13123786D01*
X1407500Y-13109500D01*
X1436071Y-13095214D01*
X1807500Y-13095214D02*
X1664643Y-13095214D01*
X1650357Y-13238071D01*
X1664643Y-13223786D01*
X1693214Y-13209500D01*
X1764643Y-13209500D01*
X1793214Y-13223786D01*
X1807500Y-13238071D01*
X1821786Y-13266643D01*
X1821786Y-13338071D01*
X1807500Y-13366643D01*
X1793214Y-13380929D01*
X1764643Y-13395214D01*
X1693214Y-13395214D01*
X1664643Y-13380929D01*
X1650357Y-13366643D01*
X1964643Y-13395214D02*
X2021786Y-13395214D01*
X2050357Y-13380929D01*
X2064643Y-13366643D01*
X2093214Y-13323786D01*
X2107500Y-13266643D01*
X2107500Y-13152357D01*
X2093214Y-13123786D01*
X2078928Y-13109500D01*
X2050357Y-13095214D01*
X1993214Y-13095214D01*
X1964643Y-13109500D01*
X1950357Y-13123786D01*
X1936071Y-13152357D01*
X1936071Y-13223786D01*
X1950357Y-13252357D01*
X1964643Y-13266643D01*
X1993214Y-13280929D01*
X2050357Y-13280929D01*
X2078928Y-13266643D01*
X2093214Y-13252357D01*
X2107500Y-13223786D01*
X2221786Y-13095214D02*
X2221786Y-13152357D01*
X2336071Y-13095214D02*
X2336071Y-13152357D01*
X2778928Y-13509500D02*
X2764643Y-13495214D01*
X2736071Y-13452357D01*
X2721786Y-13423786D01*
X2707500Y-13380929D01*
X2693214Y-13309500D01*
X2693214Y-13252357D01*
X2707500Y-13180929D01*
X2721786Y-13138071D01*
X2736071Y-13109500D01*
X2764643Y-13066643D01*
X2778928Y-13052357D01*
X2950357Y-13095214D02*
X2978928Y-13095214D01*
X3007500Y-13109500D01*
X3021786Y-13123786D01*
X3036071Y-13152357D01*
X3050357Y-13209500D01*
X3050357Y-13280929D01*
X3036071Y-13338071D01*
X3021786Y-13366643D01*
X3007500Y-13380929D01*
X2978928Y-13395214D01*
X2950357Y-13395214D01*
X2921786Y-13380929D01*
X2907500Y-13366643D01*
X2893214Y-13338071D01*
X2878928Y-13280929D01*
X2878928Y-13209500D01*
X2893214Y-13152357D01*
X2907500Y-13123786D01*
X2921786Y-13109500D01*
X2950357Y-13095214D01*
X3407500Y-13395214D02*
X3407500Y-13095214D01*
X3536071Y-13395214D02*
X3536071Y-13238071D01*
X3521786Y-13209500D01*
X3493214Y-13195214D01*
X3450357Y-13195214D01*
X3421786Y-13209500D01*
X3407500Y-13223786D01*
X3721786Y-13395214D02*
X3693214Y-13380929D01*
X3678928Y-13366643D01*
X3664643Y-13338071D01*
X3664643Y-13252357D01*
X3678928Y-13223786D01*
X3693214Y-13209500D01*
X3721786Y-13195214D01*
X3764643Y-13195214D01*
X3793214Y-13209500D01*
X3807500Y-13223786D01*
X3821786Y-13252357D01*
X3821786Y-13338071D01*
X3807500Y-13366643D01*
X3793214Y-13380929D01*
X3764643Y-13395214D01*
X3721786Y-13395214D01*
X3993214Y-13395214D02*
X3964643Y-13380929D01*
X3950357Y-13352357D01*
X3950357Y-13095214D01*
X4221786Y-13380929D02*
X4193214Y-13395214D01*
X4136071Y-13395214D01*
X4107500Y-13380929D01*
X4093214Y-13352357D01*
X4093214Y-13238071D01*
X4107500Y-13209500D01*
X4136071Y-13195214D01*
X4193214Y-13195214D01*
X4221786Y-13209500D01*
X4236071Y-13238071D01*
X4236071Y-13266643D01*
X4093214Y-13295214D01*
X4350357Y-13380929D02*
X4378928Y-13395214D01*
X4436071Y-13395214D01*
X4464643Y-13380929D01*
X4478928Y-13352357D01*
X4478928Y-13338071D01*
X4464643Y-13309500D01*
X4436071Y-13295214D01*
X4393214Y-13295214D01*
X4364643Y-13280929D01*
X4350357Y-13252357D01*
X4350357Y-13238071D01*
X4364643Y-13209500D01*
X4393214Y-13195214D01*
X4436071Y-13195214D01*
X4464643Y-13209500D01*
X4836071Y-13280929D02*
X5064643Y-13280929D01*
X4950357Y-13395214D02*
X4950357Y-13166643D01*
X5593214Y-13395214D02*
X5421786Y-13395214D01*
X5507500Y-13395214D02*
X5507500Y-13095214D01*
X5478928Y-13138071D01*
X5450357Y-13166643D01*
X5421786Y-13180929D01*
X5778928Y-13095214D02*
X5807500Y-13095214D01*
X5836071Y-13109500D01*
X5850357Y-13123786D01*
X5864643Y-13152357D01*
X5878928Y-13209500D01*
X5878928Y-13280929D01*
X5864643Y-13338071D01*
X5850357Y-13366643D01*
X5836071Y-13380929D01*
X5807500Y-13395214D01*
X5778928Y-13395214D01*
X5750357Y-13380929D01*
X5736071Y-13366643D01*
X5721786Y-13338071D01*
X5707500Y-13280929D01*
X5707500Y-13209500D01*
X5721786Y-13152357D01*
X5736071Y-13123786D01*
X5750357Y-13109500D01*
X5778928Y-13095214D01*
X6221786Y-13380929D02*
X6250357Y-13395214D01*
X6307500Y-13395214D01*
X6336071Y-13380929D01*
X6350357Y-13352357D01*
X6350357Y-13338071D01*
X6336071Y-13309500D01*
X6307500Y-13295214D01*
X6264643Y-13295214D01*
X6236071Y-13280929D01*
X6221786Y-13252357D01*
X6221786Y-13238071D01*
X6236071Y-13209500D01*
X6264643Y-13195214D01*
X6307500Y-13195214D01*
X6336071Y-13209500D01*
X6521786Y-13395214D02*
X6493214Y-13380929D01*
X6478928Y-13352357D01*
X6478928Y-13095214D01*
X6678928Y-13395214D02*
X6650357Y-13380929D01*
X6636071Y-13366643D01*
X6621786Y-13338071D01*
X6621786Y-13252357D01*
X6636071Y-13223786D01*
X6650357Y-13209500D01*
X6678928Y-13195214D01*
X6721786Y-13195214D01*
X6750357Y-13209500D01*
X6764643Y-13223786D01*
X6778928Y-13252357D01*
X6778928Y-13338071D01*
X6764643Y-13366643D01*
X6750357Y-13380929D01*
X6721786Y-13395214D01*
X6678928Y-13395214D01*
X6864643Y-13195214D02*
X6978928Y-13195214D01*
X6907500Y-13095214D02*
X6907500Y-13352357D01*
X6921786Y-13380929D01*
X6950357Y-13395214D01*
X6978928Y-13395214D01*
X7064643Y-13380929D02*
X7093214Y-13395214D01*
X7150357Y-13395214D01*
X7178928Y-13380929D01*
X7193214Y-13352357D01*
X7193214Y-13338071D01*
X7178928Y-13309500D01*
X7150357Y-13295214D01*
X7107500Y-13295214D01*
X7078928Y-13280929D01*
X7064643Y-13252357D01*
X7064643Y-13238071D01*
X7078928Y-13209500D01*
X7107500Y-13195214D01*
X7150357Y-13195214D01*
X7178928Y-13209500D01*
X7293214Y-13509500D02*
X7307500Y-13495214D01*
X7336071Y-13452357D01*
X7350357Y-13423786D01*
X7364643Y-13380929D01*
X7378928Y-13309500D01*
X7378928Y-13252357D01*
X7364643Y-13180929D01*
X7350357Y-13138071D01*
X7336071Y-13109500D01*
X7307500Y-13066643D01*
X7293214Y-13052357D01*
M02*
