M48
; DRILL file {KiCad (5.1.4)-1} date 1/7/2022 11:35:42 PM
; FORMAT={-:-/ absolute / metric / decimal}
; #@! TF.CreationDate,2022-01-07T23:35:42-05:00
; #@! TF.GenerationSoftware,Kicad,Pcbnew,(5.1.4)-1
; #@! TF.FileFunction,Plated,1,2,PTH
FMAT,2
METRIC
T1C0.400
T2C0.800
T3C1.000
T4C1.016
T5C1.040
T6C1.100
T7C1.200
T8C1.500
%
G90
G05
T1
X15.24Y0.635
X53.721Y8.255
X61.849Y2.286
X64.274Y2.085
X64.753Y2.963
X65.913Y0.635
X66.458Y-2.721
X66.458Y-17.4
X66.832Y0.241
X66.959Y-19.648
X67.183Y-18.198
X68.072Y-19.648
X73.025Y3.937
X74.134Y9.94
X88.524Y-16.237
X98.062Y-20.098
X98.806Y-18.198
X99.06Y-19.648
X99.935Y-17.639
X101.134Y-17.465
X112.305Y-5.752
X113.03Y-11.266
X113.898Y-12.028
X118.618Y7.263
X142.488Y-11.701
X181.61Y-11.701
X238.858Y6.708
X238.892Y5.709
X239.268Y7.62
X240.157Y11.811
X240.157Y9.779
X262.509Y-89.408
X262.763Y-58.801
X263.398Y-88.773
X264.033Y-59.182
X264.758Y-61.341
X265.483Y-65.913
X266.208Y-69.342
X266.446Y-47.879
X266.573Y-46.863
X266.933Y-71.882
X267.658Y-73.533
X267.843Y-22.225
X268.351Y-46.101
X268.383Y-78.867
X268.605Y-77.089
X269.24Y-45.085
X269.24Y-83.058
X269.24Y-85.471
X269.708Y-16.55
X269.875Y-80.518
X270.863Y-14.971
X271.636Y-15.605
X272.934Y-14.721
X276.225Y-15.046
X286.385Y-47.784
X286.51Y-14.321
X287.586Y-47.59
X287.782Y-46.609
X288.798Y-55.753
X295.275Y-86.868
X295.402Y-54.483
X295.402Y-58.801
X297.942Y-86.868
X298.043Y-22.86
T2
X281.305Y16.574
X283.757Y4.334
X283.757Y2.334
X283.845Y16.574
X285.757Y4.334
X285.757Y2.334
X287.757Y4.334
X287.757Y2.334
T3
X21.077Y12.024
X21.077Y9.524
X21.077Y7.024
X35.577Y12.024
X35.577Y7.024
X240.152Y2.499
X240.152Y-0.001
X240.152Y-2.501
X254.652Y2.499
X254.652Y-2.501
X68.444Y9.017
X68.444Y6.477
X68.444Y3.937
X68.444Y1.397
X68.444Y-1.143
X68.444Y-3.683
X68.444Y-6.223
X68.444Y-8.763
X202.052Y2.499
X202.052Y-0.001
X202.052Y-2.501
X216.552Y2.499
X216.552Y-2.501
X163.952Y2.499
X163.952Y-0.001
X163.952Y-2.501
X178.452Y2.499
X178.452Y-2.501
X125.852Y2.499
X125.852Y-0.001
X125.852Y-2.501
X140.352Y2.499
X140.352Y-2.501
T4
X75.565Y5.715
X75.565Y3.175
X75.565Y0.635
X75.565Y-4.445
X78.105Y5.715
X78.105Y3.175
X78.105Y0.635
X78.105Y-1.905
X78.105Y-4.445
X81.915Y17.145
X81.915Y14.605
X81.915Y12.065
X81.915Y9.525
X81.915Y6.985
X81.915Y4.445
X81.915Y1.905
X81.915Y-0.635
X81.915Y-3.175
X81.915Y-5.715
X81.915Y-8.255
X81.915Y-10.795
X81.915Y-13.335
X81.915Y-15.875
X86.995Y17.145
X89.535Y17.145
X97.155Y17.145
X97.155Y14.605
X97.155Y12.065
X97.155Y9.525
X97.155Y6.985
X97.155Y4.445
X97.155Y1.905
X97.155Y-0.635
X97.155Y-3.175
X97.155Y-5.715
X97.155Y-8.255
X97.155Y-10.795
X97.155Y-13.335
X97.155Y-15.875
X102.847Y-7.645
X105.428Y-7.645
X107.965Y-7.645
X108.839Y14.605
X108.839Y12.065
X108.839Y9.525
T5
X185.675Y-74.93
X185.675Y-77.47
X84.455Y-33.275
X86.995Y-33.275
X46.355Y-14.225
X48.895Y-14.225
X193.992Y-52.325
X196.532Y-52.325
X27.305Y-14.225
X29.845Y-14.225
X170.18Y-52.325
X172.72Y-52.325
X261.875Y-74.93
X261.875Y-77.47
X60.642Y-52.325
X63.182Y-52.325
X71.375Y-74.93
X71.375Y-77.47
X-10.795Y-52.325
X-8.255Y-52.325
X204.725Y-74.93
X204.725Y-77.47
X160.655Y-33.275
X163.195Y-33.275
X223.775Y-74.93
X223.775Y-77.47
X128.525Y-74.93
X128.525Y-77.47
X-10.795Y-71.375
X-8.255Y-71.375
X52.325Y-74.93
X52.325Y-77.47
X36.83Y-52.325
X39.37Y-52.325
X198.755Y-33.275
X201.295Y-33.275
X103.505Y-33.275
X106.045Y-33.275
X251.142Y-52.325
X253.682Y-52.325
X141.605Y-33.275
X144.145Y-33.275
X179.705Y-33.275
X182.245Y-33.275
X146.368Y-52.325
X148.907Y-52.325
X13.018Y-52.325
X15.557Y-52.325
X147.575Y-74.93
X147.575Y-77.47
X222.567Y-52.325
X225.107Y-52.325
X8.255Y-33.275
X10.795Y-33.275
X117.792Y-52.325
X120.332Y-52.325
X109.475Y-74.93
X109.475Y-77.47
X-10.795Y-90.425
X-8.255Y-90.425
X255.905Y-33.275
X258.445Y-33.275
X90.425Y-74.93
X90.425Y-77.47
X-10.795Y-33.275
X-8.255Y-33.275
X46.355Y-33.275
X48.895Y-33.275
X27.305Y-33.275
X29.845Y-33.275
X33.275Y-74.93
X33.275Y-77.47
X236.855Y-33.275
X239.395Y-33.275
X89.218Y-52.325
X91.757Y-52.325
X65.405Y-33.275
X67.945Y-33.275
X217.805Y-33.275
X220.345Y-33.275
X122.555Y-33.275
X125.095Y-33.275
X242.825Y-74.93
X242.825Y-77.47
X166.625Y-74.93
X166.625Y-77.47
X14.225Y-74.93
X14.225Y-77.47
T6
X274.955Y17.304
X274.955Y14.764
X274.955Y12.224
X274.955Y9.684
X274.955Y7.144
X274.955Y4.604
X274.955Y2.064
X274.955Y-0.476
X274.955Y-3.016
X274.955Y-5.556
X274.955Y-8.096
X274.955Y-10.636
X274.955Y-13.176
X274.955Y-15.716
X274.955Y-18.256
X274.955Y-20.796
X274.955Y-23.336
X274.955Y-25.876
X274.955Y-28.416
X274.955Y-30.956
X274.955Y-33.496
X274.955Y-36.036
X274.955Y-38.576
X274.955Y-41.116
X277.495Y-28.416
X278.006Y11.005
X278.006Y8.465
X278.006Y5.925
X278.006Y3.385
X278.006Y0.845
X280.035Y-28.416
X282.575Y-28.416
X285.115Y-28.416
X287.655Y14.764
X287.655Y-28.416
X290.195Y17.304
X290.195Y14.764
X290.195Y12.224
X290.195Y9.684
X290.195Y7.144
X290.195Y4.604
X290.195Y2.064
X290.195Y-0.476
X290.195Y-3.016
X290.195Y-5.556
X290.195Y-8.096
X290.195Y-10.636
X290.195Y-13.176
X290.195Y-15.716
X290.195Y-18.256
X290.195Y-20.796
X290.195Y-23.336
X290.195Y-25.876
X290.195Y-28.416
X290.195Y-30.956
X290.195Y-33.496
X290.195Y-36.036
X290.195Y-38.576
X290.195Y-41.116
T7
X61.912Y-41.725
X66.912Y-43.825
X60.775Y-76.2
X62.875Y-71.2
X-9.525Y-41.725
X-4.525Y-43.825
X194.125Y-76.2
X196.225Y-71.2
X161.925Y-22.675
X166.925Y-24.775
X213.175Y-76.2
X215.275Y-71.2
X117.925Y-76.2
X120.025Y-71.2
X-9.525Y-60.775
X-4.525Y-62.875
X41.725Y-76.2
X43.825Y-71.2
X38.1Y-41.725
X43.1Y-43.825
X200.025Y-22.675
X205.025Y-24.775
X104.775Y-22.675
X109.775Y-24.775
X252.412Y-41.725
X257.412Y-43.825
X142.875Y-22.675
X147.875Y-24.775
X180.975Y-22.675
X185.975Y-24.775
X147.637Y-41.725
X152.637Y-43.825
X14.287Y-41.725
X19.287Y-43.825
X136.975Y-76.2
X139.075Y-71.2
X223.837Y-41.725
X228.837Y-43.825
X9.525Y-22.675
X14.525Y-24.775
X119.062Y-41.725
X124.062Y-43.825
X98.875Y-76.2
X100.975Y-71.2
X-9.525Y-79.825
X-4.525Y-81.925
X257.175Y-22.675
X262.175Y-24.775
X79.825Y-76.2
X81.925Y-71.2
X-9.525Y-22.675
X-4.525Y-24.775
X47.625Y-22.675
X52.625Y-24.775
X28.575Y-22.675
X33.575Y-24.775
X22.675Y-76.2
X24.775Y-71.2
X238.125Y-22.675
X243.125Y-24.775
X90.487Y-41.725
X95.487Y-43.825
X66.675Y-22.675
X71.675Y-24.775
X219.075Y-22.675
X224.075Y-24.775
X123.825Y-22.675
X128.825Y-24.775
X232.225Y-76.2
X234.325Y-71.2
X156.025Y-76.2
X158.125Y-71.2
X3.625Y-76.2
X5.725Y-71.2
X175.075Y-76.2
X177.175Y-71.2
X85.725Y-22.675
X90.725Y-24.775
X47.625Y-3.625
X52.625Y-5.725
X195.262Y-41.725
X200.262Y-43.825
X28.575Y-3.625
X33.575Y-5.725
X171.45Y-41.725
X176.45Y-43.825
X251.275Y-76.2
X253.375Y-71.2
T3
X54.126Y10.808G85X53.126Y10.808
G05
X54.126Y5.308G85X53.126Y5.308
G05
X56.126Y13.208G85X55.126Y13.208
G05
T8
X247.002Y5.599G85X248.302Y5.599
G05
X247.002Y-5.601G85X248.302Y-5.601
G05
X208.902Y5.599G85X210.202Y5.599
G05
X208.902Y-5.601G85X210.202Y-5.601
G05
X170.802Y5.599G85X172.102Y5.599
G05
X170.802Y-5.601G85X172.102Y-5.601
G05
X132.702Y5.599G85X134.002Y5.599
G05
X132.702Y-5.601G85X134.002Y-5.601
G05
X27.927Y15.124G85X29.227Y15.124
G05
X27.927Y3.924G85X29.227Y3.924
G05
T0
M30
