G04 #@! TF.GenerationSoftware,KiCad,Pcbnew,(5.1.4)-1*
G04 #@! TF.CreationDate,2022-01-07T23:34:50-05:00*
G04 #@! TF.ProjectId,the_TOP-1,7468655f-544f-4502-9d31-2e6b69636164,rev?*
G04 #@! TF.SameCoordinates,Original*
G04 #@! TF.FileFunction,Legend,Bot*
G04 #@! TF.FilePolarity,Positive*
%FSLAX46Y46*%
G04 Gerber Fmt 4.6, Leading zero omitted, Abs format (unit mm)*
G04 Created by KiCad (PCBNEW (5.1.4)-1) date 2022-01-07 23:34:50*
%MOMM*%
%LPD*%
G04 APERTURE LIST*
%ADD10C,0.150000*%
%ADD11C,0.120000*%
%ADD12C,0.127000*%
%ADD13C,0.101600*%
%ADD14O,1.626000X1.626000*%
%ADD15C,1.626000*%
%ADD16O,2.902000X1.902000*%
%ADD17O,1.802000X1.802000*%
%ADD18R,1.802000X1.802000*%
%ADD19C,1.702000*%
%ADD20R,1.702000X1.702000*%
%ADD21R,1.402000X1.402000*%
%ADD22C,1.402000*%
%ADD23R,2.007000X2.007000*%
%ADD24C,2.007000*%
%ADD25C,1.302000*%
%ADD26C,2.002000*%
%ADD27C,2.102000*%
%ADD28C,3.502000*%
%ADD29R,1.802000X3.602000*%
%ADD30O,1.602000X1.602000*%
%ADD31O,1.902000X1.902000*%
%ADD32R,3.602000X1.802000*%
%ADD33R,2.102000X2.102000*%
%ADD34R,3.302000X2.102000*%
%ADD35C,2.202180*%
%ADD36R,1.302000X1.002000*%
G04 APERTURE END LIST*
D10*
X107708700Y3086100D02*
X107708700Y18412460D01*
X101719380Y3086100D02*
X107708700Y3086100D01*
X101719380Y18412460D02*
X101719380Y3086100D01*
X79375000Y-5715000D02*
X79375000Y1905000D01*
X74295000Y-5715000D02*
X79375000Y-5715000D01*
X74295000Y1905000D02*
X74295000Y-5715000D01*
X74295000Y1905000D02*
X74295000Y6985000D01*
X79375000Y1905000D02*
X74295000Y1905000D01*
X79375000Y6985000D02*
X79375000Y1905000D01*
X74295000Y6985000D02*
X79375000Y6985000D01*
X109855000Y18415000D02*
X73025000Y18415000D01*
X109855000Y-17145000D02*
X109855000Y18415000D01*
X73025000Y-17145000D02*
X109855000Y-17145000D01*
X73025000Y18415000D02*
X73025000Y-17145000D01*
X80645000Y18415000D02*
X98425000Y18415000D01*
X80645000Y-17145000D02*
X80645000Y18415000D01*
X98425000Y-17145000D02*
X80645000Y-17145000D01*
X98425000Y18415000D02*
X98425000Y-17145000D01*
D11*
X57846000Y14528000D02*
X57846000Y18528000D01*
X59746000Y14528000D02*
X57846000Y14528000D01*
X59746000Y288000D02*
X59746000Y14528000D01*
X51306000Y288000D02*
X59746000Y288000D01*
X51306000Y14528000D02*
X51306000Y288000D01*
X51606000Y14528000D02*
X51306000Y14528000D01*
X51606000Y18528000D02*
X51606000Y14528000D01*
X57846000Y18528000D02*
X51606000Y18528000D01*
X272075000Y-94556250D02*
X293075000Y-94556250D01*
X278875000Y-43556250D02*
X272075000Y-43556250D01*
X272075000Y-91889250D02*
X275082000Y-91889250D01*
X275082000Y-91889250D02*
X275082000Y-94556250D01*
X272075000Y-94556250D02*
X272075000Y-94256250D01*
X272075000Y-92156250D02*
X272075000Y-91756250D01*
X272075000Y-89556250D02*
X272075000Y-89156250D01*
X272075000Y-87056250D02*
X272075000Y-86656250D01*
X272075000Y-84456250D02*
X272075000Y-84056250D01*
X272075000Y-81956250D02*
X272075000Y-81556250D01*
X272075000Y-79456250D02*
X272075000Y-79056250D01*
X272075000Y-76856250D02*
X272075000Y-76456250D01*
X272075000Y-74356250D02*
X272075000Y-73956250D01*
X272075000Y-71756250D02*
X272075000Y-71356250D01*
X272075000Y-69256250D02*
X272075000Y-68856250D01*
X272075000Y-66756250D02*
X272075000Y-66356250D01*
X272075000Y-64156250D02*
X272075000Y-63756250D01*
X272075000Y-61656250D02*
X272075000Y-61256250D01*
X272075000Y-59056250D02*
X272075000Y-58656250D01*
X272075000Y-56556250D02*
X272075000Y-56156250D01*
X272075000Y-53956250D02*
X272075000Y-53556250D01*
X272075000Y-51456250D02*
X272075000Y-51056250D01*
X272075000Y-48956250D02*
X272075000Y-48556250D01*
X272075000Y-46356250D02*
X272075000Y-45956250D01*
X293075000Y-79456250D02*
X293075000Y-79056250D01*
X293075000Y-74356250D02*
X293075000Y-73956250D01*
X293075000Y-66756250D02*
X293075000Y-66356250D01*
X293075000Y-59056250D02*
X293075000Y-58656250D01*
X293075000Y-89556250D02*
X293075000Y-89156250D01*
X293075000Y-92156250D02*
X293075000Y-91756250D01*
X293075000Y-84456250D02*
X293075000Y-84056250D01*
X293075000Y-51456250D02*
X293075000Y-51056250D01*
X293075000Y-46356250D02*
X293075000Y-45956250D01*
X293075000Y-48956250D02*
X293075000Y-48556250D01*
X293075000Y-64156250D02*
X293075000Y-63756250D01*
X293075000Y-69256250D02*
X293075000Y-68856250D01*
X293075000Y-81956250D02*
X293075000Y-81556250D01*
X293075000Y-76856250D02*
X293075000Y-76456250D01*
X293075000Y-56556250D02*
X293075000Y-56156250D01*
X293075000Y-71756250D02*
X293075000Y-71356250D01*
X293075000Y-94556250D02*
X293075000Y-94256250D01*
X293075000Y-87056250D02*
X293075000Y-86656250D01*
X293075000Y-61656250D02*
X293075000Y-61256250D01*
X293075000Y-53956250D02*
X293075000Y-53556250D01*
X293075000Y-43556250D02*
X286275000Y-43556250D01*
X281075000Y-43556250D02*
X281475000Y-43556250D01*
X283675000Y-43556250D02*
X284075000Y-43556250D01*
X266557000Y-78450000D02*
X266557000Y-74550000D01*
X264557000Y-78450000D02*
X264557000Y-74550000D01*
X266557000Y-78450000D02*
X264557000Y-78450000D01*
X261985000Y-50002000D02*
X261985000Y-46102000D01*
X259985000Y-50002000D02*
X259985000Y-46102000D01*
X261985000Y-50002000D02*
X259985000Y-50002000D01*
X266557000Y-30825000D02*
X266557000Y-26925000D01*
X264557000Y-30825000D02*
X264557000Y-26925000D01*
X266557000Y-30825000D02*
X264557000Y-30825000D01*
X247507000Y-78450000D02*
X247507000Y-74550000D01*
X245507000Y-78450000D02*
X245507000Y-74550000D01*
X247507000Y-78450000D02*
X245507000Y-78450000D01*
X247507000Y-30825000D02*
X247507000Y-26925000D01*
X245507000Y-30825000D02*
X245507000Y-26925000D01*
X247507000Y-30825000D02*
X245507000Y-30825000D01*
X228457000Y-78450000D02*
X228457000Y-74550000D01*
X226457000Y-78450000D02*
X226457000Y-74550000D01*
X228457000Y-78450000D02*
X226457000Y-78450000D01*
X228457000Y-30952000D02*
X228457000Y-27052000D01*
X226457000Y-30952000D02*
X226457000Y-27052000D01*
X228457000Y-30952000D02*
X226457000Y-30952000D01*
X209407000Y-78577000D02*
X209407000Y-74677000D01*
X207407000Y-78577000D02*
X207407000Y-74677000D01*
X209407000Y-78577000D02*
X207407000Y-78577000D01*
X204708000Y-49875000D02*
X204708000Y-45975000D01*
X202708000Y-49875000D02*
X202708000Y-45975000D01*
X204708000Y-49875000D02*
X202708000Y-49875000D01*
X209407000Y-30825000D02*
X209407000Y-26925000D01*
X207407000Y-30825000D02*
X207407000Y-26925000D01*
X209407000Y-30825000D02*
X207407000Y-30825000D01*
X190357000Y-78450000D02*
X190357000Y-74550000D01*
X188357000Y-78450000D02*
X188357000Y-74550000D01*
X190357000Y-78450000D02*
X188357000Y-78450000D01*
X233283000Y-50002000D02*
X233283000Y-46102000D01*
X231283000Y-50002000D02*
X231283000Y-46102000D01*
X233283000Y-50002000D02*
X231283000Y-50002000D01*
X190357000Y-30952000D02*
X190357000Y-27052000D01*
X188357000Y-30952000D02*
X188357000Y-27052000D01*
X190357000Y-30952000D02*
X188357000Y-30952000D01*
X171307000Y-78450000D02*
X171307000Y-74550000D01*
X169307000Y-78450000D02*
X169307000Y-74550000D01*
X171307000Y-78450000D02*
X169307000Y-78450000D01*
X180832000Y-50002000D02*
X180832000Y-46102000D01*
X178832000Y-50002000D02*
X178832000Y-46102000D01*
X180832000Y-50002000D02*
X178832000Y-50002000D01*
X171307000Y-30952000D02*
X171307000Y-27052000D01*
X169307000Y-30952000D02*
X169307000Y-27052000D01*
X171307000Y-30952000D02*
X169307000Y-30952000D01*
X152257000Y-78450000D02*
X152257000Y-74550000D01*
X150257000Y-78450000D02*
X150257000Y-74550000D01*
X152257000Y-78450000D02*
X150257000Y-78450000D01*
X152257000Y-30825000D02*
X152257000Y-26925000D01*
X150257000Y-30825000D02*
X150257000Y-26925000D01*
X152257000Y-30825000D02*
X150257000Y-30825000D01*
X133207000Y-78450000D02*
X133207000Y-74550000D01*
X131207000Y-78450000D02*
X131207000Y-74550000D01*
X133207000Y-78450000D02*
X131207000Y-78450000D01*
X157083000Y-49875000D02*
X157083000Y-45975000D01*
X155083000Y-49875000D02*
X155083000Y-45975000D01*
X157083000Y-49875000D02*
X155083000Y-49875000D01*
X133207000Y-30952000D02*
X133207000Y-27052000D01*
X131207000Y-30952000D02*
X131207000Y-27052000D01*
X133207000Y-30952000D02*
X131207000Y-30952000D01*
X114157000Y-78450000D02*
X114157000Y-74550000D01*
X112157000Y-78450000D02*
X112157000Y-74550000D01*
X114157000Y-78450000D02*
X112157000Y-78450000D01*
X128381000Y-50002000D02*
X128381000Y-46102000D01*
X126381000Y-50002000D02*
X126381000Y-46102000D01*
X128381000Y-50002000D02*
X126381000Y-50002000D01*
X114157000Y-30952000D02*
X114157000Y-27052000D01*
X112157000Y-30952000D02*
X112157000Y-27052000D01*
X114157000Y-30952000D02*
X112157000Y-30952000D01*
X95107000Y-78450000D02*
X95107000Y-74550000D01*
X93107000Y-78450000D02*
X93107000Y-74550000D01*
X95107000Y-78450000D02*
X93107000Y-78450000D01*
X99806000Y-50002000D02*
X99806000Y-46102000D01*
X97806000Y-50002000D02*
X97806000Y-46102000D01*
X99806000Y-50002000D02*
X97806000Y-50002000D01*
X95107000Y-30825000D02*
X95107000Y-26925000D01*
X93107000Y-30825000D02*
X93107000Y-26925000D01*
X95107000Y-30825000D02*
X93107000Y-30825000D01*
X76057000Y-78450000D02*
X76057000Y-74550000D01*
X74057000Y-78450000D02*
X74057000Y-74550000D01*
X76057000Y-78450000D02*
X74057000Y-78450000D01*
X76057000Y-30825000D02*
X76057000Y-26925000D01*
X74057000Y-30825000D02*
X74057000Y-26925000D01*
X76057000Y-30825000D02*
X74057000Y-30825000D01*
X57007000Y-78450000D02*
X57007000Y-74550000D01*
X55007000Y-78450000D02*
X55007000Y-74550000D01*
X57007000Y-78450000D02*
X55007000Y-78450000D01*
X71358000Y-49748000D02*
X71358000Y-45848000D01*
X69358000Y-49748000D02*
X69358000Y-45848000D01*
X71358000Y-49748000D02*
X69358000Y-49748000D01*
X57007000Y-30825000D02*
X57007000Y-26925000D01*
X55007000Y-30825000D02*
X55007000Y-26925000D01*
X57007000Y-30825000D02*
X55007000Y-30825000D01*
X57007000Y-11775000D02*
X57007000Y-7875000D01*
X55007000Y-11775000D02*
X55007000Y-7875000D01*
X57007000Y-11775000D02*
X55007000Y-11775000D01*
X37957000Y-78450000D02*
X37957000Y-74550000D01*
X35957000Y-78450000D02*
X35957000Y-74550000D01*
X37957000Y-78450000D02*
X35957000Y-78450000D01*
X47355000Y-49875000D02*
X47355000Y-45975000D01*
X45355000Y-49875000D02*
X45355000Y-45975000D01*
X47355000Y-49875000D02*
X45355000Y-49875000D01*
X37957000Y-30825000D02*
X37957000Y-26925000D01*
X35957000Y-30825000D02*
X35957000Y-26925000D01*
X37957000Y-30825000D02*
X35957000Y-30825000D01*
X37957000Y-11775000D02*
X37957000Y-7875000D01*
X35957000Y-11775000D02*
X35957000Y-7875000D01*
X37957000Y-11775000D02*
X35957000Y-11775000D01*
X18907000Y-78450000D02*
X18907000Y-74550000D01*
X16907000Y-78450000D02*
X16907000Y-74550000D01*
X18907000Y-78450000D02*
X16907000Y-78450000D01*
X23606000Y-50002000D02*
X23606000Y-46102000D01*
X21606000Y-50002000D02*
X21606000Y-46102000D01*
X23606000Y-50002000D02*
X21606000Y-50002000D01*
X18780000Y-30825000D02*
X18780000Y-26925000D01*
X16780000Y-30825000D02*
X16780000Y-26925000D01*
X18780000Y-30825000D02*
X16780000Y-30825000D01*
X-143000Y-87975000D02*
X-143000Y-84075000D01*
X-2143000Y-87975000D02*
X-2143000Y-84075000D01*
X-143000Y-87975000D02*
X-2143000Y-87975000D01*
X-143000Y-68925000D02*
X-143000Y-65025000D01*
X-2143000Y-68925000D02*
X-2143000Y-65025000D01*
X-143000Y-68925000D02*
X-2143000Y-68925000D01*
X-143000Y-49875000D02*
X-143000Y-45975000D01*
X-2143000Y-49875000D02*
X-2143000Y-45975000D01*
X-143000Y-49875000D02*
X-2143000Y-49875000D01*
X-143000Y-30825000D02*
X-143000Y-26925000D01*
X-2143000Y-30825000D02*
X-2143000Y-26925000D01*
X-143000Y-30825000D02*
X-2143000Y-30825000D01*
D10*
X99505520Y17386204D02*
X100315044Y17386204D01*
X100410282Y17338585D01*
X100457901Y17290966D01*
X100505520Y17195728D01*
X100505520Y17005252D01*
X100457901Y16910014D01*
X100410282Y16862395D01*
X100315044Y16814776D01*
X99505520Y16814776D01*
X99600759Y16386204D02*
X99553140Y16338585D01*
X99505520Y16243347D01*
X99505520Y16005252D01*
X99553140Y15910014D01*
X99600759Y15862395D01*
X99695997Y15814776D01*
X99791235Y15814776D01*
X99934092Y15862395D01*
X100505520Y16433823D01*
X100505520Y15814776D01*
D12*
X107583514Y-9134202D02*
X107583514Y-9605917D01*
X107873800Y-9351917D01*
X107873800Y-9460774D01*
X107910085Y-9533345D01*
X107946371Y-9569631D01*
X108018942Y-9605917D01*
X108200371Y-9605917D01*
X108272942Y-9569631D01*
X108309228Y-9533345D01*
X108345514Y-9460774D01*
X108345514Y-9243060D01*
X108309228Y-9170488D01*
X108272942Y-9134202D01*
X108272942Y-9932488D02*
X108309228Y-9968774D01*
X108345514Y-9932488D01*
X108309228Y-9896202D01*
X108272942Y-9932488D01*
X108345514Y-9932488D01*
X107583514Y-10222774D02*
X107583514Y-10694488D01*
X107873800Y-10440488D01*
X107873800Y-10549345D01*
X107910085Y-10621917D01*
X107946371Y-10658202D01*
X108018942Y-10694488D01*
X108200371Y-10694488D01*
X108272942Y-10658202D01*
X108309228Y-10621917D01*
X108345514Y-10549345D01*
X108345514Y-10331631D01*
X108309228Y-10259060D01*
X108272942Y-10222774D01*
X107583514Y-10912202D02*
X108345514Y-11166202D01*
X107583514Y-11420202D01*
X104977474Y-9097917D02*
X105739474Y-9351917D01*
X104977474Y-9605917D01*
X104977474Y-10005060D02*
X104977474Y-10150203D01*
X105013760Y-10222774D01*
X105086331Y-10295346D01*
X105231474Y-10331631D01*
X105485474Y-10331631D01*
X105630617Y-10295346D01*
X105703188Y-10222774D01*
X105739474Y-10150203D01*
X105739474Y-10005060D01*
X105703188Y-9932489D01*
X105630617Y-9859917D01*
X105485474Y-9823631D01*
X105231474Y-9823631D01*
X105086331Y-9859917D01*
X105013760Y-9932489D01*
X104977474Y-10005060D01*
X105739474Y-11021060D02*
X105739474Y-10658203D01*
X104977474Y-10658203D01*
X105739474Y-12254774D02*
X105739474Y-11819346D01*
X105739474Y-12037060D02*
X104977474Y-12037060D01*
X105086331Y-11964489D01*
X105158902Y-11891917D01*
X105195188Y-11819346D01*
X104977474Y-12944203D02*
X104977474Y-12581346D01*
X105340331Y-12545060D01*
X105304045Y-12581346D01*
X105267760Y-12653917D01*
X105267760Y-12835346D01*
X105304045Y-12907917D01*
X105340331Y-12944203D01*
X105412902Y-12980489D01*
X105594331Y-12980489D01*
X105666902Y-12944203D01*
X105703188Y-12907917D01*
X105739474Y-12835346D01*
X105739474Y-12653917D01*
X105703188Y-12581346D01*
X105666902Y-12545060D01*
X102506780Y-9605917D02*
X102470494Y-9533346D01*
X102470494Y-9424489D01*
X102506780Y-9315631D01*
X102579351Y-9243060D01*
X102651922Y-9206774D01*
X102797065Y-9170489D01*
X102905922Y-9170489D01*
X103051065Y-9206774D01*
X103123637Y-9243060D01*
X103196208Y-9315631D01*
X103232494Y-9424489D01*
X103232494Y-9497060D01*
X103196208Y-9605917D01*
X103159922Y-9642203D01*
X102905922Y-9642203D01*
X102905922Y-9497060D01*
X103232494Y-9968774D02*
X102470494Y-9968774D01*
X103232494Y-10404203D01*
X102470494Y-10404203D01*
X103232494Y-10767060D02*
X102470494Y-10767060D01*
X102470494Y-10948489D01*
X102506780Y-11057346D01*
X102579351Y-11129917D01*
X102651922Y-11166203D01*
X102797065Y-11202489D01*
X102905922Y-11202489D01*
X103051065Y-11166203D01*
X103123637Y-11129917D01*
X103196208Y-11057346D01*
X103232494Y-10948489D01*
X103232494Y-10767060D01*
X80354714Y-4680857D02*
X80354714Y-4318000D01*
X79592714Y-4318000D01*
X79629000Y-2104571D02*
X79592714Y-2032000D01*
X79592714Y-1923142D01*
X79629000Y-1814285D01*
X79701571Y-1741714D01*
X79774142Y-1705428D01*
X79919285Y-1669142D01*
X80028142Y-1669142D01*
X80173285Y-1705428D01*
X80245857Y-1741714D01*
X80318428Y-1814285D01*
X80354714Y-1923142D01*
X80354714Y-1995714D01*
X80318428Y-2104571D01*
X80282142Y-2140857D01*
X80028142Y-2140857D01*
X80028142Y-1995714D01*
X80354714Y399142D02*
X79991857Y653142D01*
X80354714Y834571D02*
X79592714Y834571D01*
X79592714Y544285D01*
X79629000Y471714D01*
X79665285Y435428D01*
X79737857Y399142D01*
X79846714Y399142D01*
X79919285Y435428D01*
X79955571Y471714D01*
X79991857Y544285D01*
X79991857Y834571D01*
X80354714Y2939142D02*
X79991857Y3193142D01*
X80354714Y3374571D02*
X79592714Y3374571D01*
X79592714Y3084285D01*
X79629000Y3011714D01*
X79665285Y2975428D01*
X79737857Y2939142D01*
X79846714Y2939142D01*
X79919285Y2975428D01*
X79955571Y3011714D01*
X79991857Y3084285D01*
X79991857Y3374571D01*
X80354714Y5479142D02*
X80354714Y5842000D01*
X79592714Y5842000D01*
X76425334Y-6553200D02*
X76425334Y-6698342D01*
X76461620Y-6770914D01*
X76534191Y-6843485D01*
X76679334Y-6879771D01*
X76933334Y-6879771D01*
X77078477Y-6843485D01*
X77151048Y-6770914D01*
X77187334Y-6698342D01*
X77187334Y-6553200D01*
X77151048Y-6480628D01*
X77078477Y-6408057D01*
X76933334Y-6371771D01*
X76679334Y-6371771D01*
X76534191Y-6408057D01*
X76461620Y-6480628D01*
X76425334Y-6553200D01*
X76425334Y-7206342D02*
X77042191Y-7206342D01*
X77114762Y-7242628D01*
X77151048Y-7278914D01*
X77187334Y-7351485D01*
X77187334Y-7496628D01*
X77151048Y-7569200D01*
X77114762Y-7605485D01*
X77042191Y-7641771D01*
X76425334Y-7641771D01*
X76425334Y-7895771D02*
X76425334Y-8331200D01*
X77187334Y-8113485D02*
X76425334Y-8113485D01*
X77189874Y8425542D02*
X76427874Y8425542D01*
X77189874Y8062685D02*
X76427874Y8062685D01*
X77189874Y7627257D01*
X76427874Y7627257D01*
X83972763Y17618165D02*
X84335620Y17618165D01*
X84371906Y17255308D01*
X84335620Y17291594D01*
X84263048Y17327880D01*
X84081620Y17327880D01*
X84009048Y17291594D01*
X83972763Y17255308D01*
X83936477Y17182737D01*
X83936477Y17001308D01*
X83972763Y16928737D01*
X84009048Y16892451D01*
X84081620Y16856165D01*
X84263048Y16856165D01*
X84335620Y16892451D01*
X84371906Y16928737D01*
X83682477Y17364165D02*
X83501048Y16856165D01*
X83319620Y17364165D01*
X95140719Y17439640D02*
X95213290Y17475925D01*
X95322148Y17475925D01*
X95431005Y17439640D01*
X95503576Y17367068D01*
X95539862Y17294497D01*
X95576148Y17149354D01*
X95576148Y17040497D01*
X95539862Y16895354D01*
X95503576Y16822782D01*
X95431005Y16750211D01*
X95322148Y16713925D01*
X95249576Y16713925D01*
X95140719Y16750211D01*
X95104433Y16786497D01*
X95104433Y17040497D01*
X95249576Y17040497D01*
X94777862Y16713925D02*
X94777862Y17475925D01*
X94342433Y16713925D01*
X94342433Y17475925D01*
X93979576Y16713925D02*
X93979576Y17475925D01*
X93798148Y17475925D01*
X93689290Y17439640D01*
X93616719Y17367068D01*
X93580433Y17294497D01*
X93544148Y17149354D01*
X93544148Y17040497D01*
X93580433Y16895354D01*
X93616719Y16822782D01*
X93689290Y16750211D01*
X93798148Y16713925D01*
X93979576Y16713925D01*
X87347334Y15737114D02*
X86585334Y15737114D01*
X87129620Y15483114D01*
X86585334Y15229114D01*
X87347334Y15229114D01*
X87347334Y14866257D02*
X86585334Y14866257D01*
X87274762Y14067971D02*
X87311048Y14104257D01*
X87347334Y14213114D01*
X87347334Y14285686D01*
X87311048Y14394543D01*
X87238477Y14467114D01*
X87165905Y14503400D01*
X87020762Y14539686D01*
X86911905Y14539686D01*
X86766762Y14503400D01*
X86694191Y14467114D01*
X86621620Y14394543D01*
X86585334Y14285686D01*
X86585334Y14213114D01*
X86621620Y14104257D01*
X86657905Y14067971D01*
X89209880Y15337971D02*
X89173594Y15410542D01*
X89173594Y15519400D01*
X89209880Y15628257D01*
X89282451Y15700828D01*
X89355022Y15737114D01*
X89500165Y15773400D01*
X89609022Y15773400D01*
X89754165Y15737114D01*
X89826737Y15700828D01*
X89899308Y15628257D01*
X89935594Y15519400D01*
X89935594Y15446828D01*
X89899308Y15337971D01*
X89863022Y15301685D01*
X89609022Y15301685D01*
X89609022Y15446828D01*
X89935594Y14975114D02*
X89173594Y14975114D01*
X89935594Y14539685D01*
X89173594Y14539685D01*
X89935594Y14176828D02*
X89173594Y14176828D01*
X89173594Y13995400D01*
X89209880Y13886542D01*
X89282451Y13813971D01*
X89355022Y13777685D01*
X89500165Y13741400D01*
X89609022Y13741400D01*
X89754165Y13777685D01*
X89826737Y13813971D01*
X89899308Y13886542D01*
X89935594Y13995400D01*
X89935594Y14176828D01*
X87347334Y-16305348D02*
X87238477Y-16341634D01*
X87057048Y-16341634D01*
X86984477Y-16305348D01*
X86948191Y-16269062D01*
X86911905Y-16196491D01*
X86911905Y-16123920D01*
X86948191Y-16051348D01*
X86984477Y-16015062D01*
X87057048Y-15978777D01*
X87202191Y-15942491D01*
X87274762Y-15906205D01*
X87311048Y-15869920D01*
X87347334Y-15797348D01*
X87347334Y-15724777D01*
X87311048Y-15652205D01*
X87274762Y-15615920D01*
X87202191Y-15579634D01*
X87020762Y-15579634D01*
X86911905Y-15615920D01*
X86149905Y-16269062D02*
X86186191Y-16305348D01*
X86295048Y-16341634D01*
X86367620Y-16341634D01*
X86476477Y-16305348D01*
X86549048Y-16232777D01*
X86585334Y-16160205D01*
X86621620Y-16015062D01*
X86621620Y-15906205D01*
X86585334Y-15761062D01*
X86549048Y-15688491D01*
X86476477Y-15615920D01*
X86367620Y-15579634D01*
X86295048Y-15579634D01*
X86186191Y-15615920D01*
X86149905Y-15652205D01*
X85823334Y-16341634D02*
X85823334Y-15579634D01*
X85387905Y-16341634D02*
X85714477Y-15906205D01*
X85387905Y-15579634D02*
X85823334Y-16015062D01*
X84081620Y-16341634D02*
X84517048Y-16341634D01*
X84299334Y-16341634D02*
X84299334Y-15579634D01*
X84371905Y-15688491D01*
X84444477Y-15761062D01*
X84517048Y-15797348D01*
X83827620Y-15579634D02*
X83355905Y-15579634D01*
X83609905Y-15869920D01*
X83501048Y-15869920D01*
X83428477Y-15906205D01*
X83392191Y-15942491D01*
X83355905Y-16015062D01*
X83355905Y-16196491D01*
X83392191Y-16269062D01*
X83428477Y-16305348D01*
X83501048Y-16341634D01*
X83718762Y-16341634D01*
X83791334Y-16305348D01*
X83827620Y-16269062D01*
D13*
X109325349Y10754601D02*
X109083444Y10923935D01*
X109325349Y11044887D02*
X108817349Y11044887D01*
X108817349Y10851363D01*
X108841540Y10802982D01*
X108865730Y10778792D01*
X108914111Y10754601D01*
X108986682Y10754601D01*
X109035063Y10778792D01*
X109059254Y10802982D01*
X109083444Y10851363D01*
X109083444Y11044887D01*
X109325349Y8082521D02*
X109325349Y8324426D01*
X108817349Y8324426D01*
D12*
X87238477Y-10606314D02*
X86984477Y-11368314D01*
X86730477Y-10606314D01*
X86331334Y-10606314D02*
X86186191Y-10606314D01*
X86113620Y-10642600D01*
X86041048Y-10715171D01*
X86004763Y-10860314D01*
X86004763Y-11114314D01*
X86041048Y-11259457D01*
X86113620Y-11332028D01*
X86186191Y-11368314D01*
X86331334Y-11368314D01*
X86403906Y-11332028D01*
X86476477Y-11259457D01*
X86512763Y-11114314D01*
X86512763Y-10860314D01*
X86476477Y-10715171D01*
X86403906Y-10642600D01*
X86331334Y-10606314D01*
X85315334Y-11368314D02*
X85678191Y-11368314D01*
X85678191Y-10606314D01*
X84081620Y-11368314D02*
X84517048Y-11368314D01*
X84299334Y-11368314D02*
X84299334Y-10606314D01*
X84371906Y-10715171D01*
X84444477Y-10787742D01*
X84517048Y-10824028D01*
X83392191Y-10606314D02*
X83755048Y-10606314D01*
X83791334Y-10969171D01*
X83755048Y-10932885D01*
X83682477Y-10896600D01*
X83501048Y-10896600D01*
X83428477Y-10932885D01*
X83392191Y-10969171D01*
X83355906Y-11041742D01*
X83355906Y-11223171D01*
X83392191Y-11295742D01*
X83428477Y-11332028D01*
X83501048Y-11368314D01*
X83682477Y-11368314D01*
X83755048Y-11332028D01*
X83791334Y-11295742D01*
X83392191Y14955520D02*
X83464763Y14991805D01*
X83573620Y14991805D01*
X83682477Y14955520D01*
X83755048Y14882948D01*
X83791334Y14810377D01*
X83827620Y14665234D01*
X83827620Y14556377D01*
X83791334Y14411234D01*
X83755048Y14338662D01*
X83682477Y14266091D01*
X83573620Y14229805D01*
X83501048Y14229805D01*
X83392191Y14266091D01*
X83355905Y14302377D01*
X83355905Y14556377D01*
X83501048Y14556377D01*
X84480763Y12352745D02*
X84009049Y12352745D01*
X84263049Y12062460D01*
X84154192Y12062460D01*
X84081620Y12026174D01*
X84045334Y11989888D01*
X84009049Y11917317D01*
X84009049Y11735888D01*
X84045334Y11663317D01*
X84081620Y11627031D01*
X84154192Y11590745D01*
X84371906Y11590745D01*
X84444477Y11627031D01*
X84480763Y11663317D01*
X83791334Y12352745D02*
X83537334Y11590745D01*
X83283334Y12352745D01*
X88073048Y9185365D02*
X88073048Y9947365D01*
X87819048Y9403080D01*
X87565048Y9947365D01*
X87565048Y9185365D01*
X86766762Y9257937D02*
X86803048Y9221651D01*
X86911905Y9185365D01*
X86984477Y9185365D01*
X87093334Y9221651D01*
X87165905Y9294222D01*
X87202191Y9366794D01*
X87238477Y9511937D01*
X87238477Y9620794D01*
X87202191Y9765937D01*
X87165905Y9838508D01*
X87093334Y9911080D01*
X86984477Y9947365D01*
X86911905Y9947365D01*
X86803048Y9911080D01*
X86766762Y9874794D01*
X86077334Y9185365D02*
X86440191Y9185365D01*
X86440191Y9947365D01*
X85823334Y9185365D02*
X85823334Y9947365D01*
X85387905Y9185365D02*
X85714477Y9620794D01*
X85387905Y9947365D02*
X85823334Y9511937D01*
X84517048Y9874794D02*
X84480762Y9911080D01*
X84408191Y9947365D01*
X84226762Y9947365D01*
X84154191Y9911080D01*
X84117905Y9874794D01*
X84081620Y9802222D01*
X84081620Y9729651D01*
X84117905Y9620794D01*
X84553334Y9185365D01*
X84081620Y9185365D01*
X83827620Y9947365D02*
X83355905Y9947365D01*
X83609905Y9657080D01*
X83501048Y9657080D01*
X83428477Y9620794D01*
X83392191Y9584508D01*
X83355905Y9511937D01*
X83355905Y9330508D01*
X83392191Y9257937D01*
X83428477Y9221651D01*
X83501048Y9185365D01*
X83718762Y9185365D01*
X83791334Y9221651D01*
X83827620Y9257937D01*
X87710192Y4407988D02*
X87601334Y4371702D01*
X87565049Y4335417D01*
X87528763Y4262845D01*
X87528763Y4153988D01*
X87565049Y4081417D01*
X87601334Y4045131D01*
X87673906Y4008845D01*
X87964192Y4008845D01*
X87964192Y4770845D01*
X87710192Y4770845D01*
X87637620Y4734560D01*
X87601334Y4698274D01*
X87565049Y4625702D01*
X87565049Y4553131D01*
X87601334Y4480560D01*
X87637620Y4444274D01*
X87710192Y4407988D01*
X87964192Y4407988D01*
X86766763Y4081417D02*
X86803049Y4045131D01*
X86911906Y4008845D01*
X86984477Y4008845D01*
X87093334Y4045131D01*
X87165906Y4117702D01*
X87202192Y4190274D01*
X87238477Y4335417D01*
X87238477Y4444274D01*
X87202192Y4589417D01*
X87165906Y4661988D01*
X87093334Y4734560D01*
X86984477Y4770845D01*
X86911906Y4770845D01*
X86803049Y4734560D01*
X86766763Y4698274D01*
X86077334Y4008845D02*
X86440192Y4008845D01*
X86440192Y4770845D01*
X85823334Y4008845D02*
X85823334Y4770845D01*
X85387906Y4008845D02*
X85714477Y4444274D01*
X85387906Y4770845D02*
X85823334Y4335417D01*
X84517049Y4698274D02*
X84480763Y4734560D01*
X84408192Y4770845D01*
X84226763Y4770845D01*
X84154192Y4734560D01*
X84117906Y4698274D01*
X84081620Y4625702D01*
X84081620Y4553131D01*
X84117906Y4444274D01*
X84553334Y4008845D01*
X84081620Y4008845D01*
X83355906Y4008845D02*
X83791334Y4008845D01*
X83573620Y4008845D02*
X83573620Y4770845D01*
X83646192Y4661988D01*
X83718763Y4589417D01*
X83791334Y4553131D01*
X88218191Y1420585D02*
X88581048Y1420585D01*
X88581048Y2182585D01*
X87528762Y1420585D02*
X87782762Y1783442D01*
X87964191Y1420585D02*
X87964191Y2182585D01*
X87673905Y2182585D01*
X87601334Y2146300D01*
X87565048Y2110014D01*
X87528762Y2037442D01*
X87528762Y1928585D01*
X87565048Y1856014D01*
X87601334Y1819728D01*
X87673905Y1783442D01*
X87964191Y1783442D01*
X86766762Y1493157D02*
X86803048Y1456871D01*
X86911905Y1420585D01*
X86984477Y1420585D01*
X87093334Y1456871D01*
X87165905Y1529442D01*
X87202191Y1602014D01*
X87238477Y1747157D01*
X87238477Y1856014D01*
X87202191Y2001157D01*
X87165905Y2073728D01*
X87093334Y2146300D01*
X86984477Y2182585D01*
X86911905Y2182585D01*
X86803048Y2146300D01*
X86766762Y2110014D01*
X86077334Y1420585D02*
X86440191Y1420585D01*
X86440191Y2182585D01*
X85823334Y1420585D02*
X85823334Y2182585D01*
X85387905Y1420585D02*
X85714477Y1856014D01*
X85387905Y2182585D02*
X85823334Y1747157D01*
X84517048Y2110014D02*
X84480762Y2146300D01*
X84408191Y2182585D01*
X84226762Y2182585D01*
X84154191Y2146300D01*
X84117905Y2110014D01*
X84081620Y2037442D01*
X84081620Y1964871D01*
X84117905Y1856014D01*
X84553334Y1420585D01*
X84081620Y1420585D01*
X83609905Y2182585D02*
X83537334Y2182585D01*
X83464762Y2146300D01*
X83428477Y2110014D01*
X83392191Y2037442D01*
X83355905Y1892300D01*
X83355905Y1710871D01*
X83392191Y1565728D01*
X83428477Y1493157D01*
X83464762Y1456871D01*
X83537334Y1420585D01*
X83609905Y1420585D01*
X83682477Y1456871D01*
X83718762Y1493157D01*
X83755048Y1565728D01*
X83791334Y1710871D01*
X83791334Y1892300D01*
X83755048Y2037442D01*
X83718762Y2110014D01*
X83682477Y2146300D01*
X83609905Y2182585D01*
X87202191Y-1029788D02*
X87093334Y-1066074D01*
X86911906Y-1066074D01*
X86839334Y-1029788D01*
X86803049Y-993502D01*
X86766763Y-920931D01*
X86766763Y-848360D01*
X86803049Y-775788D01*
X86839334Y-739502D01*
X86911906Y-703217D01*
X87057049Y-666931D01*
X87129620Y-630645D01*
X87165906Y-594360D01*
X87202191Y-521788D01*
X87202191Y-449217D01*
X87165906Y-376645D01*
X87129620Y-340360D01*
X87057049Y-304074D01*
X86875620Y-304074D01*
X86766763Y-340360D01*
X86004763Y-993502D02*
X86041049Y-1029788D01*
X86149906Y-1066074D01*
X86222477Y-1066074D01*
X86331334Y-1029788D01*
X86403906Y-957217D01*
X86440191Y-884645D01*
X86476477Y-739502D01*
X86476477Y-630645D01*
X86440191Y-485502D01*
X86403906Y-412931D01*
X86331334Y-340360D01*
X86222477Y-304074D01*
X86149906Y-304074D01*
X86041049Y-340360D01*
X86004763Y-376645D01*
X85315334Y-1066074D02*
X85678191Y-1066074D01*
X85678191Y-304074D01*
X84081620Y-1066074D02*
X84517049Y-1066074D01*
X84299334Y-1066074D02*
X84299334Y-304074D01*
X84371906Y-412931D01*
X84444477Y-485502D01*
X84517049Y-521788D01*
X83718763Y-1066074D02*
X83573620Y-1066074D01*
X83501049Y-1029788D01*
X83464763Y-993502D01*
X83392191Y-884645D01*
X83355906Y-739502D01*
X83355906Y-449217D01*
X83392191Y-376645D01*
X83428477Y-340360D01*
X83501049Y-304074D01*
X83646191Y-304074D01*
X83718763Y-340360D01*
X83755049Y-376645D01*
X83791334Y-449217D01*
X83791334Y-630645D01*
X83755049Y-703217D01*
X83718763Y-739502D01*
X83646191Y-775788D01*
X83501049Y-775788D01*
X83428477Y-739502D01*
X83392191Y-703217D01*
X83355906Y-630645D01*
X87238477Y-3516448D02*
X87129620Y-3552734D01*
X86948192Y-3552734D01*
X86875620Y-3516448D01*
X86839334Y-3480162D01*
X86803049Y-3407591D01*
X86803049Y-3335020D01*
X86839334Y-3262448D01*
X86875620Y-3226162D01*
X86948192Y-3189877D01*
X87093334Y-3153591D01*
X87165906Y-3117305D01*
X87202192Y-3081020D01*
X87238477Y-3008448D01*
X87238477Y-2935877D01*
X87202192Y-2863305D01*
X87165906Y-2827020D01*
X87093334Y-2790734D01*
X86911906Y-2790734D01*
X86803049Y-2827020D01*
X86476477Y-3552734D02*
X86476477Y-2790734D01*
X86295049Y-2790734D01*
X86186192Y-2827020D01*
X86113620Y-2899591D01*
X86077334Y-2972162D01*
X86041049Y-3117305D01*
X86041049Y-3226162D01*
X86077334Y-3371305D01*
X86113620Y-3443877D01*
X86186192Y-3516448D01*
X86295049Y-3552734D01*
X86476477Y-3552734D01*
X85750763Y-3335020D02*
X85387906Y-3335020D01*
X85823334Y-3552734D02*
X85569334Y-2790734D01*
X85315334Y-3552734D01*
X84081620Y-3552734D02*
X84517049Y-3552734D01*
X84299334Y-3552734D02*
X84299334Y-2790734D01*
X84371906Y-2899591D01*
X84444477Y-2972162D01*
X84517049Y-3008448D01*
X83646192Y-3117305D02*
X83718763Y-3081020D01*
X83755049Y-3044734D01*
X83791334Y-2972162D01*
X83791334Y-2935877D01*
X83755049Y-2863305D01*
X83718763Y-2827020D01*
X83646192Y-2790734D01*
X83501049Y-2790734D01*
X83428477Y-2827020D01*
X83392192Y-2863305D01*
X83355906Y-2935877D01*
X83355906Y-2972162D01*
X83392192Y-3044734D01*
X83428477Y-3081020D01*
X83501049Y-3117305D01*
X83646192Y-3117305D01*
X83718763Y-3153591D01*
X83755049Y-3189877D01*
X83791334Y-3262448D01*
X83791334Y-3407591D01*
X83755049Y-3480162D01*
X83718763Y-3516448D01*
X83646192Y-3552734D01*
X83501049Y-3552734D01*
X83428477Y-3516448D01*
X83392192Y-3480162D01*
X83355906Y-3407591D01*
X83355906Y-3262448D01*
X83392192Y-3189877D01*
X83428477Y-3153591D01*
X83501049Y-3117305D01*
X95213291Y-253274D02*
X95358434Y-253274D01*
X95431005Y-289560D01*
X95467291Y-325845D01*
X95539862Y-434702D01*
X95576148Y-579845D01*
X95576148Y-870131D01*
X95539862Y-942702D01*
X95503577Y-978988D01*
X95431005Y-1015274D01*
X95285862Y-1015274D01*
X95213291Y-978988D01*
X95177005Y-942702D01*
X95140720Y-870131D01*
X95140720Y-688702D01*
X95177005Y-616131D01*
X95213291Y-579845D01*
X95285862Y-543560D01*
X95431005Y-543560D01*
X95503577Y-579845D01*
X95539862Y-616131D01*
X95576148Y-688702D01*
X94233577Y-1015274D02*
X94233577Y-253274D01*
X93979577Y-797560D01*
X93725577Y-253274D01*
X93725577Y-1015274D01*
X93362720Y-616131D02*
X93108720Y-616131D01*
X92999862Y-1015274D02*
X93362720Y-1015274D01*
X93362720Y-253274D01*
X92999862Y-253274D01*
X92673291Y-1015274D02*
X92673291Y-253274D01*
X92419291Y-797560D01*
X92165291Y-253274D01*
X92165291Y-1015274D01*
X91367005Y-942702D02*
X91403291Y-978988D01*
X91512148Y-1015274D01*
X91584720Y-1015274D01*
X91693577Y-978988D01*
X91766148Y-906417D01*
X91802434Y-833845D01*
X91838720Y-688702D01*
X91838720Y-579845D01*
X91802434Y-434702D01*
X91766148Y-362131D01*
X91693577Y-289560D01*
X91584720Y-253274D01*
X91512148Y-253274D01*
X91403291Y-289560D01*
X91367005Y-325845D01*
X91076720Y-978988D02*
X90967862Y-1015274D01*
X90786434Y-1015274D01*
X90713862Y-978988D01*
X90677577Y-942702D01*
X90641291Y-870131D01*
X90641291Y-797560D01*
X90677577Y-724988D01*
X90713862Y-688702D01*
X90786434Y-652417D01*
X90931577Y-616131D01*
X91004148Y-579845D01*
X91040434Y-543560D01*
X91076720Y-470988D01*
X91076720Y-398417D01*
X91040434Y-325845D01*
X91004148Y-289560D01*
X90931577Y-253274D01*
X90750148Y-253274D01*
X90641291Y-289560D01*
X95612434Y-2790734D02*
X95104434Y-2790734D01*
X95431005Y-3552734D01*
X94233577Y-3552734D02*
X94233577Y-2790734D01*
X94052148Y-2790734D01*
X93943291Y-2827020D01*
X93870719Y-2899591D01*
X93834434Y-2972162D01*
X93798148Y-3117305D01*
X93798148Y-3226162D01*
X93834434Y-3371305D01*
X93870719Y-3443877D01*
X93943291Y-3516448D01*
X94052148Y-3552734D01*
X94233577Y-3552734D01*
X93471577Y-3552734D02*
X93471577Y-2790734D01*
X93108719Y-3552734D02*
X93108719Y-2790734D01*
X92673291Y-3552734D01*
X92673291Y-2790734D01*
X95431005Y-5807165D02*
X95503577Y-5770880D01*
X95539862Y-5734594D01*
X95576148Y-5662022D01*
X95576148Y-5625737D01*
X95539862Y-5553165D01*
X95503577Y-5516880D01*
X95431005Y-5480594D01*
X95285862Y-5480594D01*
X95213291Y-5516880D01*
X95177005Y-5553165D01*
X95140719Y-5625737D01*
X95140719Y-5662022D01*
X95177005Y-5734594D01*
X95213291Y-5770880D01*
X95285862Y-5807165D01*
X95431005Y-5807165D01*
X95503577Y-5843451D01*
X95539862Y-5879737D01*
X95576148Y-5952308D01*
X95576148Y-6097451D01*
X95539862Y-6170022D01*
X95503577Y-6206308D01*
X95431005Y-6242594D01*
X95285862Y-6242594D01*
X95213291Y-6206308D01*
X95177005Y-6170022D01*
X95140719Y-6097451D01*
X95140719Y-5952308D01*
X95177005Y-5879737D01*
X95213291Y-5843451D01*
X95285862Y-5807165D01*
X94233577Y-6242594D02*
X94233577Y-5480594D01*
X94052148Y-5480594D01*
X93943291Y-5516880D01*
X93870719Y-5589451D01*
X93834434Y-5662022D01*
X93798148Y-5807165D01*
X93798148Y-5916022D01*
X93834434Y-6061165D01*
X93870719Y-6133737D01*
X93943291Y-6206308D01*
X94052148Y-6242594D01*
X94233577Y-6242594D01*
X93326434Y-5480594D02*
X93181291Y-5480594D01*
X93108719Y-5516880D01*
X93036148Y-5589451D01*
X92999862Y-5734594D01*
X92999862Y-5988594D01*
X93036148Y-6133737D01*
X93108719Y-6206308D01*
X93181291Y-6242594D01*
X93326434Y-6242594D01*
X93399005Y-6206308D01*
X93471577Y-6133737D01*
X93507862Y-5988594D01*
X93507862Y-5734594D01*
X93471577Y-5589451D01*
X93399005Y-5516880D01*
X93326434Y-5480594D01*
X92673291Y-5480594D02*
X92673291Y-6097451D01*
X92637005Y-6170022D01*
X92600719Y-6206308D01*
X92528148Y-6242594D01*
X92383005Y-6242594D01*
X92310434Y-6206308D01*
X92274148Y-6170022D01*
X92237862Y-6097451D01*
X92237862Y-5480594D01*
X91983862Y-5480594D02*
X91548434Y-5480594D01*
X91766148Y-6242594D02*
X91766148Y-5480594D01*
X95140719Y-11266714D02*
X95576148Y-11266714D01*
X95358434Y-11266714D02*
X95358434Y-10504714D01*
X95431005Y-10613571D01*
X95503577Y-10686142D01*
X95576148Y-10722428D01*
X94669005Y-10504714D02*
X94596434Y-10504714D01*
X94523862Y-10541000D01*
X94487577Y-10577285D01*
X94451291Y-10649857D01*
X94415005Y-10795000D01*
X94415005Y-10976428D01*
X94451291Y-11121571D01*
X94487577Y-11194142D01*
X94523862Y-11230428D01*
X94596434Y-11266714D01*
X94669005Y-11266714D01*
X94741577Y-11230428D01*
X94777862Y-11194142D01*
X94814148Y-11121571D01*
X94850434Y-10976428D01*
X94850434Y-10795000D01*
X94814148Y-10649857D01*
X94777862Y-10577285D01*
X94741577Y-10541000D01*
X94669005Y-10504714D01*
X93544148Y-11230428D02*
X93435291Y-11266714D01*
X93253862Y-11266714D01*
X93181291Y-11230428D01*
X93145005Y-11194142D01*
X93108719Y-11121571D01*
X93108719Y-11049000D01*
X93145005Y-10976428D01*
X93181291Y-10940142D01*
X93253862Y-10903857D01*
X93399005Y-10867571D01*
X93471577Y-10831285D01*
X93507862Y-10795000D01*
X93544148Y-10722428D01*
X93544148Y-10649857D01*
X93507862Y-10577285D01*
X93471577Y-10541000D01*
X93399005Y-10504714D01*
X93217577Y-10504714D01*
X93108719Y-10541000D01*
X92782148Y-11266714D02*
X92782148Y-10504714D01*
X92600719Y-10504714D01*
X92491862Y-10541000D01*
X92419291Y-10613571D01*
X92383005Y-10686142D01*
X92346719Y-10831285D01*
X92346719Y-10940142D01*
X92383005Y-11085285D01*
X92419291Y-11157857D01*
X92491862Y-11230428D01*
X92600719Y-11266714D01*
X92782148Y-11266714D01*
X91584719Y-11194142D02*
X91621005Y-11230428D01*
X91729862Y-11266714D01*
X91802434Y-11266714D01*
X91911291Y-11230428D01*
X91983862Y-11157857D01*
X92020148Y-11085285D01*
X92056434Y-10940142D01*
X92056434Y-10831285D01*
X92020148Y-10686142D01*
X91983862Y-10613571D01*
X91911291Y-10541000D01*
X91802434Y-10504714D01*
X91729862Y-10504714D01*
X91621005Y-10541000D01*
X91584719Y-10577285D01*
X91294434Y-11230428D02*
X91185577Y-11266714D01*
X91004148Y-11266714D01*
X90931577Y-11230428D01*
X90895291Y-11194142D01*
X90859005Y-11121571D01*
X90859005Y-11049000D01*
X90895291Y-10976428D01*
X90931577Y-10940142D01*
X91004148Y-10903857D01*
X91149291Y-10867571D01*
X91221862Y-10831285D01*
X91258148Y-10795000D01*
X91294434Y-10722428D01*
X91294434Y-10649857D01*
X91258148Y-10577285D01*
X91221862Y-10541000D01*
X91149291Y-10504714D01*
X90967862Y-10504714D01*
X90859005Y-10541000D01*
X95140719Y-13651774D02*
X95576148Y-13651774D01*
X95358434Y-13651774D02*
X95358434Y-12889774D01*
X95431005Y-12998631D01*
X95503576Y-13071202D01*
X95576148Y-13107488D01*
X94415005Y-13651774D02*
X94850434Y-13651774D01*
X94632719Y-13651774D02*
X94632719Y-12889774D01*
X94705291Y-12998631D01*
X94777862Y-13071202D01*
X94850434Y-13107488D01*
X93507862Y-13651774D02*
X93507862Y-12889774D01*
X93253862Y-13434060D01*
X92999862Y-12889774D01*
X92999862Y-13651774D01*
X92491862Y-12889774D02*
X92346719Y-12889774D01*
X92274148Y-12926060D01*
X92201576Y-12998631D01*
X92165291Y-13143774D01*
X92165291Y-13397774D01*
X92201576Y-13542917D01*
X92274148Y-13615488D01*
X92346719Y-13651774D01*
X92491862Y-13651774D01*
X92564434Y-13615488D01*
X92637005Y-13542917D01*
X92673291Y-13397774D01*
X92673291Y-13143774D01*
X92637005Y-12998631D01*
X92564434Y-12926060D01*
X92491862Y-12889774D01*
X91875005Y-13615488D02*
X91766148Y-13651774D01*
X91584719Y-13651774D01*
X91512148Y-13615488D01*
X91475862Y-13579202D01*
X91439576Y-13506631D01*
X91439576Y-13434060D01*
X91475862Y-13361488D01*
X91512148Y-13325202D01*
X91584719Y-13288917D01*
X91729862Y-13252631D01*
X91802434Y-13216345D01*
X91838719Y-13180060D01*
X91875005Y-13107488D01*
X91875005Y-13034917D01*
X91838719Y-12962345D01*
X91802434Y-12926060D01*
X91729862Y-12889774D01*
X91548434Y-12889774D01*
X91439576Y-12926060D01*
X91113005Y-13651774D02*
X91113005Y-12889774D01*
X95140719Y-16290834D02*
X95576148Y-16290834D01*
X95358434Y-16290834D02*
X95358434Y-15528834D01*
X95431005Y-15637691D01*
X95503576Y-15710262D01*
X95576148Y-15746548D01*
X94850434Y-15601405D02*
X94814148Y-15565120D01*
X94741576Y-15528834D01*
X94560148Y-15528834D01*
X94487576Y-15565120D01*
X94451291Y-15601405D01*
X94415005Y-15673977D01*
X94415005Y-15746548D01*
X94451291Y-15855405D01*
X94886719Y-16290834D01*
X94415005Y-16290834D01*
X93507862Y-16290834D02*
X93507862Y-15528834D01*
X93253862Y-16073120D01*
X92999862Y-15528834D01*
X92999862Y-16290834D01*
X92637005Y-16290834D02*
X92637005Y-15528834D01*
X92310434Y-16254548D02*
X92201576Y-16290834D01*
X92020148Y-16290834D01*
X91947576Y-16254548D01*
X91911291Y-16218262D01*
X91875005Y-16145691D01*
X91875005Y-16073120D01*
X91911291Y-16000548D01*
X91947576Y-15964262D01*
X92020148Y-15927977D01*
X92165291Y-15891691D01*
X92237862Y-15855405D01*
X92274148Y-15819120D01*
X92310434Y-15746548D01*
X92310434Y-15673977D01*
X92274148Y-15601405D01*
X92237862Y-15565120D01*
X92165291Y-15528834D01*
X91983862Y-15528834D01*
X91875005Y-15565120D01*
X91403291Y-15528834D02*
X91258148Y-15528834D01*
X91185576Y-15565120D01*
X91113005Y-15637691D01*
X91076719Y-15782834D01*
X91076719Y-16036834D01*
X91113005Y-16181977D01*
X91185576Y-16254548D01*
X91258148Y-16290834D01*
X91403291Y-16290834D01*
X91475862Y-16254548D01*
X91548434Y-16181977D01*
X91584719Y-16036834D01*
X91584719Y-15782834D01*
X91548434Y-15637691D01*
X91475862Y-15565120D01*
X91403291Y-15528834D01*
D13*
X108817349Y17765848D02*
X109325349Y17596515D01*
X108817349Y17427181D01*
X108841540Y16991753D02*
X108817349Y17040134D01*
X108817349Y17112705D01*
X108841540Y17185277D01*
X108889920Y17233658D01*
X108938301Y17257848D01*
X109035063Y17282039D01*
X109107635Y17282039D01*
X109204397Y17257848D01*
X109252778Y17233658D01*
X109301159Y17185277D01*
X109325349Y17112705D01*
X109325349Y17064324D01*
X109301159Y16991753D01*
X109276968Y16967562D01*
X109107635Y16967562D01*
X109107635Y17064324D01*
X109325349Y16749848D02*
X108817349Y16749848D01*
X109325349Y16459562D01*
X108817349Y16459562D01*
X109325349Y16217658D02*
X108817349Y16217658D01*
X108817349Y16096705D01*
X108841540Y16024134D01*
X108889920Y15975753D01*
X108938301Y15951562D01*
X109035063Y15927372D01*
X109107635Y15927372D01*
X109204397Y15951562D01*
X109252778Y15975753D01*
X109301159Y16024134D01*
X109325349Y16096705D01*
X109325349Y16217658D01*
D12*
X104385654Y14467840D02*
X103623654Y14467840D01*
X103986511Y14467840D02*
X103986511Y14032411D01*
X104385654Y14032411D02*
X103623654Y14032411D01*
X103986511Y13669554D02*
X103986511Y13415554D01*
X104385654Y13306697D02*
X104385654Y13669554D01*
X103623654Y13669554D01*
X103623654Y13306697D01*
X104167940Y13016411D02*
X104167940Y12653554D01*
X104385654Y13088982D02*
X103623654Y12834982D01*
X104385654Y12580982D01*
X104385654Y12326982D02*
X103623654Y12326982D01*
X103623654Y12145554D01*
X103659940Y12036697D01*
X103732511Y11964125D01*
X103805082Y11927840D01*
X103950225Y11891554D01*
X104059082Y11891554D01*
X104204225Y11927840D01*
X104276797Y11964125D01*
X104349368Y12036697D01*
X104385654Y12145554D01*
X104385654Y12326982D01*
X104385654Y11564982D02*
X103623654Y11564982D01*
X103623654Y11274697D01*
X103659940Y11202125D01*
X103696225Y11165840D01*
X103768797Y11129554D01*
X103877654Y11129554D01*
X103950225Y11165840D01*
X103986511Y11202125D01*
X104022797Y11274697D01*
X104022797Y11564982D01*
X104385654Y10802982D02*
X103623654Y10802982D01*
X103986511Y10802982D02*
X103986511Y10367554D01*
X104385654Y10367554D02*
X103623654Y10367554D01*
X103623654Y9859554D02*
X103623654Y9714411D01*
X103659940Y9641840D01*
X103732511Y9569268D01*
X103877654Y9532982D01*
X104131654Y9532982D01*
X104276797Y9569268D01*
X104349368Y9641840D01*
X104385654Y9714411D01*
X104385654Y9859554D01*
X104349368Y9932125D01*
X104276797Y10004697D01*
X104131654Y10040982D01*
X103877654Y10040982D01*
X103732511Y10004697D01*
X103659940Y9932125D01*
X103623654Y9859554D01*
X104385654Y9206411D02*
X103623654Y9206411D01*
X104385654Y8770982D01*
X103623654Y8770982D01*
X103986511Y8408125D02*
X103986511Y8154125D01*
X104385654Y8045268D02*
X104385654Y8408125D01*
X103623654Y8408125D01*
X103623654Y8045268D01*
X104349368Y7754982D02*
X104385654Y7646125D01*
X104385654Y7464697D01*
X104349368Y7392125D01*
X104313082Y7355840D01*
X104240511Y7319554D01*
X104167940Y7319554D01*
X104095368Y7355840D01*
X104059082Y7392125D01*
X104022797Y7464697D01*
X103986511Y7609840D01*
X103950225Y7682411D01*
X103913940Y7718697D01*
X103841368Y7754982D01*
X103768797Y7754982D01*
X103696225Y7718697D01*
X103659940Y7682411D01*
X103623654Y7609840D01*
X103623654Y7428411D01*
X103659940Y7319554D01*
D13*
X106406889Y16928011D02*
X105898889Y16928011D01*
X105898889Y16807059D01*
X105923080Y16734487D01*
X105971460Y16686106D01*
X106019841Y16661916D01*
X106116603Y16637725D01*
X106189175Y16637725D01*
X106285937Y16661916D01*
X106334318Y16686106D01*
X106382699Y16734487D01*
X106406889Y16807059D01*
X106406889Y16928011D01*
X105898889Y16323249D02*
X105898889Y16226487D01*
X105923080Y16178106D01*
X105971460Y16129725D01*
X106068222Y16105535D01*
X106237556Y16105535D01*
X106334318Y16129725D01*
X106382699Y16178106D01*
X106406889Y16226487D01*
X106406889Y16323249D01*
X106382699Y16371630D01*
X106334318Y16420011D01*
X106237556Y16444201D01*
X106068222Y16444201D01*
X105971460Y16420011D01*
X105923080Y16371630D01*
X105898889Y16323249D01*
X106406889Y15500773D02*
X105898889Y15500773D01*
X106406889Y15210487D01*
X105898889Y15210487D01*
X105898889Y14871820D02*
X105898889Y14775059D01*
X105923080Y14726678D01*
X105971460Y14678297D01*
X106068222Y14654106D01*
X106237556Y14654106D01*
X106334318Y14678297D01*
X106382699Y14726678D01*
X106406889Y14775059D01*
X106406889Y14871820D01*
X106382699Y14920201D01*
X106334318Y14968582D01*
X106237556Y14992773D01*
X106068222Y14992773D01*
X105971460Y14968582D01*
X105923080Y14920201D01*
X105898889Y14871820D01*
X105898889Y14508963D02*
X105898889Y14218678D01*
X106406889Y14363820D02*
X105898889Y14363820D01*
X106382699Y13686487D02*
X106406889Y13613916D01*
X106406889Y13492963D01*
X106382699Y13444582D01*
X106358508Y13420392D01*
X106310127Y13396201D01*
X106261746Y13396201D01*
X106213365Y13420392D01*
X106189175Y13444582D01*
X106164984Y13492963D01*
X106140794Y13589725D01*
X106116603Y13638106D01*
X106092413Y13662297D01*
X106044032Y13686487D01*
X105995651Y13686487D01*
X105947270Y13662297D01*
X105923080Y13638106D01*
X105898889Y13589725D01*
X105898889Y13468773D01*
X105923080Y13396201D01*
X106406889Y13178487D02*
X105898889Y13178487D01*
X106140794Y13178487D02*
X106140794Y12888201D01*
X106406889Y12888201D02*
X105898889Y12888201D01*
X105898889Y12549535D02*
X105898889Y12452773D01*
X105923080Y12404392D01*
X105971460Y12356011D01*
X106068222Y12331820D01*
X106237556Y12331820D01*
X106334318Y12356011D01*
X106382699Y12404392D01*
X106406889Y12452773D01*
X106406889Y12549535D01*
X106382699Y12597916D01*
X106334318Y12646297D01*
X106237556Y12670487D01*
X106068222Y12670487D01*
X105971460Y12646297D01*
X105923080Y12597916D01*
X105898889Y12549535D01*
X106406889Y11823820D02*
X106164984Y11993154D01*
X106406889Y12114106D02*
X105898889Y12114106D01*
X105898889Y11920582D01*
X105923080Y11872201D01*
X105947270Y11848011D01*
X105995651Y11823820D01*
X106068222Y11823820D01*
X106116603Y11848011D01*
X106140794Y11872201D01*
X106164984Y11920582D01*
X106164984Y12114106D01*
X105898889Y11678678D02*
X105898889Y11388392D01*
X106406889Y11533535D02*
X105898889Y11533535D01*
X105898889Y10904582D02*
X106406889Y10735249D01*
X105898889Y10565916D01*
X105923080Y10130487D02*
X105898889Y10178868D01*
X105898889Y10251440D01*
X105923080Y10324011D01*
X105971460Y10372392D01*
X106019841Y10396582D01*
X106116603Y10420773D01*
X106189175Y10420773D01*
X106285937Y10396582D01*
X106334318Y10372392D01*
X106382699Y10324011D01*
X106406889Y10251440D01*
X106406889Y10203059D01*
X106382699Y10130487D01*
X106358508Y10106297D01*
X106189175Y10106297D01*
X106189175Y10203059D01*
X106406889Y9888582D02*
X105898889Y9888582D01*
X106406889Y9598297D01*
X105898889Y9598297D01*
X106406889Y9356392D02*
X105898889Y9356392D01*
X105898889Y9235440D01*
X105923080Y9162868D01*
X105971460Y9114487D01*
X106019841Y9090297D01*
X106116603Y9066106D01*
X106189175Y9066106D01*
X106285937Y9090297D01*
X106334318Y9114487D01*
X106382699Y9162868D01*
X106406889Y9235440D01*
X106406889Y9356392D01*
X105898889Y8533916D02*
X105898889Y8243630D01*
X106406889Y8388773D02*
X105898889Y8388773D01*
X105898889Y7977535D02*
X105898889Y7880773D01*
X105923080Y7832392D01*
X105971460Y7784011D01*
X106068222Y7759820D01*
X106237556Y7759820D01*
X106334318Y7784011D01*
X106382699Y7832392D01*
X106406889Y7880773D01*
X106406889Y7977535D01*
X106382699Y8025916D01*
X106334318Y8074297D01*
X106237556Y8098487D01*
X106068222Y8098487D01*
X105971460Y8074297D01*
X105923080Y8025916D01*
X105898889Y7977535D01*
X105923080Y6888963D02*
X105898889Y6937344D01*
X105898889Y7009916D01*
X105923080Y7082487D01*
X105971460Y7130868D01*
X106019841Y7155059D01*
X106116603Y7179249D01*
X106189175Y7179249D01*
X106285937Y7155059D01*
X106334318Y7130868D01*
X106382699Y7082487D01*
X106406889Y7009916D01*
X106406889Y6961535D01*
X106382699Y6888963D01*
X106358508Y6864773D01*
X106189175Y6864773D01*
X106189175Y6961535D01*
X106406889Y6647059D02*
X105898889Y6647059D01*
X106406889Y6356773D01*
X105898889Y6356773D01*
X106406889Y6114868D02*
X105898889Y6114868D01*
X105898889Y5993916D01*
X105923080Y5921344D01*
X105971460Y5872963D01*
X106019841Y5848773D01*
X106116603Y5824582D01*
X106189175Y5824582D01*
X106285937Y5848773D01*
X106334318Y5872963D01*
X106382699Y5921344D01*
X106406889Y5993916D01*
X106406889Y6114868D01*
X106358508Y5606868D02*
X106382699Y5582678D01*
X106406889Y5606868D01*
X106382699Y5631059D01*
X106358508Y5606868D01*
X106406889Y5606868D01*
X106213365Y5606868D02*
X105923080Y5631059D01*
X105898889Y5606868D01*
X105923080Y5582678D01*
X106213365Y5606868D01*
X105898889Y5606868D01*
D12*
X73989474Y1492068D02*
X73989474Y1854925D01*
X73227474Y1854925D01*
X73989474Y1238068D02*
X73227474Y1238068D01*
X73989474Y875211D02*
X73227474Y875211D01*
X73989474Y439782D01*
X73227474Y439782D01*
X73590331Y76925D02*
X73590331Y-177074D01*
X73989474Y-285931D02*
X73989474Y76925D01*
X73227474Y76925D01*
X73227474Y-285931D01*
D10*
X55859333Y20205619D02*
X55859333Y19491333D01*
X55906952Y19348476D01*
X56002190Y19253238D01*
X56145047Y19205619D01*
X56240285Y19205619D01*
X55430761Y20110380D02*
X55383142Y20158000D01*
X55287904Y20205619D01*
X55049809Y20205619D01*
X54954571Y20158000D01*
X54906952Y20110380D01*
X54859333Y20015142D01*
X54859333Y19919904D01*
X54906952Y19777047D01*
X55478380Y19205619D01*
X54859333Y19205619D01*
X283336904Y-68508630D02*
X283336904Y-69318154D01*
X283289285Y-69413392D01*
X283241666Y-69461011D01*
X283146428Y-69508630D01*
X282955952Y-69508630D01*
X282860714Y-69461011D01*
X282813095Y-69413392D01*
X282765476Y-69318154D01*
X282765476Y-68508630D01*
X282384523Y-68508630D02*
X281765476Y-68508630D01*
X282098809Y-68889583D01*
X281955952Y-68889583D01*
X281860714Y-68937202D01*
X281813095Y-68984821D01*
X281765476Y-69080059D01*
X281765476Y-69318154D01*
X281813095Y-69413392D01*
X281860714Y-69461011D01*
X281955952Y-69508630D01*
X282241666Y-69508630D01*
X282336904Y-69461011D01*
X282384523Y-69413392D01*
X289870238Y-43180059D02*
X289755952Y-43218154D01*
X289565476Y-43218154D01*
X289489285Y-43180059D01*
X289451190Y-43141964D01*
X289413095Y-43065773D01*
X289413095Y-42989583D01*
X289451190Y-42913392D01*
X289489285Y-42875297D01*
X289565476Y-42837202D01*
X289717857Y-42799107D01*
X289794047Y-42761011D01*
X289832142Y-42722916D01*
X289870238Y-42646726D01*
X289870238Y-42570535D01*
X289832142Y-42494345D01*
X289794047Y-42456250D01*
X289717857Y-42418154D01*
X289527380Y-42418154D01*
X289413095Y-42456250D01*
X289146428Y-42418154D02*
X288955952Y-43218154D01*
X288803571Y-42646726D01*
X288651190Y-43218154D01*
X288460714Y-42418154D01*
X288155952Y-43218154D02*
X288155952Y-42418154D01*
X287965476Y-42418154D01*
X287851190Y-42456250D01*
X287775000Y-42532440D01*
X287736904Y-42608630D01*
X287698809Y-42761011D01*
X287698809Y-42875297D01*
X287736904Y-43027678D01*
X287775000Y-43103869D01*
X287851190Y-43180059D01*
X287965476Y-43218154D01*
X288155952Y-43218154D01*
X287355952Y-43218154D02*
X287355952Y-42418154D01*
X286822619Y-42418154D02*
X286670238Y-42418154D01*
X286594047Y-42456250D01*
X286517857Y-42532440D01*
X286479761Y-42684821D01*
X286479761Y-42951488D01*
X286517857Y-43103869D01*
X286594047Y-43180059D01*
X286670238Y-43218154D01*
X286822619Y-43218154D01*
X286898809Y-43180059D01*
X286975000Y-43103869D01*
X287013095Y-42951488D01*
X287013095Y-42684821D01*
X286975000Y-42532440D01*
X286898809Y-42456250D01*
X286822619Y-42418154D01*
X278684523Y-43180059D02*
X278570238Y-43218154D01*
X278379761Y-43218154D01*
X278303571Y-43180059D01*
X278265476Y-43141964D01*
X278227380Y-43065773D01*
X278227380Y-42989583D01*
X278265476Y-42913392D01*
X278303571Y-42875297D01*
X278379761Y-42837202D01*
X278532142Y-42799107D01*
X278608333Y-42761011D01*
X278646428Y-42722916D01*
X278684523Y-42646726D01*
X278684523Y-42570535D01*
X278646428Y-42494345D01*
X278608333Y-42456250D01*
X278532142Y-42418154D01*
X278341666Y-42418154D01*
X278227380Y-42456250D01*
X277960714Y-42418154D02*
X277770238Y-43218154D01*
X277617857Y-42646726D01*
X277465476Y-43218154D01*
X277275000Y-42418154D01*
X276513095Y-43141964D02*
X276551190Y-43180059D01*
X276665476Y-43218154D01*
X276741666Y-43218154D01*
X276855952Y-43180059D01*
X276932142Y-43103869D01*
X276970238Y-43027678D01*
X277008333Y-42875297D01*
X277008333Y-42761011D01*
X276970238Y-42608630D01*
X276932142Y-42532440D01*
X276855952Y-42456250D01*
X276741666Y-42418154D01*
X276665476Y-42418154D01*
X276551190Y-42456250D01*
X276513095Y-42494345D01*
X275789285Y-43218154D02*
X276170238Y-43218154D01*
X276170238Y-42418154D01*
X275522619Y-43218154D02*
X275522619Y-42418154D01*
X275065476Y-43218154D02*
X275408333Y-42761011D01*
X275065476Y-42418154D02*
X275522619Y-42875297D01*
X296531402Y-76497214D02*
X296262028Y-76227840D01*
X296423653Y-76712713D02*
X296800776Y-75958466D01*
X296046529Y-76335590D01*
X296100404Y-75311969D02*
X296181216Y-75338906D01*
X296262028Y-75419718D01*
X296315903Y-75527468D01*
X296315903Y-75635217D01*
X296288966Y-75716030D01*
X296208154Y-75850717D01*
X296127341Y-75931529D01*
X295992654Y-76012341D01*
X295911842Y-76039278D01*
X295804093Y-76039278D01*
X295696343Y-75985404D01*
X295642468Y-75931529D01*
X295588593Y-75823779D01*
X295588593Y-75769904D01*
X295777155Y-75581343D01*
X295884905Y-75689092D01*
X295292282Y-75581343D02*
X295857967Y-75015657D01*
X294969033Y-75258094D01*
X295534719Y-74692408D01*
X294699659Y-74988720D02*
X295265345Y-74423034D01*
X295130658Y-74288347D01*
X295022908Y-74234473D01*
X294915158Y-74234473D01*
X294834346Y-74261410D01*
X294699659Y-74342222D01*
X294618847Y-74423034D01*
X294538035Y-74557721D01*
X294511097Y-74638534D01*
X294511097Y-74746283D01*
X294564972Y-74854033D01*
X294699659Y-74988720D01*
X296088841Y-88254405D02*
X296169653Y-88281343D01*
X296250465Y-88362155D01*
X296304340Y-88469904D01*
X296304340Y-88577654D01*
X296277402Y-88658466D01*
X296196590Y-88793153D01*
X296115778Y-88873965D01*
X295981091Y-88954778D01*
X295900279Y-88981715D01*
X295792529Y-88981715D01*
X295684780Y-88927840D01*
X295630905Y-88873965D01*
X295577030Y-88766216D01*
X295577030Y-88712341D01*
X295765592Y-88523779D01*
X295873341Y-88631529D01*
X295280719Y-88523779D02*
X295846404Y-87958094D01*
X294957470Y-88200530D01*
X295523155Y-87634845D01*
X294688096Y-87931156D02*
X295253781Y-87365471D01*
X295119094Y-87230784D01*
X295011345Y-87176909D01*
X294903595Y-87176909D01*
X294822783Y-87203847D01*
X294688096Y-87284659D01*
X294607284Y-87365471D01*
X294526471Y-87500158D01*
X294499534Y-87580970D01*
X294499534Y-87688720D01*
X294553409Y-87796469D01*
X294688096Y-87931156D01*
X296088841Y-62854405D02*
X296169653Y-62881343D01*
X296250465Y-62962155D01*
X296304340Y-63069904D01*
X296304340Y-63177654D01*
X296277402Y-63258466D01*
X296196590Y-63393153D01*
X296115778Y-63473965D01*
X295981091Y-63554778D01*
X295900279Y-63581715D01*
X295792529Y-63581715D01*
X295684780Y-63527840D01*
X295630905Y-63473965D01*
X295577030Y-63366216D01*
X295577030Y-63312341D01*
X295765592Y-63123779D01*
X295873341Y-63231529D01*
X295280719Y-63123779D02*
X295846404Y-62558094D01*
X294957470Y-62800530D01*
X295523155Y-62234845D01*
X294688096Y-62531156D02*
X295253781Y-61965471D01*
X295119094Y-61830784D01*
X295011345Y-61776909D01*
X294903595Y-61776909D01*
X294822783Y-61803847D01*
X294688096Y-61884659D01*
X294607284Y-61965471D01*
X294526471Y-62100158D01*
X294499534Y-62180970D01*
X294499534Y-62288720D01*
X294553409Y-62396469D01*
X294688096Y-62531156D01*
X296088841Y-50154405D02*
X296169653Y-50181343D01*
X296250465Y-50262155D01*
X296304340Y-50369904D01*
X296304340Y-50477654D01*
X296277402Y-50558466D01*
X296196590Y-50693153D01*
X296115778Y-50773965D01*
X295981091Y-50854778D01*
X295900279Y-50881715D01*
X295792529Y-50881715D01*
X295684780Y-50827840D01*
X295630905Y-50773965D01*
X295577030Y-50666216D01*
X295577030Y-50612341D01*
X295765592Y-50423779D01*
X295873341Y-50531529D01*
X295280719Y-50423779D02*
X295846404Y-49858094D01*
X294957470Y-50100530D01*
X295523155Y-49534845D01*
X294688096Y-49831156D02*
X295253781Y-49265471D01*
X295119094Y-49130784D01*
X295011345Y-49076909D01*
X294903595Y-49076909D01*
X294822783Y-49103847D01*
X294688096Y-49184659D01*
X294607284Y-49265471D01*
X294526471Y-49400158D01*
X294499534Y-49480970D01*
X294499534Y-49588720D01*
X294553409Y-49696469D01*
X294688096Y-49831156D01*
X270488841Y-50154405D02*
X270569653Y-50181343D01*
X270650465Y-50262155D01*
X270704340Y-50369904D01*
X270704340Y-50477654D01*
X270677402Y-50558466D01*
X270596590Y-50693153D01*
X270515778Y-50773965D01*
X270381091Y-50854778D01*
X270300279Y-50881715D01*
X270192529Y-50881715D01*
X270084780Y-50827840D01*
X270030905Y-50773965D01*
X269977030Y-50666216D01*
X269977030Y-50612341D01*
X270165592Y-50423779D01*
X270273341Y-50531529D01*
X269680719Y-50423779D02*
X270246404Y-49858094D01*
X269357470Y-50100530D01*
X269923155Y-49534845D01*
X269088096Y-49831156D02*
X269653781Y-49265471D01*
X269519094Y-49130784D01*
X269411345Y-49076909D01*
X269303595Y-49076909D01*
X269222783Y-49103847D01*
X269088096Y-49184659D01*
X269007284Y-49265471D01*
X268926471Y-49400158D01*
X268899534Y-49480970D01*
X268899534Y-49588720D01*
X268953409Y-49696469D01*
X269088096Y-49831156D01*
X270488841Y-62854405D02*
X270569653Y-62881343D01*
X270650465Y-62962155D01*
X270704340Y-63069904D01*
X270704340Y-63177654D01*
X270677402Y-63258466D01*
X270596590Y-63393153D01*
X270515778Y-63473965D01*
X270381091Y-63554778D01*
X270300279Y-63581715D01*
X270192529Y-63581715D01*
X270084780Y-63527840D01*
X270030905Y-63473965D01*
X269977030Y-63366216D01*
X269977030Y-63312341D01*
X270165592Y-63123779D01*
X270273341Y-63231529D01*
X269680719Y-63123779D02*
X270246404Y-62558094D01*
X269357470Y-62800530D01*
X269923155Y-62234845D01*
X269088096Y-62531156D02*
X269653781Y-61965471D01*
X269519094Y-61830784D01*
X269411345Y-61776909D01*
X269303595Y-61776909D01*
X269222783Y-61803847D01*
X269088096Y-61884659D01*
X269007284Y-61965471D01*
X268926471Y-62100158D01*
X268899534Y-62180970D01*
X268899534Y-62288720D01*
X268953409Y-62396469D01*
X269088096Y-62531156D01*
X270488841Y-75554405D02*
X270569653Y-75581343D01*
X270650465Y-75662155D01*
X270704340Y-75769904D01*
X270704340Y-75877654D01*
X270677402Y-75958466D01*
X270596590Y-76093153D01*
X270515778Y-76173965D01*
X270381091Y-76254778D01*
X270300279Y-76281715D01*
X270192529Y-76281715D01*
X270084780Y-76227840D01*
X270030905Y-76173965D01*
X269977030Y-76066216D01*
X269977030Y-76012341D01*
X270165592Y-75823779D01*
X270273341Y-75931529D01*
X269680719Y-75823779D02*
X270246404Y-75258094D01*
X269357470Y-75500530D01*
X269923155Y-74934845D01*
X269088096Y-75231156D02*
X269653781Y-74665471D01*
X269519094Y-74530784D01*
X269411345Y-74476909D01*
X269303595Y-74476909D01*
X269222783Y-74503847D01*
X269088096Y-74584659D01*
X269007284Y-74665471D01*
X268926471Y-74800158D01*
X268899534Y-74880970D01*
X268899534Y-74988720D01*
X268953409Y-75096469D01*
X269088096Y-75231156D01*
X270488841Y-88254405D02*
X270569653Y-88281343D01*
X270650465Y-88362155D01*
X270704340Y-88469904D01*
X270704340Y-88577654D01*
X270677402Y-88658466D01*
X270596590Y-88793153D01*
X270515778Y-88873965D01*
X270381091Y-88954778D01*
X270300279Y-88981715D01*
X270192529Y-88981715D01*
X270084780Y-88927840D01*
X270030905Y-88873965D01*
X269977030Y-88766216D01*
X269977030Y-88712341D01*
X270165592Y-88523779D01*
X270273341Y-88631529D01*
X269680719Y-88523779D02*
X270246404Y-87958094D01*
X269357470Y-88200530D01*
X269923155Y-87634845D01*
X269088096Y-87931156D02*
X269653781Y-87365471D01*
X269519094Y-87230784D01*
X269411345Y-87176909D01*
X269303595Y-87176909D01*
X269222783Y-87203847D01*
X269088096Y-87284659D01*
X269007284Y-87365471D01*
X268926471Y-87500158D01*
X268899534Y-87580970D01*
X268899534Y-87688720D01*
X268953409Y-87796469D01*
X269088096Y-87931156D01*
X297221870Y-93983559D02*
X296467622Y-94360683D01*
X296844746Y-93606436D01*
X296198248Y-93498686D02*
X296090499Y-93444811D01*
X296036624Y-93444811D01*
X295955812Y-93471749D01*
X295875000Y-93552561D01*
X295848062Y-93633373D01*
X295848062Y-93687248D01*
X295875000Y-93768060D01*
X296090499Y-93983559D01*
X296656184Y-93417874D01*
X296467622Y-93229312D01*
X296386810Y-93202375D01*
X296332935Y-93202375D01*
X296252123Y-93229312D01*
X296198248Y-93283187D01*
X296171311Y-93363999D01*
X296171311Y-93417874D01*
X296198248Y-93498686D01*
X296386810Y-93687248D01*
X296090499Y-92852188D02*
X295632563Y-93310124D01*
X295551751Y-93337062D01*
X295497876Y-93337062D01*
X295417064Y-93310124D01*
X295309314Y-93202375D01*
X295282377Y-93121562D01*
X295282377Y-93067688D01*
X295309314Y-92986875D01*
X295767250Y-92528940D01*
X294986065Y-92825251D02*
X294878316Y-92771376D01*
X294743629Y-92636689D01*
X294716691Y-92555877D01*
X294716691Y-92502002D01*
X294743629Y-92421190D01*
X294797503Y-92367315D01*
X294878316Y-92340378D01*
X294932190Y-92340378D01*
X295013003Y-92367315D01*
X295147690Y-92448127D01*
X295228502Y-92475065D01*
X295282377Y-92475065D01*
X295363189Y-92448127D01*
X295417064Y-92394253D01*
X295444001Y-92313440D01*
X295444001Y-92259566D01*
X295417064Y-92178753D01*
X295282377Y-92044066D01*
X295174627Y-91990192D01*
X297054526Y-91306216D02*
X296300279Y-91683339D01*
X296677402Y-90929092D01*
X295977030Y-91306216D02*
X295869280Y-91252341D01*
X295734593Y-91117654D01*
X295707656Y-91036842D01*
X295707656Y-90982967D01*
X295734593Y-90902155D01*
X295788468Y-90848280D01*
X295869280Y-90821343D01*
X295923155Y-90821343D01*
X296003967Y-90848280D01*
X296138654Y-90929092D01*
X296219467Y-90956030D01*
X296273341Y-90956030D01*
X296354154Y-90929092D01*
X296408028Y-90875217D01*
X296434966Y-90794405D01*
X296434966Y-90740530D01*
X296408028Y-90659718D01*
X296273341Y-90525031D01*
X296165592Y-90471156D01*
X295546032Y-90390344D02*
X295276658Y-90659718D01*
X296030905Y-90282595D02*
X295546032Y-90390344D01*
X295653781Y-89905471D01*
X294953409Y-90282595D02*
X294845659Y-90228720D01*
X294710972Y-90094033D01*
X294684035Y-90013221D01*
X294684035Y-89959346D01*
X294710972Y-89878534D01*
X294764847Y-89824659D01*
X294845659Y-89797721D01*
X294899534Y-89797721D01*
X294980346Y-89824659D01*
X295115033Y-89905471D01*
X295195845Y-89932408D01*
X295249720Y-89932408D01*
X295330532Y-89905471D01*
X295384407Y-89851596D01*
X295411345Y-89770784D01*
X295411345Y-89716909D01*
X295384407Y-89636097D01*
X295249720Y-89501410D01*
X295141971Y-89447535D01*
X298052868Y-87414558D02*
X297702682Y-87064372D01*
X297675744Y-87468433D01*
X297594932Y-87387620D01*
X297514120Y-87360683D01*
X297460245Y-87360683D01*
X297379433Y-87387620D01*
X297244746Y-87522307D01*
X297217809Y-87603120D01*
X297217809Y-87656994D01*
X297244746Y-87737807D01*
X297406370Y-87899431D01*
X297487183Y-87926368D01*
X297541057Y-87926368D01*
X297541057Y-86902747D02*
X296786810Y-87279871D01*
X297163934Y-86525624D01*
X297029247Y-86390937D02*
X296679061Y-86040750D01*
X296652123Y-86444811D01*
X296571311Y-86363999D01*
X296490499Y-86337062D01*
X296436624Y-86337062D01*
X296355812Y-86363999D01*
X296221125Y-86498686D01*
X296194187Y-86579498D01*
X296194187Y-86633373D01*
X296221125Y-86714185D01*
X296382749Y-86875810D01*
X296463561Y-86902747D01*
X296517436Y-86902747D01*
X295951751Y-86552561D02*
X295520752Y-86121562D01*
X295736251Y-85636689D02*
X295547690Y-85448127D01*
X295170566Y-85663627D02*
X295439940Y-85933001D01*
X296005625Y-85367315D01*
X295736251Y-85097941D01*
X294928129Y-85421190D02*
X295493815Y-84855505D01*
X294604881Y-85097941D01*
X295170566Y-84532256D01*
X296485152Y-83346842D02*
X296134966Y-82996656D01*
X296108028Y-83400717D01*
X296027216Y-83319904D01*
X295946404Y-83292967D01*
X295892529Y-83292967D01*
X295811717Y-83319904D01*
X295677030Y-83454591D01*
X295650093Y-83535404D01*
X295650093Y-83589278D01*
X295677030Y-83670091D01*
X295838654Y-83831715D01*
X295919467Y-83858652D01*
X295973341Y-83858652D01*
X295973341Y-82835031D02*
X295219094Y-83212155D01*
X295596218Y-82457908D01*
X295461531Y-82323221D02*
X295111345Y-81973034D01*
X295084407Y-82377095D01*
X295003595Y-82296283D01*
X294922783Y-82269346D01*
X294868908Y-82269346D01*
X294788096Y-82296283D01*
X294653409Y-82430970D01*
X294626471Y-82511782D01*
X294626471Y-82565657D01*
X294653409Y-82646469D01*
X294815033Y-82808094D01*
X294895845Y-82835031D01*
X294949720Y-82835031D01*
X298420211Y-83590023D02*
X298150837Y-83320649D01*
X298312462Y-83805522D02*
X298689585Y-83051275D01*
X297935338Y-83428399D01*
X297746776Y-83239837D02*
X298312462Y-82674152D01*
X298177775Y-82539465D01*
X298070025Y-82485590D01*
X297962276Y-82485590D01*
X297881463Y-82512527D01*
X297746776Y-82593339D01*
X297665964Y-82674152D01*
X297585152Y-82808839D01*
X297558215Y-82889651D01*
X297558215Y-82997400D01*
X297612089Y-83105150D01*
X297746776Y-83239837D01*
X296911717Y-82297028D02*
X296911717Y-82350903D01*
X296965592Y-82458652D01*
X297019467Y-82512527D01*
X297127216Y-82566402D01*
X297234966Y-82566402D01*
X297315778Y-82539465D01*
X297450465Y-82458652D01*
X297531277Y-82377840D01*
X297612089Y-82243153D01*
X297639027Y-82162341D01*
X297639027Y-82054591D01*
X297585152Y-81946842D01*
X297531277Y-81892967D01*
X297423528Y-81839092D01*
X297369653Y-81839092D01*
X296696218Y-82297028D02*
X296265219Y-81866030D01*
X296830905Y-81192595D02*
X296076658Y-81569718D01*
X296453781Y-80815471D01*
X295376285Y-80869346D02*
X295834221Y-80788534D01*
X295699534Y-81192595D02*
X296265219Y-80626909D01*
X296049720Y-80411410D01*
X295968908Y-80384473D01*
X295915033Y-80384473D01*
X295834221Y-80411410D01*
X295753409Y-80492222D01*
X295726471Y-80573034D01*
X295726471Y-80626909D01*
X295753409Y-80707721D01*
X295968908Y-80923221D01*
X295430160Y-80330598D02*
X295241598Y-80142036D01*
X294864475Y-80357535D02*
X295133849Y-80626909D01*
X295699534Y-80061224D01*
X295430160Y-79791850D01*
X294729788Y-79630225D02*
X294918349Y-79818787D01*
X294622038Y-80115099D02*
X295187723Y-79549413D01*
X294918349Y-79280039D01*
X296585277Y-78590842D02*
X296666089Y-78617779D01*
X296746902Y-78698591D01*
X296800776Y-78806341D01*
X296800776Y-78914091D01*
X296773839Y-78994903D01*
X296693027Y-79129590D01*
X296612215Y-79210402D01*
X296477528Y-79291214D01*
X296396715Y-79318152D01*
X296288966Y-79318152D01*
X296181216Y-79264277D01*
X296127341Y-79210402D01*
X296073467Y-79102652D01*
X296073467Y-79048778D01*
X296262028Y-78860216D01*
X296369778Y-78967965D01*
X295777155Y-78860216D02*
X296342841Y-78294530D01*
X296127341Y-78079031D01*
X296046529Y-78052094D01*
X295992654Y-78052094D01*
X295911842Y-78079031D01*
X295831030Y-78159843D01*
X295804093Y-78240656D01*
X295804093Y-78294530D01*
X295831030Y-78375343D01*
X296046529Y-78590842D01*
X295750218Y-77809657D02*
X295750218Y-77755782D01*
X295723280Y-77674970D01*
X295588593Y-77540283D01*
X295507781Y-77513346D01*
X295453906Y-77513346D01*
X295373094Y-77540283D01*
X295319219Y-77594158D01*
X295265345Y-77701908D01*
X295265345Y-78348405D01*
X294915158Y-77998219D01*
X294915158Y-77351721D02*
X294995971Y-77378659D01*
X295049845Y-77378659D01*
X295130658Y-77351721D01*
X295157595Y-77324784D01*
X295184532Y-77243972D01*
X295184532Y-77190097D01*
X295157595Y-77109285D01*
X295049845Y-77001535D01*
X294969033Y-76974598D01*
X294915158Y-76974598D01*
X294834346Y-77001535D01*
X294807409Y-77028473D01*
X294780471Y-77109285D01*
X294780471Y-77163160D01*
X294807409Y-77243972D01*
X294915158Y-77351721D01*
X294942096Y-77432534D01*
X294942096Y-77486408D01*
X294915158Y-77567221D01*
X294807409Y-77674970D01*
X294726597Y-77701908D01*
X294672722Y-77701908D01*
X294591910Y-77674970D01*
X294484160Y-77567221D01*
X294457223Y-77486408D01*
X294457223Y-77432534D01*
X294484160Y-77351721D01*
X294591910Y-77243972D01*
X294672722Y-77217034D01*
X294726597Y-77217034D01*
X294807409Y-77243972D01*
X296585277Y-73246842D02*
X296666089Y-73273779D01*
X296746902Y-73354591D01*
X296800776Y-73462341D01*
X296800776Y-73570091D01*
X296773839Y-73650903D01*
X296693027Y-73785590D01*
X296612215Y-73866402D01*
X296477528Y-73947214D01*
X296396715Y-73974152D01*
X296288966Y-73974152D01*
X296181216Y-73920277D01*
X296127341Y-73866402D01*
X296073467Y-73758652D01*
X296073467Y-73704778D01*
X296262028Y-73516216D01*
X296369778Y-73623965D01*
X295777155Y-73516216D02*
X296342841Y-72950530D01*
X296127341Y-72735031D01*
X296046529Y-72708094D01*
X295992654Y-72708094D01*
X295911842Y-72735031D01*
X295831030Y-72815843D01*
X295804093Y-72896656D01*
X295804093Y-72950530D01*
X295831030Y-73031343D01*
X296046529Y-73246842D01*
X295750218Y-72465657D02*
X295750218Y-72411782D01*
X295723280Y-72330970D01*
X295588593Y-72196283D01*
X295507781Y-72169346D01*
X295453906Y-72169346D01*
X295373094Y-72196283D01*
X295319219Y-72250158D01*
X295265345Y-72357908D01*
X295265345Y-73004405D01*
X294915158Y-72654219D01*
X295292282Y-71899972D02*
X294915158Y-71522848D01*
X294591910Y-72330970D01*
X296585277Y-70716842D02*
X296666089Y-70743779D01*
X296746902Y-70824591D01*
X296800776Y-70932341D01*
X296800776Y-71040091D01*
X296773839Y-71120903D01*
X296693027Y-71255590D01*
X296612215Y-71336402D01*
X296477528Y-71417214D01*
X296396715Y-71444152D01*
X296288966Y-71444152D01*
X296181216Y-71390277D01*
X296127341Y-71336402D01*
X296073467Y-71228652D01*
X296073467Y-71174778D01*
X296262028Y-70986216D01*
X296369778Y-71093965D01*
X295777155Y-70986216D02*
X296342841Y-70420530D01*
X296127341Y-70205031D01*
X296046529Y-70178094D01*
X295992654Y-70178094D01*
X295911842Y-70205031D01*
X295831030Y-70285843D01*
X295804093Y-70366656D01*
X295804093Y-70420530D01*
X295831030Y-70501343D01*
X296046529Y-70716842D01*
X295750218Y-69935657D02*
X295750218Y-69881782D01*
X295723280Y-69800970D01*
X295588593Y-69666283D01*
X295507781Y-69639346D01*
X295453906Y-69639346D01*
X295373094Y-69666283D01*
X295319219Y-69720158D01*
X295265345Y-69827908D01*
X295265345Y-70474405D01*
X294915158Y-70124219D01*
X294995971Y-69073660D02*
X295103720Y-69181410D01*
X295130658Y-69262222D01*
X295130658Y-69316097D01*
X295103720Y-69450784D01*
X295022908Y-69585471D01*
X294807409Y-69800970D01*
X294726597Y-69827908D01*
X294672722Y-69827908D01*
X294591910Y-69800970D01*
X294484160Y-69693221D01*
X294457223Y-69612408D01*
X294457223Y-69558534D01*
X294484160Y-69477721D01*
X294618847Y-69343034D01*
X294699659Y-69316097D01*
X294753534Y-69316097D01*
X294834346Y-69343034D01*
X294942096Y-69450784D01*
X294969033Y-69531596D01*
X294969033Y-69585471D01*
X294942096Y-69666283D01*
X295736624Y-68459685D02*
X296194560Y-68378872D01*
X296059873Y-68782933D02*
X296625558Y-68217248D01*
X296410059Y-68001749D01*
X296329247Y-67974811D01*
X296275372Y-67974811D01*
X296194560Y-68001749D01*
X296113748Y-68082561D01*
X296086810Y-68163373D01*
X296086810Y-68217248D01*
X296113748Y-68298060D01*
X296329247Y-68513559D01*
X296059873Y-67651562D02*
X295601937Y-68109498D01*
X295521125Y-68136436D01*
X295467250Y-68136436D01*
X295386438Y-68109498D01*
X295278688Y-68001749D01*
X295251751Y-67920937D01*
X295251751Y-67867062D01*
X295278688Y-67786249D01*
X295736624Y-67328314D01*
X294901564Y-67624625D02*
X295467250Y-67058940D01*
X294578316Y-67301376D01*
X295144001Y-66735691D01*
X296585277Y-65636842D02*
X296666089Y-65663779D01*
X296746902Y-65744591D01*
X296800776Y-65852341D01*
X296800776Y-65960091D01*
X296773839Y-66040903D01*
X296693027Y-66175590D01*
X296612215Y-66256402D01*
X296477528Y-66337214D01*
X296396715Y-66364152D01*
X296288966Y-66364152D01*
X296181216Y-66310277D01*
X296127341Y-66256402D01*
X296073467Y-66148652D01*
X296073467Y-66094778D01*
X296262028Y-65906216D01*
X296369778Y-66013965D01*
X295777155Y-65906216D02*
X296342841Y-65340530D01*
X296127341Y-65125031D01*
X296046529Y-65098094D01*
X295992654Y-65098094D01*
X295911842Y-65125031D01*
X295831030Y-65205843D01*
X295804093Y-65286656D01*
X295804093Y-65340530D01*
X295831030Y-65421343D01*
X296046529Y-65636842D01*
X295750218Y-64855657D02*
X295750218Y-64801782D01*
X295723280Y-64720970D01*
X295588593Y-64586283D01*
X295507781Y-64559346D01*
X295453906Y-64559346D01*
X295373094Y-64586283D01*
X295319219Y-64640158D01*
X295265345Y-64747908D01*
X295265345Y-65394405D01*
X294915158Y-65044219D01*
X295211470Y-64316909D02*
X295211470Y-64263034D01*
X295184532Y-64182222D01*
X295049845Y-64047535D01*
X294969033Y-64020598D01*
X294915158Y-64020598D01*
X294834346Y-64047535D01*
X294780471Y-64101410D01*
X294726597Y-64209160D01*
X294726597Y-64855657D01*
X294376410Y-64505471D01*
X296585277Y-60546842D02*
X296666089Y-60573779D01*
X296746902Y-60654591D01*
X296800776Y-60762341D01*
X296800776Y-60870091D01*
X296773839Y-60950903D01*
X296693027Y-61085590D01*
X296612215Y-61166402D01*
X296477528Y-61247214D01*
X296396715Y-61274152D01*
X296288966Y-61274152D01*
X296181216Y-61220277D01*
X296127341Y-61166402D01*
X296073467Y-61058652D01*
X296073467Y-61004778D01*
X296262028Y-60816216D01*
X296369778Y-60923965D01*
X295777155Y-60816216D02*
X296342841Y-60250530D01*
X296127341Y-60035031D01*
X296046529Y-60008094D01*
X295992654Y-60008094D01*
X295911842Y-60035031D01*
X295831030Y-60115843D01*
X295804093Y-60196656D01*
X295804093Y-60250530D01*
X295831030Y-60331343D01*
X296046529Y-60546842D01*
X295750218Y-59765657D02*
X295750218Y-59711782D01*
X295723280Y-59630970D01*
X295588593Y-59496283D01*
X295507781Y-59469346D01*
X295453906Y-59469346D01*
X295373094Y-59496283D01*
X295319219Y-59550158D01*
X295265345Y-59657908D01*
X295265345Y-60304405D01*
X294915158Y-59954219D01*
X294376410Y-59415471D02*
X294699659Y-59738720D01*
X294538035Y-59577095D02*
X295103720Y-59011410D01*
X295076783Y-59146097D01*
X295076783Y-59253847D01*
X295103720Y-59334659D01*
X296585277Y-58016842D02*
X296666089Y-58043779D01*
X296746902Y-58124591D01*
X296800776Y-58232341D01*
X296800776Y-58340091D01*
X296773839Y-58420903D01*
X296693027Y-58555590D01*
X296612215Y-58636402D01*
X296477528Y-58717214D01*
X296396715Y-58744152D01*
X296288966Y-58744152D01*
X296181216Y-58690277D01*
X296127341Y-58636402D01*
X296073467Y-58528652D01*
X296073467Y-58474778D01*
X296262028Y-58286216D01*
X296369778Y-58393965D01*
X295777155Y-58286216D02*
X296342841Y-57720530D01*
X296127341Y-57505031D01*
X296046529Y-57478094D01*
X295992654Y-57478094D01*
X295911842Y-57505031D01*
X295831030Y-57585843D01*
X295804093Y-57666656D01*
X295804093Y-57720530D01*
X295831030Y-57801343D01*
X296046529Y-58016842D01*
X295750218Y-57235657D02*
X295750218Y-57181782D01*
X295723280Y-57100970D01*
X295588593Y-56966283D01*
X295507781Y-56939346D01*
X295453906Y-56939346D01*
X295373094Y-56966283D01*
X295319219Y-57020158D01*
X295265345Y-57127908D01*
X295265345Y-57774405D01*
X294915158Y-57424219D01*
X295130658Y-56508347D02*
X295076783Y-56454473D01*
X294995971Y-56427535D01*
X294942096Y-56427535D01*
X294861284Y-56454473D01*
X294726597Y-56535285D01*
X294591910Y-56669972D01*
X294511097Y-56804659D01*
X294484160Y-56885471D01*
X294484160Y-56939346D01*
X294511097Y-57020158D01*
X294564972Y-57074033D01*
X294645784Y-57100970D01*
X294699659Y-57100970D01*
X294780471Y-57074033D01*
X294915158Y-56993221D01*
X295049845Y-56858534D01*
X295130658Y-56723847D01*
X295157595Y-56643034D01*
X295157595Y-56589160D01*
X295130658Y-56508347D01*
X296585277Y-55476842D02*
X296666089Y-55503779D01*
X296746902Y-55584591D01*
X296800776Y-55692341D01*
X296800776Y-55800091D01*
X296773839Y-55880903D01*
X296693027Y-56015590D01*
X296612215Y-56096402D01*
X296477528Y-56177214D01*
X296396715Y-56204152D01*
X296288966Y-56204152D01*
X296181216Y-56150277D01*
X296127341Y-56096402D01*
X296073467Y-55988652D01*
X296073467Y-55934778D01*
X296262028Y-55746216D01*
X296369778Y-55853965D01*
X295777155Y-55746216D02*
X296342841Y-55180530D01*
X296127341Y-54965031D01*
X296046529Y-54938094D01*
X295992654Y-54938094D01*
X295911842Y-54965031D01*
X295831030Y-55045843D01*
X295804093Y-55126656D01*
X295804093Y-55180530D01*
X295831030Y-55261343D01*
X296046529Y-55476842D01*
X294915158Y-54884219D02*
X295238407Y-55207468D01*
X295076783Y-55045843D02*
X295642468Y-54480158D01*
X295615531Y-54614845D01*
X295615531Y-54722595D01*
X295642468Y-54803407D01*
X294645784Y-54614845D02*
X294538035Y-54507095D01*
X294511097Y-54426283D01*
X294511097Y-54372408D01*
X294538035Y-54237721D01*
X294618847Y-54103034D01*
X294834346Y-53887535D01*
X294915158Y-53860598D01*
X294969033Y-53860598D01*
X295049845Y-53887535D01*
X295157595Y-53995285D01*
X295184532Y-54076097D01*
X295184532Y-54129972D01*
X295157595Y-54210784D01*
X295022908Y-54345471D01*
X294942096Y-54372408D01*
X294888221Y-54372408D01*
X294807409Y-54345471D01*
X294699659Y-54237721D01*
X294672722Y-54156909D01*
X294672722Y-54103034D01*
X294699659Y-54022222D01*
X296585277Y-52936842D02*
X296666089Y-52963779D01*
X296746902Y-53044591D01*
X296800776Y-53152341D01*
X296800776Y-53260091D01*
X296773839Y-53340903D01*
X296693027Y-53475590D01*
X296612215Y-53556402D01*
X296477528Y-53637214D01*
X296396715Y-53664152D01*
X296288966Y-53664152D01*
X296181216Y-53610277D01*
X296127341Y-53556402D01*
X296073467Y-53448652D01*
X296073467Y-53394778D01*
X296262028Y-53206216D01*
X296369778Y-53313965D01*
X295777155Y-53206216D02*
X296342841Y-52640530D01*
X296127341Y-52425031D01*
X296046529Y-52398094D01*
X295992654Y-52398094D01*
X295911842Y-52425031D01*
X295831030Y-52505843D01*
X295804093Y-52586656D01*
X295804093Y-52640530D01*
X295831030Y-52721343D01*
X296046529Y-52936842D01*
X294915158Y-52344219D02*
X295238407Y-52667468D01*
X295076783Y-52505843D02*
X295642468Y-51940158D01*
X295615531Y-52074845D01*
X295615531Y-52182595D01*
X295642468Y-52263407D01*
X294915158Y-51697721D02*
X294995971Y-51724659D01*
X295049845Y-51724659D01*
X295130658Y-51697721D01*
X295157595Y-51670784D01*
X295184532Y-51589972D01*
X295184532Y-51536097D01*
X295157595Y-51455285D01*
X295049845Y-51347535D01*
X294969033Y-51320598D01*
X294915158Y-51320598D01*
X294834346Y-51347535D01*
X294807409Y-51374473D01*
X294780471Y-51455285D01*
X294780471Y-51509160D01*
X294807409Y-51589972D01*
X294915158Y-51697721D01*
X294942096Y-51778534D01*
X294942096Y-51832408D01*
X294915158Y-51913221D01*
X294807409Y-52020970D01*
X294726597Y-52047908D01*
X294672722Y-52047908D01*
X294591910Y-52020970D01*
X294484160Y-51913221D01*
X294457223Y-51832408D01*
X294457223Y-51778534D01*
X294484160Y-51697721D01*
X294591910Y-51589972D01*
X294672722Y-51563034D01*
X294726597Y-51563034D01*
X294807409Y-51589972D01*
X296585277Y-47856842D02*
X296666089Y-47883779D01*
X296746902Y-47964591D01*
X296800776Y-48072341D01*
X296800776Y-48180091D01*
X296773839Y-48260903D01*
X296693027Y-48395590D01*
X296612215Y-48476402D01*
X296477528Y-48557214D01*
X296396715Y-48584152D01*
X296288966Y-48584152D01*
X296181216Y-48530277D01*
X296127341Y-48476402D01*
X296073467Y-48368652D01*
X296073467Y-48314778D01*
X296262028Y-48126216D01*
X296369778Y-48233965D01*
X295777155Y-48126216D02*
X296342841Y-47560530D01*
X296127341Y-47345031D01*
X296046529Y-47318094D01*
X295992654Y-47318094D01*
X295911842Y-47345031D01*
X295831030Y-47425843D01*
X295804093Y-47506656D01*
X295804093Y-47560530D01*
X295831030Y-47641343D01*
X296046529Y-47856842D01*
X294915158Y-47264219D02*
X295238407Y-47587468D01*
X295076783Y-47425843D02*
X295642468Y-46860158D01*
X295615531Y-46994845D01*
X295615531Y-47102595D01*
X295642468Y-47183407D01*
X295292282Y-46509972D02*
X294915158Y-46132848D01*
X294591910Y-46940970D01*
X296585277Y-45316842D02*
X296666089Y-45343779D01*
X296746902Y-45424591D01*
X296800776Y-45532341D01*
X296800776Y-45640091D01*
X296773839Y-45720903D01*
X296693027Y-45855590D01*
X296612215Y-45936402D01*
X296477528Y-46017214D01*
X296396715Y-46044152D01*
X296288966Y-46044152D01*
X296181216Y-45990277D01*
X296127341Y-45936402D01*
X296073467Y-45828652D01*
X296073467Y-45774778D01*
X296262028Y-45586216D01*
X296369778Y-45693965D01*
X295777155Y-45586216D02*
X296342841Y-45020530D01*
X296127341Y-44805031D01*
X296046529Y-44778094D01*
X295992654Y-44778094D01*
X295911842Y-44805031D01*
X295831030Y-44885843D01*
X295804093Y-44966656D01*
X295804093Y-45020530D01*
X295831030Y-45101343D01*
X296046529Y-45316842D01*
X294915158Y-44724219D02*
X295238407Y-45047468D01*
X295076783Y-44885843D02*
X295642468Y-44320158D01*
X295615531Y-44454845D01*
X295615531Y-44562595D01*
X295642468Y-44643407D01*
X294995971Y-43673660D02*
X295103720Y-43781410D01*
X295130658Y-43862222D01*
X295130658Y-43916097D01*
X295103720Y-44050784D01*
X295022908Y-44185471D01*
X294807409Y-44400970D01*
X294726597Y-44427908D01*
X294672722Y-44427908D01*
X294591910Y-44400970D01*
X294484160Y-44293221D01*
X294457223Y-44212408D01*
X294457223Y-44158534D01*
X294484160Y-44077721D01*
X294618847Y-43943034D01*
X294699659Y-43916097D01*
X294753534Y-43916097D01*
X294834346Y-43943034D01*
X294942096Y-44050784D01*
X294969033Y-44131596D01*
X294969033Y-44185471D01*
X294942096Y-44266283D01*
X270477277Y-45316842D02*
X270558089Y-45343779D01*
X270638902Y-45424591D01*
X270692776Y-45532341D01*
X270692776Y-45640091D01*
X270665839Y-45720903D01*
X270585027Y-45855590D01*
X270504215Y-45936402D01*
X270369528Y-46017214D01*
X270288715Y-46044152D01*
X270180966Y-46044152D01*
X270073216Y-45990277D01*
X270019341Y-45936402D01*
X269965467Y-45828652D01*
X269965467Y-45774778D01*
X270154028Y-45586216D01*
X270261778Y-45693965D01*
X269669155Y-45586216D02*
X270234841Y-45020530D01*
X270019341Y-44805031D01*
X269938529Y-44778094D01*
X269884654Y-44778094D01*
X269803842Y-44805031D01*
X269723030Y-44885843D01*
X269696093Y-44966656D01*
X269696093Y-45020530D01*
X269723030Y-45101343D01*
X269938529Y-45316842D01*
X268807158Y-44724219D02*
X269130407Y-45047468D01*
X268968783Y-44885843D02*
X269534468Y-44320158D01*
X269507531Y-44454845D01*
X269507531Y-44562595D01*
X269534468Y-44643407D01*
X268861033Y-43646723D02*
X269130407Y-43916097D01*
X268887971Y-44212408D01*
X268887971Y-44158534D01*
X268861033Y-44077721D01*
X268726346Y-43943034D01*
X268645534Y-43916097D01*
X268591659Y-43916097D01*
X268510847Y-43943034D01*
X268376160Y-44077721D01*
X268349223Y-44158534D01*
X268349223Y-44212408D01*
X268376160Y-44293221D01*
X268510847Y-44427908D01*
X268591659Y-44454845D01*
X268645534Y-44454845D01*
X270431277Y-47856842D02*
X270512089Y-47883779D01*
X270592902Y-47964591D01*
X270646776Y-48072341D01*
X270646776Y-48180091D01*
X270619839Y-48260903D01*
X270539027Y-48395590D01*
X270458215Y-48476402D01*
X270323528Y-48557214D01*
X270242715Y-48584152D01*
X270134966Y-48584152D01*
X270027216Y-48530277D01*
X269973341Y-48476402D01*
X269919467Y-48368652D01*
X269919467Y-48314778D01*
X270108028Y-48126216D01*
X270215778Y-48233965D01*
X269623155Y-48126216D02*
X270188841Y-47560530D01*
X269973341Y-47345031D01*
X269892529Y-47318094D01*
X269838654Y-47318094D01*
X269757842Y-47345031D01*
X269677030Y-47425843D01*
X269650093Y-47506656D01*
X269650093Y-47560530D01*
X269677030Y-47641343D01*
X269892529Y-47856842D01*
X268761158Y-47264219D02*
X269084407Y-47587468D01*
X268922783Y-47425843D02*
X269488468Y-46860158D01*
X269461531Y-46994845D01*
X269461531Y-47102595D01*
X269488468Y-47183407D01*
X268653409Y-46402222D02*
X268276285Y-46779346D01*
X269003595Y-46321410D02*
X268734221Y-46860158D01*
X268384035Y-46509972D01*
X270477277Y-52936842D02*
X270558089Y-52963779D01*
X270638902Y-53044591D01*
X270692776Y-53152341D01*
X270692776Y-53260091D01*
X270665839Y-53340903D01*
X270585027Y-53475590D01*
X270504215Y-53556402D01*
X270369528Y-53637214D01*
X270288715Y-53664152D01*
X270180966Y-53664152D01*
X270073216Y-53610277D01*
X270019341Y-53556402D01*
X269965467Y-53448652D01*
X269965467Y-53394778D01*
X270154028Y-53206216D01*
X270261778Y-53313965D01*
X269669155Y-53206216D02*
X270234841Y-52640530D01*
X270019341Y-52425031D01*
X269938529Y-52398094D01*
X269884654Y-52398094D01*
X269803842Y-52425031D01*
X269723030Y-52505843D01*
X269696093Y-52586656D01*
X269696093Y-52640530D01*
X269723030Y-52721343D01*
X269938529Y-52936842D01*
X268807158Y-52344219D02*
X269130407Y-52667468D01*
X268968783Y-52505843D02*
X269534468Y-51940158D01*
X269507531Y-52074845D01*
X269507531Y-52182595D01*
X269534468Y-52263407D01*
X269184282Y-51589972D02*
X268834096Y-51239786D01*
X268807158Y-51643847D01*
X268726346Y-51563034D01*
X268645534Y-51536097D01*
X268591659Y-51536097D01*
X268510847Y-51563034D01*
X268376160Y-51697721D01*
X268349223Y-51778534D01*
X268349223Y-51832408D01*
X268376160Y-51913221D01*
X268537784Y-52074845D01*
X268618597Y-52101782D01*
X268672471Y-52101782D01*
X270331277Y-55476842D02*
X270412089Y-55503779D01*
X270492902Y-55584591D01*
X270546776Y-55692341D01*
X270546776Y-55800091D01*
X270519839Y-55880903D01*
X270439027Y-56015590D01*
X270358215Y-56096402D01*
X270223528Y-56177214D01*
X270142715Y-56204152D01*
X270034966Y-56204152D01*
X269927216Y-56150277D01*
X269873341Y-56096402D01*
X269819467Y-55988652D01*
X269819467Y-55934778D01*
X270008028Y-55746216D01*
X270115778Y-55853965D01*
X269523155Y-55746216D02*
X270088841Y-55180530D01*
X269873341Y-54965031D01*
X269792529Y-54938094D01*
X269738654Y-54938094D01*
X269657842Y-54965031D01*
X269577030Y-55045843D01*
X269550093Y-55126656D01*
X269550093Y-55180530D01*
X269577030Y-55261343D01*
X269792529Y-55476842D01*
X268661158Y-54884219D02*
X268984407Y-55207468D01*
X268822783Y-55045843D02*
X269388468Y-54480158D01*
X269361531Y-54614845D01*
X269361531Y-54722595D01*
X269388468Y-54803407D01*
X268957470Y-54156909D02*
X268957470Y-54103034D01*
X268930532Y-54022222D01*
X268795845Y-53887535D01*
X268715033Y-53860598D01*
X268661158Y-53860598D01*
X268580346Y-53887535D01*
X268526471Y-53941410D01*
X268472597Y-54049160D01*
X268472597Y-54695657D01*
X268122410Y-54345471D01*
X270331277Y-58016842D02*
X270412089Y-58043779D01*
X270492902Y-58124591D01*
X270546776Y-58232341D01*
X270546776Y-58340091D01*
X270519839Y-58420903D01*
X270439027Y-58555590D01*
X270358215Y-58636402D01*
X270223528Y-58717214D01*
X270142715Y-58744152D01*
X270034966Y-58744152D01*
X269927216Y-58690277D01*
X269873341Y-58636402D01*
X269819467Y-58528652D01*
X269819467Y-58474778D01*
X270008028Y-58286216D01*
X270115778Y-58393965D01*
X269523155Y-58286216D02*
X270088841Y-57720530D01*
X269873341Y-57505031D01*
X269792529Y-57478094D01*
X269738654Y-57478094D01*
X269657842Y-57505031D01*
X269577030Y-57585843D01*
X269550093Y-57666656D01*
X269550093Y-57720530D01*
X269577030Y-57801343D01*
X269792529Y-58016842D01*
X268661158Y-57424219D02*
X268984407Y-57747468D01*
X268822783Y-57585843D02*
X269388468Y-57020158D01*
X269361531Y-57154845D01*
X269361531Y-57262595D01*
X269388468Y-57343407D01*
X268122410Y-56885471D02*
X268445659Y-57208720D01*
X268284035Y-57047095D02*
X268849720Y-56481410D01*
X268822783Y-56616097D01*
X268822783Y-56723847D01*
X268849720Y-56804659D01*
X270477277Y-60556842D02*
X270558089Y-60583779D01*
X270638902Y-60664591D01*
X270692776Y-60772341D01*
X270692776Y-60880091D01*
X270665839Y-60960903D01*
X270585027Y-61095590D01*
X270504215Y-61176402D01*
X270369528Y-61257214D01*
X270288715Y-61284152D01*
X270180966Y-61284152D01*
X270073216Y-61230277D01*
X270019341Y-61176402D01*
X269965467Y-61068652D01*
X269965467Y-61014778D01*
X270154028Y-60826216D01*
X270261778Y-60933965D01*
X269669155Y-60826216D02*
X270234841Y-60260530D01*
X270019341Y-60045031D01*
X269938529Y-60018094D01*
X269884654Y-60018094D01*
X269803842Y-60045031D01*
X269723030Y-60125843D01*
X269696093Y-60206656D01*
X269696093Y-60260530D01*
X269723030Y-60341343D01*
X269938529Y-60556842D01*
X268807158Y-59964219D02*
X269130407Y-60287468D01*
X268968783Y-60125843D02*
X269534468Y-59560158D01*
X269507531Y-59694845D01*
X269507531Y-59802595D01*
X269534468Y-59883407D01*
X269022658Y-59048347D02*
X268968783Y-58994473D01*
X268887971Y-58967535D01*
X268834096Y-58967535D01*
X268753284Y-58994473D01*
X268618597Y-59075285D01*
X268483910Y-59209972D01*
X268403097Y-59344659D01*
X268376160Y-59425471D01*
X268376160Y-59479346D01*
X268403097Y-59560158D01*
X268456972Y-59614033D01*
X268537784Y-59640970D01*
X268591659Y-59640970D01*
X268672471Y-59614033D01*
X268807158Y-59533221D01*
X268941845Y-59398534D01*
X269022658Y-59263847D01*
X269049595Y-59183034D01*
X269049595Y-59129160D01*
X269022658Y-59048347D01*
X270461903Y-65367468D02*
X270542715Y-65394405D01*
X270623528Y-65475217D01*
X270677402Y-65582967D01*
X270677402Y-65690717D01*
X270650465Y-65771529D01*
X270569653Y-65906216D01*
X270488841Y-65987028D01*
X270354154Y-66067840D01*
X270273341Y-66094778D01*
X270165592Y-66094778D01*
X270057842Y-66040903D01*
X270003967Y-65987028D01*
X269950093Y-65879278D01*
X269950093Y-65825404D01*
X270138654Y-65636842D01*
X270246404Y-65744591D01*
X269653781Y-65636842D02*
X270219467Y-65071156D01*
X270003967Y-64855657D01*
X269923155Y-64828720D01*
X269869280Y-64828720D01*
X269788468Y-64855657D01*
X269707656Y-64936469D01*
X269680719Y-65017282D01*
X269680719Y-65071156D01*
X269707656Y-65151969D01*
X269923155Y-65367468D01*
X269061158Y-65044219D02*
X268953409Y-64936469D01*
X268926471Y-64855657D01*
X268926471Y-64801782D01*
X268953409Y-64667095D01*
X269034221Y-64532408D01*
X269249720Y-64316909D01*
X269330532Y-64289972D01*
X269384407Y-64289972D01*
X269465219Y-64316909D01*
X269572969Y-64424659D01*
X269599906Y-64505471D01*
X269599906Y-64559346D01*
X269572969Y-64640158D01*
X269438282Y-64774845D01*
X269357470Y-64801782D01*
X269303595Y-64801782D01*
X269222783Y-64774845D01*
X269115033Y-64667095D01*
X269088096Y-64586283D01*
X269088096Y-64532408D01*
X269115033Y-64451596D01*
X270461903Y-67907468D02*
X270542715Y-67934405D01*
X270623528Y-68015217D01*
X270677402Y-68122967D01*
X270677402Y-68230717D01*
X270650465Y-68311529D01*
X270569653Y-68446216D01*
X270488841Y-68527028D01*
X270354154Y-68607840D01*
X270273341Y-68634778D01*
X270165592Y-68634778D01*
X270057842Y-68580903D01*
X270003967Y-68527028D01*
X269950093Y-68419278D01*
X269950093Y-68365404D01*
X270138654Y-68176842D01*
X270246404Y-68284591D01*
X269653781Y-68176842D02*
X270219467Y-67611156D01*
X270003967Y-67395657D01*
X269923155Y-67368720D01*
X269869280Y-67368720D01*
X269788468Y-67395657D01*
X269707656Y-67476469D01*
X269680719Y-67557282D01*
X269680719Y-67611156D01*
X269707656Y-67691969D01*
X269923155Y-67907468D01*
X269330532Y-67207095D02*
X269411345Y-67234033D01*
X269465219Y-67234033D01*
X269546032Y-67207095D01*
X269572969Y-67180158D01*
X269599906Y-67099346D01*
X269599906Y-67045471D01*
X269572969Y-66964659D01*
X269465219Y-66856909D01*
X269384407Y-66829972D01*
X269330532Y-66829972D01*
X269249720Y-66856909D01*
X269222783Y-66883847D01*
X269195845Y-66964659D01*
X269195845Y-67018534D01*
X269222783Y-67099346D01*
X269330532Y-67207095D01*
X269357470Y-67287908D01*
X269357470Y-67341782D01*
X269330532Y-67422595D01*
X269222783Y-67530344D01*
X269141971Y-67557282D01*
X269088096Y-67557282D01*
X269007284Y-67530344D01*
X268899534Y-67422595D01*
X268872597Y-67341782D01*
X268872597Y-67287908D01*
X268899534Y-67207095D01*
X269007284Y-67099346D01*
X269088096Y-67072408D01*
X269141971Y-67072408D01*
X269222783Y-67099346D01*
X270561903Y-70477468D02*
X270642715Y-70504405D01*
X270723528Y-70585217D01*
X270777402Y-70692967D01*
X270777402Y-70800717D01*
X270750465Y-70881529D01*
X270669653Y-71016216D01*
X270588841Y-71097028D01*
X270454154Y-71177840D01*
X270373341Y-71204778D01*
X270265592Y-71204778D01*
X270157842Y-71150903D01*
X270103967Y-71097028D01*
X270050093Y-70989278D01*
X270050093Y-70935404D01*
X270238654Y-70746842D01*
X270346404Y-70854591D01*
X269753781Y-70746842D02*
X270319467Y-70181156D01*
X270103967Y-69965657D01*
X270023155Y-69938720D01*
X269969280Y-69938720D01*
X269888468Y-69965657D01*
X269807656Y-70046469D01*
X269780719Y-70127282D01*
X269780719Y-70181156D01*
X269807656Y-70261969D01*
X270023155Y-70477468D01*
X269807656Y-69669346D02*
X269430532Y-69292222D01*
X269107284Y-70100344D01*
X270461903Y-72987468D02*
X270542715Y-73014405D01*
X270623528Y-73095217D01*
X270677402Y-73202967D01*
X270677402Y-73310717D01*
X270650465Y-73391529D01*
X270569653Y-73526216D01*
X270488841Y-73607028D01*
X270354154Y-73687840D01*
X270273341Y-73714778D01*
X270165592Y-73714778D01*
X270057842Y-73660903D01*
X270003967Y-73607028D01*
X269950093Y-73499278D01*
X269950093Y-73445404D01*
X270138654Y-73256842D01*
X270246404Y-73364591D01*
X269653781Y-73256842D02*
X270219467Y-72691156D01*
X270003967Y-72475657D01*
X269923155Y-72448720D01*
X269869280Y-72448720D01*
X269788468Y-72475657D01*
X269707656Y-72556469D01*
X269680719Y-72637282D01*
X269680719Y-72691156D01*
X269707656Y-72771969D01*
X269923155Y-72987468D01*
X269411345Y-71883034D02*
X269519094Y-71990784D01*
X269546032Y-72071596D01*
X269546032Y-72125471D01*
X269519094Y-72260158D01*
X269438282Y-72394845D01*
X269222783Y-72610344D01*
X269141971Y-72637282D01*
X269088096Y-72637282D01*
X269007284Y-72610344D01*
X268899534Y-72502595D01*
X268872597Y-72421782D01*
X268872597Y-72367908D01*
X268899534Y-72287095D01*
X269034221Y-72152408D01*
X269115033Y-72125471D01*
X269168908Y-72125471D01*
X269249720Y-72152408D01*
X269357470Y-72260158D01*
X269384407Y-72340970D01*
X269384407Y-72394845D01*
X269357470Y-72475657D01*
X270461903Y-78067468D02*
X270542715Y-78094405D01*
X270623528Y-78175217D01*
X270677402Y-78282967D01*
X270677402Y-78390717D01*
X270650465Y-78471529D01*
X270569653Y-78606216D01*
X270488841Y-78687028D01*
X270354154Y-78767840D01*
X270273341Y-78794778D01*
X270165592Y-78794778D01*
X270057842Y-78740903D01*
X270003967Y-78687028D01*
X269950093Y-78579278D01*
X269950093Y-78525404D01*
X270138654Y-78336842D01*
X270246404Y-78444591D01*
X269653781Y-78336842D02*
X270219467Y-77771156D01*
X270003967Y-77555657D01*
X269923155Y-77528720D01*
X269869280Y-77528720D01*
X269788468Y-77555657D01*
X269707656Y-77636469D01*
X269680719Y-77717282D01*
X269680719Y-77771156D01*
X269707656Y-77851969D01*
X269923155Y-78067468D01*
X269384407Y-76936097D02*
X269653781Y-77205471D01*
X269411345Y-77501782D01*
X269411345Y-77447908D01*
X269384407Y-77367095D01*
X269249720Y-77232408D01*
X269168908Y-77205471D01*
X269115033Y-77205471D01*
X269034221Y-77232408D01*
X268899534Y-77367095D01*
X268872597Y-77447908D01*
X268872597Y-77501782D01*
X268899534Y-77582595D01*
X269034221Y-77717282D01*
X269115033Y-77744219D01*
X269168908Y-77744219D01*
X270461903Y-80607468D02*
X270542715Y-80634405D01*
X270623528Y-80715217D01*
X270677402Y-80822967D01*
X270677402Y-80930717D01*
X270650465Y-81011529D01*
X270569653Y-81146216D01*
X270488841Y-81227028D01*
X270354154Y-81307840D01*
X270273341Y-81334778D01*
X270165592Y-81334778D01*
X270057842Y-81280903D01*
X270003967Y-81227028D01*
X269950093Y-81119278D01*
X269950093Y-81065404D01*
X270138654Y-80876842D01*
X270246404Y-80984591D01*
X269653781Y-80876842D02*
X270219467Y-80311156D01*
X270003967Y-80095657D01*
X269923155Y-80068720D01*
X269869280Y-80068720D01*
X269788468Y-80095657D01*
X269707656Y-80176469D01*
X269680719Y-80257282D01*
X269680719Y-80311156D01*
X269707656Y-80391969D01*
X269923155Y-80607468D01*
X269222783Y-79691596D02*
X268845659Y-80068720D01*
X269572969Y-79610784D02*
X269303595Y-80149532D01*
X268953409Y-79799346D01*
X270461903Y-83147468D02*
X270542715Y-83174405D01*
X270623528Y-83255217D01*
X270677402Y-83362967D01*
X270677402Y-83470717D01*
X270650465Y-83551529D01*
X270569653Y-83686216D01*
X270488841Y-83767028D01*
X270354154Y-83847840D01*
X270273341Y-83874778D01*
X270165592Y-83874778D01*
X270057842Y-83820903D01*
X270003967Y-83767028D01*
X269950093Y-83659278D01*
X269950093Y-83605404D01*
X270138654Y-83416842D01*
X270246404Y-83524591D01*
X269653781Y-83416842D02*
X270219467Y-82851156D01*
X270003967Y-82635657D01*
X269923155Y-82608720D01*
X269869280Y-82608720D01*
X269788468Y-82635657D01*
X269707656Y-82716469D01*
X269680719Y-82797282D01*
X269680719Y-82851156D01*
X269707656Y-82931969D01*
X269923155Y-83147468D01*
X269707656Y-82339346D02*
X269357470Y-81989160D01*
X269330532Y-82393221D01*
X269249720Y-82312408D01*
X269168908Y-82285471D01*
X269115033Y-82285471D01*
X269034221Y-82312408D01*
X268899534Y-82447095D01*
X268872597Y-82527908D01*
X268872597Y-82581782D01*
X268899534Y-82662595D01*
X269061158Y-82824219D01*
X269141971Y-82851156D01*
X269195845Y-82851156D01*
X270461903Y-93307468D02*
X270542715Y-93334405D01*
X270623528Y-93415217D01*
X270677402Y-93522967D01*
X270677402Y-93630717D01*
X270650465Y-93711529D01*
X270569653Y-93846216D01*
X270488841Y-93927028D01*
X270354154Y-94007840D01*
X270273341Y-94034778D01*
X270165592Y-94034778D01*
X270057842Y-93980903D01*
X270003967Y-93927028D01*
X269950093Y-93819278D01*
X269950093Y-93765404D01*
X270138654Y-93576842D01*
X270246404Y-93684591D01*
X269653781Y-93576842D02*
X270219467Y-93011156D01*
X270003967Y-92795657D01*
X269923155Y-92768720D01*
X269869280Y-92768720D01*
X269788468Y-92795657D01*
X269707656Y-92876469D01*
X269680719Y-92957282D01*
X269680719Y-93011156D01*
X269707656Y-93091969D01*
X269923155Y-93307468D01*
X269546032Y-92337721D02*
X269492157Y-92283847D01*
X269411345Y-92256909D01*
X269357470Y-92256909D01*
X269276658Y-92283847D01*
X269141971Y-92364659D01*
X269007284Y-92499346D01*
X268926471Y-92634033D01*
X268899534Y-92714845D01*
X268899534Y-92768720D01*
X268926471Y-92849532D01*
X268980346Y-92903407D01*
X269061158Y-92930344D01*
X269115033Y-92930344D01*
X269195845Y-92903407D01*
X269330532Y-92822595D01*
X269465219Y-92687908D01*
X269546032Y-92553221D01*
X269572969Y-92472408D01*
X269572969Y-92418534D01*
X269546032Y-92337721D01*
X270361903Y-85687468D02*
X270442715Y-85714405D01*
X270523528Y-85795217D01*
X270577402Y-85902967D01*
X270577402Y-86010717D01*
X270550465Y-86091529D01*
X270469653Y-86226216D01*
X270388841Y-86307028D01*
X270254154Y-86387840D01*
X270173341Y-86414778D01*
X270065592Y-86414778D01*
X269957842Y-86360903D01*
X269903967Y-86307028D01*
X269850093Y-86199278D01*
X269850093Y-86145404D01*
X270038654Y-85956842D01*
X270146404Y-86064591D01*
X269553781Y-85956842D02*
X270119467Y-85391156D01*
X269903967Y-85175657D01*
X269823155Y-85148720D01*
X269769280Y-85148720D01*
X269688468Y-85175657D01*
X269607656Y-85256469D01*
X269580719Y-85337282D01*
X269580719Y-85391156D01*
X269607656Y-85471969D01*
X269823155Y-85687468D01*
X269526844Y-84906283D02*
X269526844Y-84852408D01*
X269499906Y-84771596D01*
X269365219Y-84636909D01*
X269284407Y-84609972D01*
X269230532Y-84609972D01*
X269149720Y-84636909D01*
X269095845Y-84690784D01*
X269041971Y-84798534D01*
X269041971Y-85445031D01*
X268691784Y-85094845D01*
X270361903Y-90777468D02*
X270442715Y-90804405D01*
X270523528Y-90885217D01*
X270577402Y-90992967D01*
X270577402Y-91100717D01*
X270550465Y-91181529D01*
X270469653Y-91316216D01*
X270388841Y-91397028D01*
X270254154Y-91477840D01*
X270173341Y-91504778D01*
X270065592Y-91504778D01*
X269957842Y-91450903D01*
X269903967Y-91397028D01*
X269850093Y-91289278D01*
X269850093Y-91235404D01*
X270038654Y-91046842D01*
X270146404Y-91154591D01*
X269553781Y-91046842D02*
X270119467Y-90481156D01*
X269903967Y-90265657D01*
X269823155Y-90238720D01*
X269769280Y-90238720D01*
X269688468Y-90265657D01*
X269607656Y-90346469D01*
X269580719Y-90427282D01*
X269580719Y-90481156D01*
X269607656Y-90561969D01*
X269823155Y-90777468D01*
X268691784Y-90184845D02*
X269015033Y-90508094D01*
X268853409Y-90346469D02*
X269419094Y-89780784D01*
X269392157Y-89915471D01*
X269392157Y-90023221D01*
X269419094Y-90104033D01*
X268009380Y-74985714D02*
X267009380Y-74985714D01*
X267009380Y-75223809D01*
X267057000Y-75366666D01*
X267152238Y-75461904D01*
X267247476Y-75509523D01*
X267437952Y-75557142D01*
X267580809Y-75557142D01*
X267771285Y-75509523D01*
X267866523Y-75461904D01*
X267961761Y-75366666D01*
X268009380Y-75223809D01*
X268009380Y-74985714D01*
X267342714Y-76414285D02*
X268009380Y-76414285D01*
X266961761Y-76176190D02*
X267676047Y-75938095D01*
X267676047Y-76557142D01*
X267342714Y-77366666D02*
X268009380Y-77366666D01*
X266961761Y-77128571D02*
X267676047Y-76890476D01*
X267676047Y-77509523D01*
X263437380Y-46537714D02*
X262437380Y-46537714D01*
X262437380Y-46775809D01*
X262485000Y-46918666D01*
X262580238Y-47013904D01*
X262675476Y-47061523D01*
X262865952Y-47109142D01*
X263008809Y-47109142D01*
X263199285Y-47061523D01*
X263294523Y-47013904D01*
X263389761Y-46918666D01*
X263437380Y-46775809D01*
X263437380Y-46537714D01*
X262770714Y-47966285D02*
X263437380Y-47966285D01*
X262389761Y-47728190D02*
X263104047Y-47490095D01*
X263104047Y-48109142D01*
X262437380Y-48394857D02*
X262437380Y-49013904D01*
X262818333Y-48680571D01*
X262818333Y-48823428D01*
X262865952Y-48918666D01*
X262913571Y-48966285D01*
X263008809Y-49013904D01*
X263246904Y-49013904D01*
X263342142Y-48966285D01*
X263389761Y-48918666D01*
X263437380Y-48823428D01*
X263437380Y-48537714D01*
X263389761Y-48442476D01*
X263342142Y-48394857D01*
X268009380Y-27360714D02*
X267009380Y-27360714D01*
X267009380Y-27598809D01*
X267057000Y-27741666D01*
X267152238Y-27836904D01*
X267247476Y-27884523D01*
X267437952Y-27932142D01*
X267580809Y-27932142D01*
X267771285Y-27884523D01*
X267866523Y-27836904D01*
X267961761Y-27741666D01*
X268009380Y-27598809D01*
X268009380Y-27360714D01*
X267342714Y-28789285D02*
X268009380Y-28789285D01*
X266961761Y-28551190D02*
X267676047Y-28313095D01*
X267676047Y-28932142D01*
X267104619Y-29265476D02*
X267057000Y-29313095D01*
X267009380Y-29408333D01*
X267009380Y-29646428D01*
X267057000Y-29741666D01*
X267104619Y-29789285D01*
X267199857Y-29836904D01*
X267295095Y-29836904D01*
X267437952Y-29789285D01*
X268009380Y-29217857D01*
X268009380Y-29836904D01*
X248959380Y-74985714D02*
X247959380Y-74985714D01*
X247959380Y-75223809D01*
X248007000Y-75366666D01*
X248102238Y-75461904D01*
X248197476Y-75509523D01*
X248387952Y-75557142D01*
X248530809Y-75557142D01*
X248721285Y-75509523D01*
X248816523Y-75461904D01*
X248911761Y-75366666D01*
X248959380Y-75223809D01*
X248959380Y-74985714D01*
X248292714Y-76414285D02*
X248959380Y-76414285D01*
X247911761Y-76176190D02*
X248626047Y-75938095D01*
X248626047Y-76557142D01*
X248959380Y-77461904D02*
X248959380Y-76890476D01*
X248959380Y-77176190D02*
X247959380Y-77176190D01*
X248102238Y-77080952D01*
X248197476Y-76985714D01*
X248245095Y-76890476D01*
X248959380Y-27360714D02*
X247959380Y-27360714D01*
X247959380Y-27598809D01*
X248007000Y-27741666D01*
X248102238Y-27836904D01*
X248197476Y-27884523D01*
X248387952Y-27932142D01*
X248530809Y-27932142D01*
X248721285Y-27884523D01*
X248816523Y-27836904D01*
X248911761Y-27741666D01*
X248959380Y-27598809D01*
X248959380Y-27360714D01*
X248292714Y-28789285D02*
X248959380Y-28789285D01*
X247911761Y-28551190D02*
X248626047Y-28313095D01*
X248626047Y-28932142D01*
X247959380Y-29503571D02*
X247959380Y-29598809D01*
X248007000Y-29694047D01*
X248054619Y-29741666D01*
X248149857Y-29789285D01*
X248340333Y-29836904D01*
X248578428Y-29836904D01*
X248768904Y-29789285D01*
X248864142Y-29741666D01*
X248911761Y-29694047D01*
X248959380Y-29598809D01*
X248959380Y-29503571D01*
X248911761Y-29408333D01*
X248864142Y-29360714D01*
X248768904Y-29313095D01*
X248578428Y-29265476D01*
X248340333Y-29265476D01*
X248149857Y-29313095D01*
X248054619Y-29360714D01*
X248007000Y-29408333D01*
X247959380Y-29503571D01*
X229909380Y-74985714D02*
X228909380Y-74985714D01*
X228909380Y-75223809D01*
X228957000Y-75366666D01*
X229052238Y-75461904D01*
X229147476Y-75509523D01*
X229337952Y-75557142D01*
X229480809Y-75557142D01*
X229671285Y-75509523D01*
X229766523Y-75461904D01*
X229861761Y-75366666D01*
X229909380Y-75223809D01*
X229909380Y-74985714D01*
X228909380Y-75890476D02*
X228909380Y-76509523D01*
X229290333Y-76176190D01*
X229290333Y-76319047D01*
X229337952Y-76414285D01*
X229385571Y-76461904D01*
X229480809Y-76509523D01*
X229718904Y-76509523D01*
X229814142Y-76461904D01*
X229861761Y-76414285D01*
X229909380Y-76319047D01*
X229909380Y-76033333D01*
X229861761Y-75938095D01*
X229814142Y-75890476D01*
X229909380Y-76985714D02*
X229909380Y-77176190D01*
X229861761Y-77271428D01*
X229814142Y-77319047D01*
X229671285Y-77414285D01*
X229480809Y-77461904D01*
X229099857Y-77461904D01*
X229004619Y-77414285D01*
X228957000Y-77366666D01*
X228909380Y-77271428D01*
X228909380Y-77080952D01*
X228957000Y-76985714D01*
X229004619Y-76938095D01*
X229099857Y-76890476D01*
X229337952Y-76890476D01*
X229433190Y-76938095D01*
X229480809Y-76985714D01*
X229528428Y-77080952D01*
X229528428Y-77271428D01*
X229480809Y-77366666D01*
X229433190Y-77414285D01*
X229337952Y-77461904D01*
X229909380Y-27487714D02*
X228909380Y-27487714D01*
X228909380Y-27725809D01*
X228957000Y-27868666D01*
X229052238Y-27963904D01*
X229147476Y-28011523D01*
X229337952Y-28059142D01*
X229480809Y-28059142D01*
X229671285Y-28011523D01*
X229766523Y-27963904D01*
X229861761Y-27868666D01*
X229909380Y-27725809D01*
X229909380Y-27487714D01*
X228909380Y-28392476D02*
X228909380Y-29011523D01*
X229290333Y-28678190D01*
X229290333Y-28821047D01*
X229337952Y-28916285D01*
X229385571Y-28963904D01*
X229480809Y-29011523D01*
X229718904Y-29011523D01*
X229814142Y-28963904D01*
X229861761Y-28916285D01*
X229909380Y-28821047D01*
X229909380Y-28535333D01*
X229861761Y-28440095D01*
X229814142Y-28392476D01*
X228909380Y-29344857D02*
X228909380Y-30011523D01*
X229909380Y-29582952D01*
X210859380Y-75112714D02*
X209859380Y-75112714D01*
X209859380Y-75350809D01*
X209907000Y-75493666D01*
X210002238Y-75588904D01*
X210097476Y-75636523D01*
X210287952Y-75684142D01*
X210430809Y-75684142D01*
X210621285Y-75636523D01*
X210716523Y-75588904D01*
X210811761Y-75493666D01*
X210859380Y-75350809D01*
X210859380Y-75112714D01*
X209859380Y-76017476D02*
X209859380Y-76636523D01*
X210240333Y-76303190D01*
X210240333Y-76446047D01*
X210287952Y-76541285D01*
X210335571Y-76588904D01*
X210430809Y-76636523D01*
X210668904Y-76636523D01*
X210764142Y-76588904D01*
X210811761Y-76541285D01*
X210859380Y-76446047D01*
X210859380Y-76160333D01*
X210811761Y-76065095D01*
X210764142Y-76017476D01*
X209859380Y-77493666D02*
X209859380Y-77303190D01*
X209907000Y-77207952D01*
X209954619Y-77160333D01*
X210097476Y-77065095D01*
X210287952Y-77017476D01*
X210668904Y-77017476D01*
X210764142Y-77065095D01*
X210811761Y-77112714D01*
X210859380Y-77207952D01*
X210859380Y-77398428D01*
X210811761Y-77493666D01*
X210764142Y-77541285D01*
X210668904Y-77588904D01*
X210430809Y-77588904D01*
X210335571Y-77541285D01*
X210287952Y-77493666D01*
X210240333Y-77398428D01*
X210240333Y-77207952D01*
X210287952Y-77112714D01*
X210335571Y-77065095D01*
X210430809Y-77017476D01*
X206160380Y-46410714D02*
X205160380Y-46410714D01*
X205160380Y-46648809D01*
X205208000Y-46791666D01*
X205303238Y-46886904D01*
X205398476Y-46934523D01*
X205588952Y-46982142D01*
X205731809Y-46982142D01*
X205922285Y-46934523D01*
X206017523Y-46886904D01*
X206112761Y-46791666D01*
X206160380Y-46648809D01*
X206160380Y-46410714D01*
X205160380Y-47315476D02*
X205160380Y-47934523D01*
X205541333Y-47601190D01*
X205541333Y-47744047D01*
X205588952Y-47839285D01*
X205636571Y-47886904D01*
X205731809Y-47934523D01*
X205969904Y-47934523D01*
X206065142Y-47886904D01*
X206112761Y-47839285D01*
X206160380Y-47744047D01*
X206160380Y-47458333D01*
X206112761Y-47363095D01*
X206065142Y-47315476D01*
X205160380Y-48839285D02*
X205160380Y-48363095D01*
X205636571Y-48315476D01*
X205588952Y-48363095D01*
X205541333Y-48458333D01*
X205541333Y-48696428D01*
X205588952Y-48791666D01*
X205636571Y-48839285D01*
X205731809Y-48886904D01*
X205969904Y-48886904D01*
X206065142Y-48839285D01*
X206112761Y-48791666D01*
X206160380Y-48696428D01*
X206160380Y-48458333D01*
X206112761Y-48363095D01*
X206065142Y-48315476D01*
X210859380Y-27360714D02*
X209859380Y-27360714D01*
X209859380Y-27598809D01*
X209907000Y-27741666D01*
X210002238Y-27836904D01*
X210097476Y-27884523D01*
X210287952Y-27932142D01*
X210430809Y-27932142D01*
X210621285Y-27884523D01*
X210716523Y-27836904D01*
X210811761Y-27741666D01*
X210859380Y-27598809D01*
X210859380Y-27360714D01*
X209859380Y-28265476D02*
X209859380Y-28884523D01*
X210240333Y-28551190D01*
X210240333Y-28694047D01*
X210287952Y-28789285D01*
X210335571Y-28836904D01*
X210430809Y-28884523D01*
X210668904Y-28884523D01*
X210764142Y-28836904D01*
X210811761Y-28789285D01*
X210859380Y-28694047D01*
X210859380Y-28408333D01*
X210811761Y-28313095D01*
X210764142Y-28265476D01*
X210192714Y-29741666D02*
X210859380Y-29741666D01*
X209811761Y-29503571D02*
X210526047Y-29265476D01*
X210526047Y-29884523D01*
X191809380Y-74985714D02*
X190809380Y-74985714D01*
X190809380Y-75223809D01*
X190857000Y-75366666D01*
X190952238Y-75461904D01*
X191047476Y-75509523D01*
X191237952Y-75557142D01*
X191380809Y-75557142D01*
X191571285Y-75509523D01*
X191666523Y-75461904D01*
X191761761Y-75366666D01*
X191809380Y-75223809D01*
X191809380Y-74985714D01*
X190809380Y-75890476D02*
X190809380Y-76509523D01*
X191190333Y-76176190D01*
X191190333Y-76319047D01*
X191237952Y-76414285D01*
X191285571Y-76461904D01*
X191380809Y-76509523D01*
X191618904Y-76509523D01*
X191714142Y-76461904D01*
X191761761Y-76414285D01*
X191809380Y-76319047D01*
X191809380Y-76033333D01*
X191761761Y-75938095D01*
X191714142Y-75890476D01*
X190809380Y-76842857D02*
X190809380Y-77461904D01*
X191190333Y-77128571D01*
X191190333Y-77271428D01*
X191237952Y-77366666D01*
X191285571Y-77414285D01*
X191380809Y-77461904D01*
X191618904Y-77461904D01*
X191714142Y-77414285D01*
X191761761Y-77366666D01*
X191809380Y-77271428D01*
X191809380Y-76985714D01*
X191761761Y-76890476D01*
X191714142Y-76842857D01*
X234735380Y-46537714D02*
X233735380Y-46537714D01*
X233735380Y-46775809D01*
X233783000Y-46918666D01*
X233878238Y-47013904D01*
X233973476Y-47061523D01*
X234163952Y-47109142D01*
X234306809Y-47109142D01*
X234497285Y-47061523D01*
X234592523Y-47013904D01*
X234687761Y-46918666D01*
X234735380Y-46775809D01*
X234735380Y-46537714D01*
X233735380Y-47442476D02*
X233735380Y-48061523D01*
X234116333Y-47728190D01*
X234116333Y-47871047D01*
X234163952Y-47966285D01*
X234211571Y-48013904D01*
X234306809Y-48061523D01*
X234544904Y-48061523D01*
X234640142Y-48013904D01*
X234687761Y-47966285D01*
X234735380Y-47871047D01*
X234735380Y-47585333D01*
X234687761Y-47490095D01*
X234640142Y-47442476D01*
X234163952Y-48632952D02*
X234116333Y-48537714D01*
X234068714Y-48490095D01*
X233973476Y-48442476D01*
X233925857Y-48442476D01*
X233830619Y-48490095D01*
X233783000Y-48537714D01*
X233735380Y-48632952D01*
X233735380Y-48823428D01*
X233783000Y-48918666D01*
X233830619Y-48966285D01*
X233925857Y-49013904D01*
X233973476Y-49013904D01*
X234068714Y-48966285D01*
X234116333Y-48918666D01*
X234163952Y-48823428D01*
X234163952Y-48632952D01*
X234211571Y-48537714D01*
X234259190Y-48490095D01*
X234354428Y-48442476D01*
X234544904Y-48442476D01*
X234640142Y-48490095D01*
X234687761Y-48537714D01*
X234735380Y-48632952D01*
X234735380Y-48823428D01*
X234687761Y-48918666D01*
X234640142Y-48966285D01*
X234544904Y-49013904D01*
X234354428Y-49013904D01*
X234259190Y-48966285D01*
X234211571Y-48918666D01*
X234163952Y-48823428D01*
X191809380Y-27487714D02*
X190809380Y-27487714D01*
X190809380Y-27725809D01*
X190857000Y-27868666D01*
X190952238Y-27963904D01*
X191047476Y-28011523D01*
X191237952Y-28059142D01*
X191380809Y-28059142D01*
X191571285Y-28011523D01*
X191666523Y-27963904D01*
X191761761Y-27868666D01*
X191809380Y-27725809D01*
X191809380Y-27487714D01*
X190809380Y-28392476D02*
X190809380Y-29011523D01*
X191190333Y-28678190D01*
X191190333Y-28821047D01*
X191237952Y-28916285D01*
X191285571Y-28963904D01*
X191380809Y-29011523D01*
X191618904Y-29011523D01*
X191714142Y-28963904D01*
X191761761Y-28916285D01*
X191809380Y-28821047D01*
X191809380Y-28535333D01*
X191761761Y-28440095D01*
X191714142Y-28392476D01*
X190904619Y-29392476D02*
X190857000Y-29440095D01*
X190809380Y-29535333D01*
X190809380Y-29773428D01*
X190857000Y-29868666D01*
X190904619Y-29916285D01*
X190999857Y-29963904D01*
X191095095Y-29963904D01*
X191237952Y-29916285D01*
X191809380Y-29344857D01*
X191809380Y-29963904D01*
X172759380Y-74985714D02*
X171759380Y-74985714D01*
X171759380Y-75223809D01*
X171807000Y-75366666D01*
X171902238Y-75461904D01*
X171997476Y-75509523D01*
X172187952Y-75557142D01*
X172330809Y-75557142D01*
X172521285Y-75509523D01*
X172616523Y-75461904D01*
X172711761Y-75366666D01*
X172759380Y-75223809D01*
X172759380Y-74985714D01*
X171759380Y-75890476D02*
X171759380Y-76509523D01*
X172140333Y-76176190D01*
X172140333Y-76319047D01*
X172187952Y-76414285D01*
X172235571Y-76461904D01*
X172330809Y-76509523D01*
X172568904Y-76509523D01*
X172664142Y-76461904D01*
X172711761Y-76414285D01*
X172759380Y-76319047D01*
X172759380Y-76033333D01*
X172711761Y-75938095D01*
X172664142Y-75890476D01*
X172759380Y-77461904D02*
X172759380Y-76890476D01*
X172759380Y-77176190D02*
X171759380Y-77176190D01*
X171902238Y-77080952D01*
X171997476Y-76985714D01*
X172045095Y-76890476D01*
X182284380Y-46537714D02*
X181284380Y-46537714D01*
X181284380Y-46775809D01*
X181332000Y-46918666D01*
X181427238Y-47013904D01*
X181522476Y-47061523D01*
X181712952Y-47109142D01*
X181855809Y-47109142D01*
X182046285Y-47061523D01*
X182141523Y-47013904D01*
X182236761Y-46918666D01*
X182284380Y-46775809D01*
X182284380Y-46537714D01*
X181284380Y-47442476D02*
X181284380Y-48061523D01*
X181665333Y-47728190D01*
X181665333Y-47871047D01*
X181712952Y-47966285D01*
X181760571Y-48013904D01*
X181855809Y-48061523D01*
X182093904Y-48061523D01*
X182189142Y-48013904D01*
X182236761Y-47966285D01*
X182284380Y-47871047D01*
X182284380Y-47585333D01*
X182236761Y-47490095D01*
X182189142Y-47442476D01*
X181284380Y-48680571D02*
X181284380Y-48775809D01*
X181332000Y-48871047D01*
X181379619Y-48918666D01*
X181474857Y-48966285D01*
X181665333Y-49013904D01*
X181903428Y-49013904D01*
X182093904Y-48966285D01*
X182189142Y-48918666D01*
X182236761Y-48871047D01*
X182284380Y-48775809D01*
X182284380Y-48680571D01*
X182236761Y-48585333D01*
X182189142Y-48537714D01*
X182093904Y-48490095D01*
X181903428Y-48442476D01*
X181665333Y-48442476D01*
X181474857Y-48490095D01*
X181379619Y-48537714D01*
X181332000Y-48585333D01*
X181284380Y-48680571D01*
X172759380Y-27487714D02*
X171759380Y-27487714D01*
X171759380Y-27725809D01*
X171807000Y-27868666D01*
X171902238Y-27963904D01*
X171997476Y-28011523D01*
X172187952Y-28059142D01*
X172330809Y-28059142D01*
X172521285Y-28011523D01*
X172616523Y-27963904D01*
X172711761Y-27868666D01*
X172759380Y-27725809D01*
X172759380Y-27487714D01*
X171854619Y-28440095D02*
X171807000Y-28487714D01*
X171759380Y-28582952D01*
X171759380Y-28821047D01*
X171807000Y-28916285D01*
X171854619Y-28963904D01*
X171949857Y-29011523D01*
X172045095Y-29011523D01*
X172187952Y-28963904D01*
X172759380Y-28392476D01*
X172759380Y-29011523D01*
X172759380Y-29487714D02*
X172759380Y-29678190D01*
X172711761Y-29773428D01*
X172664142Y-29821047D01*
X172521285Y-29916285D01*
X172330809Y-29963904D01*
X171949857Y-29963904D01*
X171854619Y-29916285D01*
X171807000Y-29868666D01*
X171759380Y-29773428D01*
X171759380Y-29582952D01*
X171807000Y-29487714D01*
X171854619Y-29440095D01*
X171949857Y-29392476D01*
X172187952Y-29392476D01*
X172283190Y-29440095D01*
X172330809Y-29487714D01*
X172378428Y-29582952D01*
X172378428Y-29773428D01*
X172330809Y-29868666D01*
X172283190Y-29916285D01*
X172187952Y-29963904D01*
X153709380Y-74985714D02*
X152709380Y-74985714D01*
X152709380Y-75223809D01*
X152757000Y-75366666D01*
X152852238Y-75461904D01*
X152947476Y-75509523D01*
X153137952Y-75557142D01*
X153280809Y-75557142D01*
X153471285Y-75509523D01*
X153566523Y-75461904D01*
X153661761Y-75366666D01*
X153709380Y-75223809D01*
X153709380Y-74985714D01*
X152804619Y-75938095D02*
X152757000Y-75985714D01*
X152709380Y-76080952D01*
X152709380Y-76319047D01*
X152757000Y-76414285D01*
X152804619Y-76461904D01*
X152899857Y-76509523D01*
X152995095Y-76509523D01*
X153137952Y-76461904D01*
X153709380Y-75890476D01*
X153709380Y-76509523D01*
X153137952Y-77080952D02*
X153090333Y-76985714D01*
X153042714Y-76938095D01*
X152947476Y-76890476D01*
X152899857Y-76890476D01*
X152804619Y-76938095D01*
X152757000Y-76985714D01*
X152709380Y-77080952D01*
X152709380Y-77271428D01*
X152757000Y-77366666D01*
X152804619Y-77414285D01*
X152899857Y-77461904D01*
X152947476Y-77461904D01*
X153042714Y-77414285D01*
X153090333Y-77366666D01*
X153137952Y-77271428D01*
X153137952Y-77080952D01*
X153185571Y-76985714D01*
X153233190Y-76938095D01*
X153328428Y-76890476D01*
X153518904Y-76890476D01*
X153614142Y-76938095D01*
X153661761Y-76985714D01*
X153709380Y-77080952D01*
X153709380Y-77271428D01*
X153661761Y-77366666D01*
X153614142Y-77414285D01*
X153518904Y-77461904D01*
X153328428Y-77461904D01*
X153233190Y-77414285D01*
X153185571Y-77366666D01*
X153137952Y-77271428D01*
X153709380Y-27360714D02*
X152709380Y-27360714D01*
X152709380Y-27598809D01*
X152757000Y-27741666D01*
X152852238Y-27836904D01*
X152947476Y-27884523D01*
X153137952Y-27932142D01*
X153280809Y-27932142D01*
X153471285Y-27884523D01*
X153566523Y-27836904D01*
X153661761Y-27741666D01*
X153709380Y-27598809D01*
X153709380Y-27360714D01*
X152804619Y-28313095D02*
X152757000Y-28360714D01*
X152709380Y-28455952D01*
X152709380Y-28694047D01*
X152757000Y-28789285D01*
X152804619Y-28836904D01*
X152899857Y-28884523D01*
X152995095Y-28884523D01*
X153137952Y-28836904D01*
X153709380Y-28265476D01*
X153709380Y-28884523D01*
X152709380Y-29741666D02*
X152709380Y-29551190D01*
X152757000Y-29455952D01*
X152804619Y-29408333D01*
X152947476Y-29313095D01*
X153137952Y-29265476D01*
X153518904Y-29265476D01*
X153614142Y-29313095D01*
X153661761Y-29360714D01*
X153709380Y-29455952D01*
X153709380Y-29646428D01*
X153661761Y-29741666D01*
X153614142Y-29789285D01*
X153518904Y-29836904D01*
X153280809Y-29836904D01*
X153185571Y-29789285D01*
X153137952Y-29741666D01*
X153090333Y-29646428D01*
X153090333Y-29455952D01*
X153137952Y-29360714D01*
X153185571Y-29313095D01*
X153280809Y-29265476D01*
X134659380Y-74985714D02*
X133659380Y-74985714D01*
X133659380Y-75223809D01*
X133707000Y-75366666D01*
X133802238Y-75461904D01*
X133897476Y-75509523D01*
X134087952Y-75557142D01*
X134230809Y-75557142D01*
X134421285Y-75509523D01*
X134516523Y-75461904D01*
X134611761Y-75366666D01*
X134659380Y-75223809D01*
X134659380Y-74985714D01*
X133754619Y-75938095D02*
X133707000Y-75985714D01*
X133659380Y-76080952D01*
X133659380Y-76319047D01*
X133707000Y-76414285D01*
X133754619Y-76461904D01*
X133849857Y-76509523D01*
X133945095Y-76509523D01*
X134087952Y-76461904D01*
X134659380Y-75890476D01*
X134659380Y-76509523D01*
X133659380Y-77414285D02*
X133659380Y-76938095D01*
X134135571Y-76890476D01*
X134087952Y-76938095D01*
X134040333Y-77033333D01*
X134040333Y-77271428D01*
X134087952Y-77366666D01*
X134135571Y-77414285D01*
X134230809Y-77461904D01*
X134468904Y-77461904D01*
X134564142Y-77414285D01*
X134611761Y-77366666D01*
X134659380Y-77271428D01*
X134659380Y-77033333D01*
X134611761Y-76938095D01*
X134564142Y-76890476D01*
X158535380Y-46410714D02*
X157535380Y-46410714D01*
X157535380Y-46648809D01*
X157583000Y-46791666D01*
X157678238Y-46886904D01*
X157773476Y-46934523D01*
X157963952Y-46982142D01*
X158106809Y-46982142D01*
X158297285Y-46934523D01*
X158392523Y-46886904D01*
X158487761Y-46791666D01*
X158535380Y-46648809D01*
X158535380Y-46410714D01*
X157630619Y-47363095D02*
X157583000Y-47410714D01*
X157535380Y-47505952D01*
X157535380Y-47744047D01*
X157583000Y-47839285D01*
X157630619Y-47886904D01*
X157725857Y-47934523D01*
X157821095Y-47934523D01*
X157963952Y-47886904D01*
X158535380Y-47315476D01*
X158535380Y-47934523D01*
X157535380Y-48267857D02*
X157535380Y-48934523D01*
X158535380Y-48505952D01*
X134659380Y-27487714D02*
X133659380Y-27487714D01*
X133659380Y-27725809D01*
X133707000Y-27868666D01*
X133802238Y-27963904D01*
X133897476Y-28011523D01*
X134087952Y-28059142D01*
X134230809Y-28059142D01*
X134421285Y-28011523D01*
X134516523Y-27963904D01*
X134611761Y-27868666D01*
X134659380Y-27725809D01*
X134659380Y-27487714D01*
X133754619Y-28440095D02*
X133707000Y-28487714D01*
X133659380Y-28582952D01*
X133659380Y-28821047D01*
X133707000Y-28916285D01*
X133754619Y-28963904D01*
X133849857Y-29011523D01*
X133945095Y-29011523D01*
X134087952Y-28963904D01*
X134659380Y-28392476D01*
X134659380Y-29011523D01*
X133992714Y-29868666D02*
X134659380Y-29868666D01*
X133611761Y-29630571D02*
X134326047Y-29392476D01*
X134326047Y-30011523D01*
X115609380Y-74985714D02*
X114609380Y-74985714D01*
X114609380Y-75223809D01*
X114657000Y-75366666D01*
X114752238Y-75461904D01*
X114847476Y-75509523D01*
X115037952Y-75557142D01*
X115180809Y-75557142D01*
X115371285Y-75509523D01*
X115466523Y-75461904D01*
X115561761Y-75366666D01*
X115609380Y-75223809D01*
X115609380Y-74985714D01*
X114704619Y-75938095D02*
X114657000Y-75985714D01*
X114609380Y-76080952D01*
X114609380Y-76319047D01*
X114657000Y-76414285D01*
X114704619Y-76461904D01*
X114799857Y-76509523D01*
X114895095Y-76509523D01*
X115037952Y-76461904D01*
X115609380Y-75890476D01*
X115609380Y-76509523D01*
X114609380Y-76842857D02*
X114609380Y-77461904D01*
X114990333Y-77128571D01*
X114990333Y-77271428D01*
X115037952Y-77366666D01*
X115085571Y-77414285D01*
X115180809Y-77461904D01*
X115418904Y-77461904D01*
X115514142Y-77414285D01*
X115561761Y-77366666D01*
X115609380Y-77271428D01*
X115609380Y-76985714D01*
X115561761Y-76890476D01*
X115514142Y-76842857D01*
X129833380Y-46537714D02*
X128833380Y-46537714D01*
X128833380Y-46775809D01*
X128881000Y-46918666D01*
X128976238Y-47013904D01*
X129071476Y-47061523D01*
X129261952Y-47109142D01*
X129404809Y-47109142D01*
X129595285Y-47061523D01*
X129690523Y-47013904D01*
X129785761Y-46918666D01*
X129833380Y-46775809D01*
X129833380Y-46537714D01*
X128928619Y-47490095D02*
X128881000Y-47537714D01*
X128833380Y-47632952D01*
X128833380Y-47871047D01*
X128881000Y-47966285D01*
X128928619Y-48013904D01*
X129023857Y-48061523D01*
X129119095Y-48061523D01*
X129261952Y-48013904D01*
X129833380Y-47442476D01*
X129833380Y-48061523D01*
X128928619Y-48442476D02*
X128881000Y-48490095D01*
X128833380Y-48585333D01*
X128833380Y-48823428D01*
X128881000Y-48918666D01*
X128928619Y-48966285D01*
X129023857Y-49013904D01*
X129119095Y-49013904D01*
X129261952Y-48966285D01*
X129833380Y-48394857D01*
X129833380Y-49013904D01*
X115609380Y-27487714D02*
X114609380Y-27487714D01*
X114609380Y-27725809D01*
X114657000Y-27868666D01*
X114752238Y-27963904D01*
X114847476Y-28011523D01*
X115037952Y-28059142D01*
X115180809Y-28059142D01*
X115371285Y-28011523D01*
X115466523Y-27963904D01*
X115561761Y-27868666D01*
X115609380Y-27725809D01*
X115609380Y-27487714D01*
X114704619Y-28440095D02*
X114657000Y-28487714D01*
X114609380Y-28582952D01*
X114609380Y-28821047D01*
X114657000Y-28916285D01*
X114704619Y-28963904D01*
X114799857Y-29011523D01*
X114895095Y-29011523D01*
X115037952Y-28963904D01*
X115609380Y-28392476D01*
X115609380Y-29011523D01*
X115609380Y-29963904D02*
X115609380Y-29392476D01*
X115609380Y-29678190D02*
X114609380Y-29678190D01*
X114752238Y-29582952D01*
X114847476Y-29487714D01*
X114895095Y-29392476D01*
X96559380Y-74985714D02*
X95559380Y-74985714D01*
X95559380Y-75223809D01*
X95607000Y-75366666D01*
X95702238Y-75461904D01*
X95797476Y-75509523D01*
X95987952Y-75557142D01*
X96130809Y-75557142D01*
X96321285Y-75509523D01*
X96416523Y-75461904D01*
X96511761Y-75366666D01*
X96559380Y-75223809D01*
X96559380Y-74985714D01*
X95654619Y-75938095D02*
X95607000Y-75985714D01*
X95559380Y-76080952D01*
X95559380Y-76319047D01*
X95607000Y-76414285D01*
X95654619Y-76461904D01*
X95749857Y-76509523D01*
X95845095Y-76509523D01*
X95987952Y-76461904D01*
X96559380Y-75890476D01*
X96559380Y-76509523D01*
X95559380Y-77128571D02*
X95559380Y-77223809D01*
X95607000Y-77319047D01*
X95654619Y-77366666D01*
X95749857Y-77414285D01*
X95940333Y-77461904D01*
X96178428Y-77461904D01*
X96368904Y-77414285D01*
X96464142Y-77366666D01*
X96511761Y-77319047D01*
X96559380Y-77223809D01*
X96559380Y-77128571D01*
X96511761Y-77033333D01*
X96464142Y-76985714D01*
X96368904Y-76938095D01*
X96178428Y-76890476D01*
X95940333Y-76890476D01*
X95749857Y-76938095D01*
X95654619Y-76985714D01*
X95607000Y-77033333D01*
X95559380Y-77128571D01*
X101258380Y-46537714D02*
X100258380Y-46537714D01*
X100258380Y-46775809D01*
X100306000Y-46918666D01*
X100401238Y-47013904D01*
X100496476Y-47061523D01*
X100686952Y-47109142D01*
X100829809Y-47109142D01*
X101020285Y-47061523D01*
X101115523Y-47013904D01*
X101210761Y-46918666D01*
X101258380Y-46775809D01*
X101258380Y-46537714D01*
X101258380Y-48061523D02*
X101258380Y-47490095D01*
X101258380Y-47775809D02*
X100258380Y-47775809D01*
X100401238Y-47680571D01*
X100496476Y-47585333D01*
X100544095Y-47490095D01*
X101258380Y-48537714D02*
X101258380Y-48728190D01*
X101210761Y-48823428D01*
X101163142Y-48871047D01*
X101020285Y-48966285D01*
X100829809Y-49013904D01*
X100448857Y-49013904D01*
X100353619Y-48966285D01*
X100306000Y-48918666D01*
X100258380Y-48823428D01*
X100258380Y-48632952D01*
X100306000Y-48537714D01*
X100353619Y-48490095D01*
X100448857Y-48442476D01*
X100686952Y-48442476D01*
X100782190Y-48490095D01*
X100829809Y-48537714D01*
X100877428Y-48632952D01*
X100877428Y-48823428D01*
X100829809Y-48918666D01*
X100782190Y-48966285D01*
X100686952Y-49013904D01*
X96559380Y-27360714D02*
X95559380Y-27360714D01*
X95559380Y-27598809D01*
X95607000Y-27741666D01*
X95702238Y-27836904D01*
X95797476Y-27884523D01*
X95987952Y-27932142D01*
X96130809Y-27932142D01*
X96321285Y-27884523D01*
X96416523Y-27836904D01*
X96511761Y-27741666D01*
X96559380Y-27598809D01*
X96559380Y-27360714D01*
X96559380Y-28884523D02*
X96559380Y-28313095D01*
X96559380Y-28598809D02*
X95559380Y-28598809D01*
X95702238Y-28503571D01*
X95797476Y-28408333D01*
X95845095Y-28313095D01*
X95987952Y-29455952D02*
X95940333Y-29360714D01*
X95892714Y-29313095D01*
X95797476Y-29265476D01*
X95749857Y-29265476D01*
X95654619Y-29313095D01*
X95607000Y-29360714D01*
X95559380Y-29455952D01*
X95559380Y-29646428D01*
X95607000Y-29741666D01*
X95654619Y-29789285D01*
X95749857Y-29836904D01*
X95797476Y-29836904D01*
X95892714Y-29789285D01*
X95940333Y-29741666D01*
X95987952Y-29646428D01*
X95987952Y-29455952D01*
X96035571Y-29360714D01*
X96083190Y-29313095D01*
X96178428Y-29265476D01*
X96368904Y-29265476D01*
X96464142Y-29313095D01*
X96511761Y-29360714D01*
X96559380Y-29455952D01*
X96559380Y-29646428D01*
X96511761Y-29741666D01*
X96464142Y-29789285D01*
X96368904Y-29836904D01*
X96178428Y-29836904D01*
X96083190Y-29789285D01*
X96035571Y-29741666D01*
X95987952Y-29646428D01*
X77509380Y-74985714D02*
X76509380Y-74985714D01*
X76509380Y-75223809D01*
X76557000Y-75366666D01*
X76652238Y-75461904D01*
X76747476Y-75509523D01*
X76937952Y-75557142D01*
X77080809Y-75557142D01*
X77271285Y-75509523D01*
X77366523Y-75461904D01*
X77461761Y-75366666D01*
X77509380Y-75223809D01*
X77509380Y-74985714D01*
X77509380Y-76509523D02*
X77509380Y-75938095D01*
X77509380Y-76223809D02*
X76509380Y-76223809D01*
X76652238Y-76128571D01*
X76747476Y-76033333D01*
X76795095Y-75938095D01*
X76509380Y-76842857D02*
X76509380Y-77509523D01*
X77509380Y-77080952D01*
X77509380Y-27360714D02*
X76509380Y-27360714D01*
X76509380Y-27598809D01*
X76557000Y-27741666D01*
X76652238Y-27836904D01*
X76747476Y-27884523D01*
X76937952Y-27932142D01*
X77080809Y-27932142D01*
X77271285Y-27884523D01*
X77366523Y-27836904D01*
X77461761Y-27741666D01*
X77509380Y-27598809D01*
X77509380Y-27360714D01*
X77509380Y-28884523D02*
X77509380Y-28313095D01*
X77509380Y-28598809D02*
X76509380Y-28598809D01*
X76652238Y-28503571D01*
X76747476Y-28408333D01*
X76795095Y-28313095D01*
X76509380Y-29741666D02*
X76509380Y-29551190D01*
X76557000Y-29455952D01*
X76604619Y-29408333D01*
X76747476Y-29313095D01*
X76937952Y-29265476D01*
X77318904Y-29265476D01*
X77414142Y-29313095D01*
X77461761Y-29360714D01*
X77509380Y-29455952D01*
X77509380Y-29646428D01*
X77461761Y-29741666D01*
X77414142Y-29789285D01*
X77318904Y-29836904D01*
X77080809Y-29836904D01*
X76985571Y-29789285D01*
X76937952Y-29741666D01*
X76890333Y-29646428D01*
X76890333Y-29455952D01*
X76937952Y-29360714D01*
X76985571Y-29313095D01*
X77080809Y-29265476D01*
X58459380Y-74985714D02*
X57459380Y-74985714D01*
X57459380Y-75223809D01*
X57507000Y-75366666D01*
X57602238Y-75461904D01*
X57697476Y-75509523D01*
X57887952Y-75557142D01*
X58030809Y-75557142D01*
X58221285Y-75509523D01*
X58316523Y-75461904D01*
X58411761Y-75366666D01*
X58459380Y-75223809D01*
X58459380Y-74985714D01*
X58459380Y-76509523D02*
X58459380Y-75938095D01*
X58459380Y-76223809D02*
X57459380Y-76223809D01*
X57602238Y-76128571D01*
X57697476Y-76033333D01*
X57745095Y-75938095D01*
X57459380Y-77414285D02*
X57459380Y-76938095D01*
X57935571Y-76890476D01*
X57887952Y-76938095D01*
X57840333Y-77033333D01*
X57840333Y-77271428D01*
X57887952Y-77366666D01*
X57935571Y-77414285D01*
X58030809Y-77461904D01*
X58268904Y-77461904D01*
X58364142Y-77414285D01*
X58411761Y-77366666D01*
X58459380Y-77271428D01*
X58459380Y-77033333D01*
X58411761Y-76938095D01*
X58364142Y-76890476D01*
X72810380Y-46283714D02*
X71810380Y-46283714D01*
X71810380Y-46521809D01*
X71858000Y-46664666D01*
X71953238Y-46759904D01*
X72048476Y-46807523D01*
X72238952Y-46855142D01*
X72381809Y-46855142D01*
X72572285Y-46807523D01*
X72667523Y-46759904D01*
X72762761Y-46664666D01*
X72810380Y-46521809D01*
X72810380Y-46283714D01*
X72810380Y-47807523D02*
X72810380Y-47236095D01*
X72810380Y-47521809D02*
X71810380Y-47521809D01*
X71953238Y-47426571D01*
X72048476Y-47331333D01*
X72096095Y-47236095D01*
X72143714Y-48664666D02*
X72810380Y-48664666D01*
X71762761Y-48426571D02*
X72477047Y-48188476D01*
X72477047Y-48807523D01*
X58459380Y-27360714D02*
X57459380Y-27360714D01*
X57459380Y-27598809D01*
X57507000Y-27741666D01*
X57602238Y-27836904D01*
X57697476Y-27884523D01*
X57887952Y-27932142D01*
X58030809Y-27932142D01*
X58221285Y-27884523D01*
X58316523Y-27836904D01*
X58411761Y-27741666D01*
X58459380Y-27598809D01*
X58459380Y-27360714D01*
X58459380Y-28884523D02*
X58459380Y-28313095D01*
X58459380Y-28598809D02*
X57459380Y-28598809D01*
X57602238Y-28503571D01*
X57697476Y-28408333D01*
X57745095Y-28313095D01*
X57459380Y-29217857D02*
X57459380Y-29836904D01*
X57840333Y-29503571D01*
X57840333Y-29646428D01*
X57887952Y-29741666D01*
X57935571Y-29789285D01*
X58030809Y-29836904D01*
X58268904Y-29836904D01*
X58364142Y-29789285D01*
X58411761Y-29741666D01*
X58459380Y-29646428D01*
X58459380Y-29360714D01*
X58411761Y-29265476D01*
X58364142Y-29217857D01*
X58459380Y-8310714D02*
X57459380Y-8310714D01*
X57459380Y-8548809D01*
X57507000Y-8691666D01*
X57602238Y-8786904D01*
X57697476Y-8834523D01*
X57887952Y-8882142D01*
X58030809Y-8882142D01*
X58221285Y-8834523D01*
X58316523Y-8786904D01*
X58411761Y-8691666D01*
X58459380Y-8548809D01*
X58459380Y-8310714D01*
X58459380Y-9834523D02*
X58459380Y-9263095D01*
X58459380Y-9548809D02*
X57459380Y-9548809D01*
X57602238Y-9453571D01*
X57697476Y-9358333D01*
X57745095Y-9263095D01*
X57554619Y-10215476D02*
X57507000Y-10263095D01*
X57459380Y-10358333D01*
X57459380Y-10596428D01*
X57507000Y-10691666D01*
X57554619Y-10739285D01*
X57649857Y-10786904D01*
X57745095Y-10786904D01*
X57887952Y-10739285D01*
X58459380Y-10167857D01*
X58459380Y-10786904D01*
X39409380Y-74985714D02*
X38409380Y-74985714D01*
X38409380Y-75223809D01*
X38457000Y-75366666D01*
X38552238Y-75461904D01*
X38647476Y-75509523D01*
X38837952Y-75557142D01*
X38980809Y-75557142D01*
X39171285Y-75509523D01*
X39266523Y-75461904D01*
X39361761Y-75366666D01*
X39409380Y-75223809D01*
X39409380Y-74985714D01*
X39409380Y-76509523D02*
X39409380Y-75938095D01*
X39409380Y-76223809D02*
X38409380Y-76223809D01*
X38552238Y-76128571D01*
X38647476Y-76033333D01*
X38695095Y-75938095D01*
X39409380Y-77461904D02*
X39409380Y-76890476D01*
X39409380Y-77176190D02*
X38409380Y-77176190D01*
X38552238Y-77080952D01*
X38647476Y-76985714D01*
X38695095Y-76890476D01*
X48807380Y-46410714D02*
X47807380Y-46410714D01*
X47807380Y-46648809D01*
X47855000Y-46791666D01*
X47950238Y-46886904D01*
X48045476Y-46934523D01*
X48235952Y-46982142D01*
X48378809Y-46982142D01*
X48569285Y-46934523D01*
X48664523Y-46886904D01*
X48759761Y-46791666D01*
X48807380Y-46648809D01*
X48807380Y-46410714D01*
X48807380Y-47934523D02*
X48807380Y-47363095D01*
X48807380Y-47648809D02*
X47807380Y-47648809D01*
X47950238Y-47553571D01*
X48045476Y-47458333D01*
X48093095Y-47363095D01*
X47807380Y-48553571D02*
X47807380Y-48648809D01*
X47855000Y-48744047D01*
X47902619Y-48791666D01*
X47997857Y-48839285D01*
X48188333Y-48886904D01*
X48426428Y-48886904D01*
X48616904Y-48839285D01*
X48712142Y-48791666D01*
X48759761Y-48744047D01*
X48807380Y-48648809D01*
X48807380Y-48553571D01*
X48759761Y-48458333D01*
X48712142Y-48410714D01*
X48616904Y-48363095D01*
X48426428Y-48315476D01*
X48188333Y-48315476D01*
X47997857Y-48363095D01*
X47902619Y-48410714D01*
X47855000Y-48458333D01*
X47807380Y-48553571D01*
X39409380Y-27836904D02*
X38409380Y-27836904D01*
X38409380Y-28075000D01*
X38457000Y-28217857D01*
X38552238Y-28313095D01*
X38647476Y-28360714D01*
X38837952Y-28408333D01*
X38980809Y-28408333D01*
X39171285Y-28360714D01*
X39266523Y-28313095D01*
X39361761Y-28217857D01*
X39409380Y-28075000D01*
X39409380Y-27836904D01*
X39409380Y-28884523D02*
X39409380Y-29075000D01*
X39361761Y-29170238D01*
X39314142Y-29217857D01*
X39171285Y-29313095D01*
X38980809Y-29360714D01*
X38599857Y-29360714D01*
X38504619Y-29313095D01*
X38457000Y-29265476D01*
X38409380Y-29170238D01*
X38409380Y-28979761D01*
X38457000Y-28884523D01*
X38504619Y-28836904D01*
X38599857Y-28789285D01*
X38837952Y-28789285D01*
X38933190Y-28836904D01*
X38980809Y-28884523D01*
X39028428Y-28979761D01*
X39028428Y-29170238D01*
X38980809Y-29265476D01*
X38933190Y-29313095D01*
X38837952Y-29360714D01*
X39409380Y-8786904D02*
X38409380Y-8786904D01*
X38409380Y-9025000D01*
X38457000Y-9167857D01*
X38552238Y-9263095D01*
X38647476Y-9310714D01*
X38837952Y-9358333D01*
X38980809Y-9358333D01*
X39171285Y-9310714D01*
X39266523Y-9263095D01*
X39361761Y-9167857D01*
X39409380Y-9025000D01*
X39409380Y-8786904D01*
X38837952Y-9929761D02*
X38790333Y-9834523D01*
X38742714Y-9786904D01*
X38647476Y-9739285D01*
X38599857Y-9739285D01*
X38504619Y-9786904D01*
X38457000Y-9834523D01*
X38409380Y-9929761D01*
X38409380Y-10120238D01*
X38457000Y-10215476D01*
X38504619Y-10263095D01*
X38599857Y-10310714D01*
X38647476Y-10310714D01*
X38742714Y-10263095D01*
X38790333Y-10215476D01*
X38837952Y-10120238D01*
X38837952Y-9929761D01*
X38885571Y-9834523D01*
X38933190Y-9786904D01*
X39028428Y-9739285D01*
X39218904Y-9739285D01*
X39314142Y-9786904D01*
X39361761Y-9834523D01*
X39409380Y-9929761D01*
X39409380Y-10120238D01*
X39361761Y-10215476D01*
X39314142Y-10263095D01*
X39218904Y-10310714D01*
X39028428Y-10310714D01*
X38933190Y-10263095D01*
X38885571Y-10215476D01*
X38837952Y-10120238D01*
X20359380Y-75461904D02*
X19359380Y-75461904D01*
X19359380Y-75700000D01*
X19407000Y-75842857D01*
X19502238Y-75938095D01*
X19597476Y-75985714D01*
X19787952Y-76033333D01*
X19930809Y-76033333D01*
X20121285Y-75985714D01*
X20216523Y-75938095D01*
X20311761Y-75842857D01*
X20359380Y-75700000D01*
X20359380Y-75461904D01*
X19359380Y-76366666D02*
X19359380Y-77033333D01*
X20359380Y-76604761D01*
X25058380Y-47013904D02*
X24058380Y-47013904D01*
X24058380Y-47252000D01*
X24106000Y-47394857D01*
X24201238Y-47490095D01*
X24296476Y-47537714D01*
X24486952Y-47585333D01*
X24629809Y-47585333D01*
X24820285Y-47537714D01*
X24915523Y-47490095D01*
X25010761Y-47394857D01*
X25058380Y-47252000D01*
X25058380Y-47013904D01*
X24058380Y-48442476D02*
X24058380Y-48252000D01*
X24106000Y-48156761D01*
X24153619Y-48109142D01*
X24296476Y-48013904D01*
X24486952Y-47966285D01*
X24867904Y-47966285D01*
X24963142Y-48013904D01*
X25010761Y-48061523D01*
X25058380Y-48156761D01*
X25058380Y-48347238D01*
X25010761Y-48442476D01*
X24963142Y-48490095D01*
X24867904Y-48537714D01*
X24629809Y-48537714D01*
X24534571Y-48490095D01*
X24486952Y-48442476D01*
X24439333Y-48347238D01*
X24439333Y-48156761D01*
X24486952Y-48061523D01*
X24534571Y-48013904D01*
X24629809Y-47966285D01*
X20232380Y-27836904D02*
X19232380Y-27836904D01*
X19232380Y-28075000D01*
X19280000Y-28217857D01*
X19375238Y-28313095D01*
X19470476Y-28360714D01*
X19660952Y-28408333D01*
X19803809Y-28408333D01*
X19994285Y-28360714D01*
X20089523Y-28313095D01*
X20184761Y-28217857D01*
X20232380Y-28075000D01*
X20232380Y-27836904D01*
X19232380Y-29313095D02*
X19232380Y-28836904D01*
X19708571Y-28789285D01*
X19660952Y-28836904D01*
X19613333Y-28932142D01*
X19613333Y-29170238D01*
X19660952Y-29265476D01*
X19708571Y-29313095D01*
X19803809Y-29360714D01*
X20041904Y-29360714D01*
X20137142Y-29313095D01*
X20184761Y-29265476D01*
X20232380Y-29170238D01*
X20232380Y-28932142D01*
X20184761Y-28836904D01*
X20137142Y-28789285D01*
X1309380Y-84986904D02*
X309380Y-84986904D01*
X309380Y-85225000D01*
X357000Y-85367857D01*
X452238Y-85463095D01*
X547476Y-85510714D01*
X737952Y-85558333D01*
X880809Y-85558333D01*
X1071285Y-85510714D01*
X1166523Y-85463095D01*
X1261761Y-85367857D01*
X1309380Y-85225000D01*
X1309380Y-84986904D01*
X642714Y-86415476D02*
X1309380Y-86415476D01*
X261761Y-86177380D02*
X976047Y-85939285D01*
X976047Y-86558333D01*
X1309380Y-65936904D02*
X309380Y-65936904D01*
X309380Y-66175000D01*
X357000Y-66317857D01*
X452238Y-66413095D01*
X547476Y-66460714D01*
X737952Y-66508333D01*
X880809Y-66508333D01*
X1071285Y-66460714D01*
X1166523Y-66413095D01*
X1261761Y-66317857D01*
X1309380Y-66175000D01*
X1309380Y-65936904D01*
X309380Y-66841666D02*
X309380Y-67460714D01*
X690333Y-67127380D01*
X690333Y-67270238D01*
X737952Y-67365476D01*
X785571Y-67413095D01*
X880809Y-67460714D01*
X1118904Y-67460714D01*
X1214142Y-67413095D01*
X1261761Y-67365476D01*
X1309380Y-67270238D01*
X1309380Y-66984523D01*
X1261761Y-66889285D01*
X1214142Y-66841666D01*
X1309380Y-46886904D02*
X309380Y-46886904D01*
X309380Y-47125000D01*
X357000Y-47267857D01*
X452238Y-47363095D01*
X547476Y-47410714D01*
X737952Y-47458333D01*
X880809Y-47458333D01*
X1071285Y-47410714D01*
X1166523Y-47363095D01*
X1261761Y-47267857D01*
X1309380Y-47125000D01*
X1309380Y-46886904D01*
X404619Y-47839285D02*
X357000Y-47886904D01*
X309380Y-47982142D01*
X309380Y-48220238D01*
X356999Y-48315476D01*
X404619Y-48363095D01*
X499857Y-48410714D01*
X595095Y-48410714D01*
X737952Y-48363095D01*
X1309380Y-47791666D01*
X1309380Y-48410714D01*
X1309380Y-27836904D02*
X309380Y-27836904D01*
X309380Y-28075000D01*
X357000Y-28217857D01*
X452238Y-28313095D01*
X547476Y-28360714D01*
X737952Y-28408333D01*
X880809Y-28408333D01*
X1071285Y-28360714D01*
X1166523Y-28313095D01*
X1261761Y-28217857D01*
X1309380Y-28075000D01*
X1309380Y-27836904D01*
X1309380Y-29360714D02*
X1309380Y-28789285D01*
X1309380Y-29075000D02*
X309380Y-29075000D01*
X452238Y-28979761D01*
X547476Y-28884523D01*
X595095Y-28789285D01*
%LPC*%
D14*
X97155000Y17145000D03*
X97155000Y14605000D03*
X97155000Y12065000D03*
X97155000Y9525000D03*
X97155000Y6985000D03*
X97155000Y4445000D03*
X97155000Y1905000D03*
X97155000Y-635000D03*
X97155000Y-3175000D03*
X97155000Y-5715000D03*
X97155000Y-8255000D03*
X97155000Y-10795000D03*
X97155000Y-13335000D03*
X97155000Y-15875000D03*
X89535000Y17145000D03*
X86995000Y17145000D03*
X81915000Y-15875000D03*
X81915000Y-13335000D03*
X81915000Y-10795000D03*
X81915000Y-8255000D03*
X81915000Y-5715000D03*
X81915000Y-3175000D03*
X81915000Y-635000D03*
X81915000Y1905000D03*
X81915000Y4445000D03*
X81915000Y6985000D03*
X81915000Y9525000D03*
X81915000Y12065000D03*
X81915000Y14605000D03*
X81915000Y17145000D03*
D15*
X78105000Y5715000D03*
X78105000Y3175000D03*
X75565000Y5715000D03*
X75565000Y3175000D03*
X75565000Y635000D03*
X78105000Y635000D03*
X78105000Y-1905000D03*
X78105000Y-4445000D03*
X75565000Y-4445000D03*
X102847140Y-7645400D03*
X105427780Y-7645400D03*
X107965240Y-7645400D03*
D14*
X108839000Y12065000D03*
X108839000Y9525000D03*
X108839000Y14605000D03*
D16*
X53626000Y5308000D03*
X53626000Y10808000D03*
X55626000Y13208000D03*
D17*
X68443999Y-8762999D03*
X68443999Y-6222999D03*
X68443999Y-3682999D03*
X68443999Y-1142999D03*
X68443999Y1397001D03*
X68443999Y3937001D03*
X68443999Y6477001D03*
D18*
X68443999Y9017001D03*
D19*
X287655000Y14763750D03*
X278005800Y844550D03*
X278005800Y3384550D03*
X278005800Y5924550D03*
X278005800Y8464550D03*
D20*
X278005800Y11004550D03*
D19*
X290195000Y17303750D03*
X290195000Y14763750D03*
X290195000Y12223750D03*
X290195000Y9683750D03*
X290195000Y7143750D03*
X290195000Y4603750D03*
X290195000Y2063750D03*
X290195000Y-476250D03*
X290195000Y-3016250D03*
X290195000Y-5556250D03*
X290195000Y-8096250D03*
X290195000Y-10636250D03*
X290195000Y-13176250D03*
X290195000Y-15716250D03*
D20*
X274955000Y17303750D03*
D19*
X274955000Y14763750D03*
X274955000Y12223750D03*
X274955000Y9683750D03*
X274955000Y7143750D03*
X274955000Y4603750D03*
X274955000Y2063750D03*
X274955000Y-476250D03*
X274955000Y-3016250D03*
X274955000Y-5556250D03*
X274955000Y-8096250D03*
X274955000Y-10636250D03*
X274955000Y-13176250D03*
X290195000Y-18256250D03*
X290195000Y-20796250D03*
X290195000Y-23336250D03*
X290195000Y-25876250D03*
X290195000Y-28416250D03*
X290195000Y-30956250D03*
X290195000Y-33496250D03*
X290195000Y-36036250D03*
X290195000Y-38576250D03*
X290195000Y-41116250D03*
X274955000Y-41116250D03*
X274955000Y-38576250D03*
X274955000Y-36036250D03*
X274955000Y-33496250D03*
X274955000Y-15716250D03*
X274955000Y-18256250D03*
X274955000Y-20796250D03*
X274955000Y-30956250D03*
X274955000Y-28416250D03*
X274955000Y-25876250D03*
X274955000Y-23336250D03*
D21*
X287756600Y4333750D03*
D22*
X287756600Y2333750D03*
X285756600Y4333750D03*
X285756600Y2333750D03*
X283756600Y2333750D03*
X283756600Y4333750D03*
D19*
X277495000Y-28416250D03*
X280035000Y-28416250D03*
X282575000Y-28416250D03*
X285115000Y-28416250D03*
X287655000Y-28416250D03*
D22*
X281305000Y16573750D03*
X283845000Y16573750D03*
D23*
X71375000Y-74930000D03*
D24*
X71375000Y-77470000D03*
D25*
X70875000Y-81420000D03*
D26*
X66675000Y-70700000D03*
X66675000Y-81700000D03*
D27*
X62875000Y-71200000D03*
D28*
X66675000Y-76200000D03*
D27*
X60775000Y-76200000D03*
D29*
X285115000Y-44256250D03*
X282575000Y-44256250D03*
X280035000Y-44256250D03*
D30*
X285000000Y-90026250D03*
X280150000Y-90026250D03*
D31*
X285300000Y-93056250D03*
X279850000Y-93056250D03*
D32*
X292365000Y-44926250D03*
X292365000Y-47466250D03*
X292365000Y-50006250D03*
X292365000Y-52546250D03*
X292365000Y-55086250D03*
X292365000Y-57626250D03*
X292365000Y-60166250D03*
X292365000Y-62706250D03*
X292365000Y-65246250D03*
X292365000Y-67786250D03*
X292365000Y-70326250D03*
X292365000Y-72866250D03*
X292365000Y-75406250D03*
X292365000Y-77946250D03*
X292365000Y-80486250D03*
X292365000Y-83026250D03*
X292365000Y-85566250D03*
X292365000Y-88106250D03*
X292365000Y-90646250D03*
X292365000Y-93186250D03*
X272785000Y-44926250D03*
X272785000Y-47466250D03*
X272785000Y-50006250D03*
X272785000Y-52546250D03*
X272785000Y-55086250D03*
X272785000Y-57626250D03*
X272785000Y-60166250D03*
X272785000Y-62706250D03*
X272785000Y-65246250D03*
X272785000Y-67786250D03*
X272785000Y-70326250D03*
X272785000Y-72866250D03*
X272785000Y-75406250D03*
X272785000Y-77946250D03*
X272785000Y-80486250D03*
X272785000Y-83026250D03*
X272785000Y-85566250D03*
X272785000Y-88106250D03*
X272785000Y-90646250D03*
X272785000Y-93186250D03*
D23*
X253682500Y-52325000D03*
D24*
X251142500Y-52325000D03*
D25*
X247192500Y-51825000D03*
D26*
X257912500Y-47625000D03*
X246912500Y-47625000D03*
D27*
X257412500Y-43825000D03*
D28*
X252412500Y-47625000D03*
D27*
X252412500Y-41725000D03*
D23*
X239395000Y-33275000D03*
D24*
X236855000Y-33275000D03*
D25*
X232905000Y-32775000D03*
D26*
X243625000Y-28575000D03*
X232625000Y-28575000D03*
D27*
X243125000Y-24775000D03*
D28*
X238125000Y-28575000D03*
D27*
X238125000Y-22675000D03*
D23*
X225107500Y-52325000D03*
D24*
X222567500Y-52325000D03*
D25*
X218617500Y-51825000D03*
D26*
X229337500Y-47625000D03*
X218337500Y-47625000D03*
D27*
X228837500Y-43825000D03*
D28*
X223837500Y-47625000D03*
D27*
X223837500Y-41725000D03*
D23*
X196532500Y-52325000D03*
D24*
X193992500Y-52325000D03*
D25*
X190042500Y-51825000D03*
D26*
X200762500Y-47625000D03*
X189762500Y-47625000D03*
D27*
X200262500Y-43825000D03*
D28*
X195262500Y-47625000D03*
D27*
X195262500Y-41725000D03*
D23*
X201295000Y-33275000D03*
D24*
X198755000Y-33275000D03*
D25*
X194805000Y-32775000D03*
D26*
X205525000Y-28575000D03*
X194525000Y-28575000D03*
D27*
X205025000Y-24775000D03*
D28*
X200025000Y-28575000D03*
D27*
X200025000Y-22675000D03*
D23*
X148907500Y-52325000D03*
D24*
X146367500Y-52325000D03*
D25*
X142417500Y-51825000D03*
D26*
X153137500Y-47625000D03*
X142137500Y-47625000D03*
D27*
X152637500Y-43825000D03*
D28*
X147637500Y-47625000D03*
D27*
X147637500Y-41725000D03*
D23*
X120332500Y-52325000D03*
D24*
X117792500Y-52325000D03*
D25*
X113842500Y-51825000D03*
D26*
X124562500Y-47625000D03*
X113562500Y-47625000D03*
D27*
X124062500Y-43825000D03*
D28*
X119062500Y-47625000D03*
D27*
X119062500Y-41725000D03*
D23*
X63182500Y-52325000D03*
D24*
X60642500Y-52325000D03*
D25*
X56692500Y-51825000D03*
D26*
X67412500Y-47625000D03*
X56412500Y-47625000D03*
D27*
X66912500Y-43825000D03*
D28*
X61912500Y-47625000D03*
D27*
X61912500Y-41725000D03*
D23*
X67945000Y-33275000D03*
D24*
X65405000Y-33275000D03*
D25*
X61455000Y-32775000D03*
D26*
X72175000Y-28575000D03*
X61175000Y-28575000D03*
D27*
X71675000Y-24775000D03*
D28*
X66675000Y-28575000D03*
D27*
X66675000Y-22675000D03*
D23*
X91757500Y-52325000D03*
D24*
X89217500Y-52325000D03*
D25*
X85267500Y-51825000D03*
D26*
X95987500Y-47625000D03*
X84987500Y-47625000D03*
D27*
X95487500Y-43825000D03*
D28*
X90487500Y-47625000D03*
D27*
X90487500Y-41725000D03*
D23*
X15557500Y-52325000D03*
D24*
X13017500Y-52325000D03*
D25*
X9067500Y-51825000D03*
D26*
X19787500Y-47625000D03*
X8787500Y-47625000D03*
D27*
X19287500Y-43825000D03*
D28*
X14287500Y-47625000D03*
D27*
X14287500Y-41725000D03*
D33*
X240151920Y2499360D03*
D27*
X240151920Y-640D03*
X240151920Y-2500640D03*
D34*
X247651920Y5599360D03*
X247651920Y-5600640D03*
D27*
X254651920Y2499360D03*
X254651920Y-2500640D03*
D33*
X202051920Y2499360D03*
D27*
X202051920Y-640D03*
X202051920Y-2500640D03*
D34*
X209551920Y5599360D03*
X209551920Y-5600640D03*
D27*
X216551920Y2499360D03*
X216551920Y-2500640D03*
D33*
X163951920Y2499360D03*
D27*
X163951920Y-640D03*
X163951920Y-2500640D03*
D34*
X171451920Y5599360D03*
X171451920Y-5600640D03*
D27*
X178451920Y2499360D03*
X178451920Y-2500640D03*
D33*
X125851920Y2499360D03*
D27*
X125851920Y-640D03*
X125851920Y-2500640D03*
D34*
X133351920Y5599360D03*
X133351920Y-5600640D03*
D27*
X140351920Y2499360D03*
X140351920Y-2500640D03*
D33*
X21076920Y12024360D03*
D27*
X21076920Y9524360D03*
X21076920Y7024360D03*
D34*
X28576920Y15124360D03*
X28576920Y3924360D03*
D27*
X35576920Y12024360D03*
X35576920Y7024360D03*
D35*
X-10058400Y7373620D03*
X8983980Y8890000D03*
D23*
X261875000Y-74930000D03*
D24*
X261875000Y-77470000D03*
D25*
X261375000Y-81420000D03*
D26*
X257175000Y-70700000D03*
X257175000Y-81700000D03*
D27*
X253375000Y-71200000D03*
D28*
X257175000Y-76200000D03*
D27*
X251275000Y-76200000D03*
D23*
X258445000Y-33275000D03*
D24*
X255905000Y-33275000D03*
D25*
X251955000Y-32775000D03*
D26*
X262675000Y-28575000D03*
X251675000Y-28575000D03*
D27*
X262175000Y-24775000D03*
D28*
X257175000Y-28575000D03*
D27*
X257175000Y-22675000D03*
D23*
X242825000Y-74930000D03*
D24*
X242825000Y-77470000D03*
D25*
X242325000Y-81420000D03*
D26*
X238125000Y-70700000D03*
X238125000Y-81700000D03*
D27*
X234325000Y-71200000D03*
D28*
X238125000Y-76200000D03*
D27*
X232225000Y-76200000D03*
D23*
X223775000Y-74930000D03*
D24*
X223775000Y-77470000D03*
D25*
X223275000Y-81420000D03*
D26*
X219075000Y-70700000D03*
X219075000Y-81700000D03*
D27*
X215275000Y-71200000D03*
D28*
X219075000Y-76200000D03*
D27*
X213175000Y-76200000D03*
D23*
X220345000Y-33275000D03*
D24*
X217805000Y-33275000D03*
D25*
X213855000Y-32775000D03*
D26*
X224575000Y-28575000D03*
X213575000Y-28575000D03*
D27*
X224075000Y-24775000D03*
D28*
X219075000Y-28575000D03*
D27*
X219075000Y-22675000D03*
D23*
X204725000Y-74930000D03*
D24*
X204725000Y-77470000D03*
D25*
X204225000Y-81420000D03*
D26*
X200025000Y-70700000D03*
X200025000Y-81700000D03*
D27*
X196225000Y-71200000D03*
D28*
X200025000Y-76200000D03*
D27*
X194125000Y-76200000D03*
D23*
X185675000Y-74930000D03*
D24*
X185675000Y-77470000D03*
D25*
X185175000Y-81420000D03*
D26*
X180975000Y-70700000D03*
X180975000Y-81700000D03*
D27*
X177175000Y-71200000D03*
D28*
X180975000Y-76200000D03*
D27*
X175075000Y-76200000D03*
D23*
X182245000Y-33275000D03*
D24*
X179705000Y-33275000D03*
D25*
X175755000Y-32775000D03*
D26*
X186475000Y-28575000D03*
X175475000Y-28575000D03*
D27*
X185975000Y-24775000D03*
D28*
X180975000Y-28575000D03*
D27*
X180975000Y-22675000D03*
D23*
X166625000Y-74930000D03*
D24*
X166625000Y-77470000D03*
D25*
X166125000Y-81420000D03*
D26*
X161925000Y-70700000D03*
X161925000Y-81700000D03*
D27*
X158125000Y-71200000D03*
D28*
X161925000Y-76200000D03*
D27*
X156025000Y-76200000D03*
D23*
X172720000Y-52325000D03*
D24*
X170180000Y-52325000D03*
D25*
X166230000Y-51825000D03*
D26*
X176950000Y-47625000D03*
X165950000Y-47625000D03*
D27*
X176450000Y-43825000D03*
D28*
X171450000Y-47625000D03*
D27*
X171450000Y-41725000D03*
D23*
X163195000Y-33275000D03*
D24*
X160655000Y-33275000D03*
D25*
X156705000Y-32775000D03*
D26*
X167425000Y-28575000D03*
X156425000Y-28575000D03*
D27*
X166925000Y-24775000D03*
D28*
X161925000Y-28575000D03*
D27*
X161925000Y-22675000D03*
D23*
X147575000Y-74930000D03*
D24*
X147575000Y-77470000D03*
D25*
X147075000Y-81420000D03*
D26*
X142875000Y-70700000D03*
X142875000Y-81700000D03*
D27*
X139075000Y-71200000D03*
D28*
X142875000Y-76200000D03*
D27*
X136975000Y-76200000D03*
D23*
X144145000Y-33275000D03*
D24*
X141605000Y-33275000D03*
D25*
X137655000Y-32775000D03*
D26*
X148375000Y-28575000D03*
X137375000Y-28575000D03*
D27*
X147875000Y-24775000D03*
D28*
X142875000Y-28575000D03*
D27*
X142875000Y-22675000D03*
D23*
X128525000Y-74930000D03*
D24*
X128525000Y-77470000D03*
D25*
X128025000Y-81420000D03*
D26*
X123825000Y-70700000D03*
X123825000Y-81700000D03*
D27*
X120025000Y-71200000D03*
D28*
X123825000Y-76200000D03*
D27*
X117925000Y-76200000D03*
D23*
X125095000Y-33275000D03*
D24*
X122555000Y-33275000D03*
D25*
X118605000Y-32775000D03*
D26*
X129325000Y-28575000D03*
X118325000Y-28575000D03*
D27*
X128825000Y-24775000D03*
D28*
X123825000Y-28575000D03*
D27*
X123825000Y-22675000D03*
D23*
X109475000Y-74930000D03*
D24*
X109475000Y-77470000D03*
D25*
X108975000Y-81420000D03*
D26*
X104775000Y-70700000D03*
X104775000Y-81700000D03*
D27*
X100975000Y-71200000D03*
D28*
X104775000Y-76200000D03*
D27*
X98875000Y-76200000D03*
D23*
X106045000Y-33275000D03*
D24*
X103505000Y-33275000D03*
D25*
X99555000Y-32775000D03*
D26*
X110275000Y-28575000D03*
X99275000Y-28575000D03*
D27*
X109775000Y-24775000D03*
D28*
X104775000Y-28575000D03*
D27*
X104775000Y-22675000D03*
D23*
X90425000Y-74930000D03*
D24*
X90425000Y-77470000D03*
D25*
X89925000Y-81420000D03*
D26*
X85725000Y-70700000D03*
X85725000Y-81700000D03*
D27*
X81925000Y-71200000D03*
D28*
X85725000Y-76200000D03*
D27*
X79825000Y-76200000D03*
D23*
X86995000Y-33275000D03*
D24*
X84455000Y-33275000D03*
D25*
X80505000Y-32775000D03*
D26*
X91225000Y-28575000D03*
X80225000Y-28575000D03*
D27*
X90725000Y-24775000D03*
D28*
X85725000Y-28575000D03*
D27*
X85725000Y-22675000D03*
D23*
X52325000Y-74930000D03*
D24*
X52325000Y-77470000D03*
D25*
X51825000Y-81420000D03*
D26*
X47625000Y-70700000D03*
X47625000Y-81700000D03*
D27*
X43825000Y-71200000D03*
D28*
X47625000Y-76200000D03*
D27*
X41725000Y-76200000D03*
D23*
X48895000Y-33275000D03*
D24*
X46355000Y-33275000D03*
D25*
X42405000Y-32775000D03*
D26*
X53125000Y-28575000D03*
X42125000Y-28575000D03*
D27*
X52625000Y-24775000D03*
D28*
X47625000Y-28575000D03*
D27*
X47625000Y-22675000D03*
D23*
X48895000Y-14225000D03*
D24*
X46355000Y-14225000D03*
D25*
X42405000Y-13725000D03*
D26*
X53125000Y-9525000D03*
X42125000Y-9525000D03*
D27*
X52625000Y-5725000D03*
D28*
X47625000Y-9525000D03*
D27*
X47625000Y-3625000D03*
D23*
X33275000Y-74930000D03*
D24*
X33275000Y-77470000D03*
D25*
X32775000Y-81420000D03*
D26*
X28575000Y-70700000D03*
X28575000Y-81700000D03*
D27*
X24775000Y-71200000D03*
D28*
X28575000Y-76200000D03*
D27*
X22675000Y-76200000D03*
D23*
X39370000Y-52325000D03*
D24*
X36830000Y-52325000D03*
D25*
X32880000Y-51825000D03*
D26*
X43600000Y-47625000D03*
X32600000Y-47625000D03*
D27*
X43100000Y-43825000D03*
D28*
X38100000Y-47625000D03*
D27*
X38100000Y-41725000D03*
D23*
X29845000Y-33275000D03*
D24*
X27305000Y-33275000D03*
D25*
X23355000Y-32775000D03*
D26*
X34075000Y-28575000D03*
X23075000Y-28575000D03*
D27*
X33575000Y-24775000D03*
D28*
X28575000Y-28575000D03*
D27*
X28575000Y-22675000D03*
D23*
X29845000Y-14225000D03*
D24*
X27305000Y-14225000D03*
D25*
X23355000Y-13725000D03*
D26*
X34075000Y-9525000D03*
X23075000Y-9525000D03*
D27*
X33575000Y-5725000D03*
D28*
X28575000Y-9525000D03*
D27*
X28575000Y-3625000D03*
D23*
X14225000Y-74930000D03*
D24*
X14225000Y-77470000D03*
D25*
X13725000Y-81420000D03*
D26*
X9525000Y-70700000D03*
X9525000Y-81700000D03*
D27*
X5725000Y-71200000D03*
D28*
X9525000Y-76200000D03*
D27*
X3625000Y-76200000D03*
X9525000Y-22675000D03*
D28*
X9525000Y-28575000D03*
D27*
X14525000Y-24775000D03*
D26*
X4025000Y-28575000D03*
X15025000Y-28575000D03*
D25*
X4305000Y-32775000D03*
D24*
X8255000Y-33275000D03*
D23*
X10795000Y-33275000D03*
X-8255000Y-90425000D03*
D24*
X-10795000Y-90425000D03*
D25*
X-14745000Y-89925000D03*
D26*
X-4025000Y-85725000D03*
X-15025000Y-85725000D03*
D27*
X-4525000Y-81925000D03*
D28*
X-9525000Y-85725000D03*
D27*
X-9525000Y-79825000D03*
D23*
X-8255000Y-71375000D03*
D24*
X-10795000Y-71375000D03*
D25*
X-14745000Y-70875000D03*
D26*
X-4025000Y-66675000D03*
X-15025000Y-66675000D03*
D27*
X-4525000Y-62875000D03*
D28*
X-9525000Y-66675000D03*
D27*
X-9525000Y-60775000D03*
D23*
X-8255000Y-52325000D03*
D24*
X-10795000Y-52325000D03*
D25*
X-14745000Y-51825000D03*
D26*
X-4025000Y-47625000D03*
X-15025000Y-47625000D03*
D27*
X-4525000Y-43825000D03*
D28*
X-9525000Y-47625000D03*
D27*
X-9525000Y-41725000D03*
D23*
X-8255000Y-33275000D03*
D24*
X-10795000Y-33275000D03*
D25*
X-14745000Y-32775000D03*
D26*
X-4025000Y-28575000D03*
X-15025000Y-28575000D03*
D27*
X-4525000Y-24775000D03*
D28*
X-9525000Y-28575000D03*
D27*
X-9525000Y-22675000D03*
D36*
X265557000Y-74550000D03*
X265557000Y-77850000D03*
X260985000Y-46102000D03*
X260985000Y-49402000D03*
X265557000Y-26925000D03*
X265557000Y-30225000D03*
X246507000Y-74550000D03*
X246507000Y-77850000D03*
X246507000Y-26925000D03*
X246507000Y-30225000D03*
X227457000Y-74550000D03*
X227457000Y-77850000D03*
X227457000Y-27052000D03*
X227457000Y-30352000D03*
X208407000Y-74677000D03*
X208407000Y-77977000D03*
X203708000Y-45975000D03*
X203708000Y-49275000D03*
X208407000Y-26925000D03*
X208407000Y-30225000D03*
X189357000Y-74550000D03*
X189357000Y-77850000D03*
X232283000Y-46102000D03*
X232283000Y-49402000D03*
X189357000Y-27052000D03*
X189357000Y-30352000D03*
X170307000Y-74550000D03*
X170307000Y-77850000D03*
X179832000Y-46102000D03*
X179832000Y-49402000D03*
X170307000Y-27052000D03*
X170307000Y-30352000D03*
X151257000Y-74550000D03*
X151257000Y-77850000D03*
X151257000Y-26925000D03*
X151257000Y-30225000D03*
X132207000Y-74550000D03*
X132207000Y-77850000D03*
X156083000Y-45975000D03*
X156083000Y-49275000D03*
X132207000Y-27052000D03*
X132207000Y-30352000D03*
X113157000Y-74550000D03*
X113157000Y-77850000D03*
X127381000Y-46102000D03*
X127381000Y-49402000D03*
X113157000Y-27052000D03*
X113157000Y-30352000D03*
X94107000Y-74550000D03*
X94107000Y-77850000D03*
X98806000Y-46102000D03*
X98806000Y-49402000D03*
X94107000Y-26925000D03*
X94107000Y-30225000D03*
X75057000Y-74550000D03*
X75057000Y-77850000D03*
X75057000Y-26925000D03*
X75057000Y-30225000D03*
X56007000Y-74550000D03*
X56007000Y-77850000D03*
X70358000Y-45848000D03*
X70358000Y-49148000D03*
X56007000Y-26925000D03*
X56007000Y-30225000D03*
X56007000Y-7875000D03*
X56007000Y-11175000D03*
X36957000Y-74550000D03*
X36957000Y-77850000D03*
X46355000Y-45975000D03*
X46355000Y-49275000D03*
X36957000Y-26925000D03*
X36957000Y-30225000D03*
X36957000Y-7875000D03*
X36957000Y-11175000D03*
X17907000Y-74550000D03*
X17907000Y-77850000D03*
X22606000Y-46102000D03*
X22606000Y-49402000D03*
X17780000Y-26925000D03*
X17780000Y-30225000D03*
X-1143000Y-84075000D03*
X-1143000Y-87375000D03*
X-1143000Y-65025000D03*
X-1143000Y-68325000D03*
X-1143000Y-45975000D03*
X-1143000Y-49275000D03*
X-1143000Y-26925000D03*
X-1143000Y-30225000D03*
M02*
