G04 #@! TF.GenerationSoftware,KiCad,Pcbnew,(5.1.4)-1*
G04 #@! TF.CreationDate,2022-01-07T23:34:50-05:00*
G04 #@! TF.ProjectId,the_TOP-1,7468655f-544f-4502-9d31-2e6b69636164,rev?*
G04 #@! TF.SameCoordinates,Original*
G04 #@! TF.FileFunction,Legend,Top*
G04 #@! TF.FilePolarity,Positive*
%FSLAX46Y46*%
G04 Gerber Fmt 4.6, Leading zero omitted, Abs format (unit mm)*
G04 Created by KiCad (PCBNEW (5.1.4)-1) date 2022-01-07 23:34:50*
%MOMM*%
%LPD*%
G04 APERTURE LIST*
%ADD10C,0.200000*%
%ADD11C,0.300000*%
%ADD12C,0.120000*%
%ADD13C,0.150000*%
%ADD14C,0.100000*%
%ADD15C,0.203200*%
%ADD16C,0.127000*%
%ADD17O,1.626000X1.626000*%
%ADD18C,1.626000*%
%ADD19O,2.902000X1.902000*%
%ADD20O,1.802000X1.802000*%
%ADD21R,1.802000X1.802000*%
%ADD22C,1.702000*%
%ADD23R,1.702000X1.702000*%
%ADD24R,1.402000X1.402000*%
%ADD25C,1.402000*%
%ADD26C,1.302000*%
%ADD27C,2.002000*%
%ADD28C,3.502000*%
%ADD29O,1.602000X1.602000*%
%ADD30O,1.902000X1.902000*%
%ADD31R,2.102000X2.102000*%
%ADD32C,2.102000*%
%ADD33R,3.302000X2.102000*%
%ADD34C,2.202180*%
%ADD35R,4.701540X1.701800*%
G04 APERTURE END LIST*
D10*
X99195384Y-13470384D02*
X99195384Y13470385D01*
X72254615Y13470385D02*
X99195384Y13470385D01*
X114300000Y-19050000D02*
X114300000Y19050000D01*
D11*
X300438428Y-59274142D02*
X301938428Y-59274142D01*
X301224142Y-59274142D02*
X301224142Y-60131285D01*
X300438428Y-60131285D02*
X301938428Y-60131285D01*
X301938428Y-60702714D02*
X300438428Y-61059857D01*
X301509857Y-61345571D01*
X300438428Y-61631285D01*
X301938428Y-61988428D01*
X300438428Y-64559857D02*
X301152714Y-64059857D01*
X300438428Y-63702714D02*
X301938428Y-63702714D01*
X301938428Y-64274142D01*
X301867000Y-64417000D01*
X301795571Y-64488428D01*
X301652714Y-64559857D01*
X301438428Y-64559857D01*
X301295571Y-64488428D01*
X301224142Y-64417000D01*
X301152714Y-64274142D01*
X301152714Y-63702714D01*
X300509857Y-65774142D02*
X300438428Y-65631285D01*
X300438428Y-65345571D01*
X300509857Y-65202714D01*
X300652714Y-65131285D01*
X301224142Y-65131285D01*
X301367000Y-65202714D01*
X301438428Y-65345571D01*
X301438428Y-65631285D01*
X301367000Y-65774142D01*
X301224142Y-65845571D01*
X301081285Y-65845571D01*
X300938428Y-65131285D01*
X301438428Y-66345571D02*
X300438428Y-66702714D01*
X301438428Y-67059857D01*
X300438428Y-69559857D02*
X300438428Y-68702714D01*
X300438428Y-69131285D02*
X301938428Y-69131285D01*
X301724142Y-68988428D01*
X301581285Y-68845571D01*
X301509857Y-68702714D01*
X300581285Y-70202714D02*
X300509857Y-70274142D01*
X300438428Y-70202714D01*
X300509857Y-70131285D01*
X300581285Y-70202714D01*
X300438428Y-70202714D01*
X301938428Y-71202714D02*
X301938428Y-71345571D01*
X301867000Y-71488428D01*
X301795571Y-71559857D01*
X301652714Y-71631285D01*
X301367000Y-71702714D01*
X301009857Y-71702714D01*
X300724142Y-71631285D01*
X300581285Y-71559857D01*
X300509857Y-71488428D01*
X300438428Y-71345571D01*
X300438428Y-71202714D01*
X300509857Y-71059857D01*
X300581285Y-70988428D01*
X300724142Y-70917000D01*
X301009857Y-70845571D01*
X301367000Y-70845571D01*
X301652714Y-70917000D01*
X301795571Y-70988428D01*
X301867000Y-71059857D01*
X301938428Y-71202714D01*
X301938428Y-72631285D02*
X301938428Y-72774142D01*
X301867000Y-72917000D01*
X301795571Y-72988428D01*
X301652714Y-73059857D01*
X301367000Y-73131285D01*
X301009857Y-73131285D01*
X300724142Y-73059857D01*
X300581285Y-72988428D01*
X300509857Y-72917000D01*
X300438428Y-72774142D01*
X300438428Y-72631285D01*
X300509857Y-72488428D01*
X300581285Y-72417000D01*
X300724142Y-72345571D01*
X301009857Y-72274142D01*
X301367000Y-72274142D01*
X301652714Y-72345571D01*
X301795571Y-72417000D01*
X301867000Y-72488428D01*
X301938428Y-72631285D01*
D10*
X114300000Y19050000D02*
X57150000Y19050000D01*
X57150000Y-19050000D02*
X114300000Y-19050000D01*
X72254615Y-13470384D02*
X72254615Y13470385D01*
X72254615Y-13470384D02*
X99195384Y-13470384D01*
X57150000Y19050000D02*
X57150000Y-19050000D01*
D12*
X68443999Y10347001D02*
X69773999Y10347001D01*
X69773999Y10347001D02*
X69773999Y9017001D01*
X69773999Y7747001D02*
X69773999Y-10092999D01*
X67113999Y-10092999D02*
X69773999Y-10092999D01*
X67113999Y7747001D02*
X67113999Y-10092999D01*
X67113999Y7747001D02*
X69773999Y7747001D01*
D13*
X283473026Y-23971250D02*
G75*
G03X283473026Y-23971250I-898026J0D01*
G01*
X288925000Y-4286250D02*
X276225000Y-4286250D01*
X288925000Y-16986250D02*
X288925000Y-4286250D01*
X276225000Y-16986250D02*
X288925000Y-16986250D01*
X276225000Y-4286250D02*
X276225000Y-16986250D01*
X288926600Y5343750D02*
X288676600Y5343750D01*
X288926600Y1343750D02*
X288926600Y5343750D01*
X282676600Y1343750D02*
X288926600Y1343750D01*
X282676600Y5343750D02*
X282676600Y1343750D01*
X288676600Y5343750D02*
X282676600Y5343750D01*
X279275800Y9734550D02*
X276735800Y9734550D01*
X279275800Y12274550D02*
X279275800Y9734550D01*
X276735800Y12274550D02*
X279275800Y12274550D01*
X276735800Y-425450D02*
X276735800Y12274550D01*
X279275800Y-425450D02*
X276735800Y-425450D01*
X279275800Y12274550D02*
X279275800Y-425450D01*
X283845000Y-22066250D02*
X283845000Y-25876250D01*
X281305000Y-22066250D02*
X283845000Y-22066250D01*
X281305000Y-25876250D02*
X281305000Y-22066250D01*
X283845000Y-25876250D02*
X281305000Y-25876250D01*
X277495000Y-41116250D02*
X277495000Y-42386250D01*
X287655000Y-41116250D02*
X277495000Y-41116250D01*
X287655000Y-42386250D02*
X287655000Y-41116250D01*
X276225000Y-29686250D02*
X276225000Y-42386250D01*
X288925000Y-29686250D02*
X276225000Y-29686250D01*
X288925000Y-42386250D02*
X288925000Y-29686250D01*
X278765000Y13493750D02*
X286385000Y13493750D01*
X286385000Y13493750D02*
X286385000Y18573750D01*
X278765000Y13493750D02*
X278765000Y18573750D01*
X291465000Y18573750D02*
X291465000Y-42386250D01*
X291465000Y-42386250D02*
X273685000Y-42386250D01*
X273685000Y-42386250D02*
X273685000Y18573750D01*
X273685000Y18573750D02*
X291465000Y18573750D01*
D14*
G36*
X282120000Y-14341250D02*
G01*
X281866000Y-14087250D01*
X282247000Y-13833250D01*
X282501000Y-14087250D01*
X282120000Y-14341250D01*
G37*
X282120000Y-14341250D02*
X281866000Y-14087250D01*
X282247000Y-13833250D01*
X282501000Y-14087250D01*
X282120000Y-14341250D01*
G36*
X282628000Y-13960250D02*
G01*
X282374000Y-13706250D01*
X282755000Y-13452250D01*
X283009000Y-13706250D01*
X282628000Y-13960250D01*
G37*
X282628000Y-13960250D02*
X282374000Y-13706250D01*
X282755000Y-13452250D01*
X283009000Y-13706250D01*
X282628000Y-13960250D01*
G36*
X283136000Y-13579250D02*
G01*
X282882000Y-13325250D01*
X283263000Y-13071250D01*
X283517000Y-13325250D01*
X283136000Y-13579250D01*
G37*
X283136000Y-13579250D02*
X282882000Y-13325250D01*
X283263000Y-13071250D01*
X283517000Y-13325250D01*
X283136000Y-13579250D01*
G36*
X282247000Y-13579250D02*
G01*
X281993000Y-13325250D01*
X282374000Y-13071250D01*
X282628000Y-13325250D01*
X282247000Y-13579250D01*
G37*
X282247000Y-13579250D02*
X281993000Y-13325250D01*
X282374000Y-13071250D01*
X282628000Y-13325250D01*
X282247000Y-13579250D01*
G36*
X282755000Y-13198250D02*
G01*
X282501000Y-12944250D01*
X282882000Y-12690250D01*
X283136000Y-12944250D01*
X282755000Y-13198250D01*
G37*
X282755000Y-13198250D02*
X282501000Y-12944250D01*
X282882000Y-12690250D01*
X283136000Y-12944250D01*
X282755000Y-13198250D01*
G36*
X283263000Y-12817250D02*
G01*
X283009000Y-12563250D01*
X283390000Y-12309250D01*
X283644000Y-12563250D01*
X283263000Y-12817250D01*
G37*
X283263000Y-12817250D02*
X283009000Y-12563250D01*
X283390000Y-12309250D01*
X283644000Y-12563250D01*
X283263000Y-12817250D01*
G36*
X282501000Y-14722250D02*
G01*
X282247000Y-14468250D01*
X282628000Y-14214250D01*
X282882000Y-14468250D01*
X282501000Y-14722250D01*
G37*
X282501000Y-14722250D02*
X282247000Y-14468250D01*
X282628000Y-14214250D01*
X282882000Y-14468250D01*
X282501000Y-14722250D01*
G36*
X282882000Y-15103250D02*
G01*
X282628000Y-14849250D01*
X283009000Y-14595250D01*
X283263000Y-14849250D01*
X282882000Y-15103250D01*
G37*
X282882000Y-15103250D02*
X282628000Y-14849250D01*
X283009000Y-14595250D01*
X283263000Y-14849250D01*
X282882000Y-15103250D01*
D12*
X250651920Y-640D02*
G75*
G03X250651920Y-640I-3000000J0D01*
G01*
X249651920Y5899360D02*
X253751920Y5899360D01*
X253751920Y-5900640D02*
X249651920Y-5900640D01*
X245651920Y-5900640D02*
X241551920Y-5900640D01*
X245651920Y5899360D02*
X241551920Y5899360D01*
X241551920Y5899360D02*
X241551920Y-5900640D01*
X240151920Y3799360D02*
X239851920Y4099360D01*
X239851920Y4099360D02*
X240451920Y4099360D01*
X240451920Y4099360D02*
X240151920Y3799360D01*
X253751920Y5899360D02*
X253751920Y3499360D01*
X253751920Y1299360D02*
X253751920Y-1300640D01*
X253751920Y-3500640D02*
X253751920Y-5900640D01*
X247651920Y499360D02*
X247651920Y-500640D01*
X247151920Y-640D02*
X248151920Y-640D01*
X212551920Y-640D02*
G75*
G03X212551920Y-640I-3000000J0D01*
G01*
X211551920Y5899360D02*
X215651920Y5899360D01*
X215651920Y-5900640D02*
X211551920Y-5900640D01*
X207551920Y-5900640D02*
X203451920Y-5900640D01*
X207551920Y5899360D02*
X203451920Y5899360D01*
X203451920Y5899360D02*
X203451920Y-5900640D01*
X202051920Y3799360D02*
X201751920Y4099360D01*
X201751920Y4099360D02*
X202351920Y4099360D01*
X202351920Y4099360D02*
X202051920Y3799360D01*
X215651920Y5899360D02*
X215651920Y3499360D01*
X215651920Y1299360D02*
X215651920Y-1300640D01*
X215651920Y-3500640D02*
X215651920Y-5900640D01*
X209551920Y499360D02*
X209551920Y-500640D01*
X209051920Y-640D02*
X210051920Y-640D01*
X174451920Y-640D02*
G75*
G03X174451920Y-640I-3000000J0D01*
G01*
X173451920Y5899360D02*
X177551920Y5899360D01*
X177551920Y-5900640D02*
X173451920Y-5900640D01*
X169451920Y-5900640D02*
X165351920Y-5900640D01*
X169451920Y5899360D02*
X165351920Y5899360D01*
X165351920Y5899360D02*
X165351920Y-5900640D01*
X163951920Y3799360D02*
X163651920Y4099360D01*
X163651920Y4099360D02*
X164251920Y4099360D01*
X164251920Y4099360D02*
X163951920Y3799360D01*
X177551920Y5899360D02*
X177551920Y3499360D01*
X177551920Y1299360D02*
X177551920Y-1300640D01*
X177551920Y-3500640D02*
X177551920Y-5900640D01*
X171451920Y499360D02*
X171451920Y-500640D01*
X170951920Y-640D02*
X171951920Y-640D01*
X136351920Y-640D02*
G75*
G03X136351920Y-640I-3000000J0D01*
G01*
X135351920Y5899360D02*
X139451920Y5899360D01*
X139451920Y-5900640D02*
X135351920Y-5900640D01*
X131351920Y-5900640D02*
X127251920Y-5900640D01*
X131351920Y5899360D02*
X127251920Y5899360D01*
X127251920Y5899360D02*
X127251920Y-5900640D01*
X125851920Y3799360D02*
X125551920Y4099360D01*
X125551920Y4099360D02*
X126151920Y4099360D01*
X126151920Y4099360D02*
X125851920Y3799360D01*
X139451920Y5899360D02*
X139451920Y3499360D01*
X139451920Y1299360D02*
X139451920Y-1300640D01*
X139451920Y-3500640D02*
X139451920Y-5900640D01*
X133351920Y499360D02*
X133351920Y-500640D01*
X132851920Y-640D02*
X133851920Y-640D01*
X31576920Y9524360D02*
G75*
G03X31576920Y9524360I-3000000J0D01*
G01*
X30576920Y15424360D02*
X34676920Y15424360D01*
X34676920Y3624360D02*
X30576920Y3624360D01*
X26576920Y3624360D02*
X22476920Y3624360D01*
X26576920Y15424360D02*
X22476920Y15424360D01*
X22476920Y15424360D02*
X22476920Y3624360D01*
X21076920Y13324360D02*
X20776920Y13624360D01*
X20776920Y13624360D02*
X21376920Y13624360D01*
X21376920Y13624360D02*
X21076920Y13324360D01*
X34676920Y15424360D02*
X34676920Y13024360D01*
X34676920Y10824360D02*
X34676920Y8224360D01*
X34676920Y6024360D02*
X34676920Y3624360D01*
X28576920Y10024360D02*
X28576920Y9024360D01*
X28076920Y9524360D02*
X29076920Y9524360D01*
D15*
X9375140Y5499100D02*
X9375140Y3896360D01*
X9375140Y-3896360D02*
X9375140Y-5499100D01*
X9375140Y5499100D02*
X5499100Y9375140D01*
X9375140Y-5499100D02*
X5499100Y-9375140D01*
X-5499100Y9375140D02*
X-9375140Y5499100D01*
X-5499100Y9375140D02*
X5499100Y9375140D01*
X-5499100Y-9375140D02*
X-9375140Y-5499100D01*
X-5499100Y-9375140D02*
X5499100Y-9375140D01*
X-9375140Y5499100D02*
X-9375140Y-5499100D01*
D13*
X68110665Y11894620D02*
X68110665Y11180334D01*
X68063046Y11037477D01*
X67967808Y10942239D01*
X67824951Y10894620D01*
X67729713Y10894620D01*
X69110665Y10894620D02*
X68539237Y10894620D01*
X68824951Y10894620D02*
X68824951Y11894620D01*
X68729713Y11751762D01*
X68634475Y11656524D01*
X68539237Y11608905D01*
X292187380Y-12668154D02*
X292996904Y-12668154D01*
X293092142Y-12620535D01*
X293139761Y-12572916D01*
X293187380Y-12477678D01*
X293187380Y-12287202D01*
X293139761Y-12191964D01*
X293092142Y-12144345D01*
X292996904Y-12096726D01*
X292187380Y-12096726D01*
X293187380Y-11096726D02*
X293187380Y-11668154D01*
X293187380Y-11382440D02*
X292187380Y-11382440D01*
X292330238Y-11477678D01*
X292425476Y-11572916D01*
X292473095Y-11668154D01*
X281371666Y-9682916D02*
X281371666Y-8982916D01*
X281538333Y-8982916D01*
X281638333Y-9016250D01*
X281705000Y-9082916D01*
X281738333Y-9149583D01*
X281771666Y-9282916D01*
X281771666Y-9382916D01*
X281738333Y-9516250D01*
X281705000Y-9582916D01*
X281638333Y-9649583D01*
X281538333Y-9682916D01*
X281371666Y-9682916D01*
X281971666Y-8982916D02*
X282205000Y-9682916D01*
X282438333Y-8982916D01*
X282871666Y-8982916D02*
X282871666Y-9482916D01*
X282838333Y-9582916D01*
X282771666Y-9649583D01*
X282671666Y-9682916D01*
X282605000Y-9682916D01*
X283505000Y-8982916D02*
X283371666Y-8982916D01*
X283305000Y-9016250D01*
X283271666Y-9049583D01*
X283205000Y-9149583D01*
X283171666Y-9282916D01*
X283171666Y-9549583D01*
X283205000Y-9616250D01*
X283238333Y-9649583D01*
X283305000Y-9682916D01*
X283438333Y-9682916D01*
X283505000Y-9649583D01*
X283538333Y-9616250D01*
X283571666Y-9549583D01*
X283571666Y-9382916D01*
X283538333Y-9316250D01*
X283505000Y-9282916D01*
X283438333Y-9249583D01*
X283305000Y-9249583D01*
X283238333Y-9282916D01*
X283205000Y-9316250D01*
X283171666Y-9382916D01*
X283838333Y-9482916D02*
X284171666Y-9482916D01*
X283771666Y-9682916D02*
X284005000Y-8982916D01*
X284238333Y-9682916D01*
X279491666Y-10952916D02*
X279491666Y-10252916D01*
X279725000Y-10752916D01*
X279958333Y-10252916D01*
X279958333Y-10952916D01*
X280291666Y-10952916D02*
X280291666Y-10252916D01*
X280625000Y-10952916D02*
X280625000Y-10252916D01*
X280858333Y-10752916D01*
X281091666Y-10252916D01*
X281091666Y-10952916D01*
X281358333Y-10252916D02*
X281825000Y-10952916D01*
X281825000Y-10252916D02*
X281358333Y-10952916D01*
X282491666Y-10952916D02*
X282258333Y-10619583D01*
X282091666Y-10952916D02*
X282091666Y-10252916D01*
X282358333Y-10252916D01*
X282425000Y-10286250D01*
X282458333Y-10319583D01*
X282491666Y-10386250D01*
X282491666Y-10486250D01*
X282458333Y-10552916D01*
X282425000Y-10586250D01*
X282358333Y-10619583D01*
X282091666Y-10619583D01*
X282691666Y-10252916D02*
X283091666Y-10252916D01*
X282891666Y-10952916D02*
X282891666Y-10252916D01*
X283691666Y-10952916D02*
X283291666Y-10952916D01*
X283491666Y-10952916D02*
X283491666Y-10252916D01*
X283425000Y-10352916D01*
X283358333Y-10419583D01*
X283291666Y-10452916D01*
X284125000Y-10252916D02*
X284191666Y-10252916D01*
X284258333Y-10286250D01*
X284291666Y-10319583D01*
X284325000Y-10386250D01*
X284358333Y-10519583D01*
X284358333Y-10686250D01*
X284325000Y-10819583D01*
X284291666Y-10886250D01*
X284258333Y-10919583D01*
X284191666Y-10952916D01*
X284125000Y-10952916D01*
X284058333Y-10919583D01*
X284025000Y-10886250D01*
X283991666Y-10819583D01*
X283958333Y-10686250D01*
X283958333Y-10519583D01*
X283991666Y-10386250D01*
X284025000Y-10319583D01*
X284058333Y-10286250D01*
X284125000Y-10252916D01*
X284958333Y-10252916D02*
X284825000Y-10252916D01*
X284758333Y-10286250D01*
X284725000Y-10319583D01*
X284658333Y-10419583D01*
X284625000Y-10552916D01*
X284625000Y-10819583D01*
X284658333Y-10886250D01*
X284691666Y-10919583D01*
X284758333Y-10952916D01*
X284891666Y-10952916D01*
X284958333Y-10919583D01*
X284991666Y-10886250D01*
X285025000Y-10819583D01*
X285025000Y-10652916D01*
X284991666Y-10586250D01*
X284958333Y-10552916D01*
X284891666Y-10519583D01*
X284758333Y-10519583D01*
X284691666Y-10552916D01*
X284658333Y-10586250D01*
X284625000Y-10652916D01*
X285291666Y-10319583D02*
X285325000Y-10286250D01*
X285391666Y-10252916D01*
X285558333Y-10252916D01*
X285625000Y-10286250D01*
X285658333Y-10319583D01*
X285691666Y-10386250D01*
X285691666Y-10452916D01*
X285658333Y-10552916D01*
X285258333Y-10952916D01*
X285691666Y-10952916D01*
X283027380Y-39155297D02*
X282027380Y-39155297D01*
X282741666Y-38821964D01*
X282027380Y-38488630D01*
X283027380Y-38488630D01*
X283027380Y-38012440D02*
X282360714Y-38012440D01*
X282027380Y-38012440D02*
X282075000Y-38060059D01*
X282122619Y-38012440D01*
X282075000Y-37964821D01*
X282027380Y-38012440D01*
X282122619Y-38012440D01*
X282979761Y-37107678D02*
X283027380Y-37202916D01*
X283027380Y-37393392D01*
X282979761Y-37488630D01*
X282932142Y-37536250D01*
X282836904Y-37583869D01*
X282551190Y-37583869D01*
X282455952Y-37536250D01*
X282408333Y-37488630D01*
X282360714Y-37393392D01*
X282360714Y-37202916D01*
X282408333Y-37107678D01*
X283027380Y-36679107D02*
X282360714Y-36679107D01*
X282551190Y-36679107D02*
X282455952Y-36631488D01*
X282408333Y-36583869D01*
X282360714Y-36488630D01*
X282360714Y-36393392D01*
X283027380Y-35917202D02*
X282979761Y-36012440D01*
X282932142Y-36060059D01*
X282836904Y-36107678D01*
X282551190Y-36107678D01*
X282455952Y-36060059D01*
X282408333Y-36012440D01*
X282360714Y-35917202D01*
X282360714Y-35774345D01*
X282408333Y-35679107D01*
X282455952Y-35631488D01*
X282551190Y-35583869D01*
X282836904Y-35583869D01*
X282932142Y-35631488D01*
X282979761Y-35679107D01*
X283027380Y-35774345D01*
X283027380Y-35917202D01*
X282979761Y-34441011D02*
X283027380Y-34298154D01*
X283027380Y-34060059D01*
X282979761Y-33964821D01*
X282932142Y-33917202D01*
X282836904Y-33869583D01*
X282741666Y-33869583D01*
X282646428Y-33917202D01*
X282598809Y-33964821D01*
X282551190Y-34060059D01*
X282503571Y-34250535D01*
X282455952Y-34345773D01*
X282408333Y-34393392D01*
X282313095Y-34441011D01*
X282217857Y-34441011D01*
X282122619Y-34393392D01*
X282075000Y-34345773D01*
X282027380Y-34250535D01*
X282027380Y-34012440D01*
X282075000Y-33869583D01*
X283027380Y-33441011D02*
X282027380Y-33441011D01*
X282027380Y-33202916D01*
X282075000Y-33060059D01*
X282170238Y-32964821D01*
X282265476Y-32917202D01*
X282455952Y-32869583D01*
X282598809Y-32869583D01*
X282789285Y-32917202D01*
X282884523Y-32964821D01*
X282979761Y-33060059D01*
X283027380Y-33202916D01*
X283027380Y-33441011D01*
X281313095Y15311369D02*
X281313095Y14501845D01*
X281360714Y14406607D01*
X281408333Y14358988D01*
X281503571Y14311369D01*
X281694047Y14311369D01*
X281789285Y14358988D01*
X281836904Y14406607D01*
X281884523Y14501845D01*
X281884523Y15311369D01*
X282313095Y14358988D02*
X282455952Y14311369D01*
X282694047Y14311369D01*
X282789285Y14358988D01*
X282836904Y14406607D01*
X282884523Y14501845D01*
X282884523Y14597083D01*
X282836904Y14692321D01*
X282789285Y14739940D01*
X282694047Y14787559D01*
X282503571Y14835178D01*
X282408333Y14882797D01*
X282360714Y14930416D01*
X282313095Y15025654D01*
X282313095Y15120892D01*
X282360714Y15216130D01*
X282408333Y15263750D01*
X282503571Y15311369D01*
X282741666Y15311369D01*
X282884523Y15263750D01*
X283646428Y14835178D02*
X283789285Y14787559D01*
X283836904Y14739940D01*
X283884523Y14644702D01*
X283884523Y14501845D01*
X283836904Y14406607D01*
X283789285Y14358988D01*
X283694047Y14311369D01*
X283313095Y14311369D01*
X283313095Y15311369D01*
X283646428Y15311369D01*
X283741666Y15263750D01*
X283789285Y15216130D01*
X283836904Y15120892D01*
X283836904Y15025654D01*
X283789285Y14930416D01*
X283741666Y14882797D01*
X283646428Y14835178D01*
X283313095Y14835178D01*
X282994457Y230178D02*
X283327790Y230178D01*
X283470647Y-293630D02*
X282994457Y-293630D01*
X282994457Y706369D01*
X283470647Y706369D01*
X283756361Y373035D02*
X284137314Y373035D01*
X283899219Y706369D02*
X283899219Y-150773D01*
X283946838Y-246011D01*
X284042076Y-293630D01*
X284137314Y-293630D01*
X284470647Y-293630D02*
X284470647Y706369D01*
X284899219Y-293630D02*
X284899219Y230178D01*
X284851600Y325416D01*
X284756361Y373035D01*
X284613504Y373035D01*
X284518266Y325416D01*
X284470647Y277797D01*
X285756361Y-246011D02*
X285661123Y-293630D01*
X285470647Y-293630D01*
X285375409Y-246011D01*
X285327790Y-150773D01*
X285327790Y230178D01*
X285375409Y325416D01*
X285470647Y373035D01*
X285661123Y373035D01*
X285756361Y325416D01*
X285803980Y230178D01*
X285803980Y134940D01*
X285327790Y39702D01*
X286232552Y-293630D02*
X286232552Y373035D01*
X286232552Y182559D02*
X286280171Y277797D01*
X286327790Y325416D01*
X286423028Y373035D01*
X286518266Y373035D01*
X286851600Y373035D02*
X286851600Y-293630D01*
X286851600Y277797D02*
X286899219Y325416D01*
X286994457Y373035D01*
X287137314Y373035D01*
X287232552Y325416D01*
X287280171Y230178D01*
X287280171Y-293630D01*
X288137314Y-246011D02*
X288042076Y-293630D01*
X287851600Y-293630D01*
X287756361Y-246011D01*
X287708742Y-150773D01*
X287708742Y230178D01*
X287756361Y325416D01*
X287851600Y373035D01*
X288042076Y373035D01*
X288137314Y325416D01*
X288184933Y230178D01*
X288184933Y134940D01*
X287708742Y39702D01*
X288470647Y373035D02*
X288851600Y373035D01*
X288613504Y706369D02*
X288613504Y-150773D01*
X288661123Y-246011D01*
X288756361Y-293630D01*
X288851600Y-293630D01*
X279538180Y3250026D02*
X280347704Y3250026D01*
X280442942Y3297645D01*
X280490561Y3345264D01*
X280538180Y3440502D01*
X280538180Y3630978D01*
X280490561Y3726216D01*
X280442942Y3773835D01*
X280347704Y3821454D01*
X279538180Y3821454D01*
X280490561Y4250026D02*
X280538180Y4392883D01*
X280538180Y4630978D01*
X280490561Y4726216D01*
X280442942Y4773835D01*
X280347704Y4821454D01*
X280252466Y4821454D01*
X280157228Y4773835D01*
X280109609Y4726216D01*
X280061990Y4630978D01*
X280014371Y4440502D01*
X279966752Y4345264D01*
X279919133Y4297645D01*
X279823895Y4250026D01*
X279728657Y4250026D01*
X279633419Y4297645D01*
X279585800Y4345264D01*
X279538180Y4440502D01*
X279538180Y4678597D01*
X279585800Y4821454D01*
X280014371Y5583359D02*
X280061990Y5726216D01*
X280109609Y5773835D01*
X280204847Y5821454D01*
X280347704Y5821454D01*
X280442942Y5773835D01*
X280490561Y5726216D01*
X280538180Y5630978D01*
X280538180Y5250026D01*
X279538180Y5250026D01*
X279538180Y5583359D01*
X279585800Y5678597D01*
X279633419Y5726216D01*
X279728657Y5773835D01*
X279823895Y5773835D01*
X279919133Y5726216D01*
X279966752Y5678597D01*
X280014371Y5583359D01*
X280014371Y5250026D01*
X280538180Y7011930D02*
X279538180Y7011930D01*
X280014371Y7011930D02*
X280014371Y7583359D01*
X280538180Y7583359D02*
X279538180Y7583359D01*
X280538180Y8202407D02*
X280490561Y8107169D01*
X280442942Y8059550D01*
X280347704Y8011930D01*
X280061990Y8011930D01*
X279966752Y8059550D01*
X279919133Y8107169D01*
X279871514Y8202407D01*
X279871514Y8345264D01*
X279919133Y8440502D01*
X279966752Y8488121D01*
X280061990Y8535740D01*
X280347704Y8535740D01*
X280442942Y8488121D01*
X280490561Y8440502D01*
X280538180Y8345264D01*
X280538180Y8202407D01*
X280490561Y8916692D02*
X280538180Y9011930D01*
X280538180Y9202407D01*
X280490561Y9297645D01*
X280395323Y9345264D01*
X280347704Y9345264D01*
X280252466Y9297645D01*
X280204847Y9202407D01*
X280204847Y9059550D01*
X280157228Y8964311D01*
X280061990Y8916692D01*
X280014371Y8916692D01*
X279919133Y8964311D01*
X279871514Y9059550D01*
X279871514Y9202407D01*
X279919133Y9297645D01*
X279871514Y9630978D02*
X279871514Y10011930D01*
X279538180Y9773835D02*
X280395323Y9773835D01*
X280490561Y9821454D01*
X280538180Y9916692D01*
X280538180Y10011930D01*
X241618586Y6794598D02*
X241761443Y6746979D01*
X241999539Y6746979D01*
X242094777Y6794598D01*
X242142396Y6842217D01*
X242190015Y6937455D01*
X242190015Y7032693D01*
X242142396Y7127931D01*
X242094777Y7175550D01*
X241999539Y7223169D01*
X241809062Y7270788D01*
X241713824Y7318407D01*
X241666205Y7366026D01*
X241618586Y7461264D01*
X241618586Y7556502D01*
X241666205Y7651740D01*
X241713824Y7699360D01*
X241809062Y7746979D01*
X242047158Y7746979D01*
X242190015Y7699360D01*
X242523348Y7746979D02*
X242761443Y6746979D01*
X242951920Y7461264D01*
X243142396Y6746979D01*
X243380491Y7746979D01*
X244237634Y7746979D02*
X243761443Y7746979D01*
X243713824Y7270788D01*
X243761443Y7318407D01*
X243856681Y7366026D01*
X244094777Y7366026D01*
X244190015Y7318407D01*
X244237634Y7270788D01*
X244285253Y7175550D01*
X244285253Y6937455D01*
X244237634Y6842217D01*
X244190015Y6794598D01*
X244094777Y6746979D01*
X243856681Y6746979D01*
X243761443Y6794598D01*
X243713824Y6842217D01*
X203518586Y6794598D02*
X203661443Y6746979D01*
X203899539Y6746979D01*
X203994777Y6794598D01*
X204042396Y6842217D01*
X204090015Y6937455D01*
X204090015Y7032693D01*
X204042396Y7127931D01*
X203994777Y7175550D01*
X203899539Y7223169D01*
X203709062Y7270788D01*
X203613824Y7318407D01*
X203566205Y7366026D01*
X203518586Y7461264D01*
X203518586Y7556502D01*
X203566205Y7651740D01*
X203613824Y7699360D01*
X203709062Y7746979D01*
X203947158Y7746979D01*
X204090015Y7699360D01*
X204423348Y7746979D02*
X204661443Y6746979D01*
X204851920Y7461264D01*
X205042396Y6746979D01*
X205280491Y7746979D01*
X206090015Y7413645D02*
X206090015Y6746979D01*
X205851920Y7794598D02*
X205613824Y7080312D01*
X206232872Y7080312D01*
X165418586Y6794598D02*
X165561443Y6746979D01*
X165799539Y6746979D01*
X165894777Y6794598D01*
X165942396Y6842217D01*
X165990015Y6937455D01*
X165990015Y7032693D01*
X165942396Y7127931D01*
X165894777Y7175550D01*
X165799539Y7223169D01*
X165609062Y7270788D01*
X165513824Y7318407D01*
X165466205Y7366026D01*
X165418586Y7461264D01*
X165418586Y7556502D01*
X165466205Y7651740D01*
X165513824Y7699360D01*
X165609062Y7746979D01*
X165847158Y7746979D01*
X165990015Y7699360D01*
X166323348Y7746979D02*
X166561443Y6746979D01*
X166751920Y7461264D01*
X166942396Y6746979D01*
X167180491Y7746979D01*
X167466205Y7746979D02*
X168085253Y7746979D01*
X167751920Y7366026D01*
X167894777Y7366026D01*
X167990015Y7318407D01*
X168037634Y7270788D01*
X168085253Y7175550D01*
X168085253Y6937455D01*
X168037634Y6842217D01*
X167990015Y6794598D01*
X167894777Y6746979D01*
X167609062Y6746979D01*
X167513824Y6794598D01*
X167466205Y6842217D01*
X127318586Y6794598D02*
X127461443Y6746979D01*
X127699539Y6746979D01*
X127794777Y6794598D01*
X127842396Y6842217D01*
X127890015Y6937455D01*
X127890015Y7032693D01*
X127842396Y7127931D01*
X127794777Y7175550D01*
X127699539Y7223169D01*
X127509062Y7270788D01*
X127413824Y7318407D01*
X127366205Y7366026D01*
X127318586Y7461264D01*
X127318586Y7556502D01*
X127366205Y7651740D01*
X127413824Y7699360D01*
X127509062Y7746979D01*
X127747158Y7746979D01*
X127890015Y7699360D01*
X128223348Y7746979D02*
X128461443Y6746979D01*
X128651920Y7461264D01*
X128842396Y6746979D01*
X129080491Y7746979D01*
X129413824Y7651740D02*
X129461443Y7699360D01*
X129556681Y7746979D01*
X129794777Y7746979D01*
X129890015Y7699360D01*
X129937634Y7651740D01*
X129985253Y7556502D01*
X129985253Y7461264D01*
X129937634Y7318407D01*
X129366205Y6746979D01*
X129985253Y6746979D01*
X22543586Y16319598D02*
X22686443Y16271979D01*
X22924539Y16271979D01*
X23019777Y16319598D01*
X23067396Y16367217D01*
X23115015Y16462455D01*
X23115015Y16557693D01*
X23067396Y16652931D01*
X23019777Y16700550D01*
X22924539Y16748169D01*
X22734062Y16795788D01*
X22638824Y16843407D01*
X22591205Y16891026D01*
X22543586Y16986264D01*
X22543586Y17081502D01*
X22591205Y17176740D01*
X22638824Y17224360D01*
X22734062Y17271979D01*
X22972158Y17271979D01*
X23115015Y17224360D01*
X23448348Y17271979D02*
X23686443Y16271979D01*
X23876920Y16986264D01*
X24067396Y16271979D01*
X24305491Y17271979D01*
X25210253Y16271979D02*
X24638824Y16271979D01*
X24924539Y16271979D02*
X24924539Y17271979D01*
X24829300Y17129121D01*
X24734062Y17033883D01*
X24638824Y16986264D01*
D16*
X11041742Y-464457D02*
X11070771Y-377371D01*
X11070771Y-232228D01*
X11041742Y-174171D01*
X11012714Y-145142D01*
X10954657Y-116114D01*
X10896600Y-116114D01*
X10838542Y-145142D01*
X10809514Y-174171D01*
X10780485Y-232228D01*
X10751457Y-348342D01*
X10722428Y-406400D01*
X10693400Y-435428D01*
X10635342Y-464457D01*
X10577285Y-464457D01*
X10519228Y-435428D01*
X10490200Y-406400D01*
X10461171Y-348342D01*
X10461171Y-203199D01*
X10490200Y-116114D01*
X11070771Y464457D02*
X11070771Y116114D01*
X11070771Y290285D02*
X10461171Y290285D01*
X10548257Y232228D01*
X10606314Y174171D01*
X10635342Y116114D01*
%LPC*%
D17*
X97155000Y17145000D03*
X97155000Y14605000D03*
X97155000Y12065000D03*
X97155000Y9525000D03*
X97155000Y6985000D03*
X97155000Y4445000D03*
X97155000Y1905000D03*
X97155000Y-635000D03*
X97155000Y-3175000D03*
X97155000Y-5715000D03*
X97155000Y-8255000D03*
X97155000Y-10795000D03*
X97155000Y-13335000D03*
X97155000Y-15875000D03*
X89535000Y17145000D03*
X86995000Y17145000D03*
X81915000Y-15875000D03*
X81915000Y-13335000D03*
X81915000Y-10795000D03*
X81915000Y-8255000D03*
X81915000Y-5715000D03*
X81915000Y-3175000D03*
X81915000Y-635000D03*
X81915000Y1905000D03*
X81915000Y4445000D03*
X81915000Y6985000D03*
X81915000Y9525000D03*
X81915000Y12065000D03*
X81915000Y14605000D03*
X81915000Y17145000D03*
D18*
X78105000Y5715000D03*
X78105000Y3175000D03*
X75565000Y5715000D03*
X75565000Y3175000D03*
X75565000Y635000D03*
X78105000Y635000D03*
X78105000Y-1905000D03*
X78105000Y-4445000D03*
X75565000Y-4445000D03*
X102847140Y-7645400D03*
X105427780Y-7645400D03*
X107965240Y-7645400D03*
D17*
X108839000Y12065000D03*
X108839000Y9525000D03*
X108839000Y14605000D03*
D19*
X53626000Y5308000D03*
X53626000Y10808000D03*
X55626000Y13208000D03*
D20*
X68443999Y-8762999D03*
X68443999Y-6222999D03*
X68443999Y-3682999D03*
X68443999Y-1142999D03*
X68443999Y1397001D03*
X68443999Y3937001D03*
X68443999Y6477001D03*
D21*
X68443999Y9017001D03*
D22*
X287655000Y14763750D03*
X278005800Y844550D03*
X278005800Y3384550D03*
X278005800Y5924550D03*
X278005800Y8464550D03*
D23*
X278005800Y11004550D03*
D22*
X290195000Y17303750D03*
X290195000Y14763750D03*
X290195000Y12223750D03*
X290195000Y9683750D03*
X290195000Y7143750D03*
X290195000Y4603750D03*
X290195000Y2063750D03*
X290195000Y-476250D03*
X290195000Y-3016250D03*
X290195000Y-5556250D03*
X290195000Y-8096250D03*
X290195000Y-10636250D03*
X290195000Y-13176250D03*
X290195000Y-15716250D03*
D23*
X274955000Y17303750D03*
D22*
X274955000Y14763750D03*
X274955000Y12223750D03*
X274955000Y9683750D03*
X274955000Y7143750D03*
X274955000Y4603750D03*
X274955000Y2063750D03*
X274955000Y-476250D03*
X274955000Y-3016250D03*
X274955000Y-5556250D03*
X274955000Y-8096250D03*
X274955000Y-10636250D03*
X274955000Y-13176250D03*
X290195000Y-18256250D03*
X290195000Y-20796250D03*
X290195000Y-23336250D03*
X290195000Y-25876250D03*
X290195000Y-28416250D03*
X290195000Y-30956250D03*
X290195000Y-33496250D03*
X290195000Y-36036250D03*
X290195000Y-38576250D03*
X290195000Y-41116250D03*
X274955000Y-41116250D03*
X274955000Y-38576250D03*
X274955000Y-36036250D03*
X274955000Y-33496250D03*
X274955000Y-15716250D03*
X274955000Y-18256250D03*
X274955000Y-20796250D03*
X274955000Y-30956250D03*
X274955000Y-28416250D03*
X274955000Y-25876250D03*
X274955000Y-23336250D03*
D24*
X287756600Y4333750D03*
D25*
X287756600Y2333750D03*
X285756600Y4333750D03*
X285756600Y2333750D03*
X283756600Y2333750D03*
X283756600Y4333750D03*
D22*
X277495000Y-28416250D03*
X280035000Y-28416250D03*
X282575000Y-28416250D03*
X285115000Y-28416250D03*
X287655000Y-28416250D03*
D25*
X281305000Y16573750D03*
X283845000Y16573750D03*
D26*
X70875000Y-81420000D03*
D27*
X66675000Y-70700000D03*
X66675000Y-81700000D03*
D28*
X66675000Y-76200000D03*
D29*
X285000000Y-90026250D03*
X280150000Y-90026250D03*
D30*
X285300000Y-93056250D03*
X279850000Y-93056250D03*
D26*
X247192500Y-51825000D03*
D27*
X257912500Y-47625000D03*
X246912500Y-47625000D03*
D28*
X252412500Y-47625000D03*
D26*
X232905000Y-32775000D03*
D27*
X243625000Y-28575000D03*
X232625000Y-28575000D03*
D28*
X238125000Y-28575000D03*
D26*
X218617500Y-51825000D03*
D27*
X229337500Y-47625000D03*
X218337500Y-47625000D03*
D28*
X223837500Y-47625000D03*
D26*
X190042500Y-51825000D03*
D27*
X200762500Y-47625000D03*
X189762500Y-47625000D03*
D28*
X195262500Y-47625000D03*
D26*
X194805000Y-32775000D03*
D27*
X205525000Y-28575000D03*
X194525000Y-28575000D03*
D28*
X200025000Y-28575000D03*
D26*
X142417500Y-51825000D03*
D27*
X153137500Y-47625000D03*
X142137500Y-47625000D03*
D28*
X147637500Y-47625000D03*
D26*
X113842500Y-51825000D03*
D27*
X124562500Y-47625000D03*
X113562500Y-47625000D03*
D28*
X119062500Y-47625000D03*
D26*
X56692500Y-51825000D03*
D27*
X67412500Y-47625000D03*
X56412500Y-47625000D03*
D28*
X61912500Y-47625000D03*
D26*
X61455000Y-32775000D03*
D27*
X72175000Y-28575000D03*
X61175000Y-28575000D03*
D28*
X66675000Y-28575000D03*
D26*
X85267500Y-51825000D03*
D27*
X95987500Y-47625000D03*
X84987500Y-47625000D03*
D28*
X90487500Y-47625000D03*
D26*
X9067500Y-51825000D03*
D27*
X19787500Y-47625000D03*
X8787500Y-47625000D03*
D28*
X14287500Y-47625000D03*
D31*
X240151920Y2499360D03*
D32*
X240151920Y-640D03*
X240151920Y-2500640D03*
D33*
X247651920Y5599360D03*
X247651920Y-5600640D03*
D32*
X254651920Y2499360D03*
X254651920Y-2500640D03*
D31*
X202051920Y2499360D03*
D32*
X202051920Y-640D03*
X202051920Y-2500640D03*
D33*
X209551920Y5599360D03*
X209551920Y-5600640D03*
D32*
X216551920Y2499360D03*
X216551920Y-2500640D03*
D31*
X163951920Y2499360D03*
D32*
X163951920Y-640D03*
X163951920Y-2500640D03*
D33*
X171451920Y5599360D03*
X171451920Y-5600640D03*
D32*
X178451920Y2499360D03*
X178451920Y-2500640D03*
D31*
X125851920Y2499360D03*
D32*
X125851920Y-640D03*
X125851920Y-2500640D03*
D33*
X133351920Y5599360D03*
X133351920Y-5600640D03*
D32*
X140351920Y2499360D03*
X140351920Y-2500640D03*
D31*
X21076920Y12024360D03*
D32*
X21076920Y9524360D03*
X21076920Y7024360D03*
D33*
X28576920Y15124360D03*
X28576920Y3924360D03*
D32*
X35576920Y12024360D03*
X35576920Y7024360D03*
D34*
X-10058400Y7373620D03*
X8983980Y8890000D03*
D35*
X7749540Y998220D03*
X7749540Y-2999740D03*
X7749540Y-998220D03*
X7749540Y2999740D03*
D26*
X261375000Y-81420000D03*
D27*
X257175000Y-70700000D03*
X257175000Y-81700000D03*
D28*
X257175000Y-76200000D03*
D26*
X251955000Y-32775000D03*
D27*
X262675000Y-28575000D03*
X251675000Y-28575000D03*
D28*
X257175000Y-28575000D03*
D26*
X242325000Y-81420000D03*
D27*
X238125000Y-70700000D03*
X238125000Y-81700000D03*
D28*
X238125000Y-76200000D03*
D26*
X223275000Y-81420000D03*
D27*
X219075000Y-70700000D03*
X219075000Y-81700000D03*
D28*
X219075000Y-76200000D03*
D26*
X213855000Y-32775000D03*
D27*
X224575000Y-28575000D03*
X213575000Y-28575000D03*
D28*
X219075000Y-28575000D03*
D26*
X204225000Y-81420000D03*
D27*
X200025000Y-70700000D03*
X200025000Y-81700000D03*
D28*
X200025000Y-76200000D03*
D26*
X185175000Y-81420000D03*
D27*
X180975000Y-70700000D03*
X180975000Y-81700000D03*
D28*
X180975000Y-76200000D03*
D26*
X175755000Y-32775000D03*
D27*
X186475000Y-28575000D03*
X175475000Y-28575000D03*
D28*
X180975000Y-28575000D03*
D26*
X166125000Y-81420000D03*
D27*
X161925000Y-70700000D03*
X161925000Y-81700000D03*
D28*
X161925000Y-76200000D03*
D26*
X166230000Y-51825000D03*
D27*
X176950000Y-47625000D03*
X165950000Y-47625000D03*
D28*
X171450000Y-47625000D03*
D26*
X156705000Y-32775000D03*
D27*
X167425000Y-28575000D03*
X156425000Y-28575000D03*
D28*
X161925000Y-28575000D03*
D26*
X147075000Y-81420000D03*
D27*
X142875000Y-70700000D03*
X142875000Y-81700000D03*
D28*
X142875000Y-76200000D03*
D26*
X137655000Y-32775000D03*
D27*
X148375000Y-28575000D03*
X137375000Y-28575000D03*
D28*
X142875000Y-28575000D03*
D26*
X128025000Y-81420000D03*
D27*
X123825000Y-70700000D03*
X123825000Y-81700000D03*
D28*
X123825000Y-76200000D03*
D26*
X118605000Y-32775000D03*
D27*
X129325000Y-28575000D03*
X118325000Y-28575000D03*
D28*
X123825000Y-28575000D03*
D26*
X108975000Y-81420000D03*
D27*
X104775000Y-70700000D03*
X104775000Y-81700000D03*
D28*
X104775000Y-76200000D03*
D26*
X99555000Y-32775000D03*
D27*
X110275000Y-28575000D03*
X99275000Y-28575000D03*
D28*
X104775000Y-28575000D03*
D26*
X89925000Y-81420000D03*
D27*
X85725000Y-70700000D03*
X85725000Y-81700000D03*
D28*
X85725000Y-76200000D03*
D26*
X80505000Y-32775000D03*
D27*
X91225000Y-28575000D03*
X80225000Y-28575000D03*
D28*
X85725000Y-28575000D03*
D26*
X51825000Y-81420000D03*
D27*
X47625000Y-70700000D03*
X47625000Y-81700000D03*
D28*
X47625000Y-76200000D03*
D26*
X42405000Y-32775000D03*
D27*
X53125000Y-28575000D03*
X42125000Y-28575000D03*
D28*
X47625000Y-28575000D03*
D26*
X42405000Y-13725000D03*
D27*
X53125000Y-9525000D03*
X42125000Y-9525000D03*
D28*
X47625000Y-9525000D03*
D26*
X32775000Y-81420000D03*
D27*
X28575000Y-70700000D03*
X28575000Y-81700000D03*
D28*
X28575000Y-76200000D03*
D26*
X32880000Y-51825000D03*
D27*
X43600000Y-47625000D03*
X32600000Y-47625000D03*
D28*
X38100000Y-47625000D03*
D26*
X23355000Y-32775000D03*
D27*
X34075000Y-28575000D03*
X23075000Y-28575000D03*
D28*
X28575000Y-28575000D03*
D26*
X23355000Y-13725000D03*
D27*
X34075000Y-9525000D03*
X23075000Y-9525000D03*
D28*
X28575000Y-9525000D03*
D26*
X13725000Y-81420000D03*
D27*
X9525000Y-70700000D03*
X9525000Y-81700000D03*
D28*
X9525000Y-76200000D03*
X9525000Y-28575000D03*
D27*
X4025000Y-28575000D03*
X15025000Y-28575000D03*
D26*
X4305000Y-32775000D03*
X-14745000Y-89925000D03*
D27*
X-4025000Y-85725000D03*
X-15025000Y-85725000D03*
D28*
X-9525000Y-85725000D03*
D26*
X-14745000Y-70875000D03*
D27*
X-4025000Y-66675000D03*
X-15025000Y-66675000D03*
D28*
X-9525000Y-66675000D03*
D26*
X-14745000Y-51825000D03*
D27*
X-4025000Y-47625000D03*
X-15025000Y-47625000D03*
D28*
X-9525000Y-47625000D03*
D26*
X-14745000Y-32775000D03*
D27*
X-4025000Y-28575000D03*
X-15025000Y-28575000D03*
D28*
X-9525000Y-28575000D03*
M02*
