G04 #@! TF.GenerationSoftware,KiCad,Pcbnew,(5.1.4)-1*
G04 #@! TF.CreationDate,2022-01-07T23:34:50-05:00*
G04 #@! TF.ProjectId,the_TOP-1,7468655f-544f-4502-9d31-2e6b69636164,rev?*
G04 #@! TF.SameCoordinates,Original*
G04 #@! TF.FileFunction,Copper,L2,Bot*
G04 #@! TF.FilePolarity,Positive*
%FSLAX46Y46*%
G04 Gerber Fmt 4.6, Leading zero omitted, Abs format (unit mm)*
G04 Created by KiCad (PCBNEW (5.1.4)-1) date 2022-01-07 23:34:50*
%MOMM*%
%LPD*%
G04 APERTURE LIST*
%ADD10O,1.524000X1.524000*%
%ADD11C,1.524000*%
%ADD12O,2.800000X1.800000*%
%ADD13O,1.700000X1.700000*%
%ADD14R,1.700000X1.700000*%
%ADD15C,1.600000*%
%ADD16R,1.600000X1.600000*%
%ADD17R,1.300000X1.300000*%
%ADD18C,1.300000*%
%ADD19R,1.905000X1.905000*%
%ADD20C,1.905000*%
%ADD21C,2.000000*%
%ADD22R,1.700000X3.500000*%
%ADD23R,3.500000X1.700000*%
%ADD24R,2.000000X2.000000*%
%ADD25R,3.200000X2.000000*%
%ADD26R,1.200000X0.900000*%
%ADD27C,0.800000*%
%ADD28C,0.250000*%
G04 APERTURE END LIST*
D10*
X97155000Y17145000D03*
X97155000Y14605000D03*
X97155000Y12065000D03*
X97155000Y9525000D03*
X97155000Y6985000D03*
X97155000Y4445000D03*
X97155000Y1905000D03*
X97155000Y-635000D03*
X97155000Y-3175000D03*
X97155000Y-5715000D03*
X97155000Y-8255000D03*
X97155000Y-10795000D03*
X97155000Y-13335000D03*
X97155000Y-15875000D03*
X89535000Y17145000D03*
X86995000Y17145000D03*
X81915000Y-15875000D03*
X81915000Y-13335000D03*
X81915000Y-10795000D03*
X81915000Y-8255000D03*
X81915000Y-5715000D03*
X81915000Y-3175000D03*
X81915000Y-635000D03*
X81915000Y1905000D03*
X81915000Y4445000D03*
X81915000Y6985000D03*
X81915000Y9525000D03*
X81915000Y12065000D03*
X81915000Y14605000D03*
X81915000Y17145000D03*
D11*
X78105000Y5715000D03*
X78105000Y3175000D03*
X75565000Y5715000D03*
X75565000Y3175000D03*
X75565000Y635000D03*
X78105000Y635000D03*
X78105000Y-1905000D03*
X78105000Y-4445000D03*
X75565000Y-4445000D03*
X102847140Y-7645400D03*
X105427780Y-7645400D03*
X107965240Y-7645400D03*
D10*
X108839000Y12065000D03*
X108839000Y9525000D03*
X108839000Y14605000D03*
D12*
X53626000Y5308000D03*
X53626000Y10808000D03*
X55626000Y13208000D03*
D13*
X68443999Y-8762999D03*
X68443999Y-6222999D03*
X68443999Y-3682999D03*
X68443999Y-1142999D03*
X68443999Y1397001D03*
X68443999Y3937001D03*
X68443999Y6477001D03*
D14*
X68443999Y9017001D03*
D15*
X287655000Y14763750D03*
X278005800Y844550D03*
X278005800Y3384550D03*
X278005800Y5924550D03*
X278005800Y8464550D03*
D16*
X278005800Y11004550D03*
D15*
X290195000Y17303750D03*
X290195000Y14763750D03*
X290195000Y12223750D03*
X290195000Y9683750D03*
X290195000Y7143750D03*
X290195000Y4603750D03*
X290195000Y2063750D03*
X290195000Y-476250D03*
X290195000Y-3016250D03*
X290195000Y-5556250D03*
X290195000Y-8096250D03*
X290195000Y-10636250D03*
X290195000Y-13176250D03*
X290195000Y-15716250D03*
D16*
X274955000Y17303750D03*
D15*
X274955000Y14763750D03*
X274955000Y12223750D03*
X274955000Y9683750D03*
X274955000Y7143750D03*
X274955000Y4603750D03*
X274955000Y2063750D03*
X274955000Y-476250D03*
X274955000Y-3016250D03*
X274955000Y-5556250D03*
X274955000Y-8096250D03*
X274955000Y-10636250D03*
X274955000Y-13176250D03*
X290195000Y-18256250D03*
X290195000Y-20796250D03*
X290195000Y-23336250D03*
X290195000Y-25876250D03*
X290195000Y-28416250D03*
X290195000Y-30956250D03*
X290195000Y-33496250D03*
X290195000Y-36036250D03*
X290195000Y-38576250D03*
X290195000Y-41116250D03*
X274955000Y-41116250D03*
X274955000Y-38576250D03*
X274955000Y-36036250D03*
X274955000Y-33496250D03*
X274955000Y-15716250D03*
X274955000Y-18256250D03*
X274955000Y-20796250D03*
X274955000Y-30956250D03*
X274955000Y-28416250D03*
X274955000Y-25876250D03*
X274955000Y-23336250D03*
D17*
X287756600Y4333750D03*
D18*
X287756600Y2333750D03*
X285756600Y4333750D03*
X285756600Y2333750D03*
X283756600Y2333750D03*
X283756600Y4333750D03*
D15*
X277495000Y-28416250D03*
X280035000Y-28416250D03*
X282575000Y-28416250D03*
X285115000Y-28416250D03*
X287655000Y-28416250D03*
D18*
X281305000Y16573750D03*
X283845000Y16573750D03*
D19*
X71375000Y-74930000D03*
D20*
X71375000Y-77470000D03*
D21*
X62875000Y-71200000D03*
X60775000Y-76200000D03*
D22*
X285115000Y-44256250D03*
X282575000Y-44256250D03*
X280035000Y-44256250D03*
D23*
X292365000Y-44926250D03*
X292365000Y-47466250D03*
X292365000Y-50006250D03*
X292365000Y-52546250D03*
X292365000Y-55086250D03*
X292365000Y-57626250D03*
X292365000Y-60166250D03*
X292365000Y-62706250D03*
X292365000Y-65246250D03*
X292365000Y-67786250D03*
X292365000Y-70326250D03*
X292365000Y-72866250D03*
X292365000Y-75406250D03*
X292365000Y-77946250D03*
X292365000Y-80486250D03*
X292365000Y-83026250D03*
X292365000Y-85566250D03*
X292365000Y-88106250D03*
X292365000Y-90646250D03*
X292365000Y-93186250D03*
X272785000Y-44926250D03*
X272785000Y-47466250D03*
X272785000Y-50006250D03*
X272785000Y-52546250D03*
X272785000Y-55086250D03*
X272785000Y-57626250D03*
X272785000Y-60166250D03*
X272785000Y-62706250D03*
X272785000Y-65246250D03*
X272785000Y-67786250D03*
X272785000Y-70326250D03*
X272785000Y-72866250D03*
X272785000Y-75406250D03*
X272785000Y-77946250D03*
X272785000Y-80486250D03*
X272785000Y-83026250D03*
X272785000Y-85566250D03*
X272785000Y-88106250D03*
X272785000Y-90646250D03*
X272785000Y-93186250D03*
D19*
X253682500Y-52325000D03*
D20*
X251142500Y-52325000D03*
D21*
X257412500Y-43825000D03*
X252412500Y-41725000D03*
D19*
X239395000Y-33275000D03*
D20*
X236855000Y-33275000D03*
D21*
X243125000Y-24775000D03*
X238125000Y-22675000D03*
D19*
X225107500Y-52325000D03*
D20*
X222567500Y-52325000D03*
D21*
X228837500Y-43825000D03*
X223837500Y-41725000D03*
D19*
X196532500Y-52325000D03*
D20*
X193992500Y-52325000D03*
D21*
X200262500Y-43825000D03*
X195262500Y-41725000D03*
D19*
X201295000Y-33275000D03*
D20*
X198755000Y-33275000D03*
D21*
X205025000Y-24775000D03*
X200025000Y-22675000D03*
D19*
X148907500Y-52325000D03*
D20*
X146367500Y-52325000D03*
D21*
X152637500Y-43825000D03*
X147637500Y-41725000D03*
D19*
X120332500Y-52325000D03*
D20*
X117792500Y-52325000D03*
D21*
X124062500Y-43825000D03*
X119062500Y-41725000D03*
D19*
X63182500Y-52325000D03*
D20*
X60642500Y-52325000D03*
D21*
X66912500Y-43825000D03*
X61912500Y-41725000D03*
D19*
X67945000Y-33275000D03*
D20*
X65405000Y-33275000D03*
D21*
X71675000Y-24775000D03*
X66675000Y-22675000D03*
D19*
X91757500Y-52325000D03*
D20*
X89217500Y-52325000D03*
D21*
X95487500Y-43825000D03*
X90487500Y-41725000D03*
D19*
X15557500Y-52325000D03*
D20*
X13017500Y-52325000D03*
D21*
X19287500Y-43825000D03*
X14287500Y-41725000D03*
D24*
X240151920Y2499360D03*
D21*
X240151920Y-640D03*
X240151920Y-2500640D03*
D25*
X247651920Y5599360D03*
X247651920Y-5600640D03*
D21*
X254651920Y2499360D03*
X254651920Y-2500640D03*
D24*
X202051920Y2499360D03*
D21*
X202051920Y-640D03*
X202051920Y-2500640D03*
D25*
X209551920Y5599360D03*
X209551920Y-5600640D03*
D21*
X216551920Y2499360D03*
X216551920Y-2500640D03*
D24*
X163951920Y2499360D03*
D21*
X163951920Y-640D03*
X163951920Y-2500640D03*
D25*
X171451920Y5599360D03*
X171451920Y-5600640D03*
D21*
X178451920Y2499360D03*
X178451920Y-2500640D03*
D24*
X125851920Y2499360D03*
D21*
X125851920Y-640D03*
X125851920Y-2500640D03*
D25*
X133351920Y5599360D03*
X133351920Y-5600640D03*
D21*
X140351920Y2499360D03*
X140351920Y-2500640D03*
D24*
X21076920Y12024360D03*
D21*
X21076920Y9524360D03*
X21076920Y7024360D03*
D25*
X28576920Y15124360D03*
X28576920Y3924360D03*
D21*
X35576920Y12024360D03*
X35576920Y7024360D03*
D19*
X261875000Y-74930000D03*
D20*
X261875000Y-77470000D03*
D21*
X253375000Y-71200000D03*
X251275000Y-76200000D03*
D19*
X258445000Y-33275000D03*
D20*
X255905000Y-33275000D03*
D21*
X262175000Y-24775000D03*
X257175000Y-22675000D03*
D19*
X242825000Y-74930000D03*
D20*
X242825000Y-77470000D03*
D21*
X234325000Y-71200000D03*
X232225000Y-76200000D03*
D19*
X223775000Y-74930000D03*
D20*
X223775000Y-77470000D03*
D21*
X215275000Y-71200000D03*
X213175000Y-76200000D03*
D19*
X220345000Y-33275000D03*
D20*
X217805000Y-33275000D03*
D21*
X224075000Y-24775000D03*
X219075000Y-22675000D03*
D19*
X204725000Y-74930000D03*
D20*
X204725000Y-77470000D03*
D21*
X196225000Y-71200000D03*
X194125000Y-76200000D03*
D19*
X185675000Y-74930000D03*
D20*
X185675000Y-77470000D03*
D21*
X177175000Y-71200000D03*
X175075000Y-76200000D03*
D19*
X182245000Y-33275000D03*
D20*
X179705000Y-33275000D03*
D21*
X185975000Y-24775000D03*
X180975000Y-22675000D03*
D19*
X166625000Y-74930000D03*
D20*
X166625000Y-77470000D03*
D21*
X158125000Y-71200000D03*
X156025000Y-76200000D03*
D19*
X172720000Y-52325000D03*
D20*
X170180000Y-52325000D03*
D21*
X176450000Y-43825000D03*
X171450000Y-41725000D03*
D19*
X163195000Y-33275000D03*
D20*
X160655000Y-33275000D03*
D21*
X166925000Y-24775000D03*
X161925000Y-22675000D03*
D19*
X147575000Y-74930000D03*
D20*
X147575000Y-77470000D03*
D21*
X139075000Y-71200000D03*
X136975000Y-76200000D03*
D19*
X144145000Y-33275000D03*
D20*
X141605000Y-33275000D03*
D21*
X147875000Y-24775000D03*
X142875000Y-22675000D03*
D19*
X128525000Y-74930000D03*
D20*
X128525000Y-77470000D03*
D21*
X120025000Y-71200000D03*
X117925000Y-76200000D03*
D19*
X125095000Y-33275000D03*
D20*
X122555000Y-33275000D03*
D21*
X128825000Y-24775000D03*
X123825000Y-22675000D03*
D19*
X109475000Y-74930000D03*
D20*
X109475000Y-77470000D03*
D21*
X100975000Y-71200000D03*
X98875000Y-76200000D03*
D19*
X106045000Y-33275000D03*
D20*
X103505000Y-33275000D03*
D21*
X109775000Y-24775000D03*
X104775000Y-22675000D03*
D19*
X90425000Y-74930000D03*
D20*
X90425000Y-77470000D03*
D21*
X81925000Y-71200000D03*
X79825000Y-76200000D03*
D19*
X86995000Y-33275000D03*
D20*
X84455000Y-33275000D03*
D21*
X90725000Y-24775000D03*
X85725000Y-22675000D03*
D19*
X52325000Y-74930000D03*
D20*
X52325000Y-77470000D03*
D21*
X43825000Y-71200000D03*
X41725000Y-76200000D03*
D19*
X48895000Y-33275000D03*
D20*
X46355000Y-33275000D03*
D21*
X52625000Y-24775000D03*
X47625000Y-22675000D03*
D19*
X48895000Y-14225000D03*
D20*
X46355000Y-14225000D03*
D21*
X52625000Y-5725000D03*
X47625000Y-3625000D03*
D19*
X33275000Y-74930000D03*
D20*
X33275000Y-77470000D03*
D21*
X24775000Y-71200000D03*
X22675000Y-76200000D03*
D19*
X39370000Y-52325000D03*
D20*
X36830000Y-52325000D03*
D21*
X43100000Y-43825000D03*
X38100000Y-41725000D03*
D19*
X29845000Y-33275000D03*
D20*
X27305000Y-33275000D03*
D21*
X33575000Y-24775000D03*
X28575000Y-22675000D03*
D19*
X29845000Y-14225000D03*
D20*
X27305000Y-14225000D03*
D21*
X33575000Y-5725000D03*
X28575000Y-3625000D03*
D19*
X14225000Y-74930000D03*
D20*
X14225000Y-77470000D03*
D21*
X5725000Y-71200000D03*
X3625000Y-76200000D03*
X9525000Y-22675000D03*
X14525000Y-24775000D03*
D20*
X8255000Y-33275000D03*
D19*
X10795000Y-33275000D03*
X-8255000Y-90425000D03*
D20*
X-10795000Y-90425000D03*
D21*
X-4525000Y-81925000D03*
X-9525000Y-79825000D03*
D19*
X-8255000Y-71375000D03*
D20*
X-10795000Y-71375000D03*
D21*
X-4525000Y-62875000D03*
X-9525000Y-60775000D03*
D19*
X-8255000Y-52325000D03*
D20*
X-10795000Y-52325000D03*
D21*
X-4525000Y-43825000D03*
X-9525000Y-41725000D03*
D19*
X-8255000Y-33275000D03*
D20*
X-10795000Y-33275000D03*
D21*
X-4525000Y-24775000D03*
X-9525000Y-22675000D03*
D26*
X265557000Y-74550000D03*
X265557000Y-77850000D03*
X260985000Y-46102000D03*
X260985000Y-49402000D03*
X265557000Y-26925000D03*
X265557000Y-30225000D03*
X246507000Y-74550000D03*
X246507000Y-77850000D03*
X246507000Y-26925000D03*
X246507000Y-30225000D03*
X227457000Y-74550000D03*
X227457000Y-77850000D03*
X227457000Y-27052000D03*
X227457000Y-30352000D03*
X208407000Y-74677000D03*
X208407000Y-77977000D03*
X203708000Y-45975000D03*
X203708000Y-49275000D03*
X208407000Y-26925000D03*
X208407000Y-30225000D03*
X189357000Y-74550000D03*
X189357000Y-77850000D03*
X232283000Y-46102000D03*
X232283000Y-49402000D03*
X189357000Y-27052000D03*
X189357000Y-30352000D03*
X170307000Y-74550000D03*
X170307000Y-77850000D03*
X179832000Y-46102000D03*
X179832000Y-49402000D03*
X170307000Y-27052000D03*
X170307000Y-30352000D03*
X151257000Y-74550000D03*
X151257000Y-77850000D03*
X151257000Y-26925000D03*
X151257000Y-30225000D03*
X132207000Y-74550000D03*
X132207000Y-77850000D03*
X156083000Y-45975000D03*
X156083000Y-49275000D03*
X132207000Y-27052000D03*
X132207000Y-30352000D03*
X113157000Y-74550000D03*
X113157000Y-77850000D03*
X127381000Y-46102000D03*
X127381000Y-49402000D03*
X113157000Y-27052000D03*
X113157000Y-30352000D03*
X94107000Y-74550000D03*
X94107000Y-77850000D03*
X98806000Y-46102000D03*
X98806000Y-49402000D03*
X94107000Y-26925000D03*
X94107000Y-30225000D03*
X75057000Y-74550000D03*
X75057000Y-77850000D03*
X75057000Y-26925000D03*
X75057000Y-30225000D03*
X56007000Y-74550000D03*
X56007000Y-77850000D03*
X70358000Y-45848000D03*
X70358000Y-49148000D03*
X56007000Y-26925000D03*
X56007000Y-30225000D03*
X56007000Y-7875000D03*
X56007000Y-11175000D03*
X36957000Y-74550000D03*
X36957000Y-77850000D03*
X46355000Y-45975000D03*
X46355000Y-49275000D03*
X36957000Y-26925000D03*
X36957000Y-30225000D03*
X36957000Y-7875000D03*
X36957000Y-11175000D03*
X17907000Y-74550000D03*
X17907000Y-77850000D03*
X22606000Y-46102000D03*
X22606000Y-49402000D03*
X17780000Y-26925000D03*
X17780000Y-30225000D03*
X-1143000Y-84075000D03*
X-1143000Y-87375000D03*
X-1143000Y-65025000D03*
X-1143000Y-68325000D03*
X-1143000Y-45975000D03*
X-1143000Y-49275000D03*
X-1143000Y-26925000D03*
X-1143000Y-30225000D03*
D27*
X269240000Y-45085000D03*
X287782000Y-46609000D03*
X266573000Y-46863000D03*
X287585884Y-47589583D03*
X266446000Y-47879000D03*
X286385000Y-47784010D03*
X288798000Y-55753000D03*
X268605000Y-77089000D03*
X15240000Y635000D03*
X262509000Y-89408000D03*
X263398000Y-88773000D03*
X269240000Y-85471000D03*
X269240000Y-83058000D03*
X269875000Y-80518000D03*
X268383000Y-78867000D03*
X267658000Y-73533000D03*
X266933000Y-71882000D03*
X266208000Y-69342000D03*
X265483000Y-65913000D03*
X264758000Y-61341000D03*
X264033000Y-59182000D03*
X262763000Y-58801000D03*
X267843000Y-22225000D03*
X268351000Y-46101000D03*
X113030294Y-11266000D03*
X269707684Y-16550316D03*
X65913000Y635001D03*
X112305294Y-5752000D03*
X113897888Y-12028000D03*
X101134067Y-17464536D03*
X98061692Y-20098010D03*
X66959226Y-19648000D03*
X66458000Y-17400284D03*
X66458000Y-2720859D03*
X66832147Y241080D03*
X64753136Y2962914D03*
X61849000Y2286000D03*
X64274314Y2085001D03*
X67183000Y-18198000D03*
X68072000Y-19648000D03*
X99060000Y-19648000D03*
X99934649Y-17638649D03*
X298043020Y-22860000D03*
X142487640Y-11700728D03*
X181610000Y-11700728D03*
X240157000Y9779000D03*
X240157000Y11811000D03*
X295275000Y-86868000D03*
X297942000Y-86868000D03*
X295402000Y-54483000D03*
X295402000Y-58801000D03*
X239268000Y7620000D03*
X238857501Y6708138D03*
X118618000Y7262989D03*
X238891539Y5708716D03*
X88523653Y-16237001D03*
X98806000Y-18198000D03*
X270863196Y-14971111D03*
X271636255Y-15605447D03*
X276225000Y-15045779D03*
X272934222Y-14720778D03*
X286510471Y-14320779D03*
X53721000Y8255000D03*
X74134192Y9939808D03*
X73025000Y3937000D03*
D28*
X-1143000Y-26225000D02*
X-1143000Y-26925000D01*
X-1143000Y-26195998D02*
X-1143000Y-26225000D01*
X-4663998Y-22675000D02*
X-1143000Y-26195998D01*
X-9525000Y-22675000D02*
X-4663998Y-22675000D01*
X-293000Y-30225000D02*
X254000Y-29678000D01*
X-1143000Y-30225000D02*
X-293000Y-30225000D01*
X254000Y-29678000D02*
X254000Y-18923000D01*
X254000Y-18923000D02*
X3429000Y-15748000D01*
X36107000Y-11175000D02*
X36957000Y-11175000D01*
X31534000Y-15748000D02*
X36107000Y-11175000D01*
X3429000Y-15748000D02*
X31534000Y-15748000D01*
X55157000Y-11175000D02*
X56007000Y-11175000D01*
X54781999Y-11550001D02*
X55157000Y-11175000D01*
X38182001Y-11550001D02*
X54781999Y-11550001D01*
X37807000Y-11175000D02*
X38182001Y-11550001D01*
X36957000Y-11175000D02*
X37807000Y-11175000D01*
X56007000Y-11175000D02*
X56007000Y-11875000D01*
X56007000Y-11875000D02*
X56007000Y-17653000D01*
X56007000Y-17653000D02*
X57277000Y-18923000D01*
X265614002Y-18923000D02*
X268605000Y-21913998D01*
X57277000Y-18923000D02*
X265614002Y-18923000D01*
X268605000Y-21913998D02*
X268605000Y-44450000D01*
X268605000Y-44450000D02*
X269240000Y-45085000D01*
X290030435Y-44926250D02*
X291465000Y-44926250D01*
X288347685Y-46609000D02*
X290030435Y-44926250D01*
X287782000Y-46609000D02*
X288347685Y-46609000D01*
X-1143000Y-45275000D02*
X-1143000Y-45975000D01*
X-1143000Y-45245998D02*
X-1143000Y-45275000D01*
X-4663998Y-41725000D02*
X-1143000Y-45245998D01*
X-9525000Y-41725000D02*
X-4663998Y-41725000D01*
X3379999Y-45602001D02*
X3379999Y-31799001D01*
X-1143000Y-49275000D02*
X-293000Y-49275000D01*
X-293000Y-49275000D02*
X3379999Y-45602001D01*
X16930000Y-30225000D02*
X17780000Y-30225000D01*
X16554999Y-30600001D02*
X16930000Y-30225000D01*
X4578999Y-30600001D02*
X16554999Y-30600001D01*
X3379999Y-31799001D02*
X4578999Y-30600001D01*
X36107000Y-30225000D02*
X36957000Y-30225000D01*
X35731999Y-30600001D02*
X36107000Y-30225000D01*
X19005001Y-30600001D02*
X35731999Y-30600001D01*
X18630000Y-30225000D02*
X19005001Y-30600001D01*
X17780000Y-30225000D02*
X18630000Y-30225000D01*
X265557000Y-30225000D02*
X265557000Y-45847000D01*
X265557000Y-45847000D02*
X266573000Y-46863000D01*
X288274902Y-47466250D02*
X291465000Y-47466250D01*
X288151569Y-47589583D02*
X288274902Y-47466250D01*
X287585884Y-47589583D02*
X288151569Y-47589583D01*
X37807000Y-30225000D02*
X36957000Y-30225000D01*
X38182001Y-30600001D02*
X37807000Y-30225000D01*
X54781999Y-30600001D02*
X38182001Y-30600001D01*
X55157000Y-30225000D02*
X54781999Y-30600001D01*
X56007000Y-30225000D02*
X55157000Y-30225000D01*
X246657000Y-30225000D02*
X246507000Y-30225000D01*
X265557000Y-30225000D02*
X264707000Y-30225000D01*
X227607000Y-30352000D02*
X227457000Y-30352000D01*
X246507000Y-30225000D02*
X245657000Y-30225000D01*
X208557000Y-30225000D02*
X208407000Y-30225000D01*
X227457000Y-30352000D02*
X226607000Y-30352000D01*
X190207000Y-30352000D02*
X189357000Y-30352000D01*
X190455001Y-30600001D02*
X190207000Y-30352000D01*
X207181999Y-30600001D02*
X190455001Y-30600001D01*
X207557000Y-30225000D02*
X207181999Y-30600001D01*
X208407000Y-30225000D02*
X207557000Y-30225000D01*
X170457000Y-30352000D02*
X170307000Y-30352000D01*
X189357000Y-30352000D02*
X188507000Y-30352000D01*
X151407000Y-30225000D02*
X151257000Y-30225000D01*
X170307000Y-30352000D02*
X169457000Y-30352000D01*
X132357000Y-30352000D02*
X132207000Y-30352000D01*
X151257000Y-30225000D02*
X150407000Y-30225000D01*
X114007000Y-30352000D02*
X113157000Y-30352000D01*
X114255001Y-30600001D02*
X114007000Y-30352000D01*
X131108999Y-30600001D02*
X114255001Y-30600001D01*
X131357000Y-30352000D02*
X131108999Y-30600001D01*
X132207000Y-30352000D02*
X131357000Y-30352000D01*
X94957000Y-30225000D02*
X94107000Y-30225000D01*
X95332001Y-30600001D02*
X94957000Y-30225000D01*
X112058999Y-30600001D02*
X95332001Y-30600001D01*
X112307000Y-30352000D02*
X112058999Y-30600001D01*
X113157000Y-30352000D02*
X112307000Y-30352000D01*
X75907000Y-30225000D02*
X75057000Y-30225000D01*
X76282001Y-30600001D02*
X75907000Y-30225000D01*
X92881999Y-30600001D02*
X76282001Y-30600001D01*
X93257000Y-30225000D02*
X92881999Y-30600001D01*
X94107000Y-30225000D02*
X93257000Y-30225000D01*
X56857000Y-30225000D02*
X56007000Y-30225000D01*
X57232001Y-30600001D02*
X56857000Y-30225000D01*
X73831999Y-30600001D02*
X57232001Y-30600001D01*
X74207000Y-30225000D02*
X73831999Y-30600001D01*
X75057000Y-30225000D02*
X74207000Y-30225000D01*
X247357000Y-30225000D02*
X246507000Y-30225000D01*
X247732001Y-30600001D02*
X247357000Y-30225000D01*
X264331999Y-30600001D02*
X247732001Y-30600001D01*
X264707000Y-30225000D02*
X264331999Y-30600001D01*
X228307000Y-30352000D02*
X227457000Y-30352000D01*
X228562000Y-30607000D02*
X228307000Y-30352000D01*
X245275000Y-30607000D02*
X228562000Y-30607000D01*
X245657000Y-30225000D02*
X245275000Y-30607000D01*
X209257000Y-30225000D02*
X208407000Y-30225000D01*
X209766000Y-30734000D02*
X209257000Y-30225000D01*
X226225000Y-30734000D02*
X209766000Y-30734000D01*
X226607000Y-30352000D02*
X226225000Y-30734000D01*
X171157000Y-30352000D02*
X170307000Y-30352000D01*
X171405001Y-30600001D02*
X171157000Y-30352000D01*
X188258999Y-30600001D02*
X171405001Y-30600001D01*
X188507000Y-30352000D02*
X188258999Y-30600001D01*
X152107000Y-30225000D02*
X151257000Y-30225000D01*
X152489000Y-30607000D02*
X152107000Y-30225000D01*
X169202000Y-30607000D02*
X152489000Y-30607000D01*
X169457000Y-30352000D02*
X169202000Y-30607000D01*
X133057000Y-30352000D02*
X132207000Y-30352000D01*
X133305001Y-30600001D02*
X133057000Y-30352000D01*
X150031999Y-30600001D02*
X133305001Y-30600001D01*
X150407000Y-30225000D02*
X150031999Y-30600001D01*
X-1143000Y-64325000D02*
X-1143000Y-65025000D01*
X-1143000Y-64295998D02*
X-1143000Y-64325000D01*
X-4663998Y-60775000D02*
X-1143000Y-64295998D01*
X-9525000Y-60775000D02*
X-4663998Y-60775000D01*
X8142499Y-59189501D02*
X8142499Y-51039501D01*
X-1143000Y-68325000D02*
X-993000Y-68325000D01*
X-993000Y-68325000D02*
X8142499Y-59189501D01*
X21756000Y-49402000D02*
X22606000Y-49402000D01*
X21507999Y-49650001D02*
X21756000Y-49402000D01*
X9531999Y-49650001D02*
X21507999Y-49650001D01*
X8142499Y-51039501D02*
X9531999Y-49650001D01*
X260985000Y-49402000D02*
X264923000Y-49402000D01*
X264923000Y-49402000D02*
X266446000Y-47879000D01*
X291147240Y-52546250D02*
X291465000Y-52546250D01*
X286385000Y-47784010D02*
X291147240Y-52546250D01*
X69508000Y-49148000D02*
X70358000Y-49148000D01*
X69005999Y-49650001D02*
X69508000Y-49148000D01*
X47580001Y-49650001D02*
X69005999Y-49650001D01*
X47205000Y-49275000D02*
X47580001Y-49650001D01*
X46355000Y-49275000D02*
X47205000Y-49275000D01*
X45505000Y-49275000D02*
X46355000Y-49275000D01*
X45129999Y-49650001D02*
X45505000Y-49275000D01*
X23704001Y-49650001D02*
X45129999Y-49650001D01*
X23456000Y-49402000D02*
X23704001Y-49650001D01*
X22606000Y-49402000D02*
X23456000Y-49402000D01*
X97956000Y-49402000D02*
X98806000Y-49402000D01*
X97707999Y-49650001D02*
X97956000Y-49402000D01*
X126531000Y-49402000D02*
X127381000Y-49402000D01*
X126282999Y-49650001D02*
X126531000Y-49402000D01*
X99904001Y-49650001D02*
X126282999Y-49650001D01*
X99656000Y-49402000D02*
X99904001Y-49650001D01*
X98806000Y-49402000D02*
X99656000Y-49402000D01*
X71710001Y-49650001D02*
X97707999Y-49650001D01*
X71208000Y-49148000D02*
X71710001Y-49650001D01*
X70358000Y-49148000D02*
X71208000Y-49148000D01*
X155933000Y-49275000D02*
X156083000Y-49275000D01*
X155233000Y-49975000D02*
X155933000Y-49275000D01*
X128804000Y-49975000D02*
X155233000Y-49975000D01*
X128231000Y-49402000D02*
X128804000Y-49975000D01*
X127381000Y-49402000D02*
X128231000Y-49402000D01*
X179682000Y-49402000D02*
X179832000Y-49402000D01*
X178982000Y-50102000D02*
X179682000Y-49402000D01*
X157760000Y-50102000D02*
X178982000Y-50102000D01*
X156933000Y-49275000D02*
X157760000Y-50102000D01*
X156083000Y-49275000D02*
X156933000Y-49275000D01*
X202858000Y-49275000D02*
X203708000Y-49275000D01*
X202482999Y-49650001D02*
X202858000Y-49275000D01*
X180930001Y-49650001D02*
X202482999Y-49650001D01*
X180682000Y-49402000D02*
X180930001Y-49650001D01*
X179832000Y-49402000D02*
X180682000Y-49402000D01*
X231433000Y-49402000D02*
X232283000Y-49402000D01*
X231184999Y-49650001D02*
X231433000Y-49402000D01*
X204933001Y-49650001D02*
X231184999Y-49650001D01*
X204558000Y-49275000D02*
X204933001Y-49650001D01*
X203708000Y-49275000D02*
X204558000Y-49275000D01*
X260135000Y-49402000D02*
X260985000Y-49402000D01*
X259886999Y-49650001D02*
X260135000Y-49402000D01*
X233381001Y-49650001D02*
X259886999Y-49650001D01*
X233133000Y-49402000D02*
X233381001Y-49650001D01*
X232283000Y-49402000D02*
X233133000Y-49402000D01*
X-1143000Y-83375000D02*
X-1143000Y-84075000D01*
X-1143000Y-83345998D02*
X-1143000Y-83375000D01*
X-5663997Y-78825001D02*
X-1143000Y-83345998D01*
X-8525001Y-78825001D02*
X-5663997Y-78825001D01*
X-9525000Y-79825000D02*
X-8525001Y-78825001D01*
X17057000Y-77850000D02*
X17907000Y-77850000D01*
X15735702Y-77850000D02*
X17057000Y-77850000D01*
X6210702Y-87375000D02*
X15735702Y-77850000D01*
X-1143000Y-87375000D02*
X6210702Y-87375000D01*
X291465000Y-55086250D02*
X289464750Y-55086250D01*
X289464750Y-55086250D02*
X288798000Y-55753000D01*
X265557000Y-78740000D02*
X265557000Y-77850000D01*
X265938000Y-79121000D02*
X265557000Y-78740000D01*
X268605000Y-77089000D02*
X266573000Y-79121000D01*
X266573000Y-79121000D02*
X265938000Y-79121000D01*
X37807000Y-77850000D02*
X36957000Y-77850000D01*
X38704501Y-78747501D02*
X37807000Y-77850000D01*
X54259499Y-78747501D02*
X38704501Y-78747501D01*
X55157000Y-77850000D02*
X54259499Y-78747501D01*
X56007000Y-77850000D02*
X55157000Y-77850000D01*
X18757000Y-77850000D02*
X17907000Y-77850000D01*
X19654501Y-78747501D02*
X18757000Y-77850000D01*
X35209499Y-78747501D02*
X19654501Y-78747501D01*
X36107000Y-77850000D02*
X35209499Y-78747501D01*
X36957000Y-77850000D02*
X36107000Y-77850000D01*
X74207000Y-77850000D02*
X75057000Y-77850000D01*
X73309499Y-78747501D02*
X74207000Y-77850000D01*
X57054501Y-78747501D02*
X73309499Y-78747501D01*
X56157000Y-77850000D02*
X57054501Y-78747501D01*
X56007000Y-77850000D02*
X56157000Y-77850000D01*
X93257000Y-77850000D02*
X94107000Y-77850000D01*
X92359499Y-78747501D02*
X93257000Y-77850000D01*
X76804501Y-78747501D02*
X92359499Y-78747501D01*
X75907000Y-77850000D02*
X76804501Y-78747501D01*
X75057000Y-77850000D02*
X75907000Y-77850000D01*
X112307000Y-77850000D02*
X113157000Y-77850000D01*
X111409499Y-78747501D02*
X112307000Y-77850000D01*
X95854501Y-78747501D02*
X111409499Y-78747501D01*
X94957000Y-77850000D02*
X95854501Y-78747501D01*
X94107000Y-77850000D02*
X94957000Y-77850000D01*
X131357000Y-77850000D02*
X132207000Y-77850000D01*
X130459499Y-78747501D02*
X131357000Y-77850000D01*
X114904501Y-78747501D02*
X130459499Y-78747501D01*
X114007000Y-77850000D02*
X114904501Y-78747501D01*
X113157000Y-77850000D02*
X114007000Y-77850000D01*
X150407000Y-77850000D02*
X151257000Y-77850000D01*
X149509499Y-78747501D02*
X150407000Y-77850000D01*
X133954501Y-78747501D02*
X149509499Y-78747501D01*
X133057000Y-77850000D02*
X133954501Y-78747501D01*
X132207000Y-77850000D02*
X133057000Y-77850000D01*
X169457000Y-77850000D02*
X170307000Y-77850000D01*
X168559499Y-78747501D02*
X169457000Y-77850000D01*
X153004501Y-78747501D02*
X168559499Y-78747501D01*
X152107000Y-77850000D02*
X153004501Y-78747501D01*
X151257000Y-77850000D02*
X152107000Y-77850000D01*
X188507000Y-77850000D02*
X189357000Y-77850000D01*
X187609499Y-78747501D02*
X188507000Y-77850000D01*
X172054501Y-78747501D02*
X187609499Y-78747501D01*
X171157000Y-77850000D02*
X172054501Y-78747501D01*
X170307000Y-77850000D02*
X171157000Y-77850000D01*
X207557000Y-77977000D02*
X208407000Y-77977000D01*
X206786499Y-78747501D02*
X207557000Y-77977000D01*
X191104501Y-78747501D02*
X206786499Y-78747501D01*
X190207000Y-77850000D02*
X191104501Y-78747501D01*
X189357000Y-77850000D02*
X190207000Y-77850000D01*
X226607000Y-77850000D02*
X227457000Y-77850000D01*
X225709499Y-78747501D02*
X226607000Y-77850000D01*
X210027501Y-78747501D02*
X225709499Y-78747501D01*
X209257000Y-77977000D02*
X210027501Y-78747501D01*
X208407000Y-77977000D02*
X209257000Y-77977000D01*
X245657000Y-77850000D02*
X246507000Y-77850000D01*
X244759499Y-78747501D02*
X245657000Y-77850000D01*
X229204501Y-78747501D02*
X244759499Y-78747501D01*
X228307000Y-77850000D02*
X229204501Y-78747501D01*
X227457000Y-77850000D02*
X228307000Y-77850000D01*
X264707000Y-77850000D02*
X265557000Y-77850000D01*
X263809499Y-78747501D02*
X264707000Y-77850000D01*
X248254501Y-78747501D02*
X263809499Y-78747501D01*
X247357000Y-77850000D02*
X248254501Y-78747501D01*
X246507000Y-77850000D02*
X247357000Y-77850000D01*
X17780000Y-26225000D02*
X17780000Y-26925000D01*
X17780000Y-26068998D02*
X17780000Y-26225000D01*
X14386002Y-22675000D02*
X17780000Y-26068998D01*
X9525000Y-22675000D02*
X14386002Y-22675000D01*
X22606000Y-45402000D02*
X22606000Y-46102000D01*
X22606000Y-45182498D02*
X22606000Y-45402000D01*
X19148502Y-41725000D02*
X22606000Y-45182498D01*
X14287500Y-41725000D02*
X19148502Y-41725000D01*
X17057000Y-74550000D02*
X17907000Y-74550000D01*
X11931999Y-69424999D02*
X17057000Y-74550000D01*
X5538999Y-69424999D02*
X11931999Y-69424999D01*
X3625000Y-71338998D02*
X5538999Y-69424999D01*
X3625000Y-76200000D02*
X3625000Y-71338998D01*
X36957000Y-7175000D02*
X36957000Y-7875000D01*
X36957000Y-7145998D02*
X36957000Y-7175000D01*
X33436002Y-3625000D02*
X36957000Y-7145998D01*
X28575000Y-3625000D02*
X33436002Y-3625000D01*
X36957000Y-26225000D02*
X36957000Y-26925000D01*
X36957000Y-26195998D02*
X36957000Y-26225000D01*
X33436002Y-22675000D02*
X36957000Y-26195998D01*
X28575000Y-22675000D02*
X33436002Y-22675000D01*
X46355000Y-45275000D02*
X46355000Y-45975000D01*
X46355000Y-45118998D02*
X46355000Y-45275000D01*
X42961002Y-41725000D02*
X46355000Y-45118998D01*
X38100000Y-41725000D02*
X42961002Y-41725000D01*
X36107000Y-74550000D02*
X36957000Y-74550000D01*
X30981999Y-69424999D02*
X36107000Y-74550000D01*
X24588999Y-69424999D02*
X30981999Y-69424999D01*
X22675000Y-71338998D02*
X24588999Y-69424999D01*
X22675000Y-76200000D02*
X22675000Y-71338998D01*
X56007000Y-7175000D02*
X56007000Y-7875000D01*
X56007000Y-7145998D02*
X56007000Y-7175000D01*
X52486002Y-3625000D02*
X56007000Y-7145998D01*
X47625000Y-3625000D02*
X52486002Y-3625000D01*
X56007000Y-26225000D02*
X56007000Y-26925000D01*
X56007000Y-26195998D02*
X56007000Y-26225000D01*
X52486002Y-22675000D02*
X56007000Y-26195998D01*
X47625000Y-22675000D02*
X52486002Y-22675000D01*
X70358000Y-45148000D02*
X70358000Y-45848000D01*
X66935000Y-41725000D02*
X70358000Y-45148000D01*
X61912500Y-41725000D02*
X66935000Y-41725000D01*
X55157000Y-74550000D02*
X56007000Y-74550000D01*
X50031999Y-69424999D02*
X55157000Y-74550000D01*
X43638999Y-69424999D02*
X50031999Y-69424999D01*
X41725000Y-71338998D02*
X43638999Y-69424999D01*
X41725000Y-76200000D02*
X41725000Y-71338998D01*
X75057000Y-26225000D02*
X75057000Y-26925000D01*
X75057000Y-26195998D02*
X75057000Y-26225000D01*
X71536002Y-22675000D02*
X75057000Y-26195998D01*
X66675000Y-22675000D02*
X71536002Y-22675000D01*
X74207000Y-74550000D02*
X75057000Y-74550000D01*
X69081999Y-69424999D02*
X74207000Y-74550000D01*
X62688999Y-69424999D02*
X69081999Y-69424999D01*
X60775000Y-71338998D02*
X62688999Y-69424999D01*
X60775000Y-76200000D02*
X60775000Y-71338998D01*
X94107000Y-26225000D02*
X94107000Y-26925000D01*
X94107000Y-26195998D02*
X94107000Y-26225000D01*
X90586002Y-22675000D02*
X94107000Y-26195998D01*
X85725000Y-22675000D02*
X90586002Y-22675000D01*
X98806000Y-45402000D02*
X98806000Y-46102000D01*
X98806000Y-45182498D02*
X98806000Y-45402000D01*
X95348502Y-41725000D02*
X98806000Y-45182498D01*
X90487500Y-41725000D02*
X95348502Y-41725000D01*
X93257000Y-74550000D02*
X94107000Y-74550000D01*
X88131999Y-69424999D02*
X93257000Y-74550000D01*
X81738999Y-69424999D02*
X88131999Y-69424999D01*
X79825000Y-71338998D02*
X81738999Y-69424999D01*
X79825000Y-76200000D02*
X79825000Y-71338998D01*
X113157000Y-26352000D02*
X113157000Y-27052000D01*
X113157000Y-26195998D02*
X113157000Y-26352000D01*
X109636002Y-22675000D02*
X113157000Y-26195998D01*
X104775000Y-22675000D02*
X109636002Y-22675000D01*
X127381000Y-45402000D02*
X127381000Y-46102000D01*
X127381000Y-45182498D02*
X127381000Y-45402000D01*
X123923502Y-41725000D02*
X127381000Y-45182498D01*
X119062500Y-41725000D02*
X123923502Y-41725000D01*
X112307000Y-74550000D02*
X113157000Y-74550000D01*
X107181999Y-69424999D02*
X112307000Y-74550000D01*
X100788999Y-69424999D02*
X107181999Y-69424999D01*
X98875000Y-71338998D02*
X100788999Y-69424999D01*
X98875000Y-76200000D02*
X98875000Y-71338998D01*
X132207000Y-26352000D02*
X132207000Y-27052000D01*
X132207000Y-26195998D02*
X132207000Y-26352000D01*
X128686002Y-22675000D02*
X132207000Y-26195998D01*
X123825000Y-22675000D02*
X128686002Y-22675000D01*
X131357000Y-74550000D02*
X132207000Y-74550000D01*
X126231999Y-69424999D02*
X131357000Y-74550000D01*
X119838999Y-69424999D02*
X126231999Y-69424999D01*
X117925000Y-71338998D02*
X119838999Y-69424999D01*
X117925000Y-76200000D02*
X117925000Y-71338998D01*
X151257000Y-26225000D02*
X151257000Y-26925000D01*
X151257000Y-26195998D02*
X151257000Y-26225000D01*
X147736002Y-22675000D02*
X151257000Y-26195998D01*
X142875000Y-22675000D02*
X147736002Y-22675000D01*
X156083000Y-45275000D02*
X156083000Y-45975000D01*
X152533000Y-41725000D02*
X156083000Y-45275000D01*
X147637500Y-41725000D02*
X152533000Y-41725000D01*
X150407000Y-74550000D02*
X151257000Y-74550000D01*
X145281999Y-69424999D02*
X150407000Y-74550000D01*
X138888999Y-69424999D02*
X145281999Y-69424999D01*
X136975000Y-71338998D02*
X138888999Y-69424999D01*
X136975000Y-76200000D02*
X136975000Y-71338998D01*
X170307000Y-26352000D02*
X170307000Y-27052000D01*
X170307000Y-26195998D02*
X170307000Y-26352000D01*
X166786002Y-22675000D02*
X170307000Y-26195998D01*
X161925000Y-22675000D02*
X166786002Y-22675000D01*
X179832000Y-45402000D02*
X179832000Y-46102000D01*
X179832000Y-45245998D02*
X179832000Y-45402000D01*
X176311002Y-41725000D02*
X179832000Y-45245998D01*
X171450000Y-41725000D02*
X176311002Y-41725000D01*
X169457000Y-74550000D02*
X170307000Y-74550000D01*
X164331999Y-69424999D02*
X169457000Y-74550000D01*
X157938999Y-69424999D02*
X164331999Y-69424999D01*
X156025000Y-71338998D02*
X157938999Y-69424999D01*
X156025000Y-76200000D02*
X156025000Y-71338998D01*
X189357000Y-26352000D02*
X189357000Y-27052000D01*
X189357000Y-26195998D02*
X189357000Y-26352000D01*
X185836002Y-22675000D02*
X189357000Y-26195998D01*
X180975000Y-22675000D02*
X185836002Y-22675000D01*
X188507000Y-74550000D02*
X189357000Y-74550000D01*
X183381999Y-69424999D02*
X188507000Y-74550000D01*
X176988999Y-69424999D02*
X183381999Y-69424999D01*
X175075000Y-71338998D02*
X176988999Y-69424999D01*
X175075000Y-76200000D02*
X175075000Y-71338998D01*
X208407000Y-26225000D02*
X208407000Y-26925000D01*
X208407000Y-26195998D02*
X208407000Y-26225000D01*
X204886002Y-22675000D02*
X208407000Y-26195998D01*
X200025000Y-22675000D02*
X204886002Y-22675000D01*
X203708000Y-45275000D02*
X203708000Y-45975000D01*
X200158000Y-41725000D02*
X203708000Y-45275000D01*
X195262500Y-41725000D02*
X200158000Y-41725000D01*
X207557000Y-74677000D02*
X208407000Y-74677000D01*
X202304999Y-69424999D02*
X207557000Y-74677000D01*
X196038999Y-69424999D02*
X202304999Y-69424999D01*
X194125000Y-71338998D02*
X196038999Y-69424999D01*
X194125000Y-76200000D02*
X194125000Y-71338998D01*
X227457000Y-26352000D02*
X227457000Y-27052000D01*
X227457000Y-26195998D02*
X227457000Y-26352000D01*
X223936002Y-22675000D02*
X227457000Y-26195998D01*
X219075000Y-22675000D02*
X223936002Y-22675000D01*
X232283000Y-45309498D02*
X232283000Y-46102000D01*
X223837500Y-41725000D02*
X228698502Y-41725000D01*
X228698502Y-41725000D02*
X232283000Y-45309498D01*
X226607000Y-74550000D02*
X227457000Y-74550000D01*
X221481999Y-69424999D02*
X226607000Y-74550000D01*
X215088999Y-69424999D02*
X221481999Y-69424999D01*
X213175000Y-71338998D02*
X215088999Y-69424999D01*
X213175000Y-76200000D02*
X213175000Y-71338998D01*
X246507000Y-26225000D02*
X246507000Y-26925000D01*
X246507000Y-26195998D02*
X246507000Y-26225000D01*
X242986002Y-22675000D02*
X246507000Y-26195998D01*
X238125000Y-22675000D02*
X242986002Y-22675000D01*
X245657000Y-74550000D02*
X246507000Y-74550000D01*
X240531999Y-69424999D02*
X245657000Y-74550000D01*
X234138999Y-69424999D02*
X240531999Y-69424999D01*
X232225000Y-71338998D02*
X234138999Y-69424999D01*
X232225000Y-76200000D02*
X232225000Y-71338998D01*
X265557000Y-26225000D02*
X265557000Y-26925000D01*
X265557000Y-26195998D02*
X265557000Y-26225000D01*
X262036002Y-22675000D02*
X265557000Y-26195998D01*
X257175000Y-22675000D02*
X262036002Y-22675000D01*
X260985000Y-45402000D02*
X260985000Y-46102000D01*
X257308000Y-41725000D02*
X260985000Y-45402000D01*
X252412500Y-41725000D02*
X257308000Y-41725000D01*
X264707000Y-74550000D02*
X265557000Y-74550000D01*
X259581999Y-69424999D02*
X264707000Y-74550000D01*
X253188999Y-69424999D02*
X259581999Y-69424999D01*
X251275000Y-71338998D02*
X253188999Y-69424999D01*
X251275000Y-76200000D02*
X251275000Y-71338998D01*
X290994999Y11423751D02*
X290195000Y12223750D01*
X296868010Y5550740D02*
X290994999Y11423751D01*
X296868010Y-86788242D02*
X296868010Y5550740D01*
X293010002Y-90646250D02*
X296868010Y-86788242D01*
X291465000Y-90646250D02*
X293010002Y-90646250D01*
X67241918Y6477001D02*
X61399917Y635000D01*
X68443999Y6477001D02*
X67241918Y6477001D01*
X61399917Y635000D02*
X15240000Y635000D01*
X69646080Y6477001D02*
X73964079Y10795000D01*
X68443999Y6477001D02*
X69646080Y6477001D01*
X274414999Y13348751D02*
X289069999Y13348751D01*
X271861248Y10795000D02*
X274414999Y13348751D01*
X289069999Y13348751D02*
X290195000Y12223750D01*
X80391000Y11618630D02*
X80391000Y10795000D01*
X80837370Y12065000D02*
X80391000Y11618630D01*
X81915000Y12065000D02*
X80837370Y12065000D01*
X73964079Y10795000D02*
X80391000Y10795000D01*
X80391000Y10795000D02*
X271861248Y10795000D01*
X266287250Y-93186250D02*
X273685000Y-93186250D01*
X262509000Y-89408000D02*
X266287250Y-93186250D01*
X273685000Y-90646250D02*
X265271250Y-90646250D01*
X265271250Y-90646250D02*
X263398000Y-88773000D01*
X273685000Y-85566250D02*
X269335250Y-85566250D01*
X269335250Y-85566250D02*
X269240000Y-85471000D01*
X273685000Y-83026250D02*
X269271750Y-83026250D01*
X269271750Y-83026250D02*
X269240000Y-83058000D01*
X273685000Y-80486250D02*
X269906750Y-80486250D01*
X269906750Y-80486250D02*
X269875000Y-80518000D01*
X268738065Y-77946250D02*
X273685000Y-77946250D01*
X268383000Y-78301315D02*
X268738065Y-77946250D01*
X268383000Y-78867000D02*
X268383000Y-78301315D01*
X273685000Y-72866250D02*
X268324750Y-72866250D01*
X268324750Y-72866250D02*
X267658000Y-73533000D01*
X268488750Y-70326250D02*
X273685000Y-70326250D01*
X266933000Y-71882000D02*
X268488750Y-70326250D01*
X267198065Y-67786250D02*
X273685000Y-67786250D01*
X266208000Y-68776315D02*
X267198065Y-67786250D01*
X266208000Y-69342000D02*
X266208000Y-68776315D01*
X273685000Y-65246250D02*
X266149750Y-65246250D01*
X266149750Y-65246250D02*
X265483000Y-65913000D01*
X273685000Y-60166250D02*
X265932750Y-60166250D01*
X265932750Y-60166250D02*
X264758000Y-61341000D01*
X265023065Y-57626250D02*
X273685000Y-57626250D01*
X264033000Y-58616315D02*
X265023065Y-57626250D01*
X264033000Y-59182000D02*
X264033000Y-58616315D01*
X266477750Y-55086250D02*
X273685000Y-55086250D01*
X262763000Y-58801000D02*
X266477750Y-55086250D01*
X272139998Y-52546250D02*
X273685000Y-52546250D01*
X267625999Y-48032251D02*
X272139998Y-52546250D01*
X267625999Y-45752999D02*
X267625999Y-48032251D01*
X267843000Y-45535998D02*
X267625999Y-45752999D01*
X267843000Y-22225000D02*
X267843000Y-45535998D01*
X269150565Y-47466250D02*
X273685000Y-47466250D01*
X268351000Y-46666685D02*
X269150565Y-47466250D01*
X268351000Y-46101000D02*
X268351000Y-46666685D01*
X113067000Y-11266000D02*
X113104000Y-11303000D01*
X113030294Y-11266000D02*
X113067000Y-11266000D01*
X118110000Y-11303000D02*
X118421990Y-10991010D01*
X113104000Y-11303000D02*
X118110000Y-11303000D01*
X129193190Y-10991010D02*
X129632180Y-11430000D01*
X118421990Y-10991010D02*
X129193190Y-10991010D01*
X142139639Y-12425729D02*
X142964734Y-12425729D01*
X129632180Y-11430000D02*
X141143910Y-11430000D01*
X141143910Y-11430000D02*
X142139639Y-12425729D01*
X142964734Y-12425729D02*
X143514715Y-11875748D01*
X143514715Y-11875748D02*
X180075608Y-11875748D01*
X182831261Y-12875739D02*
X183381242Y-12325758D01*
X180075608Y-11875748D02*
X181075599Y-12875739D01*
X181075599Y-12875739D02*
X182831261Y-12875739D01*
X183381242Y-12325758D02*
X234554611Y-12325758D01*
X234554611Y-12325758D02*
X235904639Y-13675786D01*
X235904639Y-13675786D02*
X267658641Y-13675786D01*
X267658641Y-13675786D02*
X269238176Y-15255321D01*
X269707684Y-16161420D02*
X269707684Y-16550316D01*
X269238176Y-15255321D02*
X269238177Y-15691913D01*
X269238177Y-15691913D02*
X269707684Y-16161420D01*
X112305294Y-2258852D02*
X112305294Y-5752000D01*
X108141561Y1904881D02*
X112305294Y-2258852D01*
X105147319Y1904881D02*
X108141561Y1904881D01*
X103694439Y452001D02*
X105147319Y1904881D01*
X80377989Y-563249D02*
X81393239Y452001D01*
X65913000Y-351002D02*
X67879998Y-2318000D01*
X65913000Y635001D02*
X65913000Y-351002D01*
X67879998Y-2318000D02*
X68866001Y-2318000D01*
X68866001Y-2318000D02*
X72263001Y-5715000D01*
X81393239Y452001D02*
X103694439Y452001D01*
X72263001Y-5715000D02*
X80377989Y-5715000D01*
X80377989Y-5715000D02*
X80377989Y-563249D01*
X274155001Y-22536251D02*
X274955000Y-23336250D01*
X268788168Y-17169418D02*
X274155001Y-22536251D01*
X268788168Y-15441723D02*
X268788168Y-17169418D01*
X140957510Y-11880010D02*
X141953239Y-12875739D01*
X129445780Y-11880010D02*
X140957510Y-11880010D01*
X129006790Y-11441020D02*
X129445780Y-11880010D01*
X179889208Y-12325758D02*
X180889199Y-13325749D01*
X118608390Y-11441020D02*
X129006790Y-11441020D01*
X113897888Y-12028000D02*
X118021410Y-12028000D01*
X118021410Y-12028000D02*
X118608390Y-11441020D01*
X141953239Y-12875739D02*
X143151134Y-12875739D01*
X143151134Y-12875739D02*
X143701115Y-12325758D01*
X143701115Y-12325758D02*
X179889208Y-12325758D01*
X180889199Y-13325749D02*
X183017662Y-13325748D01*
X183017662Y-13325748D02*
X183567642Y-12775768D01*
X183567642Y-12775768D02*
X234368211Y-12775768D01*
X235718239Y-14125796D02*
X267472241Y-14125796D01*
X234368211Y-12775768D02*
X235718239Y-14125796D01*
X267472241Y-14125796D02*
X268788168Y-15441723D01*
X273234990Y-26696240D02*
X273234990Y-24792650D01*
X274955000Y-28416250D02*
X273234990Y-26696240D01*
X273234990Y-22889060D02*
X267888150Y-17542218D01*
X273234990Y-24792650D02*
X273234990Y-22889060D01*
X267888150Y-17542218D02*
X267888150Y-15814525D01*
X267888150Y-15814525D02*
X267099441Y-15025816D01*
X267099441Y-15025816D02*
X235345438Y-15025815D01*
X235345438Y-15025815D02*
X233995411Y-13675788D01*
X233995411Y-13675788D02*
X183940442Y-13675788D01*
X180516400Y-14225768D02*
X179516410Y-13225778D01*
X183940442Y-13675788D02*
X183390462Y-14225768D01*
X183390462Y-14225768D02*
X180516400Y-14225768D01*
X179516410Y-13225778D02*
X144073915Y-13225778D01*
X143523934Y-13775759D02*
X141580438Y-13775758D01*
X144073915Y-13225778D02*
X143523934Y-13775759D01*
X141580438Y-13775758D02*
X140584710Y-12780030D01*
X140584710Y-12780030D02*
X129072979Y-12780029D01*
X129072979Y-12780029D02*
X128633990Y-12341040D01*
X118981190Y-12341040D02*
X118394210Y-12928018D01*
X128633990Y-12341040D02*
X118981190Y-12341040D01*
X117629392Y-12928018D02*
X117324916Y-13232494D01*
X118394210Y-12928018D02*
X117629392Y-12928018D01*
X102591506Y-13232494D02*
X102108000Y-13716000D01*
X117324916Y-13232494D02*
X102591506Y-13232494D01*
X102108000Y-13716000D02*
X102108000Y-16490603D01*
X102108000Y-16490603D02*
X101134067Y-17464536D01*
X97496007Y-20098010D02*
X97221017Y-19823020D01*
X98061692Y-20098010D02*
X97496007Y-20098010D01*
X67684227Y-20373001D02*
X66959226Y-19648000D01*
X97221017Y-19823020D02*
X96671036Y-20373001D01*
X96671036Y-20373001D02*
X67684227Y-20373001D01*
X66458000Y-17400284D02*
X66458000Y-2720859D01*
X64766584Y2962914D02*
X64753136Y2962914D01*
X66832147Y241080D02*
X66832147Y897351D01*
X66832147Y897351D02*
X64766584Y2962914D01*
X43354278Y2286000D02*
X61849000Y2286000D01*
X21076920Y12024360D02*
X33615918Y12024360D01*
X33615918Y12024360D02*
X43354278Y2286000D01*
X64674313Y1685002D02*
X64674313Y603687D01*
X64274314Y2085001D02*
X64674313Y1685002D01*
X65462990Y-184990D02*
X65462991Y-537403D01*
X64674313Y603687D02*
X65462990Y-184990D01*
X65462991Y-537403D02*
X67183000Y-2257412D01*
X67183000Y-2257412D02*
X67183000Y-18198000D01*
X68637685Y-19648000D02*
X68912675Y-19373010D01*
X68072000Y-19648000D02*
X68637685Y-19648000D01*
X68912675Y-19373010D02*
X98785010Y-19373010D01*
X98785010Y-19373010D02*
X99060000Y-19648000D01*
X101633060Y-13049350D02*
X101899926Y-12782484D01*
X99934649Y-17638649D02*
X101633060Y-15940238D01*
X101633060Y-15940238D02*
X101633060Y-13049350D01*
X117442990Y-12478010D02*
X118207811Y-12478009D01*
X101899926Y-12782484D02*
X117138516Y-12782484D01*
X117138516Y-12782484D02*
X117442990Y-12478010D01*
X118207811Y-12478009D02*
X118794790Y-11891030D01*
X128820390Y-11891030D02*
X129259380Y-12330020D01*
X118794790Y-11891030D02*
X128820390Y-11891030D01*
X129259380Y-12330020D02*
X140771110Y-12330020D01*
X141766839Y-13325749D02*
X143337534Y-13325749D01*
X140771110Y-12330020D02*
X141766839Y-13325749D01*
X143337534Y-13325749D02*
X143887515Y-12775768D01*
X180702800Y-13775758D02*
X183204062Y-13775758D01*
X143887515Y-12775768D02*
X179702808Y-12775768D01*
X179702808Y-12775768D02*
X180702800Y-13775758D01*
X183204062Y-13775758D02*
X183754042Y-13225778D01*
X183754042Y-13225778D02*
X234181811Y-13225778D01*
X235531839Y-14575806D02*
X267285841Y-14575806D01*
X234181811Y-13225778D02*
X235531839Y-14575806D01*
X268338158Y-15628123D02*
X268338159Y-17355819D01*
X267285841Y-14575806D02*
X268338158Y-15628123D01*
X268338159Y-17355819D02*
X273685000Y-22702660D01*
X273685000Y-24606250D02*
X274955000Y-25876250D01*
X273685000Y-22702660D02*
X273685000Y-24606250D01*
X36576919Y13024359D02*
X36576919Y17272919D01*
X35576920Y12024360D02*
X36576919Y13024359D01*
X37683321Y18379321D02*
X149387679Y18379321D01*
X36576919Y17272919D02*
X37683321Y18379321D01*
X298043020Y8580732D02*
X298043020Y-22860000D01*
X151878249Y15888751D02*
X275495001Y15888751D01*
X149387679Y18379321D02*
X151878249Y15888751D01*
X275495001Y15888751D02*
X276080001Y15303751D01*
X276080001Y15303751D02*
X286529999Y15303751D01*
X290735001Y15888751D02*
X298043020Y8580732D01*
X286529999Y15303751D02*
X287114999Y15888751D01*
X287114999Y15888751D02*
X290735001Y15888751D01*
X288956750Y-22098000D02*
X290195000Y-23336250D01*
X269688186Y-15505513D02*
X273829999Y-19647326D01*
X269688185Y-15068920D02*
X269688186Y-15505513D01*
X267845041Y-13225776D02*
X269688185Y-15068920D01*
X274591748Y-22098000D02*
X288956750Y-22098000D01*
X183193400Y-11875748D02*
X234741011Y-11875748D01*
X143053325Y-11700728D02*
X143328315Y-11425738D01*
X142487640Y-11700728D02*
X143053325Y-11700728D01*
X273829999Y-21336251D02*
X274591748Y-22098000D01*
X143328315Y-11425738D02*
X180262008Y-11425738D01*
X234741011Y-11875748D02*
X236091039Y-13225776D01*
X180262008Y-11425738D02*
X181261999Y-12425729D01*
X236091039Y-13225776D02*
X267845041Y-13225776D01*
X181261999Y-12425729D02*
X182643419Y-12425729D01*
X273829999Y-19647326D02*
X273829999Y-21336251D01*
X182643419Y-12425729D02*
X183193400Y-11875748D01*
X289395001Y-19996251D02*
X290195000Y-20796250D01*
X289069999Y-19671249D02*
X289395001Y-19996251D01*
X274490332Y-19671249D02*
X289069999Y-19671249D01*
X270138195Y-14882520D02*
X270138195Y-15319112D01*
X182732010Y-11700728D02*
X183007000Y-11425738D01*
X181610000Y-11700728D02*
X182732010Y-11700728D01*
X183007000Y-11425738D02*
X234927411Y-11425738D01*
X234927411Y-11425738D02*
X236277439Y-12775766D01*
X270138195Y-15319112D02*
X274490332Y-19671249D01*
X236277439Y-12775766D02*
X268031441Y-12775766D01*
X268031441Y-12775766D02*
X270138195Y-14882520D01*
X274955000Y2063750D02*
X268785790Y8232960D01*
X268785790Y8232960D02*
X259004200Y8232960D01*
X259004200Y8232960D02*
X257567020Y6795780D01*
X238327840Y-7825660D02*
X237224982Y-6722800D01*
X256472441Y-7825659D02*
X238327840Y-7825660D01*
X257567020Y6795780D02*
X257567019Y-6731083D01*
X257567019Y-6731083D02*
X256472441Y-7825659D01*
X237224982Y-6722800D02*
X237224982Y1533608D01*
X237224982Y1533608D02*
X236709240Y2049350D01*
X218062912Y2049350D02*
X216013562Y0D01*
X236709240Y2049350D02*
X218062912Y2049350D01*
X204552560Y0D02*
X202051920Y-2500640D01*
X216013562Y0D02*
X204552560Y0D01*
X202051920Y2499360D02*
X202051920Y3749360D01*
X205226921Y6924361D02*
X236788639Y6924361D01*
X202051920Y3749360D02*
X205226921Y6924361D01*
X236788639Y6924361D02*
X238125000Y5588000D01*
X238125000Y5588000D02*
X238125000Y-6350000D01*
X238700641Y-6925641D02*
X256099641Y-6925641D01*
X238125000Y-6350000D02*
X238700641Y-6925641D01*
X256099641Y-6925641D02*
X256667000Y-6358282D01*
X256667000Y-6358282D02*
X256667000Y7168580D01*
X256667000Y7168580D02*
X258631400Y9132980D01*
X272965770Y9132980D02*
X274955000Y7143750D01*
X258631400Y9132980D02*
X272965770Y9132980D01*
X274955000Y4603750D02*
X270875780Y8682970D01*
X270875780Y8682970D02*
X258817800Y8682970D01*
X216551920Y2499360D02*
X236895640Y2499360D01*
X236895640Y2499360D02*
X237674990Y1720010D01*
X256286042Y-7375650D02*
X257117010Y-6544682D01*
X238514241Y-7375651D02*
X256286042Y-7375650D01*
X237674990Y1720010D02*
X237674991Y-6536401D01*
X237674991Y-6536401D02*
X238514241Y-7375651D01*
X257117010Y-6544682D02*
X257117010Y6982180D01*
X257117010Y6982180D02*
X258817800Y8682970D01*
X241566133Y-2500640D02*
X242062000Y-2004773D01*
X240151920Y-2500640D02*
X241566133Y-2500640D01*
X242062000Y-2004773D02*
X242062000Y9017000D01*
X242062000Y9017000D02*
X243078000Y10033000D01*
X272764250Y10033000D02*
X274955000Y12223750D01*
X243078000Y10033000D02*
X272764250Y10033000D01*
X240151920Y2499360D02*
X240151920Y9773920D01*
X240151920Y9773920D02*
X240157000Y9779000D01*
X272002250Y11811000D02*
X274955000Y14763750D01*
X240157000Y11811000D02*
X272002250Y11811000D01*
X254651920Y2499360D02*
X254651920Y5789910D01*
X273823630Y9683750D02*
X274955000Y9683750D01*
X273722870Y9582990D02*
X273823630Y9683750D01*
X258445000Y9582990D02*
X273722870Y9582990D01*
X254651920Y5789910D02*
X258445000Y9582990D01*
X291465000Y-88106250D02*
X294036750Y-88106250D01*
X294036750Y-88106250D02*
X295275000Y-86868000D01*
X290994999Y13963751D02*
X290195000Y14763750D01*
X297318020Y7640730D02*
X290994999Y13963751D01*
X297318020Y-86244020D02*
X297318020Y7640730D01*
X297942000Y-86868000D02*
X297318020Y-86244020D01*
X291465000Y-57626250D02*
X294671750Y-57626250D01*
X294671750Y-57626250D02*
X296418000Y-55880000D01*
X296418000Y-11779250D02*
X290195000Y-5556250D01*
X296418000Y-55880000D02*
X296418000Y-11779250D01*
X290195000Y-8096250D02*
X295402000Y-13303250D01*
X295402000Y-13303250D02*
X295402000Y-54483000D01*
X295402000Y-59366685D02*
X294697685Y-60071000D01*
X295402000Y-58801000D02*
X295402000Y-59366685D01*
X291560250Y-60071000D02*
X291465000Y-60166250D01*
X294697685Y-60071000D02*
X291560250Y-60071000D01*
X238450001Y8437999D02*
X239268000Y7620000D01*
X81915000Y9525000D02*
X83002001Y8437999D01*
X83002001Y8437999D02*
X238450001Y8437999D01*
X238457502Y7287498D02*
X237757011Y7987989D01*
X238857501Y6708138D02*
X238457502Y7108137D01*
X238457502Y7108137D02*
X238457502Y7287498D01*
X82676999Y5206999D02*
X81915000Y4445000D01*
X83002001Y5532001D02*
X82676999Y5206999D01*
X97310763Y5532001D02*
X83002001Y5532001D01*
X99766751Y7987989D02*
X97310763Y5532001D01*
X237757011Y7987989D02*
X99766751Y7987989D01*
X238783921Y5708716D02*
X238891539Y5708716D01*
X237118267Y7374370D02*
X238783921Y5708716D01*
X119295066Y7374370D02*
X237118267Y7374370D01*
X118618000Y7262989D02*
X119183685Y7262989D01*
X119183685Y7262989D02*
X119295066Y7374370D01*
X83002001Y-1722001D02*
X83002001Y-11245591D01*
X81915000Y-635000D02*
X83002001Y-1722001D01*
X83002001Y-11245591D02*
X87993411Y-16237001D01*
X87993411Y-16237001D02*
X88523653Y-16237001D01*
X99205999Y-17341993D02*
X101183050Y-15364942D01*
X98806000Y-18198000D02*
X99205999Y-17798001D01*
X99205999Y-17798001D02*
X99205999Y-17341993D01*
X101183050Y-12862950D02*
X101713525Y-12332475D01*
X101183050Y-15364942D02*
X101183050Y-12862950D01*
X101713525Y-12332475D02*
X110357984Y-12332474D01*
X129379590Y-10541000D02*
X129814318Y-10975728D01*
X110357984Y-12332474D02*
X112149458Y-10541000D01*
X112149458Y-10541000D02*
X129379590Y-10541000D01*
X236463839Y-12325756D02*
X268037600Y-12325756D01*
X129814318Y-10975728D02*
X235113811Y-10975728D01*
X235113811Y-10975728D02*
X236463839Y-12325756D01*
X268037600Y-12325756D02*
X268217841Y-12325756D01*
X268217841Y-12325756D02*
X270863196Y-14971111D01*
X98049563Y-17862019D02*
X100733040Y-15178542D01*
X82293257Y-17862019D02*
X98049563Y-17862019D01*
X80827999Y-16396761D02*
X82293257Y-17862019D01*
X81915000Y-3175000D02*
X80827999Y-4262001D01*
X80827999Y-4262001D02*
X80827999Y-16396761D01*
X100733040Y-15178542D02*
X100733040Y-12042960D01*
X100733040Y-12042960D02*
X100733040Y-11920190D01*
X100770765Y-11882465D02*
X110171583Y-11882465D01*
X100733040Y-11920190D02*
X100770765Y-11882465D01*
X110171583Y-11882465D02*
X111976968Y-10077080D01*
X129552080Y-10077080D02*
X130000718Y-10525718D01*
X111976968Y-10077080D02*
X129552080Y-10077080D01*
X235300211Y-10525718D02*
X236650239Y-11875746D01*
X130000718Y-10525718D02*
X235300211Y-10525718D01*
X236650239Y-11875746D02*
X268224000Y-11875746D01*
X268224000Y-11875746D02*
X268795336Y-11875746D01*
X268795336Y-11875746D02*
X271636255Y-14716665D01*
X271636255Y-14716665D02*
X271636255Y-15605447D01*
X288254529Y-3016250D02*
X290195000Y-3016250D01*
X276225000Y-15045779D02*
X288254529Y-3016250D01*
X97676761Y-16962001D02*
X99833020Y-14805742D01*
X81915000Y-10795000D02*
X88082001Y-16962001D01*
X88082001Y-16962001D02*
X97676761Y-16962001D01*
X100397963Y-10982447D02*
X109798781Y-10982447D01*
X99833020Y-14805742D02*
X99833020Y-11547390D01*
X99833020Y-11547390D02*
X100397963Y-10982447D01*
X109798781Y-10982447D02*
X111604168Y-9177060D01*
X129924878Y-9177060D02*
X130373518Y-9625698D01*
X111604168Y-9177060D02*
X129924878Y-9177060D01*
X235673009Y-9625698D02*
X237023039Y-10975726D01*
X130373518Y-9625698D02*
X235673009Y-9625698D01*
X237023039Y-10975726D02*
X269189170Y-10975726D01*
X269189170Y-10975726D02*
X272934222Y-14720778D01*
X286910470Y-13920780D02*
X290195000Y-10636250D01*
X286510471Y-14320779D02*
X286910470Y-13920780D01*
X275512749Y-16841251D02*
X276637750Y-15716250D01*
X273889251Y-16841251D02*
X275512749Y-16841251D01*
X272209221Y-15161221D02*
X273889251Y-16841251D01*
X272209221Y-14632187D02*
X272209221Y-15161221D01*
X100584363Y-11432457D02*
X109985182Y-11432456D01*
X276637750Y-15716250D02*
X290195000Y-15716250D01*
X268986000Y-11430000D02*
X272161000Y-14605000D01*
X100283030Y-11733790D02*
X100584363Y-11432457D01*
X100283030Y-14992142D02*
X100283030Y-11733790D01*
X97863162Y-17412010D02*
X100283030Y-14992142D01*
X81915000Y-15875000D02*
X83452010Y-17412010D01*
X83452010Y-17412010D02*
X97863162Y-17412010D01*
X109985182Y-11432456D02*
X111790568Y-9627070D01*
X111790568Y-9627070D02*
X129738480Y-9627070D01*
X129738480Y-9627070D02*
X130187118Y-10075708D01*
X130187118Y-10075708D02*
X235486611Y-10075708D01*
X235486611Y-10075708D02*
X236836639Y-11425736D01*
X268986000Y-11425736D02*
X268986000Y-11430000D01*
X236836639Y-11425736D02*
X268986000Y-11425736D01*
X272161000Y-14605000D02*
X272182034Y-14605000D01*
X272182034Y-14605000D02*
X272209221Y-14632187D01*
X267155582Y-8275668D02*
X274155001Y-1276249D01*
X238141439Y-8275668D02*
X267155582Y-8275668D01*
X274155001Y-1276249D02*
X274955000Y-476250D01*
X101449198Y-635000D02*
X107291198Y-6477000D01*
X97155000Y-635000D02*
X101449198Y-635000D01*
X107291198Y-6477000D02*
X131043278Y-6477000D01*
X131043278Y-6477000D02*
X131491919Y-6925641D01*
X131491919Y-6925641D02*
X236791415Y-6925641D01*
X236791415Y-6925641D02*
X238141439Y-8275668D01*
X100584000Y-3175000D02*
X97155000Y-3175000D01*
X101473000Y-4064000D02*
X100584000Y-3175000D01*
X101473000Y-7880022D02*
X101473000Y-4064000D01*
X102325379Y-8732401D02*
X101473000Y-7880022D01*
X108487001Y-8732401D02*
X102325379Y-8732401D01*
X110292392Y-6927010D02*
X108487001Y-8732401D01*
X269245572Y-8725678D02*
X237955039Y-8725678D01*
X274955000Y-3016250D02*
X269245572Y-8725678D01*
X237955039Y-8725678D02*
X236605012Y-7375651D01*
X131305518Y-7375650D02*
X130856878Y-6927010D01*
X236605012Y-7375651D02*
X131305518Y-7375650D01*
X130856878Y-6927010D02*
X110292392Y-6927010D01*
X102138979Y-9182411D02*
X108673402Y-9182410D01*
X97155000Y-5715000D02*
X98671568Y-5715000D01*
X98671568Y-5715000D02*
X102138979Y-9182411D01*
X108673402Y-9182410D02*
X110478792Y-7377020D01*
X130670478Y-7377020D02*
X131119118Y-7825660D01*
X110478792Y-7377020D02*
X130670478Y-7377020D01*
X236418611Y-7825660D02*
X237768639Y-9175688D01*
X131119118Y-7825660D02*
X236418611Y-7825660D01*
X271335562Y-9175688D02*
X274955000Y-5556250D01*
X237768639Y-9175688D02*
X271335562Y-9175688D01*
X109239581Y-9632419D02*
X111044970Y-7827030D01*
X97155000Y-10795000D02*
X98317581Y-9632419D01*
X98317581Y-9632419D02*
X109239581Y-9632419D01*
X130484078Y-7827030D02*
X130932718Y-8275670D01*
X111044970Y-7827030D02*
X130484078Y-7827030D01*
X236232211Y-8275670D02*
X237582239Y-9625698D01*
X130932718Y-8275670D02*
X236232211Y-8275670D01*
X273944448Y-9625698D02*
X274955000Y-10636250D01*
X237582239Y-9625698D02*
X273944448Y-9625698D01*
X98232630Y-13335000D02*
X98933000Y-12634630D01*
X97155000Y-13335000D02*
X98232630Y-13335000D01*
X99391571Y-10082429D02*
X109425982Y-10082428D01*
X98933000Y-12634630D02*
X98933000Y-10541000D01*
X98933000Y-10541000D02*
X99391571Y-10082429D01*
X109425982Y-10082428D02*
X111231370Y-8277040D01*
X111231370Y-8277040D02*
X130297678Y-8277040D01*
X130297678Y-8277040D02*
X130746318Y-8725680D01*
X130746318Y-8725680D02*
X236045811Y-8725680D01*
X236045811Y-8725680D02*
X237395839Y-10075708D01*
X271854458Y-10075708D02*
X274955000Y-13176250D01*
X237395839Y-10075708D02*
X271854458Y-10075708D01*
X274955000Y-15716250D02*
X269764468Y-10525718D01*
X269764468Y-10525718D02*
X237209438Y-10525717D01*
X237209438Y-10525717D02*
X235859411Y-9175690D01*
X235859411Y-9175690D02*
X130559917Y-9175689D01*
X130559917Y-9175689D02*
X130111278Y-8727050D01*
X111417770Y-8727050D02*
X109612381Y-10532437D01*
X130111278Y-8727050D02*
X111417770Y-8727050D01*
X97916999Y-15113001D02*
X97155000Y-15875000D01*
X99383010Y-13646990D02*
X97916999Y-15113001D01*
X99383010Y-11360990D02*
X99383010Y-13646990D01*
X100211563Y-10532437D02*
X99383010Y-11360990D01*
X109612381Y-10532437D02*
X100211563Y-10532437D01*
X53721000Y10713000D02*
X53626000Y10808000D01*
X53721000Y8255000D02*
X53721000Y10713000D01*
X74134192Y9939808D02*
X73025000Y8830616D01*
X73025000Y8830616D02*
X73025000Y3937000D01*
M02*
