G04 #@! TF.GenerationSoftware,KiCad,Pcbnew,(5.1.4)-1*
G04 #@! TF.CreationDate,2022-01-07T23:34:50-05:00*
G04 #@! TF.ProjectId,the_TOP-1,7468655f-544f-4502-9d31-2e6b69636164,rev?*
G04 #@! TF.SameCoordinates,Original*
G04 #@! TF.FileFunction,Copper,L1,Top*
G04 #@! TF.FilePolarity,Positive*
%FSLAX46Y46*%
G04 Gerber Fmt 4.6, Leading zero omitted, Abs format (unit mm)*
G04 Created by KiCad (PCBNEW (5.1.4)-1) date 2022-01-07 23:34:50*
%MOMM*%
%LPD*%
G04 APERTURE LIST*
%ADD10O,1.524000X1.524000*%
%ADD11C,1.524000*%
%ADD12O,2.800000X1.800000*%
%ADD13O,1.700000X1.700000*%
%ADD14R,1.700000X1.700000*%
%ADD15C,1.600000*%
%ADD16R,1.600000X1.600000*%
%ADD17R,1.300000X1.300000*%
%ADD18C,1.300000*%
%ADD19R,1.905000X1.905000*%
%ADD20C,1.905000*%
%ADD21C,2.000000*%
%ADD22R,2.000000X2.000000*%
%ADD23R,3.200000X2.000000*%
%ADD24R,4.498340X1.498600*%
%ADD25C,0.800000*%
%ADD26C,0.250000*%
G04 APERTURE END LIST*
D10*
X97155000Y17145000D03*
X97155000Y14605000D03*
X97155000Y12065000D03*
X97155000Y9525000D03*
X97155000Y6985000D03*
X97155000Y4445000D03*
X97155000Y1905000D03*
X97155000Y-635000D03*
X97155000Y-3175000D03*
X97155000Y-5715000D03*
X97155000Y-8255000D03*
X97155000Y-10795000D03*
X97155000Y-13335000D03*
X97155000Y-15875000D03*
X89535000Y17145000D03*
X86995000Y17145000D03*
X81915000Y-15875000D03*
X81915000Y-13335000D03*
X81915000Y-10795000D03*
X81915000Y-8255000D03*
X81915000Y-5715000D03*
X81915000Y-3175000D03*
X81915000Y-635000D03*
X81915000Y1905000D03*
X81915000Y4445000D03*
X81915000Y6985000D03*
X81915000Y9525000D03*
X81915000Y12065000D03*
X81915000Y14605000D03*
X81915000Y17145000D03*
D11*
X78105000Y5715000D03*
X78105000Y3175000D03*
X75565000Y5715000D03*
X75565000Y3175000D03*
X75565000Y635000D03*
X78105000Y635000D03*
X78105000Y-1905000D03*
X78105000Y-4445000D03*
X75565000Y-4445000D03*
X102847140Y-7645400D03*
X105427780Y-7645400D03*
X107965240Y-7645400D03*
D10*
X108839000Y12065000D03*
X108839000Y9525000D03*
X108839000Y14605000D03*
D12*
X53626000Y5308000D03*
X53626000Y10808000D03*
X55626000Y13208000D03*
D13*
X68443999Y-8762999D03*
X68443999Y-6222999D03*
X68443999Y-3682999D03*
X68443999Y-1142999D03*
X68443999Y1397001D03*
X68443999Y3937001D03*
X68443999Y6477001D03*
D14*
X68443999Y9017001D03*
D15*
X287655000Y14763750D03*
X278005800Y844550D03*
X278005800Y3384550D03*
X278005800Y5924550D03*
X278005800Y8464550D03*
D16*
X278005800Y11004550D03*
D15*
X290195000Y17303750D03*
X290195000Y14763750D03*
X290195000Y12223750D03*
X290195000Y9683750D03*
X290195000Y7143750D03*
X290195000Y4603750D03*
X290195000Y2063750D03*
X290195000Y-476250D03*
X290195000Y-3016250D03*
X290195000Y-5556250D03*
X290195000Y-8096250D03*
X290195000Y-10636250D03*
X290195000Y-13176250D03*
X290195000Y-15716250D03*
D16*
X274955000Y17303750D03*
D15*
X274955000Y14763750D03*
X274955000Y12223750D03*
X274955000Y9683750D03*
X274955000Y7143750D03*
X274955000Y4603750D03*
X274955000Y2063750D03*
X274955000Y-476250D03*
X274955000Y-3016250D03*
X274955000Y-5556250D03*
X274955000Y-8096250D03*
X274955000Y-10636250D03*
X274955000Y-13176250D03*
X290195000Y-18256250D03*
X290195000Y-20796250D03*
X290195000Y-23336250D03*
X290195000Y-25876250D03*
X290195000Y-28416250D03*
X290195000Y-30956250D03*
X290195000Y-33496250D03*
X290195000Y-36036250D03*
X290195000Y-38576250D03*
X290195000Y-41116250D03*
X274955000Y-41116250D03*
X274955000Y-38576250D03*
X274955000Y-36036250D03*
X274955000Y-33496250D03*
X274955000Y-15716250D03*
X274955000Y-18256250D03*
X274955000Y-20796250D03*
X274955000Y-30956250D03*
X274955000Y-28416250D03*
X274955000Y-25876250D03*
X274955000Y-23336250D03*
D17*
X287756600Y4333750D03*
D18*
X287756600Y2333750D03*
X285756600Y4333750D03*
X285756600Y2333750D03*
X283756600Y2333750D03*
X283756600Y4333750D03*
D15*
X277495000Y-28416250D03*
X280035000Y-28416250D03*
X282575000Y-28416250D03*
X285115000Y-28416250D03*
X287655000Y-28416250D03*
D18*
X281305000Y16573750D03*
X283845000Y16573750D03*
D19*
X71375000Y-74930000D03*
D20*
X71375000Y-77470000D03*
D21*
X62875000Y-71200000D03*
X60775000Y-76200000D03*
D19*
X253682500Y-52325000D03*
D20*
X251142500Y-52325000D03*
D21*
X257412500Y-43825000D03*
X252412500Y-41725000D03*
D19*
X239395000Y-33275000D03*
D20*
X236855000Y-33275000D03*
D21*
X243125000Y-24775000D03*
X238125000Y-22675000D03*
D19*
X225107500Y-52325000D03*
D20*
X222567500Y-52325000D03*
D21*
X228837500Y-43825000D03*
X223837500Y-41725000D03*
D19*
X196532500Y-52325000D03*
D20*
X193992500Y-52325000D03*
D21*
X200262500Y-43825000D03*
X195262500Y-41725000D03*
D19*
X201295000Y-33275000D03*
D20*
X198755000Y-33275000D03*
D21*
X205025000Y-24775000D03*
X200025000Y-22675000D03*
D19*
X148907500Y-52325000D03*
D20*
X146367500Y-52325000D03*
D21*
X152637500Y-43825000D03*
X147637500Y-41725000D03*
D19*
X120332500Y-52325000D03*
D20*
X117792500Y-52325000D03*
D21*
X124062500Y-43825000D03*
X119062500Y-41725000D03*
D19*
X63182500Y-52325000D03*
D20*
X60642500Y-52325000D03*
D21*
X66912500Y-43825000D03*
X61912500Y-41725000D03*
D19*
X67945000Y-33275000D03*
D20*
X65405000Y-33275000D03*
D21*
X71675000Y-24775000D03*
X66675000Y-22675000D03*
D19*
X91757500Y-52325000D03*
D20*
X89217500Y-52325000D03*
D21*
X95487500Y-43825000D03*
X90487500Y-41725000D03*
D19*
X15557500Y-52325000D03*
D20*
X13017500Y-52325000D03*
D21*
X19287500Y-43825000D03*
X14287500Y-41725000D03*
D22*
X240151920Y2499360D03*
D21*
X240151920Y-640D03*
X240151920Y-2500640D03*
D23*
X247651920Y5599360D03*
X247651920Y-5600640D03*
D21*
X254651920Y2499360D03*
X254651920Y-2500640D03*
D22*
X202051920Y2499360D03*
D21*
X202051920Y-640D03*
X202051920Y-2500640D03*
D23*
X209551920Y5599360D03*
X209551920Y-5600640D03*
D21*
X216551920Y2499360D03*
X216551920Y-2500640D03*
D22*
X163951920Y2499360D03*
D21*
X163951920Y-640D03*
X163951920Y-2500640D03*
D23*
X171451920Y5599360D03*
X171451920Y-5600640D03*
D21*
X178451920Y2499360D03*
X178451920Y-2500640D03*
D22*
X125851920Y2499360D03*
D21*
X125851920Y-640D03*
X125851920Y-2500640D03*
D23*
X133351920Y5599360D03*
X133351920Y-5600640D03*
D21*
X140351920Y2499360D03*
X140351920Y-2500640D03*
D22*
X21076920Y12024360D03*
D21*
X21076920Y9524360D03*
X21076920Y7024360D03*
D23*
X28576920Y15124360D03*
X28576920Y3924360D03*
D21*
X35576920Y12024360D03*
X35576920Y7024360D03*
D24*
X7749540Y998220D03*
X7749540Y-2999740D03*
X7749540Y-998220D03*
X7749540Y2999740D03*
D19*
X261875000Y-74930000D03*
D20*
X261875000Y-77470000D03*
D21*
X253375000Y-71200000D03*
X251275000Y-76200000D03*
D19*
X258445000Y-33275000D03*
D20*
X255905000Y-33275000D03*
D21*
X262175000Y-24775000D03*
X257175000Y-22675000D03*
D19*
X242825000Y-74930000D03*
D20*
X242825000Y-77470000D03*
D21*
X234325000Y-71200000D03*
X232225000Y-76200000D03*
D19*
X223775000Y-74930000D03*
D20*
X223775000Y-77470000D03*
D21*
X215275000Y-71200000D03*
X213175000Y-76200000D03*
D19*
X220345000Y-33275000D03*
D20*
X217805000Y-33275000D03*
D21*
X224075000Y-24775000D03*
X219075000Y-22675000D03*
D19*
X204725000Y-74930000D03*
D20*
X204725000Y-77470000D03*
D21*
X196225000Y-71200000D03*
X194125000Y-76200000D03*
D19*
X185675000Y-74930000D03*
D20*
X185675000Y-77470000D03*
D21*
X177175000Y-71200000D03*
X175075000Y-76200000D03*
D19*
X182245000Y-33275000D03*
D20*
X179705000Y-33275000D03*
D21*
X185975000Y-24775000D03*
X180975000Y-22675000D03*
D19*
X166625000Y-74930000D03*
D20*
X166625000Y-77470000D03*
D21*
X158125000Y-71200000D03*
X156025000Y-76200000D03*
D19*
X172720000Y-52325000D03*
D20*
X170180000Y-52325000D03*
D21*
X176450000Y-43825000D03*
X171450000Y-41725000D03*
D19*
X163195000Y-33275000D03*
D20*
X160655000Y-33275000D03*
D21*
X166925000Y-24775000D03*
X161925000Y-22675000D03*
D19*
X147575000Y-74930000D03*
D20*
X147575000Y-77470000D03*
D21*
X139075000Y-71200000D03*
X136975000Y-76200000D03*
D19*
X144145000Y-33275000D03*
D20*
X141605000Y-33275000D03*
D21*
X147875000Y-24775000D03*
X142875000Y-22675000D03*
D19*
X128525000Y-74930000D03*
D20*
X128525000Y-77470000D03*
D21*
X120025000Y-71200000D03*
X117925000Y-76200000D03*
D19*
X125095000Y-33275000D03*
D20*
X122555000Y-33275000D03*
D21*
X128825000Y-24775000D03*
X123825000Y-22675000D03*
D19*
X109475000Y-74930000D03*
D20*
X109475000Y-77470000D03*
D21*
X100975000Y-71200000D03*
X98875000Y-76200000D03*
D19*
X106045000Y-33275000D03*
D20*
X103505000Y-33275000D03*
D21*
X109775000Y-24775000D03*
X104775000Y-22675000D03*
D19*
X90425000Y-74930000D03*
D20*
X90425000Y-77470000D03*
D21*
X81925000Y-71200000D03*
X79825000Y-76200000D03*
D19*
X86995000Y-33275000D03*
D20*
X84455000Y-33275000D03*
D21*
X90725000Y-24775000D03*
X85725000Y-22675000D03*
D19*
X52325000Y-74930000D03*
D20*
X52325000Y-77470000D03*
D21*
X43825000Y-71200000D03*
X41725000Y-76200000D03*
D19*
X48895000Y-33275000D03*
D20*
X46355000Y-33275000D03*
D21*
X52625000Y-24775000D03*
X47625000Y-22675000D03*
D19*
X48895000Y-14225000D03*
D20*
X46355000Y-14225000D03*
D21*
X52625000Y-5725000D03*
X47625000Y-3625000D03*
D19*
X33275000Y-74930000D03*
D20*
X33275000Y-77470000D03*
D21*
X24775000Y-71200000D03*
X22675000Y-76200000D03*
D19*
X39370000Y-52325000D03*
D20*
X36830000Y-52325000D03*
D21*
X43100000Y-43825000D03*
X38100000Y-41725000D03*
D19*
X29845000Y-33275000D03*
D20*
X27305000Y-33275000D03*
D21*
X33575000Y-24775000D03*
X28575000Y-22675000D03*
D19*
X29845000Y-14225000D03*
D20*
X27305000Y-14225000D03*
D21*
X33575000Y-5725000D03*
X28575000Y-3625000D03*
D19*
X14225000Y-74930000D03*
D20*
X14225000Y-77470000D03*
D21*
X5725000Y-71200000D03*
X3625000Y-76200000D03*
X9525000Y-22675000D03*
X14525000Y-24775000D03*
D20*
X8255000Y-33275000D03*
D19*
X10795000Y-33275000D03*
X-8255000Y-90425000D03*
D20*
X-10795000Y-90425000D03*
D21*
X-4525000Y-81925000D03*
X-9525000Y-79825000D03*
D19*
X-8255000Y-71375000D03*
D20*
X-10795000Y-71375000D03*
D21*
X-4525000Y-62875000D03*
X-9525000Y-60775000D03*
D19*
X-8255000Y-52325000D03*
D20*
X-10795000Y-52325000D03*
D21*
X-4525000Y-43825000D03*
X-9525000Y-41725000D03*
D19*
X-8255000Y-33275000D03*
D20*
X-10795000Y-33275000D03*
D21*
X-4525000Y-24775000D03*
X-9525000Y-22675000D03*
D25*
X269240000Y-45085000D03*
X287782000Y-46609000D03*
X266573000Y-46863000D03*
X287585884Y-47589583D03*
X266446000Y-47879000D03*
X286385000Y-47784010D03*
X288798000Y-55753000D03*
X268605000Y-77089000D03*
X15240000Y635000D03*
X262509000Y-89408000D03*
X263398000Y-88773000D03*
X269240000Y-85471000D03*
X269240000Y-83058000D03*
X269875000Y-80518000D03*
X268383000Y-78867000D03*
X267658000Y-73533000D03*
X266933000Y-71882000D03*
X266208000Y-69342000D03*
X265483000Y-65913000D03*
X264758000Y-61341000D03*
X264033000Y-59182000D03*
X262763000Y-58801000D03*
X267843000Y-22225000D03*
X268351000Y-46101000D03*
X113030294Y-11266000D03*
X269707684Y-16550316D03*
X65913000Y635001D03*
X112305294Y-5752000D03*
X113897888Y-12028000D03*
X101134067Y-17464536D03*
X98061692Y-20098010D03*
X66959226Y-19648000D03*
X66458000Y-17400284D03*
X66458000Y-2720859D03*
X66832147Y241080D03*
X64753136Y2962914D03*
X61849000Y2286000D03*
X64274314Y2085001D03*
X67183000Y-18198000D03*
X68072000Y-19648000D03*
X99060000Y-19648000D03*
X99934649Y-17638649D03*
X298043020Y-22860000D03*
X142487640Y-11700728D03*
X181610000Y-11700728D03*
X240157000Y9779000D03*
X240157000Y11811000D03*
X295275000Y-86868000D03*
X297942000Y-86868000D03*
X295402000Y-54483000D03*
X295402000Y-58801000D03*
X239268000Y7620000D03*
X238857501Y6708138D03*
X118618000Y7262989D03*
X238891539Y5708716D03*
X88523653Y-16237001D03*
X98806000Y-18198000D03*
X270863196Y-14971111D03*
X271636255Y-15605447D03*
X276225000Y-15045779D03*
X272934222Y-14720778D03*
X286510471Y-14320779D03*
X53721000Y8255000D03*
X74134192Y9939808D03*
X73025000Y3937000D03*
D26*
X269240000Y-45085000D02*
X270764000Y-46609000D01*
X270764000Y-46609000D02*
X287782000Y-46609000D01*
X270381590Y-46863000D02*
X270577600Y-47059010D01*
X266573000Y-46863000D02*
X270381590Y-46863000D01*
X270577600Y-47059010D02*
X287055311Y-47059010D01*
X287055311Y-47059010D02*
X287585884Y-47589583D01*
X266446000Y-47879000D02*
X286290010Y-47879000D01*
X286290010Y-47879000D02*
X286385000Y-47784010D01*
X288798000Y-56318685D02*
X275717000Y-69399685D01*
X288798000Y-55753000D02*
X288798000Y-56318685D01*
X275717000Y-69399685D02*
X275717000Y-76835000D01*
X275717000Y-76835000D02*
X275463000Y-77089000D01*
X275463000Y-77089000D02*
X268605000Y-77089000D01*
X13606780Y-998220D02*
X7749540Y-998220D01*
X15240000Y635000D02*
X13606780Y-998220D01*
X14552300Y2999740D02*
X21076920Y9524360D01*
X7749540Y2999740D02*
X14552300Y2999740D01*
X33076920Y9524360D02*
X35576920Y7024360D01*
X21076920Y9524360D02*
X33076920Y9524360D01*
X37569561Y9017001D02*
X68443999Y9017001D01*
X35576920Y7024360D02*
X37569561Y9017001D01*
X257714750Y17303750D02*
X274955000Y17303750D01*
X257175000Y9271000D02*
X257175000Y16764000D01*
X256293501Y8389501D02*
X257175000Y9271000D01*
X257175000Y16764000D02*
X257714750Y17303750D01*
X199905501Y731566D02*
X199905501Y8389501D01*
X200637707Y-640D02*
X199905501Y731566D01*
X202051920Y-640D02*
X200637707Y-640D01*
X238132501Y604566D02*
X238132501Y8389501D01*
X238737707Y-640D02*
X238132501Y604566D01*
X240151920Y-640D02*
X238737707Y-640D01*
X199905501Y8389501D02*
X238132501Y8389501D01*
X238132501Y8389501D02*
X256293501Y8389501D01*
X123705501Y731566D02*
X123705501Y8389501D01*
X124437707Y-640D02*
X123705501Y731566D01*
X125851920Y-640D02*
X124437707Y-640D01*
X123705501Y8389501D02*
X161282499Y8389501D01*
X162044499Y492568D02*
X162044499Y8389501D01*
X162537707Y-640D02*
X162044499Y492568D01*
X163951920Y-640D02*
X162537707Y-640D01*
X161282499Y8389501D02*
X162044499Y8389501D01*
X162044499Y8389501D02*
X199905501Y8389501D01*
X253237707Y-2500640D02*
X253198347Y-2540000D01*
X254651920Y-2500640D02*
X253237707Y-2500640D01*
X253198347Y-2540000D02*
X245364000Y-2540000D01*
X242824640Y-640D02*
X240151920Y-640D01*
X245364000Y-2540000D02*
X242824640Y-640D01*
X216551920Y-2500640D02*
X207478640Y-2500640D01*
X204978640Y-640D02*
X202051920Y-640D01*
X207478640Y-2500640D02*
X204978640Y-640D01*
X178451920Y-2500640D02*
X169251640Y-2500640D01*
X166751640Y-640D02*
X163951920Y-640D01*
X169251640Y-2500640D02*
X166751640Y-640D01*
X140351920Y-2500640D02*
X131405640Y-2500640D01*
X128905640Y-640D02*
X125851920Y-640D01*
X131405640Y-2500640D02*
X128905640Y-640D01*
X118483499Y8389501D02*
X123705501Y8389501D01*
X110871000Y16002000D02*
X118483499Y8389501D01*
X68443999Y9017001D02*
X74501683Y9017001D01*
X74501683Y9017001D02*
X81486682Y16002000D01*
X99314000Y16063630D02*
X99314000Y16002000D01*
X98232630Y17145000D02*
X99314000Y16063630D01*
X97155000Y17145000D02*
X98232630Y17145000D01*
X99314000Y16002000D02*
X110871000Y16002000D01*
X82234370Y16002000D02*
X82296000Y16002000D01*
X81915000Y15682630D02*
X82234370Y16002000D01*
X81915000Y14605000D02*
X81915000Y15682630D01*
X81486682Y16002000D02*
X82296000Y16002000D01*
X82296000Y16002000D02*
X99314000Y16002000D01*
X-5524999Y-42825001D02*
X-4525000Y-43825000D01*
X-5524999Y-25774999D02*
X-5524999Y-42825001D01*
X-4525000Y-24775000D02*
X-5524999Y-25774999D01*
X-5524999Y-61875001D02*
X-4525000Y-62875000D01*
X-5524999Y-44824999D02*
X-5524999Y-61875001D01*
X-4525000Y-43825000D02*
X-5524999Y-44824999D01*
X-5524999Y-80925001D02*
X-4525000Y-81925000D01*
X-5524999Y-63874999D02*
X-5524999Y-80925001D01*
X-4525000Y-62875000D02*
X-5524999Y-63874999D01*
X-5524999Y-86112003D02*
X-3164972Y-88472030D01*
X-4525000Y-81925000D02*
X-5524999Y-82924999D01*
X-5524999Y-82924999D02*
X-5524999Y-86112003D01*
X-3164972Y-88472030D02*
X261573030Y-88472030D01*
X261573030Y-88472030D02*
X262509000Y-89408000D01*
X18287501Y-42825001D02*
X19287500Y-43825000D01*
X13525001Y-38062501D02*
X18287501Y-42825001D01*
X13525001Y-25774999D02*
X13525001Y-38062501D01*
X14525000Y-24775000D02*
X13525001Y-25774999D01*
X6724999Y-70200001D02*
X5725000Y-71200000D01*
X18287501Y-58637499D02*
X6724999Y-70200001D01*
X18287501Y-44824999D02*
X18287501Y-58637499D01*
X19287500Y-43825000D02*
X18287501Y-44824999D01*
X263398000Y-88773000D02*
X262647020Y-88022020D01*
X5725000Y-72614213D02*
X5725000Y-71200000D01*
X5725000Y-79787002D02*
X5725000Y-72614213D01*
X13960018Y-88022020D02*
X5725000Y-79787002D01*
X262647020Y-88022020D02*
X13960018Y-88022020D01*
X32575001Y-23775001D02*
X33575000Y-24775000D01*
X32575001Y-6724999D02*
X32575001Y-23775001D01*
X33575000Y-5725000D02*
X32575001Y-6724999D01*
X25774999Y-70200001D02*
X24775000Y-71200000D01*
X42100001Y-53874999D02*
X25774999Y-70200001D01*
X42100001Y-44824999D02*
X42100001Y-53874999D01*
X43100000Y-43825000D02*
X42100001Y-44824999D01*
X42100001Y-42825001D02*
X43100000Y-43825000D01*
X32575001Y-33300001D02*
X42100001Y-42825001D01*
X32575001Y-25774999D02*
X32575001Y-33300001D01*
X33575000Y-24775000D02*
X32575001Y-25774999D01*
X265057097Y-85471000D02*
X262956087Y-87572010D01*
X269240000Y-85471000D02*
X265057097Y-85471000D01*
X24775000Y-72614213D02*
X24775000Y-71200000D01*
X24775000Y-79787002D02*
X24775000Y-72614213D01*
X32560008Y-87572010D02*
X24775000Y-79787002D01*
X262956087Y-87572010D02*
X32560008Y-87572010D01*
X51625001Y-23775001D02*
X52625000Y-24775000D01*
X51625001Y-6724999D02*
X51625001Y-23775001D01*
X52625000Y-5725000D02*
X51625001Y-6724999D01*
X52625000Y-24775000D02*
X54864000Y-27014000D01*
X54864000Y-31776500D02*
X66912500Y-43825000D01*
X54864000Y-27014000D02*
X54864000Y-31776500D01*
X44824999Y-70200001D02*
X43825000Y-71200000D01*
X45600001Y-69424999D02*
X44824999Y-70200001D01*
X48572503Y-69424999D02*
X45600001Y-69424999D01*
X64460001Y-53537501D02*
X48572503Y-69424999D01*
X64460001Y-46277499D02*
X64460001Y-53537501D01*
X66912500Y-43825000D02*
X64460001Y-46277499D01*
X266833687Y-83058000D02*
X262769687Y-87122000D01*
X269240000Y-83058000D02*
X266833687Y-83058000D01*
X43825000Y-72614213D02*
X43825000Y-71200000D01*
X43825000Y-79787002D02*
X43825000Y-72614213D01*
X51159998Y-87122000D02*
X43825000Y-79787002D01*
X262769687Y-87122000D02*
X51159998Y-87122000D01*
X71675000Y-24775000D02*
X73450001Y-26550001D01*
X63874999Y-70200001D02*
X62875000Y-71200000D01*
X64650001Y-69424999D02*
X63874999Y-70200001D01*
X67287001Y-69424999D02*
X64650001Y-69424999D01*
X73450001Y-63261999D02*
X67287001Y-69424999D01*
X73450001Y-26550001D02*
X73450001Y-63261999D01*
X268737278Y-80518000D02*
X269875000Y-80518000D01*
X262597203Y-86658073D02*
X268737278Y-80518000D01*
X69746072Y-86658074D02*
X262597203Y-86658073D01*
X62875000Y-71200000D02*
X62875000Y-79787002D01*
X62875000Y-79787002D02*
X69746072Y-86658074D01*
X95487500Y-29537500D02*
X95487500Y-43825000D01*
X90725000Y-24775000D02*
X95487500Y-29537500D01*
X82924999Y-70200001D02*
X81925000Y-71200000D01*
X97262501Y-55862499D02*
X82924999Y-70200001D01*
X97262501Y-45600001D02*
X97262501Y-55862499D01*
X95487500Y-43825000D02*
X97262501Y-45600001D01*
X83250001Y-72525001D02*
X93076589Y-72525001D01*
X81925000Y-71200000D02*
X83250001Y-72525001D01*
X93076589Y-72525001D02*
X106759653Y-86208065D01*
X106759653Y-86208065D02*
X262410804Y-86208064D01*
X262410804Y-86208064D02*
X268383000Y-80235868D01*
X268383000Y-80235868D02*
X268383000Y-78867000D01*
X124062500Y-42410787D02*
X124062500Y-43825000D01*
X124062500Y-40476713D02*
X124062500Y-42410787D01*
X109775000Y-26189213D02*
X124062500Y-40476713D01*
X109775000Y-24775000D02*
X109775000Y-26189213D01*
X101974999Y-70200001D02*
X100975000Y-71200000D01*
X102750001Y-69424999D02*
X101974999Y-70200001D01*
X105722503Y-69424999D02*
X102750001Y-69424999D01*
X125837501Y-49310001D02*
X105722503Y-69424999D01*
X125837501Y-45600001D02*
X125837501Y-49310001D01*
X124062500Y-43825000D02*
X125837501Y-45600001D01*
X267658000Y-80324460D02*
X262224403Y-85758055D01*
X267658000Y-73533000D02*
X267658000Y-80324460D01*
X100975000Y-72614213D02*
X100975000Y-71200000D01*
X100975000Y-79787002D02*
X100975000Y-72614213D01*
X106946053Y-85758055D02*
X100975000Y-79787002D01*
X262224403Y-85758055D02*
X106946053Y-85758055D01*
X121024999Y-70200001D02*
X120025000Y-71200000D01*
X130600001Y-60624999D02*
X121024999Y-70200001D01*
X130600001Y-26550001D02*
X130600001Y-60624999D01*
X128825000Y-24775000D02*
X130600001Y-26550001D01*
X121536401Y-72711401D02*
X135752991Y-72711401D01*
X120025000Y-71200000D02*
X121536401Y-72711401D01*
X135752991Y-72711401D02*
X148349637Y-85308047D01*
X148349637Y-85308047D02*
X262038004Y-85308046D01*
X262038004Y-85308046D02*
X266933000Y-80413050D01*
X266933000Y-80413050D02*
X266933000Y-71882000D01*
X152637500Y-29537500D02*
X152637500Y-43825000D01*
X147875000Y-24775000D02*
X152637500Y-29537500D01*
X140074999Y-70200001D02*
X139075000Y-71200000D01*
X154412501Y-55862499D02*
X140074999Y-70200001D01*
X154412501Y-45600001D02*
X154412501Y-55862499D01*
X152637500Y-43825000D02*
X154412501Y-45600001D01*
X140400001Y-76722003D02*
X148536036Y-84858038D01*
X139075000Y-71200000D02*
X140400001Y-72525001D01*
X140400001Y-72525001D02*
X140400001Y-76722003D01*
X266208000Y-80501640D02*
X266208000Y-69342000D01*
X148536036Y-84858038D02*
X261851603Y-84858037D01*
X261851603Y-84858037D02*
X266208000Y-80501640D01*
X175450001Y-42825001D02*
X176450000Y-43825000D01*
X165925001Y-33300001D02*
X175450001Y-42825001D01*
X165925001Y-25774999D02*
X165925001Y-33300001D01*
X166925000Y-24775000D02*
X165925001Y-25774999D01*
X159124999Y-70200001D02*
X158125000Y-71200000D01*
X178225001Y-51099999D02*
X159124999Y-70200001D01*
X178225001Y-45600001D02*
X178225001Y-51099999D01*
X176450000Y-43825000D02*
X178225001Y-45600001D01*
X265483000Y-80590230D02*
X261665202Y-84408028D01*
X265483000Y-65913000D02*
X265483000Y-80590230D01*
X158125000Y-72614213D02*
X158125000Y-71200000D01*
X158125000Y-79787002D02*
X158125000Y-72614213D01*
X162746026Y-84408028D02*
X158125000Y-79787002D01*
X261665202Y-84408028D02*
X162746026Y-84408028D01*
X178174999Y-70200001D02*
X177175000Y-71200000D01*
X187750001Y-60624999D02*
X178174999Y-70200001D01*
X187750001Y-26550001D02*
X187750001Y-60624999D01*
X185975000Y-24775000D02*
X187750001Y-26550001D01*
X264758000Y-80678820D02*
X261478802Y-83958018D01*
X264758000Y-61341000D02*
X264758000Y-80678820D01*
X177175000Y-72614213D02*
X177175000Y-71200000D01*
X177175000Y-79787002D02*
X177175000Y-72614213D01*
X181346016Y-83958018D02*
X177175000Y-79787002D01*
X261478802Y-83958018D02*
X181346016Y-83958018D01*
X197224999Y-70200001D02*
X196225000Y-71200000D01*
X199262501Y-68162499D02*
X197224999Y-70200001D01*
X199262501Y-44824999D02*
X199262501Y-68162499D01*
X200262500Y-43825000D02*
X199262501Y-44824999D01*
X197550001Y-72525001D02*
X207376589Y-72525001D01*
X196225000Y-71200000D02*
X197550001Y-72525001D01*
X207376589Y-72525001D02*
X218359598Y-83508010D01*
X218359598Y-83508010D02*
X261292403Y-83508009D01*
X261292403Y-83508009D02*
X264033000Y-80767412D01*
X264033000Y-80767412D02*
X264033000Y-59182000D01*
X201262499Y-42825001D02*
X200262500Y-43825000D01*
X202572501Y-41514999D02*
X201262499Y-42825001D01*
X202572501Y-25813286D02*
X202572501Y-41514999D01*
X203610787Y-24775000D02*
X202572501Y-25813286D01*
X205025000Y-24775000D02*
X203610787Y-24775000D01*
X216274999Y-70200001D02*
X215275000Y-71200000D01*
X227837501Y-58637499D02*
X216274999Y-70200001D01*
X227837501Y-44824999D02*
X227837501Y-58637499D01*
X228837500Y-43825000D02*
X227837501Y-44824999D01*
X215275000Y-79787002D02*
X218545998Y-83058000D01*
X215275000Y-71200000D02*
X215275000Y-79787002D01*
X263152501Y-59190501D02*
X262763000Y-58801000D01*
X263152501Y-81011501D02*
X263152501Y-59190501D01*
X218545998Y-83058000D02*
X261106002Y-83058000D01*
X261106002Y-83058000D02*
X263152501Y-81011501D01*
X225074999Y-23775001D02*
X228118001Y-23775001D01*
X224075000Y-24775000D02*
X225074999Y-23775001D01*
X228837500Y-24494500D02*
X228837500Y-43825000D01*
X228118001Y-23775001D02*
X228837500Y-24494500D01*
X235324999Y-70200001D02*
X234325000Y-71200000D01*
X244900001Y-60624999D02*
X235324999Y-70200001D01*
X244900001Y-26550001D02*
X244900001Y-60624999D01*
X243125000Y-24775000D02*
X244900001Y-26550001D01*
X243125000Y-24775000D02*
X244151000Y-23749000D01*
X244151000Y-23749000D02*
X244151000Y-21533000D01*
X244151000Y-21533000D02*
X244602000Y-21082000D01*
X244602000Y-21082000D02*
X266700000Y-21082000D01*
X266700000Y-21082000D02*
X267843000Y-22225000D01*
X258412499Y-42825001D02*
X257412500Y-43825000D01*
X261175001Y-40062499D02*
X258412499Y-42825001D01*
X261175001Y-25774999D02*
X261175001Y-40062499D01*
X262175000Y-24775000D02*
X261175001Y-25774999D01*
X254374999Y-70200001D02*
X253375000Y-71200000D01*
X255016000Y-69559000D02*
X254374999Y-70200001D01*
X255016000Y-46221500D02*
X255016000Y-69559000D01*
X257412500Y-43825000D02*
X255016000Y-46221500D01*
X262175000Y-24775000D02*
X268351000Y-30951000D01*
X268351000Y-30951000D02*
X268351000Y-46101000D01*
X68069996Y32002D02*
X69817998Y32002D01*
X66741997Y1360001D02*
X68069996Y32002D01*
X10610491Y1360001D02*
X66741997Y1360001D01*
X7749540Y998220D02*
X10248710Y998220D01*
X10248710Y998220D02*
X10610491Y1360001D01*
X113030294Y-2983852D02*
X113030294Y-11266000D01*
X108141561Y1904881D02*
X113030294Y-2983852D01*
X70302001Y-452001D02*
X80489237Y-452001D01*
X69817998Y32002D02*
X70302001Y-452001D01*
X80489237Y-452001D02*
X81759237Y817999D01*
X81759237Y817999D02*
X104060437Y817999D01*
X104060437Y817999D02*
X105147319Y1904881D01*
X105147319Y1904881D02*
X108141561Y1904881D01*
X269707684Y-16550316D02*
X273685000Y-20527632D01*
X273823630Y-20796250D02*
X274955000Y-20796250D01*
X273685000Y-20657620D02*
X273823630Y-20796250D01*
X273685000Y-20527632D02*
X273685000Y-20657620D01*
X12678262Y-2999740D02*
X16313002Y635000D01*
X7749540Y-2999740D02*
X12678262Y-2999740D01*
X16313002Y635000D02*
X65912999Y635000D01*
X65912999Y635000D02*
X65913000Y635001D01*
X112719292Y-12028000D02*
X113897888Y-12028000D01*
X112305294Y-5752000D02*
X112305294Y-11614002D01*
X112305294Y-11614002D02*
X112719292Y-12028000D01*
X98336683Y-20373001D02*
X98061692Y-20098010D01*
X99535855Y-20373001D02*
X98336683Y-20373001D01*
X101134067Y-17464536D02*
X101134067Y-18774789D01*
X101134067Y-18774789D02*
X99535855Y-20373001D01*
X66959226Y-19648000D02*
X66458000Y-19146774D01*
X66458000Y-19146774D02*
X66458000Y-17400284D01*
X66458000Y-2720859D02*
X66458000Y-133067D01*
X66458000Y-133067D02*
X66832147Y241080D01*
X61304001Y3011001D02*
X60103011Y1810011D01*
X62197001Y3011001D02*
X61304001Y3011001D01*
X64753136Y2962914D02*
X62245088Y2962914D01*
X62245088Y2962914D02*
X62197001Y3011001D01*
X60103011Y1810011D02*
X21557989Y1810011D01*
X21076920Y2291080D02*
X21076920Y7024360D01*
X21557989Y1810011D02*
X21076920Y2291080D01*
X61849000Y2286000D02*
X64073315Y2286000D01*
X64073315Y2286000D02*
X64274314Y2085001D01*
X67183000Y-18198000D02*
X67183000Y-18759000D01*
X67183000Y-18759000D02*
X68072000Y-19648000D01*
X99060000Y-19648000D02*
X99934649Y-18773351D01*
X99934649Y-18773351D02*
X99934649Y-17638649D01*
X298043020Y-22860000D02*
X298043020Y-23774980D01*
X295941750Y-25876250D02*
X290195000Y-25876250D01*
X298043020Y-23774980D02*
X295941750Y-25876250D01*
X142553470Y-11634898D02*
X142487640Y-11700728D01*
X140351920Y2499360D02*
X142553470Y297810D01*
X142553470Y297810D02*
X142553470Y-11634898D01*
X179866133Y2499360D02*
X180086000Y2279493D01*
X178451920Y2499360D02*
X179866133Y2499360D01*
X180086000Y2279493D02*
X180086000Y-11049000D01*
X180086000Y-11049000D02*
X180737728Y-11700728D01*
X180737728Y-11700728D02*
X181610000Y-11700728D01*
X240157000Y9779000D02*
X240157000Y11811000D01*
X295275000Y-86868000D02*
X297942000Y-86868000D01*
X295402000Y-54483000D02*
X295402000Y-58801000D01*
X289395001Y8883751D02*
X290195000Y9683750D01*
X287850799Y7339549D02*
X289395001Y8883751D01*
X277465799Y7339549D02*
X287850799Y7339549D01*
X274414999Y8268751D02*
X276536597Y8268751D01*
X273766248Y7620000D02*
X274414999Y8268751D01*
X276536597Y8268751D02*
X277465799Y7339549D01*
X239268000Y7620000D02*
X273766248Y7620000D01*
X290195000Y4603750D02*
X287909211Y6889539D01*
X274414999Y6018749D02*
X273263758Y7169990D01*
X276175251Y6018749D02*
X274414999Y6018749D01*
X277394451Y4799549D02*
X276175251Y6018749D01*
X278545801Y4799549D02*
X277394451Y4799549D01*
X287909211Y6889539D02*
X280635791Y6889539D01*
X280635791Y6889539D02*
X278545801Y4799549D01*
X239429140Y6708138D02*
X238857501Y6708138D01*
X273263758Y7169990D02*
X239890992Y7169990D01*
X239890992Y7169990D02*
X239429140Y6708138D01*
X83002001Y2992001D02*
X83002001Y3923239D01*
X81915000Y1905000D02*
X83002001Y2992001D01*
X83002001Y3923239D02*
X83002001Y5278001D01*
X83002001Y5278001D02*
X83439000Y5715000D01*
X97493762Y5715000D02*
X99779762Y8001000D01*
X83439000Y5715000D02*
X97493762Y5715000D01*
X99779762Y8001000D02*
X117879989Y8001000D01*
X117879989Y8001000D02*
X118618000Y7262989D01*
X239466127Y6108715D02*
X240077392Y6719980D01*
X238891539Y5708716D02*
X239291538Y6108715D01*
X239291538Y6108715D02*
X239466127Y6108715D01*
X240077392Y6719980D02*
X243216020Y6719980D01*
X249511921Y4274359D02*
X251460000Y6222438D01*
X243216020Y6719980D02*
X245661641Y4274359D01*
X245661641Y4274359D02*
X249511921Y4274359D01*
X289395001Y1263751D02*
X290195000Y2063750D01*
X283383597Y1263751D02*
X289395001Y1263751D01*
X282677797Y1969551D02*
X283383597Y1263751D01*
X277755797Y1969551D02*
X282677797Y1969551D01*
X274414999Y3478749D02*
X276246599Y3478749D01*
X276246599Y3478749D02*
X277755797Y1969551D01*
X271671310Y6222438D02*
X274414999Y3478749D01*
X251460000Y6222438D02*
X271671310Y6222438D01*
X89262001Y-16237001D02*
X91059000Y-18034000D01*
X88523653Y-16237001D02*
X89262001Y-16237001D01*
X91059000Y-18034000D02*
X91223000Y-18198000D01*
X91223000Y-18198000D02*
X98806000Y-18198000D01*
X287235472Y-14668780D02*
X287235472Y-1739472D01*
X282523001Y-19381251D02*
X287235472Y-14668780D01*
X274339057Y-19381251D02*
X282523001Y-19381251D01*
X288498694Y-476250D02*
X290195000Y-476250D01*
X287235472Y-1739472D02*
X288498694Y-476250D01*
X270863196Y-15905390D02*
X274339057Y-19381251D01*
X270863196Y-14971111D02*
X270863196Y-15905390D01*
X81153001Y-1396999D02*
X81915000Y-635000D01*
X80827999Y-1722001D02*
X81153001Y-1396999D01*
X80827999Y-3330763D02*
X80827999Y-1722001D01*
X77085764Y-7072998D02*
X80827999Y-3330763D01*
X69293998Y-7072998D02*
X77085764Y-7072998D01*
X68443999Y-6222999D02*
X69293998Y-7072998D01*
X276225000Y-16111252D02*
X276225000Y-15045779D01*
X275495001Y-16841251D02*
X276225000Y-16111252D01*
X271636255Y-15605447D02*
X272872059Y-16841251D01*
X272872059Y-16841251D02*
X275495001Y-16841251D01*
X81153001Y-3936999D02*
X81915000Y-3175000D01*
X75477002Y-9612998D02*
X81153001Y-3936999D01*
X69293998Y-9612998D02*
X75477002Y-9612998D01*
X68443999Y-8762999D02*
X69293998Y-9612998D01*
X273334221Y-14320779D02*
X286510471Y-14320779D01*
X272934222Y-14720778D02*
X273334221Y-14320779D01*
X55276000Y5308000D02*
X53626000Y5308000D01*
X55471998Y5112002D02*
X55276000Y5308000D01*
X72923000Y5112002D02*
X55471998Y5112002D01*
X73773001Y4262001D02*
X72923000Y5112002D01*
X77017999Y4262001D02*
X73773001Y4262001D01*
X78105000Y3175000D02*
X77017999Y4262001D01*
X54323998Y7652002D02*
X53721000Y8255000D01*
X78105000Y5715000D02*
X76167998Y7652002D01*
X76167998Y7652002D02*
X54323998Y7652002D01*
X55626000Y13208000D02*
X70866000Y13208000D01*
X70866000Y13208000D02*
X74134192Y9939808D01*
X73787000Y3175000D02*
X75565000Y3175000D01*
X73025000Y3937000D02*
X73787000Y3175000D01*
M02*
