G04 #@! TF.GenerationSoftware,KiCad,Pcbnew,(5.1.4)-1*
G04 #@! TF.CreationDate,2022-01-07T23:34:50-05:00*
G04 #@! TF.ProjectId,the_TOP-1,7468655f-544f-4502-9d31-2e6b69636164,rev?*
G04 #@! TF.SameCoordinates,Original*
G04 #@! TF.FileFunction,Paste,Bot*
G04 #@! TF.FilePolarity,Positive*
%FSLAX46Y46*%
G04 Gerber Fmt 4.6, Leading zero omitted, Abs format (unit mm)*
G04 Created by KiCad (PCBNEW (5.1.4)-1) date 2022-01-07 23:34:50*
%MOMM*%
%LPD*%
G04 APERTURE LIST*
%ADD10R,1.200000X0.900000*%
G04 APERTURE END LIST*
D10*
X265557000Y-74550000D03*
X265557000Y-77850000D03*
X260985000Y-46102000D03*
X260985000Y-49402000D03*
X265557000Y-26925000D03*
X265557000Y-30225000D03*
X246507000Y-74550000D03*
X246507000Y-77850000D03*
X246507000Y-26925000D03*
X246507000Y-30225000D03*
X227457000Y-74550000D03*
X227457000Y-77850000D03*
X227457000Y-27052000D03*
X227457000Y-30352000D03*
X208407000Y-74677000D03*
X208407000Y-77977000D03*
X203708000Y-45975000D03*
X203708000Y-49275000D03*
X208407000Y-26925000D03*
X208407000Y-30225000D03*
X189357000Y-74550000D03*
X189357000Y-77850000D03*
X232283000Y-46102000D03*
X232283000Y-49402000D03*
X189357000Y-27052000D03*
X189357000Y-30352000D03*
X170307000Y-74550000D03*
X170307000Y-77850000D03*
X179832000Y-46102000D03*
X179832000Y-49402000D03*
X170307000Y-27052000D03*
X170307000Y-30352000D03*
X151257000Y-74550000D03*
X151257000Y-77850000D03*
X151257000Y-26925000D03*
X151257000Y-30225000D03*
X132207000Y-74550000D03*
X132207000Y-77850000D03*
X156083000Y-45975000D03*
X156083000Y-49275000D03*
X132207000Y-27052000D03*
X132207000Y-30352000D03*
X113157000Y-74550000D03*
X113157000Y-77850000D03*
X127381000Y-46102000D03*
X127381000Y-49402000D03*
X113157000Y-27052000D03*
X113157000Y-30352000D03*
X94107000Y-74550000D03*
X94107000Y-77850000D03*
X98806000Y-46102000D03*
X98806000Y-49402000D03*
X94107000Y-26925000D03*
X94107000Y-30225000D03*
X75057000Y-74550000D03*
X75057000Y-77850000D03*
X75057000Y-26925000D03*
X75057000Y-30225000D03*
X56007000Y-74550000D03*
X56007000Y-77850000D03*
X70358000Y-45848000D03*
X70358000Y-49148000D03*
X56007000Y-26925000D03*
X56007000Y-30225000D03*
X56007000Y-7875000D03*
X56007000Y-11175000D03*
X36957000Y-74550000D03*
X36957000Y-77850000D03*
X46355000Y-45975000D03*
X46355000Y-49275000D03*
X36957000Y-26925000D03*
X36957000Y-30225000D03*
X36957000Y-7875000D03*
X36957000Y-11175000D03*
X17907000Y-74550000D03*
X17907000Y-77850000D03*
X22606000Y-46102000D03*
X22606000Y-49402000D03*
X17780000Y-26925000D03*
X17780000Y-30225000D03*
X-1143000Y-84075000D03*
X-1143000Y-87375000D03*
X-1143000Y-65025000D03*
X-1143000Y-68325000D03*
X-1143000Y-45975000D03*
X-1143000Y-49275000D03*
X-1143000Y-26925000D03*
X-1143000Y-30225000D03*
M02*
