M48
; DRILL file {KiCad (5.1.4)-1} date 1/7/2022 11:35:42 PM
; FORMAT={-:-/ absolute / metric / decimal}
; #@! TF.CreationDate,2022-01-07T23:35:42-05:00
; #@! TF.GenerationSoftware,Kicad,Pcbnew,(5.1.4)-1
; #@! TF.FileFunction,NonPlated,1,2,NPTH
FMAT,2
METRIC
T1C1.200
T2C1.500
T3C1.800
T4C1.900
T5C1.999
T6C3.400
%
G90
G05
T1
X23.355Y-32.775
X32.775Y-81.42
X232.905Y-32.775
X85.267Y-51.825
X61.455Y-32.775
X213.855Y-32.775
X118.605Y-32.775
X242.325Y-81.42
X166.125Y-81.42
X13.725Y-81.42
X185.175Y-81.42
X80.505Y-32.775
X42.405Y-13.725
X190.042Y-51.825
X23.355Y-13.725
X166.23Y-51.825
X261.375Y-81.42
X56.692Y-51.825
X70.875Y-81.42
X-14.745Y-51.825
X204.225Y-81.42
X156.705Y-32.775
X223.275Y-81.42
X128.025Y-81.42
X-14.745Y-70.875
X51.825Y-81.42
X32.88Y-51.825
X194.805Y-32.775
X99.555Y-32.775
X247.192Y-51.825
X137.655Y-32.775
X175.755Y-32.775
X142.417Y-51.825
X9.067Y-51.825
X147.075Y-81.42
X218.617Y-51.825
X4.305Y-32.775
X113.843Y-51.825
X108.975Y-81.42
X-14.745Y-89.925
X251.955Y-32.775
X89.925Y-81.42
X-14.745Y-32.775
X42.405Y-32.775
T2
X280.15Y-90.026
X285.0Y-90.026
T3
X279.85Y-93.056
X285.3Y-93.056
T4
X23.075Y-28.575
X34.075Y-28.575
X28.575Y-70.7
X28.575Y-81.7
X232.625Y-28.575
X243.625Y-28.575
X84.987Y-47.625
X95.987Y-47.625
X61.175Y-28.575
X72.175Y-28.575
X213.575Y-28.575
X224.575Y-28.575
X118.325Y-28.575
X129.325Y-28.575
X238.125Y-70.7
X238.125Y-81.7
X161.925Y-70.7
X161.925Y-81.7
X9.525Y-70.7
X9.525Y-81.7
X180.975Y-70.7
X180.975Y-81.7
X80.225Y-28.575
X91.225Y-28.575
X42.125Y-9.525
X53.125Y-9.525
X189.762Y-47.625
X200.762Y-47.625
X23.075Y-9.525
X34.075Y-9.525
X165.95Y-47.625
X176.95Y-47.625
X257.175Y-70.7
X257.175Y-81.7
X56.412Y-47.625
X67.412Y-47.625
X66.675Y-70.7
X66.675Y-81.7
X-15.025Y-47.625
X-4.025Y-47.625
X200.025Y-70.7
X200.025Y-81.7
X156.425Y-28.575
X167.425Y-28.575
X219.075Y-70.7
X219.075Y-81.7
X123.825Y-70.7
X123.825Y-81.7
X-15.025Y-66.675
X-4.025Y-66.675
X47.625Y-70.7
X47.625Y-81.7
X32.6Y-47.625
X43.6Y-47.625
X194.525Y-28.575
X205.525Y-28.575
X99.275Y-28.575
X110.275Y-28.575
X246.912Y-47.625
X257.912Y-47.625
X137.375Y-28.575
X148.375Y-28.575
X175.475Y-28.575
X186.475Y-28.575
X142.137Y-47.625
X153.137Y-47.625
X8.787Y-47.625
X19.787Y-47.625
X142.875Y-70.7
X142.875Y-81.7
X218.337Y-47.625
X229.337Y-47.625
X4.025Y-28.575
X15.025Y-28.575
X113.562Y-47.625
X124.562Y-47.625
X104.775Y-70.7
X104.775Y-81.7
X-15.025Y-85.725
X-4.025Y-85.725
X251.675Y-28.575
X262.675Y-28.575
X85.725Y-70.7
X85.725Y-81.7
X-15.025Y-28.575
X-4.025Y-28.575
X42.125Y-28.575
X53.125Y-28.575
T5
X-10.058Y7.374
X8.984Y8.89
T6
X90.487Y-47.625
X66.675Y-28.575
X219.075Y-28.575
X123.825Y-28.575
X238.125Y-76.2
X161.925Y-76.2
X9.525Y-76.2
X180.975Y-76.2
X85.725Y-28.575
X47.625Y-9.525
X195.262Y-47.625
X28.575Y-9.525
X171.45Y-47.625
X257.175Y-76.2
X61.912Y-47.625
X66.675Y-76.2
X-9.525Y-47.625
X200.025Y-76.2
X161.925Y-28.575
X219.075Y-76.2
X123.825Y-76.2
X-9.525Y-66.675
X47.625Y-76.2
X38.1Y-47.625
X200.025Y-28.575
X104.775Y-28.575
X252.412Y-47.625
X142.875Y-28.575
X180.975Y-28.575
X147.637Y-47.625
X14.287Y-47.625
X142.875Y-76.2
X223.837Y-47.625
X9.525Y-28.575
X119.062Y-47.625
X104.775Y-76.2
X-9.525Y-85.725
X257.175Y-28.575
X85.725Y-76.2
X-9.525Y-28.575
X47.625Y-28.575
X28.575Y-28.575
X28.575Y-76.2
X238.125Y-28.575
T0
M30
