%FSLAX45Y45*%
G04 Gerber Fmt 4.5, Leading zero omitted, Abs format (unit mm)*
G04 Created by KiCad (PCBNEW (5.1.4)-1) date 2022-01-07 23:36:08*
%MOMM*%
%LPD*%
G04 APERTURE LIST*
%ADD10C,0.200000*%
%ADD11C,0.050000*%
%ADD12C,0.300000*%
G04 APERTURE END LIST*
D10*
X6435287Y-9286850D02*
G75*
G03X6435287Y-9286850I-125000J0D01*
G01*
X14412475Y-9286850D02*
G75*
G03X14412475Y-9286850I-125000J0D01*
G01*
X22389662Y-9286850D02*
G75*
G03X22389662Y-9286850I-125000J0D01*
G01*
X30366850Y-3809975D02*
G75*
G03X30366850Y-3809975I-125000J0D01*
G01*
X30366850Y1666900D02*
G75*
G03X30366850Y1666900I-125000J0D01*
G01*
X30366850Y-9286850D02*
G75*
G03X30366850Y-9286850I-125000J0D01*
G01*
X-1541900Y1666900D02*
G75*
G03X-1541900Y1666900I-125000J0D01*
G01*
D11*
X-1905000Y1666875D02*
X-1905000Y-9286875D01*
X30241875Y1905000D02*
X-1666875Y1905000D01*
X30480000Y-9286875D02*
X30480000Y1666875D01*
X-1666875Y-9525000D02*
X30241875Y-9525000D01*
X-1666875Y-9525000D02*
G75*
G02X-1905000Y-9286875I0J238125D01*
G01*
X-1905000Y1666875D02*
G75*
G02X-1666875Y1905000I238125J0D01*
G01*
X30241875Y1905000D02*
G75*
G02X30480000Y1666875I0J-238125D01*
G01*
X30480000Y-9286875D02*
G75*
G02X30241875Y-9525000I-238125J0D01*
G01*
D10*
X2275500Y-3217500D02*
X2395500Y-3337500D01*
X2395500Y-3217500D02*
X2275500Y-3337500D01*
X3217500Y-8082000D02*
X3337500Y-8202000D01*
X3337500Y-8082000D02*
X3217500Y-8202000D01*
X23230500Y-3217500D02*
X23350500Y-3337500D01*
X23350500Y-3217500D02*
X23230500Y-3337500D01*
X8466750Y-5122500D02*
X8586750Y-5242500D01*
X8586750Y-5122500D02*
X8466750Y-5242500D01*
X6085500Y-3217500D02*
X6205500Y-3337500D01*
X6205500Y-3217500D02*
X6085500Y-3337500D01*
X21325500Y-3217500D02*
X21445500Y-3337500D01*
X21445500Y-3217500D02*
X21325500Y-3337500D01*
X11800500Y-3217500D02*
X11920500Y-3337500D01*
X11920500Y-3217500D02*
X11800500Y-3337500D01*
X24172500Y-8082000D02*
X24292500Y-8202000D01*
X24292500Y-8082000D02*
X24172500Y-8202000D01*
X16552500Y-8082000D02*
X16672500Y-8202000D01*
X16672500Y-8082000D02*
X16552500Y-8202000D01*
X1312500Y-8082000D02*
X1432500Y-8202000D01*
X1432500Y-8082000D02*
X1312500Y-8202000D01*
X18457500Y-8082000D02*
X18577500Y-8202000D01*
X18577500Y-8082000D02*
X18457500Y-8202000D01*
X7990500Y-3217500D02*
X8110500Y-3337500D01*
X8110500Y-3217500D02*
X7990500Y-3337500D01*
X4180500Y-1312500D02*
X4300500Y-1432500D01*
X4300500Y-1312500D02*
X4180500Y-1432500D01*
X18944250Y-5122500D02*
X19064250Y-5242500D01*
X19064250Y-5122500D02*
X18944250Y-5242500D01*
X2275500Y-1312500D02*
X2395500Y-1432500D01*
X2395500Y-1312500D02*
X2275500Y-1432500D01*
X16563000Y-5122500D02*
X16683000Y-5242500D01*
X16683000Y-5122500D02*
X16563000Y-5242500D01*
X26077500Y-8082000D02*
X26197500Y-8202000D01*
X26197500Y-8082000D02*
X26077500Y-8202000D01*
X5609250Y-5122500D02*
X5729250Y-5242500D01*
X5729250Y-5122500D02*
X5609250Y-5242500D01*
X7027500Y-8082000D02*
X7147500Y-8202000D01*
X7147500Y-8082000D02*
X7027500Y-8202000D01*
X-1534500Y-5122500D02*
X-1414500Y-5242500D01*
X-1414500Y-5122500D02*
X-1534500Y-5242500D01*
X20362500Y-8082000D02*
X20482500Y-8202000D01*
X20482500Y-8082000D02*
X20362500Y-8202000D01*
X15610500Y-3217500D02*
X15730500Y-3337500D01*
X15730500Y-3217500D02*
X15610500Y-3337500D01*
X22267500Y-8082000D02*
X22387500Y-8202000D01*
X22387500Y-8082000D02*
X22267500Y-8202000D01*
X12742500Y-8082000D02*
X12862500Y-8202000D01*
X12862500Y-8082000D02*
X12742500Y-8202000D01*
X-1534500Y-7027500D02*
X-1414500Y-7147500D01*
X-1414500Y-7027500D02*
X-1534500Y-7147500D01*
X5122500Y-8082000D02*
X5242500Y-8202000D01*
X5242500Y-8082000D02*
X5122500Y-8202000D01*
X3228000Y-5122500D02*
X3348000Y-5242500D01*
X3348000Y-5122500D02*
X3228000Y-5242500D01*
X19420500Y-3217500D02*
X19540500Y-3337500D01*
X19540500Y-3217500D02*
X19420500Y-3337500D01*
X9895500Y-3217500D02*
X10015500Y-3337500D01*
X10015500Y-3217500D02*
X9895500Y-3337500D01*
X24659250Y-5122500D02*
X24779250Y-5242500D01*
X24779250Y-5122500D02*
X24659250Y-5242500D01*
X13705500Y-3217500D02*
X13825500Y-3337500D01*
X13825500Y-3217500D02*
X13705500Y-3337500D01*
X17515500Y-3217500D02*
X17635500Y-3337500D01*
X17635500Y-3217500D02*
X17515500Y-3337500D01*
X14181750Y-5122500D02*
X14301750Y-5242500D01*
X14301750Y-5122500D02*
X14181750Y-5242500D01*
X846750Y-5122500D02*
X966750Y-5242500D01*
X966750Y-5122500D02*
X846750Y-5242500D01*
X14647500Y-8082000D02*
X14767500Y-8202000D01*
X14767500Y-8082000D02*
X14647500Y-8202000D01*
X21801750Y-5122500D02*
X21921750Y-5242500D01*
X21921750Y-5122500D02*
X21801750Y-5242500D01*
X370500Y-3217500D02*
X490500Y-3337500D01*
X490500Y-3217500D02*
X370500Y-3337500D01*
X11324250Y-5122500D02*
X11444250Y-5242500D01*
X11444250Y-5122500D02*
X11324250Y-5242500D01*
X10837500Y-8082000D02*
X10957500Y-8202000D01*
X10957500Y-8082000D02*
X10837500Y-8202000D01*
X-1534500Y-8932500D02*
X-1414500Y-9052500D01*
X-1414500Y-8932500D02*
X-1534500Y-9052500D01*
X25135500Y-3217500D02*
X25255500Y-3337500D01*
X25255500Y-3217500D02*
X25135500Y-3337500D01*
X8932500Y-8082000D02*
X9052500Y-8202000D01*
X9052500Y-8082000D02*
X8932500Y-8202000D01*
X-1534500Y-3217500D02*
X-1414500Y-3337500D01*
X-1414500Y-3217500D02*
X-1534500Y-3337500D01*
X4180500Y-3217500D02*
X4300500Y-3337500D01*
X4300500Y-3217500D02*
X4180500Y-3337500D01*
X28090000Y-9002625D02*
G75*
G03X28090000Y-9002625I-75000J0D01*
G01*
X28575000Y-9002625D02*
G75*
G03X28575000Y-9002625I-75000J0D01*
G01*
X27985000Y-9215625D02*
X27985000Y-9395625D01*
X27895000Y-9305625D02*
X28075000Y-9305625D01*
X28530000Y-9215625D02*
X28530000Y-9395625D01*
X28440000Y-9305625D02*
X28620000Y-9305625D01*
X2374676Y-2924676D02*
X2374676Y-2790324D01*
X2240324Y-2790324D01*
X2240324Y-2924676D01*
X2374676Y-2924676D01*
X3474676Y-2924676D02*
X3474676Y-2790324D01*
X3340324Y-2790324D01*
X3340324Y-2924676D01*
X3474676Y-2924676D01*
X2924676Y-7137176D02*
X2924676Y-7002824D01*
X2790324Y-7002824D01*
X2790324Y-7137176D01*
X2924676Y-7137176D01*
X2924676Y-8237176D02*
X2924676Y-8102824D01*
X2790324Y-8102824D01*
X2790324Y-8237176D01*
X2924676Y-8237176D01*
X23329676Y-2924676D02*
X23329676Y-2790324D01*
X23195324Y-2790324D01*
X23195324Y-2924676D01*
X23329676Y-2924676D01*
X24429676Y-2924676D02*
X24429676Y-2790324D01*
X24295324Y-2790324D01*
X24295324Y-2924676D01*
X24429676Y-2924676D01*
X8565926Y-4829676D02*
X8565926Y-4695324D01*
X8431574Y-4695324D01*
X8431574Y-4829676D01*
X8565926Y-4829676D01*
X9665926Y-4829676D02*
X9665926Y-4695324D01*
X9531574Y-4695324D01*
X9531574Y-4829676D01*
X9665926Y-4829676D01*
X6184676Y-2924676D02*
X6184676Y-2790324D01*
X6050324Y-2790324D01*
X6050324Y-2924676D01*
X6184676Y-2924676D01*
X7284676Y-2924676D02*
X7284676Y-2790324D01*
X7150324Y-2790324D01*
X7150324Y-2924676D01*
X7284676Y-2924676D01*
X21424676Y-2924676D02*
X21424676Y-2790324D01*
X21290324Y-2790324D01*
X21290324Y-2924676D01*
X21424676Y-2924676D01*
X22524676Y-2924676D02*
X22524676Y-2790324D01*
X22390324Y-2790324D01*
X22390324Y-2924676D01*
X22524676Y-2924676D01*
X11899676Y-2924676D02*
X11899676Y-2790324D01*
X11765324Y-2790324D01*
X11765324Y-2924676D01*
X11899676Y-2924676D01*
X12999676Y-2924676D02*
X12999676Y-2790324D01*
X12865324Y-2790324D01*
X12865324Y-2924676D01*
X12999676Y-2924676D01*
X23879676Y-7137176D02*
X23879676Y-7002824D01*
X23745324Y-7002824D01*
X23745324Y-7137176D01*
X23879676Y-7137176D01*
X23879676Y-8237176D02*
X23879676Y-8102824D01*
X23745324Y-8102824D01*
X23745324Y-8237176D01*
X23879676Y-8237176D01*
X16259676Y-7137176D02*
X16259676Y-7002824D01*
X16125324Y-7002824D01*
X16125324Y-7137176D01*
X16259676Y-7137176D01*
X16259676Y-8237176D02*
X16259676Y-8102824D01*
X16125324Y-8102824D01*
X16125324Y-8237176D01*
X16259676Y-8237176D01*
X1019676Y-7137176D02*
X1019676Y-7002824D01*
X885324Y-7002824D01*
X885324Y-7137176D01*
X1019676Y-7137176D01*
X1019676Y-8237176D02*
X1019676Y-8102824D01*
X885324Y-8102824D01*
X885324Y-8237176D01*
X1019676Y-8237176D01*
X18164676Y-7137176D02*
X18164676Y-7002824D01*
X18030324Y-7002824D01*
X18030324Y-7137176D01*
X18164676Y-7137176D01*
X18164676Y-8237176D02*
X18164676Y-8102824D01*
X18030324Y-8102824D01*
X18030324Y-8237176D01*
X18164676Y-8237176D01*
X8089676Y-2924676D02*
X8089676Y-2790324D01*
X7955324Y-2790324D01*
X7955324Y-2924676D01*
X8089676Y-2924676D01*
X9189676Y-2924676D02*
X9189676Y-2790324D01*
X9055324Y-2790324D01*
X9055324Y-2924676D01*
X9189676Y-2924676D01*
X4279676Y-1019676D02*
X4279676Y-885324D01*
X4145324Y-885324D01*
X4145324Y-1019676D01*
X4279676Y-1019676D01*
X5379676Y-1019676D02*
X5379676Y-885324D01*
X5245324Y-885324D01*
X5245324Y-1019676D01*
X5379676Y-1019676D01*
X19043426Y-4829676D02*
X19043426Y-4695324D01*
X18909074Y-4695324D01*
X18909074Y-4829676D01*
X19043426Y-4829676D01*
X20143426Y-4829676D02*
X20143426Y-4695324D01*
X20009074Y-4695324D01*
X20009074Y-4829676D01*
X20143426Y-4829676D01*
X2374676Y-1019676D02*
X2374676Y-885324D01*
X2240324Y-885324D01*
X2240324Y-1019676D01*
X2374676Y-1019676D01*
X3474676Y-1019676D02*
X3474676Y-885324D01*
X3340324Y-885324D01*
X3340324Y-1019676D01*
X3474676Y-1019676D01*
X16662176Y-4829676D02*
X16662176Y-4695324D01*
X16527824Y-4695324D01*
X16527824Y-4829676D01*
X16662176Y-4829676D01*
X17762176Y-4829676D02*
X17762176Y-4695324D01*
X17627824Y-4695324D01*
X17627824Y-4829676D01*
X17762176Y-4829676D01*
X25784676Y-7137176D02*
X25784676Y-7002824D01*
X25650324Y-7002824D01*
X25650324Y-7137176D01*
X25784676Y-7137176D01*
X25784676Y-8237176D02*
X25784676Y-8102824D01*
X25650324Y-8102824D01*
X25650324Y-8237176D01*
X25784676Y-8237176D01*
X5708426Y-4829676D02*
X5708426Y-4695324D01*
X5574074Y-4695324D01*
X5574074Y-4829676D01*
X5708426Y-4829676D01*
X6808426Y-4829676D02*
X6808426Y-4695324D01*
X6674074Y-4695324D01*
X6674074Y-4829676D01*
X6808426Y-4829676D01*
X6734676Y-7137176D02*
X6734676Y-7002824D01*
X6600324Y-7002824D01*
X6600324Y-7137176D01*
X6734676Y-7137176D01*
X6734676Y-8237176D02*
X6734676Y-8102824D01*
X6600324Y-8102824D01*
X6600324Y-8237176D01*
X6734676Y-8237176D01*
X-1435324Y-4829676D02*
X-1435324Y-4695324D01*
X-1569676Y-4695324D01*
X-1569676Y-4829676D01*
X-1435324Y-4829676D01*
X-335324Y-4829676D02*
X-335324Y-4695324D01*
X-469676Y-4695324D01*
X-469676Y-4829676D01*
X-335324Y-4829676D01*
X20069676Y-7137176D02*
X20069676Y-7002824D01*
X19935324Y-7002824D01*
X19935324Y-7137176D01*
X20069676Y-7137176D01*
X20069676Y-8237176D02*
X20069676Y-8102824D01*
X19935324Y-8102824D01*
X19935324Y-8237176D01*
X20069676Y-8237176D01*
X15709676Y-2924676D02*
X15709676Y-2790324D01*
X15575324Y-2790324D01*
X15575324Y-2924676D01*
X15709676Y-2924676D01*
X16809676Y-2924676D02*
X16809676Y-2790324D01*
X16675324Y-2790324D01*
X16675324Y-2924676D01*
X16809676Y-2924676D01*
X21974676Y-7137176D02*
X21974676Y-7002824D01*
X21840324Y-7002824D01*
X21840324Y-7137176D01*
X21974676Y-7137176D01*
X21974676Y-8237176D02*
X21974676Y-8102824D01*
X21840324Y-8102824D01*
X21840324Y-8237176D01*
X21974676Y-8237176D01*
X12449676Y-7137176D02*
X12449676Y-7002824D01*
X12315324Y-7002824D01*
X12315324Y-7137176D01*
X12449676Y-7137176D01*
X12449676Y-8237176D02*
X12449676Y-8102824D01*
X12315324Y-8102824D01*
X12315324Y-8237176D01*
X12449676Y-8237176D01*
X-1435324Y-6734676D02*
X-1435324Y-6600324D01*
X-1569676Y-6600324D01*
X-1569676Y-6734676D01*
X-1435324Y-6734676D01*
X-335324Y-6734676D02*
X-335324Y-6600324D01*
X-469676Y-6600324D01*
X-469676Y-6734676D01*
X-335324Y-6734676D01*
X4829676Y-7137176D02*
X4829676Y-7002824D01*
X4695324Y-7002824D01*
X4695324Y-7137176D01*
X4829676Y-7137176D01*
X4829676Y-8237176D02*
X4829676Y-8102824D01*
X4695324Y-8102824D01*
X4695324Y-8237176D01*
X4829676Y-8237176D01*
X3327176Y-4829676D02*
X3327176Y-4695324D01*
X3192824Y-4695324D01*
X3192824Y-4829676D01*
X3327176Y-4829676D01*
X4427176Y-4829676D02*
X4427176Y-4695324D01*
X4292824Y-4695324D01*
X4292824Y-4829676D01*
X4427176Y-4829676D01*
X19519676Y-2924676D02*
X19519676Y-2790324D01*
X19385324Y-2790324D01*
X19385324Y-2924676D01*
X19519676Y-2924676D01*
X20619676Y-2924676D02*
X20619676Y-2790324D01*
X20485324Y-2790324D01*
X20485324Y-2924676D01*
X20619676Y-2924676D01*
X9994676Y-2924676D02*
X9994676Y-2790324D01*
X9860324Y-2790324D01*
X9860324Y-2924676D01*
X9994676Y-2924676D01*
X11094676Y-2924676D02*
X11094676Y-2790324D01*
X10960324Y-2790324D01*
X10960324Y-2924676D01*
X11094676Y-2924676D01*
X24758426Y-4829676D02*
X24758426Y-4695324D01*
X24624074Y-4695324D01*
X24624074Y-4829676D01*
X24758426Y-4829676D01*
X25858426Y-4829676D02*
X25858426Y-4695324D01*
X25724074Y-4695324D01*
X25724074Y-4829676D01*
X25858426Y-4829676D01*
X13804676Y-2924676D02*
X13804676Y-2790324D01*
X13670324Y-2790324D01*
X13670324Y-2924676D01*
X13804676Y-2924676D01*
X14904676Y-2924676D02*
X14904676Y-2790324D01*
X14770324Y-2790324D01*
X14770324Y-2924676D01*
X14904676Y-2924676D01*
X17614676Y-2924676D02*
X17614676Y-2790324D01*
X17480324Y-2790324D01*
X17480324Y-2924676D01*
X17614676Y-2924676D01*
X18714676Y-2924676D02*
X18714676Y-2790324D01*
X18580324Y-2790324D01*
X18580324Y-2924676D01*
X18714676Y-2924676D01*
X14280926Y-4829676D02*
X14280926Y-4695324D01*
X14146574Y-4695324D01*
X14146574Y-4829676D01*
X14280926Y-4829676D01*
X15380926Y-4829676D02*
X15380926Y-4695324D01*
X15246574Y-4695324D01*
X15246574Y-4829676D01*
X15380926Y-4829676D01*
X945926Y-4829676D02*
X945926Y-4695324D01*
X811574Y-4695324D01*
X811574Y-4829676D01*
X945926Y-4829676D01*
X2045926Y-4829676D02*
X2045926Y-4695324D01*
X1911574Y-4695324D01*
X1911574Y-4829676D01*
X2045926Y-4829676D01*
X14354676Y-7137176D02*
X14354676Y-7002824D01*
X14220324Y-7002824D01*
X14220324Y-7137176D01*
X14354676Y-7137176D01*
X14354676Y-8237176D02*
X14354676Y-8102824D01*
X14220324Y-8102824D01*
X14220324Y-8237176D01*
X14354676Y-8237176D01*
X21900926Y-4829676D02*
X21900926Y-4695324D01*
X21766574Y-4695324D01*
X21766574Y-4829676D01*
X21900926Y-4829676D01*
X23000926Y-4829676D02*
X23000926Y-4695324D01*
X22866574Y-4695324D01*
X22866574Y-4829676D01*
X23000926Y-4829676D01*
X469676Y-2924676D02*
X469676Y-2790324D01*
X335324Y-2790324D01*
X335324Y-2924676D01*
X469676Y-2924676D01*
X1569676Y-2924676D02*
X1569676Y-2790324D01*
X1435324Y-2790324D01*
X1435324Y-2924676D01*
X1569676Y-2924676D01*
X11423426Y-4829676D02*
X11423426Y-4695324D01*
X11289074Y-4695324D01*
X11289074Y-4829676D01*
X11423426Y-4829676D01*
X12523426Y-4829676D02*
X12523426Y-4695324D01*
X12389074Y-4695324D01*
X12389074Y-4829676D01*
X12523426Y-4829676D01*
X10544676Y-7137176D02*
X10544676Y-7002824D01*
X10410324Y-7002824D01*
X10410324Y-7137176D01*
X10544676Y-7137176D01*
X10544676Y-8237176D02*
X10544676Y-8102824D01*
X10410324Y-8102824D01*
X10410324Y-8237176D01*
X10544676Y-8237176D01*
X-1435324Y-8639676D02*
X-1435324Y-8505324D01*
X-1569676Y-8505324D01*
X-1569676Y-8639676D01*
X-1435324Y-8639676D01*
X-335324Y-8639676D02*
X-335324Y-8505324D01*
X-469676Y-8505324D01*
X-469676Y-8639676D01*
X-335324Y-8639676D01*
X25234676Y-2924676D02*
X25234676Y-2790324D01*
X25100324Y-2790324D01*
X25100324Y-2924676D01*
X25234676Y-2924676D01*
X26334676Y-2924676D02*
X26334676Y-2790324D01*
X26200324Y-2790324D01*
X26200324Y-2924676D01*
X26334676Y-2924676D01*
X8639676Y-7137176D02*
X8639676Y-7002824D01*
X8505324Y-7002824D01*
X8505324Y-7137176D01*
X8639676Y-7137176D01*
X8639676Y-8237176D02*
X8639676Y-8102824D01*
X8505324Y-8102824D01*
X8505324Y-8237176D01*
X8639676Y-8237176D01*
X-1435324Y-2924676D02*
X-1435324Y-2790324D01*
X-1569676Y-2790324D01*
X-1569676Y-2924676D01*
X-1435324Y-2924676D01*
X-335324Y-2924676D02*
X-335324Y-2790324D01*
X-469676Y-2790324D01*
X-469676Y-2924676D01*
X-335324Y-2924676D01*
X4279676Y-2924676D02*
X4279676Y-2790324D01*
X4145324Y-2790324D01*
X4145324Y-2924676D01*
X4279676Y-2924676D01*
X5379676Y-2924676D02*
X5379676Y-2790324D01*
X5245324Y-2790324D01*
X5245324Y-2924676D01*
X5379676Y-2924676D01*
X-1005840Y637413D02*
X-905891Y737362D01*
X-1005840Y837311D01*
X-1105789Y737362D01*
X-1005840Y637413D01*
X898398Y789051D02*
X998347Y889000D01*
X898398Y988949D01*
X798449Y889000D01*
X898398Y789051D01*
X8878750Y-4592500D02*
X9218750Y-4932500D01*
X9218750Y-4592500D02*
X8878750Y-4932500D01*
X9218750Y-4762500D02*
G75*
G03X9218750Y-4762500I-170000J0D01*
G01*
X6497500Y-2687500D02*
X6837500Y-3027500D01*
X6837500Y-2687500D02*
X6497500Y-3027500D01*
X6837500Y-2857500D02*
G75*
G03X6837500Y-2857500I-170000J0D01*
G01*
X21737500Y-2687500D02*
X22077500Y-3027500D01*
X22077500Y-2687500D02*
X21737500Y-3027500D01*
X22077500Y-2857500D02*
G75*
G03X22077500Y-2857500I-170000J0D01*
G01*
X12212500Y-2687500D02*
X12552500Y-3027500D01*
X12552500Y-2687500D02*
X12212500Y-3027500D01*
X12552500Y-2857500D02*
G75*
G03X12552500Y-2857500I-170000J0D01*
G01*
X23642500Y-7450000D02*
X23982500Y-7790000D01*
X23982500Y-7450000D02*
X23642500Y-7790000D01*
X23982500Y-7620000D02*
G75*
G03X23982500Y-7620000I-170000J0D01*
G01*
X16022500Y-7450000D02*
X16362500Y-7790000D01*
X16362500Y-7450000D02*
X16022500Y-7790000D01*
X16362500Y-7620000D02*
G75*
G03X16362500Y-7620000I-170000J0D01*
G01*
X782500Y-7450000D02*
X1122500Y-7790000D01*
X1122500Y-7450000D02*
X782500Y-7790000D01*
X1122500Y-7620000D02*
G75*
G03X1122500Y-7620000I-170000J0D01*
G01*
X17927500Y-7450000D02*
X18267500Y-7790000D01*
X18267500Y-7450000D02*
X17927500Y-7790000D01*
X18267500Y-7620000D02*
G75*
G03X18267500Y-7620000I-170000J0D01*
G01*
X8402500Y-2687500D02*
X8742500Y-3027500D01*
X8742500Y-2687500D02*
X8402500Y-3027500D01*
X8742500Y-2857500D02*
G75*
G03X8742500Y-2857500I-170000J0D01*
G01*
X4592500Y-782500D02*
X4932500Y-1122500D01*
X4932500Y-782500D02*
X4592500Y-1122500D01*
X4932500Y-952500D02*
G75*
G03X4932500Y-952500I-170000J0D01*
G01*
X19356250Y-4592500D02*
X19696250Y-4932500D01*
X19696250Y-4592500D02*
X19356250Y-4932500D01*
X19696250Y-4762500D02*
G75*
G03X19696250Y-4762500I-170000J0D01*
G01*
X2687500Y-782500D02*
X3027500Y-1122500D01*
X3027500Y-782500D02*
X2687500Y-1122500D01*
X3027500Y-952500D02*
G75*
G03X3027500Y-952500I-170000J0D01*
G01*
X16975000Y-4592500D02*
X17315000Y-4932500D01*
X17315000Y-4592500D02*
X16975000Y-4932500D01*
X17315000Y-4762500D02*
G75*
G03X17315000Y-4762500I-170000J0D01*
G01*
X25547500Y-7450000D02*
X25887500Y-7790000D01*
X25887500Y-7450000D02*
X25547500Y-7790000D01*
X25887500Y-7620000D02*
G75*
G03X25887500Y-7620000I-170000J0D01*
G01*
X6021250Y-4592500D02*
X6361250Y-4932500D01*
X6361250Y-4592500D02*
X6021250Y-4932500D01*
X6361250Y-4762500D02*
G75*
G03X6361250Y-4762500I-170000J0D01*
G01*
X6497500Y-7450000D02*
X6837500Y-7790000D01*
X6837500Y-7450000D02*
X6497500Y-7790000D01*
X6837500Y-7620000D02*
G75*
G03X6837500Y-7620000I-170000J0D01*
G01*
X-1122500Y-4592500D02*
X-782500Y-4932500D01*
X-782500Y-4592500D02*
X-1122500Y-4932500D01*
X-782500Y-4762500D02*
G75*
G03X-782500Y-4762500I-170000J0D01*
G01*
X19832500Y-7450000D02*
X20172500Y-7790000D01*
X20172500Y-7450000D02*
X19832500Y-7790000D01*
X20172500Y-7620000D02*
G75*
G03X20172500Y-7620000I-170000J0D01*
G01*
X16022500Y-2687500D02*
X16362500Y-3027500D01*
X16362500Y-2687500D02*
X16022500Y-3027500D01*
X16362500Y-2857500D02*
G75*
G03X16362500Y-2857500I-170000J0D01*
G01*
X21737500Y-7450000D02*
X22077500Y-7790000D01*
X22077500Y-7450000D02*
X21737500Y-7790000D01*
X22077500Y-7620000D02*
G75*
G03X22077500Y-7620000I-170000J0D01*
G01*
X12212500Y-7450000D02*
X12552500Y-7790000D01*
X12552500Y-7450000D02*
X12212500Y-7790000D01*
X12552500Y-7620000D02*
G75*
G03X12552500Y-7620000I-170000J0D01*
G01*
X-1122500Y-6497500D02*
X-782500Y-6837500D01*
X-782500Y-6497500D02*
X-1122500Y-6837500D01*
X-782500Y-6667500D02*
G75*
G03X-782500Y-6667500I-170000J0D01*
G01*
X4592500Y-7450000D02*
X4932500Y-7790000D01*
X4932500Y-7450000D02*
X4592500Y-7790000D01*
X4932500Y-7620000D02*
G75*
G03X4932500Y-7620000I-170000J0D01*
G01*
X3640000Y-4592500D02*
X3980000Y-4932500D01*
X3980000Y-4592500D02*
X3640000Y-4932500D01*
X3980000Y-4762500D02*
G75*
G03X3980000Y-4762500I-170000J0D01*
G01*
X19832500Y-2687500D02*
X20172500Y-3027500D01*
X20172500Y-2687500D02*
X19832500Y-3027500D01*
X20172500Y-2857500D02*
G75*
G03X20172500Y-2857500I-170000J0D01*
G01*
X10307500Y-2687500D02*
X10647500Y-3027500D01*
X10647500Y-2687500D02*
X10307500Y-3027500D01*
X10647500Y-2857500D02*
G75*
G03X10647500Y-2857500I-170000J0D01*
G01*
X25071250Y-4592500D02*
X25411250Y-4932500D01*
X25411250Y-4592500D02*
X25071250Y-4932500D01*
X25411250Y-4762500D02*
G75*
G03X25411250Y-4762500I-170000J0D01*
G01*
X14117500Y-2687500D02*
X14457500Y-3027500D01*
X14457500Y-2687500D02*
X14117500Y-3027500D01*
X14457500Y-2857500D02*
G75*
G03X14457500Y-2857500I-170000J0D01*
G01*
X17927500Y-2687500D02*
X18267500Y-3027500D01*
X18267500Y-2687500D02*
X17927500Y-3027500D01*
X18267500Y-2857500D02*
G75*
G03X18267500Y-2857500I-170000J0D01*
G01*
X14593750Y-4592500D02*
X14933750Y-4932500D01*
X14933750Y-4592500D02*
X14593750Y-4932500D01*
X14933750Y-4762500D02*
G75*
G03X14933750Y-4762500I-170000J0D01*
G01*
X1258750Y-4592500D02*
X1598750Y-4932500D01*
X1598750Y-4592500D02*
X1258750Y-4932500D01*
X1598750Y-4762500D02*
G75*
G03X1598750Y-4762500I-170000J0D01*
G01*
X14117500Y-7450000D02*
X14457500Y-7790000D01*
X14457500Y-7450000D02*
X14117500Y-7790000D01*
X14457500Y-7620000D02*
G75*
G03X14457500Y-7620000I-170000J0D01*
G01*
X22213750Y-4592500D02*
X22553750Y-4932500D01*
X22553750Y-4592500D02*
X22213750Y-4932500D01*
X22553750Y-4762500D02*
G75*
G03X22553750Y-4762500I-170000J0D01*
G01*
X782500Y-2687500D02*
X1122500Y-3027500D01*
X1122500Y-2687500D02*
X782500Y-3027500D01*
X1122500Y-2857500D02*
G75*
G03X1122500Y-2857500I-170000J0D01*
G01*
X11736250Y-4592500D02*
X12076250Y-4932500D01*
X12076250Y-4592500D02*
X11736250Y-4932500D01*
X12076250Y-4762500D02*
G75*
G03X12076250Y-4762500I-170000J0D01*
G01*
X10307500Y-7450000D02*
X10647500Y-7790000D01*
X10647500Y-7450000D02*
X10307500Y-7790000D01*
X10647500Y-7620000D02*
G75*
G03X10647500Y-7620000I-170000J0D01*
G01*
X-1122500Y-8402500D02*
X-782500Y-8742500D01*
X-782500Y-8402500D02*
X-1122500Y-8742500D01*
X-782500Y-8572500D02*
G75*
G03X-782500Y-8572500I-170000J0D01*
G01*
X25547500Y-2687500D02*
X25887500Y-3027500D01*
X25887500Y-2687500D02*
X25547500Y-3027500D01*
X25887500Y-2857500D02*
G75*
G03X25887500Y-2857500I-170000J0D01*
G01*
X8402500Y-7450000D02*
X8742500Y-7790000D01*
X8742500Y-7450000D02*
X8402500Y-7790000D01*
X8742500Y-7620000D02*
G75*
G03X8742500Y-7620000I-170000J0D01*
G01*
X-1122500Y-2687500D02*
X-782500Y-3027500D01*
X-782500Y-2687500D02*
X-1122500Y-3027500D01*
X-782500Y-2857500D02*
G75*
G03X-782500Y-2857500I-170000J0D01*
G01*
X4592500Y-2687500D02*
X4932500Y-3027500D01*
X4932500Y-2687500D02*
X4592500Y-3027500D01*
X4932500Y-2857500D02*
G75*
G03X4932500Y-2857500I-170000J0D01*
G01*
X2687500Y-2687500D02*
X3027500Y-3027500D01*
X3027500Y-2687500D02*
X2687500Y-3027500D01*
X3027500Y-2857500D02*
G75*
G03X3027500Y-2857500I-170000J0D01*
G01*
X2687500Y-7450000D02*
X3027500Y-7790000D01*
X3027500Y-7450000D02*
X2687500Y-7790000D01*
X3027500Y-7620000D02*
G75*
G03X3027500Y-7620000I-170000J0D01*
G01*
X23642500Y-2687500D02*
X23982500Y-3027500D01*
X23982500Y-2687500D02*
X23642500Y-3027500D01*
X23982500Y-2857500D02*
G75*
G03X23982500Y-2857500I-170000J0D01*
G01*
D12*
X-1621071Y-9993214D02*
X-1621071Y-9693214D01*
X-1549643Y-9693214D01*
X-1506786Y-9707500D01*
X-1478214Y-9736072D01*
X-1463929Y-9764643D01*
X-1449643Y-9821786D01*
X-1449643Y-9864643D01*
X-1463929Y-9921786D01*
X-1478214Y-9950357D01*
X-1506786Y-9978929D01*
X-1549643Y-9993214D01*
X-1621071Y-9993214D01*
X-1321072Y-9993214D02*
X-1321072Y-9793214D01*
X-1321072Y-9850357D02*
X-1306786Y-9821786D01*
X-1292500Y-9807500D01*
X-1263929Y-9793214D01*
X-1235357Y-9793214D01*
X-1135357Y-9993214D02*
X-1135357Y-9793214D01*
X-1135357Y-9693214D02*
X-1149643Y-9707500D01*
X-1135357Y-9721786D01*
X-1121072Y-9707500D01*
X-1135357Y-9693214D01*
X-1135357Y-9721786D01*
X-949643Y-9993214D02*
X-978214Y-9978929D01*
X-992500Y-9950357D01*
X-992500Y-9693214D01*
X-792500Y-9993214D02*
X-821071Y-9978929D01*
X-835357Y-9950357D01*
X-835357Y-9693214D01*
X-449643Y-9993214D02*
X-449643Y-9693214D01*
X-349643Y-9907500D01*
X-249643Y-9693214D01*
X-249643Y-9993214D01*
X21786Y-9993214D02*
X21786Y-9836072D01*
X7500Y-9807500D01*
X-21072Y-9793214D01*
X-78214Y-9793214D01*
X-106786Y-9807500D01*
X21786Y-9978929D02*
X-6786Y-9993214D01*
X-78214Y-9993214D01*
X-106786Y-9978929D01*
X-121071Y-9950357D01*
X-121071Y-9921786D01*
X-106786Y-9893214D01*
X-78214Y-9878929D01*
X-6786Y-9878929D01*
X21786Y-9864643D01*
X164643Y-9793214D02*
X164643Y-10093214D01*
X164643Y-9807500D02*
X193214Y-9793214D01*
X250357Y-9793214D01*
X278928Y-9807500D01*
X293214Y-9821786D01*
X307500Y-9850357D01*
X307500Y-9936072D01*
X293214Y-9964643D01*
X278928Y-9978929D01*
X250357Y-9993214D01*
X193214Y-9993214D01*
X164643Y-9978929D01*
X436071Y-9964643D02*
X450357Y-9978929D01*
X436071Y-9993214D01*
X421786Y-9978929D01*
X436071Y-9964643D01*
X436071Y-9993214D01*
X436071Y-9807500D02*
X450357Y-9821786D01*
X436071Y-9836072D01*
X421786Y-9821786D01*
X436071Y-9807500D01*
X436071Y-9836072D01*
X-2027500Y-10427500D02*
X-1907500Y-10547500D01*
X-1907500Y-10427500D02*
X-2027500Y-10547500D01*
X-1463929Y-10623214D02*
X-1635357Y-10623214D01*
X-1549643Y-10623214D02*
X-1549643Y-10323214D01*
X-1578214Y-10366072D01*
X-1606786Y-10394643D01*
X-1635357Y-10408929D01*
X-1335357Y-10594643D02*
X-1321072Y-10608929D01*
X-1335357Y-10623214D01*
X-1349643Y-10608929D01*
X-1335357Y-10594643D01*
X-1335357Y-10623214D01*
X-1206786Y-10351786D02*
X-1192500Y-10337500D01*
X-1163929Y-10323214D01*
X-1092500Y-10323214D01*
X-1063929Y-10337500D01*
X-1049643Y-10351786D01*
X-1035357Y-10380357D01*
X-1035357Y-10408929D01*
X-1049643Y-10451786D01*
X-1221072Y-10623214D01*
X-1035357Y-10623214D01*
X-849643Y-10323214D02*
X-821071Y-10323214D01*
X-792500Y-10337500D01*
X-778214Y-10351786D01*
X-763929Y-10380357D01*
X-749643Y-10437500D01*
X-749643Y-10508929D01*
X-763929Y-10566072D01*
X-778214Y-10594643D01*
X-792500Y-10608929D01*
X-821071Y-10623214D01*
X-849643Y-10623214D01*
X-878214Y-10608929D01*
X-892500Y-10594643D01*
X-906786Y-10566072D01*
X-921071Y-10508929D01*
X-921071Y-10437500D01*
X-906786Y-10380357D01*
X-892500Y-10351786D01*
X-878214Y-10337500D01*
X-849643Y-10323214D01*
X-621072Y-10623214D02*
X-621072Y-10423214D01*
X-621072Y-10451786D02*
X-606786Y-10437500D01*
X-578214Y-10423214D01*
X-535357Y-10423214D01*
X-506786Y-10437500D01*
X-492500Y-10466072D01*
X-492500Y-10623214D01*
X-492500Y-10466072D02*
X-478214Y-10437500D01*
X-449643Y-10423214D01*
X-406786Y-10423214D01*
X-378214Y-10437500D01*
X-363929Y-10466072D01*
X-363929Y-10623214D01*
X-221071Y-10623214D02*
X-221071Y-10423214D01*
X-221071Y-10451786D02*
X-206786Y-10437500D01*
X-178214Y-10423214D01*
X-135357Y-10423214D01*
X-106786Y-10437500D01*
X-92500Y-10466072D01*
X-92500Y-10623214D01*
X-92500Y-10466072D02*
X-78214Y-10437500D01*
X-49643Y-10423214D01*
X-6786Y-10423214D01*
X21786Y-10437500D01*
X36071Y-10466072D01*
X36071Y-10623214D01*
X621786Y-10308929D02*
X364643Y-10694643D01*
X1007500Y-10323214D02*
X1036071Y-10323214D01*
X1064643Y-10337500D01*
X1078928Y-10351786D01*
X1093214Y-10380357D01*
X1107500Y-10437500D01*
X1107500Y-10508929D01*
X1093214Y-10566072D01*
X1078928Y-10594643D01*
X1064643Y-10608929D01*
X1036071Y-10623214D01*
X1007500Y-10623214D01*
X978928Y-10608929D01*
X964643Y-10594643D01*
X950357Y-10566072D01*
X936071Y-10508929D01*
X936071Y-10437500D01*
X950357Y-10380357D01*
X964643Y-10351786D01*
X978928Y-10337500D01*
X1007500Y-10323214D01*
X1236071Y-10594643D02*
X1250357Y-10608929D01*
X1236071Y-10623214D01*
X1221786Y-10608929D01*
X1236071Y-10594643D01*
X1236071Y-10623214D01*
X1436071Y-10323214D02*
X1464643Y-10323214D01*
X1493214Y-10337500D01*
X1507500Y-10351786D01*
X1521786Y-10380357D01*
X1536071Y-10437500D01*
X1536071Y-10508929D01*
X1521786Y-10566072D01*
X1507500Y-10594643D01*
X1493214Y-10608929D01*
X1464643Y-10623214D01*
X1436071Y-10623214D01*
X1407500Y-10608929D01*
X1393214Y-10594643D01*
X1378928Y-10566072D01*
X1364643Y-10508929D01*
X1364643Y-10437500D01*
X1378928Y-10380357D01*
X1393214Y-10351786D01*
X1407500Y-10337500D01*
X1436071Y-10323214D01*
X1793214Y-10423214D02*
X1793214Y-10623214D01*
X1721786Y-10308929D02*
X1650357Y-10523214D01*
X1836071Y-10523214D01*
X1921786Y-10323214D02*
X2121786Y-10323214D01*
X1993214Y-10623214D01*
X2221786Y-10323214D02*
X2221786Y-10380357D01*
X2336071Y-10323214D02*
X2336071Y-10380357D01*
X2778928Y-10737500D02*
X2764643Y-10723214D01*
X2736071Y-10680357D01*
X2721786Y-10651786D01*
X2707500Y-10608929D01*
X2693214Y-10537500D01*
X2693214Y-10480357D01*
X2707500Y-10408929D01*
X2721786Y-10366072D01*
X2736071Y-10337500D01*
X2764643Y-10294643D01*
X2778928Y-10280357D01*
X3021786Y-10423214D02*
X3021786Y-10623214D01*
X2950357Y-10308929D02*
X2878928Y-10523214D01*
X3064643Y-10523214D01*
X3307500Y-10423214D02*
X3307500Y-10623214D01*
X3236071Y-10308929D02*
X3164643Y-10523214D01*
X3350357Y-10523214D01*
X3693214Y-10623214D02*
X3693214Y-10323214D01*
X3821786Y-10623214D02*
X3821786Y-10466072D01*
X3807500Y-10437500D01*
X3778928Y-10423214D01*
X3736071Y-10423214D01*
X3707500Y-10437500D01*
X3693214Y-10451786D01*
X4007500Y-10623214D02*
X3978928Y-10608929D01*
X3964643Y-10594643D01*
X3950357Y-10566072D01*
X3950357Y-10480357D01*
X3964643Y-10451786D01*
X3978928Y-10437500D01*
X4007500Y-10423214D01*
X4050357Y-10423214D01*
X4078928Y-10437500D01*
X4093214Y-10451786D01*
X4107500Y-10480357D01*
X4107500Y-10566072D01*
X4093214Y-10594643D01*
X4078928Y-10608929D01*
X4050357Y-10623214D01*
X4007500Y-10623214D01*
X4278928Y-10623214D02*
X4250357Y-10608929D01*
X4236071Y-10580357D01*
X4236071Y-10323214D01*
X4507500Y-10608929D02*
X4478928Y-10623214D01*
X4421786Y-10623214D01*
X4393214Y-10608929D01*
X4378928Y-10580357D01*
X4378928Y-10466072D01*
X4393214Y-10437500D01*
X4421786Y-10423214D01*
X4478928Y-10423214D01*
X4507500Y-10437500D01*
X4521786Y-10466072D01*
X4521786Y-10494643D01*
X4378928Y-10523214D01*
X4636071Y-10608929D02*
X4664643Y-10623214D01*
X4721786Y-10623214D01*
X4750357Y-10608929D01*
X4764643Y-10580357D01*
X4764643Y-10566072D01*
X4750357Y-10537500D01*
X4721786Y-10523214D01*
X4678928Y-10523214D01*
X4650357Y-10508929D01*
X4636071Y-10480357D01*
X4636071Y-10466072D01*
X4650357Y-10437500D01*
X4678928Y-10423214D01*
X4721786Y-10423214D01*
X4750357Y-10437500D01*
X4864643Y-10737500D02*
X4878928Y-10723214D01*
X4907500Y-10680357D01*
X4921786Y-10651786D01*
X4936071Y-10608929D01*
X4950357Y-10537500D01*
X4950357Y-10480357D01*
X4936071Y-10408929D01*
X4921786Y-10366072D01*
X4907500Y-10337500D01*
X4878928Y-10294643D01*
X4864643Y-10280357D01*
X5407500Y-10737500D02*
X5393214Y-10723214D01*
X5364643Y-10680357D01*
X5350357Y-10651786D01*
X5336071Y-10608929D01*
X5321786Y-10537500D01*
X5321786Y-10480357D01*
X5336071Y-10408929D01*
X5350357Y-10366072D01*
X5364643Y-10337500D01*
X5393214Y-10294643D01*
X5407500Y-10280357D01*
X5521786Y-10423214D02*
X5521786Y-10623214D01*
X5521786Y-10451786D02*
X5536071Y-10437500D01*
X5564643Y-10423214D01*
X5607500Y-10423214D01*
X5636071Y-10437500D01*
X5650357Y-10466072D01*
X5650357Y-10623214D01*
X5836071Y-10623214D02*
X5807500Y-10608929D01*
X5793214Y-10594643D01*
X5778928Y-10566072D01*
X5778928Y-10480357D01*
X5793214Y-10451786D01*
X5807500Y-10437500D01*
X5836071Y-10423214D01*
X5878928Y-10423214D01*
X5907500Y-10437500D01*
X5921786Y-10451786D01*
X5936071Y-10480357D01*
X5936071Y-10566072D01*
X5921786Y-10594643D01*
X5907500Y-10608929D01*
X5878928Y-10623214D01*
X5836071Y-10623214D01*
X6021786Y-10423214D02*
X6136071Y-10423214D01*
X6064643Y-10323214D02*
X6064643Y-10580357D01*
X6078928Y-10608929D01*
X6107500Y-10623214D01*
X6136071Y-10623214D01*
X6464643Y-10423214D02*
X6464643Y-10723214D01*
X6464643Y-10437500D02*
X6493214Y-10423214D01*
X6550357Y-10423214D01*
X6578928Y-10437500D01*
X6593214Y-10451786D01*
X6607500Y-10480357D01*
X6607500Y-10566072D01*
X6593214Y-10594643D01*
X6578928Y-10608929D01*
X6550357Y-10623214D01*
X6493214Y-10623214D01*
X6464643Y-10608929D01*
X6778928Y-10623214D02*
X6750357Y-10608929D01*
X6736071Y-10580357D01*
X6736071Y-10323214D01*
X7021786Y-10623214D02*
X7021786Y-10466072D01*
X7007500Y-10437500D01*
X6978928Y-10423214D01*
X6921786Y-10423214D01*
X6893214Y-10437500D01*
X7021786Y-10608929D02*
X6993214Y-10623214D01*
X6921786Y-10623214D01*
X6893214Y-10608929D01*
X6878928Y-10580357D01*
X6878928Y-10551786D01*
X6893214Y-10523214D01*
X6921786Y-10508929D01*
X6993214Y-10508929D01*
X7021786Y-10494643D01*
X7121786Y-10423214D02*
X7236071Y-10423214D01*
X7164643Y-10323214D02*
X7164643Y-10580357D01*
X7178928Y-10608929D01*
X7207500Y-10623214D01*
X7236071Y-10623214D01*
X7450357Y-10608929D02*
X7421786Y-10623214D01*
X7364643Y-10623214D01*
X7336071Y-10608929D01*
X7321786Y-10580357D01*
X7321786Y-10466072D01*
X7336071Y-10437500D01*
X7364643Y-10423214D01*
X7421786Y-10423214D01*
X7450357Y-10437500D01*
X7464643Y-10466072D01*
X7464643Y-10494643D01*
X7321786Y-10523214D01*
X7721786Y-10623214D02*
X7721786Y-10323214D01*
X7721786Y-10608929D02*
X7693214Y-10623214D01*
X7636071Y-10623214D01*
X7607500Y-10608929D01*
X7593214Y-10594643D01*
X7578928Y-10566072D01*
X7578928Y-10480357D01*
X7593214Y-10451786D01*
X7607500Y-10437500D01*
X7636071Y-10423214D01*
X7693214Y-10423214D01*
X7721786Y-10437500D01*
X7836071Y-10737500D02*
X7850357Y-10723214D01*
X7878928Y-10680357D01*
X7893214Y-10651786D01*
X7907500Y-10608929D01*
X7921786Y-10537500D01*
X7921786Y-10480357D01*
X7907500Y-10408929D01*
X7893214Y-10366072D01*
X7878928Y-10337500D01*
X7850357Y-10294643D01*
X7836071Y-10280357D01*
X-1907500Y-10883500D02*
G75*
G03X-1907500Y-10883500I-75000J0D01*
G01*
X-1463929Y-11019214D02*
X-1635357Y-11019214D01*
X-1549643Y-11019214D02*
X-1549643Y-10719214D01*
X-1578214Y-10762072D01*
X-1606786Y-10790643D01*
X-1635357Y-10804929D01*
X-1335357Y-10990643D02*
X-1321072Y-11004929D01*
X-1335357Y-11019214D01*
X-1349643Y-11004929D01*
X-1335357Y-10990643D01*
X-1335357Y-11019214D01*
X-1049643Y-10719214D02*
X-1192500Y-10719214D01*
X-1206786Y-10862072D01*
X-1192500Y-10847786D01*
X-1163929Y-10833500D01*
X-1092500Y-10833500D01*
X-1063929Y-10847786D01*
X-1049643Y-10862072D01*
X-1035357Y-10890643D01*
X-1035357Y-10962072D01*
X-1049643Y-10990643D01*
X-1063929Y-11004929D01*
X-1092500Y-11019214D01*
X-1163929Y-11019214D01*
X-1192500Y-11004929D01*
X-1206786Y-10990643D01*
X-849643Y-10719214D02*
X-821071Y-10719214D01*
X-792500Y-10733500D01*
X-778214Y-10747786D01*
X-763929Y-10776357D01*
X-749643Y-10833500D01*
X-749643Y-10904929D01*
X-763929Y-10962072D01*
X-778214Y-10990643D01*
X-792500Y-11004929D01*
X-821071Y-11019214D01*
X-849643Y-11019214D01*
X-878214Y-11004929D01*
X-892500Y-10990643D01*
X-906786Y-10962072D01*
X-921071Y-10904929D01*
X-921071Y-10833500D01*
X-906786Y-10776357D01*
X-892500Y-10747786D01*
X-878214Y-10733500D01*
X-849643Y-10719214D01*
X-621072Y-11019214D02*
X-621072Y-10819214D01*
X-621072Y-10847786D02*
X-606786Y-10833500D01*
X-578214Y-10819214D01*
X-535357Y-10819214D01*
X-506786Y-10833500D01*
X-492500Y-10862072D01*
X-492500Y-11019214D01*
X-492500Y-10862072D02*
X-478214Y-10833500D01*
X-449643Y-10819214D01*
X-406786Y-10819214D01*
X-378214Y-10833500D01*
X-363929Y-10862072D01*
X-363929Y-11019214D01*
X-221071Y-11019214D02*
X-221071Y-10819214D01*
X-221071Y-10847786D02*
X-206786Y-10833500D01*
X-178214Y-10819214D01*
X-135357Y-10819214D01*
X-106786Y-10833500D01*
X-92500Y-10862072D01*
X-92500Y-11019214D01*
X-92500Y-10862072D02*
X-78214Y-10833500D01*
X-49643Y-10819214D01*
X-6786Y-10819214D01*
X21786Y-10833500D01*
X36071Y-10862072D01*
X36071Y-11019214D01*
X621786Y-10704929D02*
X364643Y-11090643D01*
X1007500Y-10719214D02*
X1036071Y-10719214D01*
X1064643Y-10733500D01*
X1078928Y-10747786D01*
X1093214Y-10776357D01*
X1107500Y-10833500D01*
X1107500Y-10904929D01*
X1093214Y-10962072D01*
X1078928Y-10990643D01*
X1064643Y-11004929D01*
X1036071Y-11019214D01*
X1007500Y-11019214D01*
X978928Y-11004929D01*
X964643Y-10990643D01*
X950357Y-10962072D01*
X936071Y-10904929D01*
X936071Y-10833500D01*
X950357Y-10776357D01*
X964643Y-10747786D01*
X978928Y-10733500D01*
X1007500Y-10719214D01*
X1236071Y-10990643D02*
X1250357Y-11004929D01*
X1236071Y-11019214D01*
X1221786Y-11004929D01*
X1236071Y-10990643D01*
X1236071Y-11019214D01*
X1436071Y-10719214D02*
X1464643Y-10719214D01*
X1493214Y-10733500D01*
X1507500Y-10747786D01*
X1521786Y-10776357D01*
X1536071Y-10833500D01*
X1536071Y-10904929D01*
X1521786Y-10962072D01*
X1507500Y-10990643D01*
X1493214Y-11004929D01*
X1464643Y-11019214D01*
X1436071Y-11019214D01*
X1407500Y-11004929D01*
X1393214Y-10990643D01*
X1378928Y-10962072D01*
X1364643Y-10904929D01*
X1364643Y-10833500D01*
X1378928Y-10776357D01*
X1393214Y-10747786D01*
X1407500Y-10733500D01*
X1436071Y-10719214D01*
X1807500Y-10719214D02*
X1664643Y-10719214D01*
X1650357Y-10862072D01*
X1664643Y-10847786D01*
X1693214Y-10833500D01*
X1764643Y-10833500D01*
X1793214Y-10847786D01*
X1807500Y-10862072D01*
X1821786Y-10890643D01*
X1821786Y-10962072D01*
X1807500Y-10990643D01*
X1793214Y-11004929D01*
X1764643Y-11019214D01*
X1693214Y-11019214D01*
X1664643Y-11004929D01*
X1650357Y-10990643D01*
X1964643Y-11019214D02*
X2021786Y-11019214D01*
X2050357Y-11004929D01*
X2064643Y-10990643D01*
X2093214Y-10947786D01*
X2107500Y-10890643D01*
X2107500Y-10776357D01*
X2093214Y-10747786D01*
X2078928Y-10733500D01*
X2050357Y-10719214D01*
X1993214Y-10719214D01*
X1964643Y-10733500D01*
X1950357Y-10747786D01*
X1936071Y-10776357D01*
X1936071Y-10847786D01*
X1950357Y-10876357D01*
X1964643Y-10890643D01*
X1993214Y-10904929D01*
X2050357Y-10904929D01*
X2078928Y-10890643D01*
X2093214Y-10876357D01*
X2107500Y-10847786D01*
X2221786Y-10719214D02*
X2221786Y-10776357D01*
X2336071Y-10719214D02*
X2336071Y-10776357D01*
X2778928Y-11133500D02*
X2764643Y-11119214D01*
X2736071Y-11076357D01*
X2721786Y-11047786D01*
X2707500Y-11004929D01*
X2693214Y-10933500D01*
X2693214Y-10876357D01*
X2707500Y-10804929D01*
X2721786Y-10762072D01*
X2736071Y-10733500D01*
X2764643Y-10690643D01*
X2778928Y-10676357D01*
X2878928Y-10747786D02*
X2893214Y-10733500D01*
X2921786Y-10719214D01*
X2993214Y-10719214D01*
X3021786Y-10733500D01*
X3036071Y-10747786D01*
X3050357Y-10776357D01*
X3050357Y-10804929D01*
X3036071Y-10847786D01*
X2864643Y-11019214D01*
X3050357Y-11019214D01*
X3407500Y-11019214D02*
X3407500Y-10719214D01*
X3536071Y-11019214D02*
X3536071Y-10862072D01*
X3521786Y-10833500D01*
X3493214Y-10819214D01*
X3450357Y-10819214D01*
X3421786Y-10833500D01*
X3407500Y-10847786D01*
X3721786Y-11019214D02*
X3693214Y-11004929D01*
X3678928Y-10990643D01*
X3664643Y-10962072D01*
X3664643Y-10876357D01*
X3678928Y-10847786D01*
X3693214Y-10833500D01*
X3721786Y-10819214D01*
X3764643Y-10819214D01*
X3793214Y-10833500D01*
X3807500Y-10847786D01*
X3821786Y-10876357D01*
X3821786Y-10962072D01*
X3807500Y-10990643D01*
X3793214Y-11004929D01*
X3764643Y-11019214D01*
X3721786Y-11019214D01*
X3993214Y-11019214D02*
X3964643Y-11004929D01*
X3950357Y-10976357D01*
X3950357Y-10719214D01*
X4221786Y-11004929D02*
X4193214Y-11019214D01*
X4136071Y-11019214D01*
X4107500Y-11004929D01*
X4093214Y-10976357D01*
X4093214Y-10862072D01*
X4107500Y-10833500D01*
X4136071Y-10819214D01*
X4193214Y-10819214D01*
X4221786Y-10833500D01*
X4236071Y-10862072D01*
X4236071Y-10890643D01*
X4093214Y-10919214D01*
X4350357Y-11004929D02*
X4378928Y-11019214D01*
X4436071Y-11019214D01*
X4464643Y-11004929D01*
X4478928Y-10976357D01*
X4478928Y-10962072D01*
X4464643Y-10933500D01*
X4436071Y-10919214D01*
X4393214Y-10919214D01*
X4364643Y-10904929D01*
X4350357Y-10876357D01*
X4350357Y-10862072D01*
X4364643Y-10833500D01*
X4393214Y-10819214D01*
X4436071Y-10819214D01*
X4464643Y-10833500D01*
X4578928Y-11133500D02*
X4593214Y-11119214D01*
X4621786Y-11076357D01*
X4636071Y-11047786D01*
X4650357Y-11004929D01*
X4664643Y-10933500D01*
X4664643Y-10876357D01*
X4650357Y-10804929D01*
X4636071Y-10762072D01*
X4621786Y-10733500D01*
X4593214Y-10690643D01*
X4578928Y-10676357D01*
X5121786Y-11133500D02*
X5107500Y-11119214D01*
X5078928Y-11076357D01*
X5064643Y-11047786D01*
X5050357Y-11004929D01*
X5036071Y-10933500D01*
X5036071Y-10876357D01*
X5050357Y-10804929D01*
X5064643Y-10762072D01*
X5078928Y-10733500D01*
X5107500Y-10690643D01*
X5121786Y-10676357D01*
X5236071Y-10819214D02*
X5236071Y-11019214D01*
X5236071Y-10847786D02*
X5250357Y-10833500D01*
X5278928Y-10819214D01*
X5321786Y-10819214D01*
X5350357Y-10833500D01*
X5364643Y-10862072D01*
X5364643Y-11019214D01*
X5550357Y-11019214D02*
X5521786Y-11004929D01*
X5507500Y-10990643D01*
X5493214Y-10962072D01*
X5493214Y-10876357D01*
X5507500Y-10847786D01*
X5521786Y-10833500D01*
X5550357Y-10819214D01*
X5593214Y-10819214D01*
X5621786Y-10833500D01*
X5636071Y-10847786D01*
X5650357Y-10876357D01*
X5650357Y-10962072D01*
X5636071Y-10990643D01*
X5621786Y-11004929D01*
X5593214Y-11019214D01*
X5550357Y-11019214D01*
X5736071Y-10819214D02*
X5850357Y-10819214D01*
X5778928Y-10719214D02*
X5778928Y-10976357D01*
X5793214Y-11004929D01*
X5821786Y-11019214D01*
X5850357Y-11019214D01*
X6178928Y-10819214D02*
X6178928Y-11119214D01*
X6178928Y-10833500D02*
X6207500Y-10819214D01*
X6264643Y-10819214D01*
X6293214Y-10833500D01*
X6307500Y-10847786D01*
X6321786Y-10876357D01*
X6321786Y-10962072D01*
X6307500Y-10990643D01*
X6293214Y-11004929D01*
X6264643Y-11019214D01*
X6207500Y-11019214D01*
X6178928Y-11004929D01*
X6493214Y-11019214D02*
X6464643Y-11004929D01*
X6450357Y-10976357D01*
X6450357Y-10719214D01*
X6736071Y-11019214D02*
X6736071Y-10862072D01*
X6721786Y-10833500D01*
X6693214Y-10819214D01*
X6636071Y-10819214D01*
X6607500Y-10833500D01*
X6736071Y-11004929D02*
X6707500Y-11019214D01*
X6636071Y-11019214D01*
X6607500Y-11004929D01*
X6593214Y-10976357D01*
X6593214Y-10947786D01*
X6607500Y-10919214D01*
X6636071Y-10904929D01*
X6707500Y-10904929D01*
X6736071Y-10890643D01*
X6836071Y-10819214D02*
X6950357Y-10819214D01*
X6878928Y-10719214D02*
X6878928Y-10976357D01*
X6893214Y-11004929D01*
X6921786Y-11019214D01*
X6950357Y-11019214D01*
X7164643Y-11004929D02*
X7136071Y-11019214D01*
X7078928Y-11019214D01*
X7050357Y-11004929D01*
X7036071Y-10976357D01*
X7036071Y-10862072D01*
X7050357Y-10833500D01*
X7078928Y-10819214D01*
X7136071Y-10819214D01*
X7164643Y-10833500D01*
X7178928Y-10862072D01*
X7178928Y-10890643D01*
X7036071Y-10919214D01*
X7436071Y-11019214D02*
X7436071Y-10719214D01*
X7436071Y-11004929D02*
X7407500Y-11019214D01*
X7350357Y-11019214D01*
X7321786Y-11004929D01*
X7307500Y-10990643D01*
X7293214Y-10962072D01*
X7293214Y-10876357D01*
X7307500Y-10847786D01*
X7321786Y-10833500D01*
X7350357Y-10819214D01*
X7407500Y-10819214D01*
X7436071Y-10833500D01*
X7550357Y-11133500D02*
X7564643Y-11119214D01*
X7593214Y-11076357D01*
X7607500Y-11047786D01*
X7621786Y-11004929D01*
X7636071Y-10933500D01*
X7636071Y-10876357D01*
X7621786Y-10804929D01*
X7607500Y-10762072D01*
X7593214Y-10733500D01*
X7564643Y-10690643D01*
X7550357Y-10676357D01*
X-1997500Y-11189500D02*
X-1997500Y-11369500D01*
X-2087500Y-11279500D02*
X-1907500Y-11279500D01*
X-1463929Y-11415214D02*
X-1635357Y-11415214D01*
X-1549643Y-11415214D02*
X-1549643Y-11115214D01*
X-1578214Y-11158072D01*
X-1606786Y-11186643D01*
X-1635357Y-11200929D01*
X-1335357Y-11386643D02*
X-1321072Y-11400929D01*
X-1335357Y-11415214D01*
X-1349643Y-11400929D01*
X-1335357Y-11386643D01*
X-1335357Y-11415214D01*
X-1149643Y-11243786D02*
X-1178214Y-11229500D01*
X-1192500Y-11215214D01*
X-1206786Y-11186643D01*
X-1206786Y-11172357D01*
X-1192500Y-11143786D01*
X-1178214Y-11129500D01*
X-1149643Y-11115214D01*
X-1092500Y-11115214D01*
X-1063929Y-11129500D01*
X-1049643Y-11143786D01*
X-1035357Y-11172357D01*
X-1035357Y-11186643D01*
X-1049643Y-11215214D01*
X-1063929Y-11229500D01*
X-1092500Y-11243786D01*
X-1149643Y-11243786D01*
X-1178214Y-11258071D01*
X-1192500Y-11272357D01*
X-1206786Y-11300929D01*
X-1206786Y-11358071D01*
X-1192500Y-11386643D01*
X-1178214Y-11400929D01*
X-1149643Y-11415214D01*
X-1092500Y-11415214D01*
X-1063929Y-11400929D01*
X-1049643Y-11386643D01*
X-1035357Y-11358071D01*
X-1035357Y-11300929D01*
X-1049643Y-11272357D01*
X-1063929Y-11258071D01*
X-1092500Y-11243786D01*
X-849643Y-11115214D02*
X-821071Y-11115214D01*
X-792500Y-11129500D01*
X-778214Y-11143786D01*
X-763929Y-11172357D01*
X-749643Y-11229500D01*
X-749643Y-11300929D01*
X-763929Y-11358071D01*
X-778214Y-11386643D01*
X-792500Y-11400929D01*
X-821071Y-11415214D01*
X-849643Y-11415214D01*
X-878214Y-11400929D01*
X-892500Y-11386643D01*
X-906786Y-11358071D01*
X-921071Y-11300929D01*
X-921071Y-11229500D01*
X-906786Y-11172357D01*
X-892500Y-11143786D01*
X-878214Y-11129500D01*
X-849643Y-11115214D01*
X-621072Y-11415214D02*
X-621072Y-11215214D01*
X-621072Y-11243786D02*
X-606786Y-11229500D01*
X-578214Y-11215214D01*
X-535357Y-11215214D01*
X-506786Y-11229500D01*
X-492500Y-11258071D01*
X-492500Y-11415214D01*
X-492500Y-11258071D02*
X-478214Y-11229500D01*
X-449643Y-11215214D01*
X-406786Y-11215214D01*
X-378214Y-11229500D01*
X-363929Y-11258071D01*
X-363929Y-11415214D01*
X-221071Y-11415214D02*
X-221071Y-11215214D01*
X-221071Y-11243786D02*
X-206786Y-11229500D01*
X-178214Y-11215214D01*
X-135357Y-11215214D01*
X-106786Y-11229500D01*
X-92500Y-11258071D01*
X-92500Y-11415214D01*
X-92500Y-11258071D02*
X-78214Y-11229500D01*
X-49643Y-11215214D01*
X-6786Y-11215214D01*
X21786Y-11229500D01*
X36071Y-11258071D01*
X36071Y-11415214D01*
X621786Y-11100929D02*
X364643Y-11486643D01*
X1007500Y-11115214D02*
X1036071Y-11115214D01*
X1064643Y-11129500D01*
X1078928Y-11143786D01*
X1093214Y-11172357D01*
X1107500Y-11229500D01*
X1107500Y-11300929D01*
X1093214Y-11358071D01*
X1078928Y-11386643D01*
X1064643Y-11400929D01*
X1036071Y-11415214D01*
X1007500Y-11415214D01*
X978928Y-11400929D01*
X964643Y-11386643D01*
X950357Y-11358071D01*
X936071Y-11300929D01*
X936071Y-11229500D01*
X950357Y-11172357D01*
X964643Y-11143786D01*
X978928Y-11129500D01*
X1007500Y-11115214D01*
X1236071Y-11386643D02*
X1250357Y-11400929D01*
X1236071Y-11415214D01*
X1221786Y-11400929D01*
X1236071Y-11386643D01*
X1236071Y-11415214D01*
X1436071Y-11115214D02*
X1464643Y-11115214D01*
X1493214Y-11129500D01*
X1507500Y-11143786D01*
X1521786Y-11172357D01*
X1536071Y-11229500D01*
X1536071Y-11300929D01*
X1521786Y-11358071D01*
X1507500Y-11386643D01*
X1493214Y-11400929D01*
X1464643Y-11415214D01*
X1436071Y-11415214D01*
X1407500Y-11400929D01*
X1393214Y-11386643D01*
X1378928Y-11358071D01*
X1364643Y-11300929D01*
X1364643Y-11229500D01*
X1378928Y-11172357D01*
X1393214Y-11143786D01*
X1407500Y-11129500D01*
X1436071Y-11115214D01*
X1636071Y-11115214D02*
X1836071Y-11115214D01*
X1707500Y-11415214D01*
X2107500Y-11415214D02*
X1936071Y-11415214D01*
X2021786Y-11415214D02*
X2021786Y-11115214D01*
X1993214Y-11158072D01*
X1964643Y-11186643D01*
X1936071Y-11200929D01*
X2221786Y-11115214D02*
X2221786Y-11172357D01*
X2336071Y-11115214D02*
X2336071Y-11172357D01*
X2778928Y-11529500D02*
X2764643Y-11515214D01*
X2736071Y-11472357D01*
X2721786Y-11443786D01*
X2707500Y-11400929D01*
X2693214Y-11329500D01*
X2693214Y-11272357D01*
X2707500Y-11200929D01*
X2721786Y-11158072D01*
X2736071Y-11129500D01*
X2764643Y-11086643D01*
X2778928Y-11072357D01*
X2878928Y-11143786D02*
X2893214Y-11129500D01*
X2921786Y-11115214D01*
X2993214Y-11115214D01*
X3021786Y-11129500D01*
X3036071Y-11143786D01*
X3050357Y-11172357D01*
X3050357Y-11200929D01*
X3036071Y-11243786D01*
X2864643Y-11415214D01*
X3050357Y-11415214D01*
X3407500Y-11415214D02*
X3407500Y-11115214D01*
X3536071Y-11415214D02*
X3536071Y-11258071D01*
X3521786Y-11229500D01*
X3493214Y-11215214D01*
X3450357Y-11215214D01*
X3421786Y-11229500D01*
X3407500Y-11243786D01*
X3721786Y-11415214D02*
X3693214Y-11400929D01*
X3678928Y-11386643D01*
X3664643Y-11358071D01*
X3664643Y-11272357D01*
X3678928Y-11243786D01*
X3693214Y-11229500D01*
X3721786Y-11215214D01*
X3764643Y-11215214D01*
X3793214Y-11229500D01*
X3807500Y-11243786D01*
X3821786Y-11272357D01*
X3821786Y-11358071D01*
X3807500Y-11386643D01*
X3793214Y-11400929D01*
X3764643Y-11415214D01*
X3721786Y-11415214D01*
X3993214Y-11415214D02*
X3964643Y-11400929D01*
X3950357Y-11372357D01*
X3950357Y-11115214D01*
X4221786Y-11400929D02*
X4193214Y-11415214D01*
X4136071Y-11415214D01*
X4107500Y-11400929D01*
X4093214Y-11372357D01*
X4093214Y-11258071D01*
X4107500Y-11229500D01*
X4136071Y-11215214D01*
X4193214Y-11215214D01*
X4221786Y-11229500D01*
X4236071Y-11258071D01*
X4236071Y-11286643D01*
X4093214Y-11315214D01*
X4350357Y-11400929D02*
X4378928Y-11415214D01*
X4436071Y-11415214D01*
X4464643Y-11400929D01*
X4478928Y-11372357D01*
X4478928Y-11358071D01*
X4464643Y-11329500D01*
X4436071Y-11315214D01*
X4393214Y-11315214D01*
X4364643Y-11300929D01*
X4350357Y-11272357D01*
X4350357Y-11258071D01*
X4364643Y-11229500D01*
X4393214Y-11215214D01*
X4436071Y-11215214D01*
X4464643Y-11229500D01*
X4578928Y-11529500D02*
X4593214Y-11515214D01*
X4621786Y-11472357D01*
X4636071Y-11443786D01*
X4650357Y-11400929D01*
X4664643Y-11329500D01*
X4664643Y-11272357D01*
X4650357Y-11200929D01*
X4636071Y-11158072D01*
X4621786Y-11129500D01*
X4593214Y-11086643D01*
X4578928Y-11072357D01*
X5121786Y-11529500D02*
X5107500Y-11515214D01*
X5078928Y-11472357D01*
X5064643Y-11443786D01*
X5050357Y-11400929D01*
X5036071Y-11329500D01*
X5036071Y-11272357D01*
X5050357Y-11200929D01*
X5064643Y-11158072D01*
X5078928Y-11129500D01*
X5107500Y-11086643D01*
X5121786Y-11072357D01*
X5236071Y-11215214D02*
X5236071Y-11415214D01*
X5236071Y-11243786D02*
X5250357Y-11229500D01*
X5278928Y-11215214D01*
X5321786Y-11215214D01*
X5350357Y-11229500D01*
X5364643Y-11258071D01*
X5364643Y-11415214D01*
X5550357Y-11415214D02*
X5521786Y-11400929D01*
X5507500Y-11386643D01*
X5493214Y-11358071D01*
X5493214Y-11272357D01*
X5507500Y-11243786D01*
X5521786Y-11229500D01*
X5550357Y-11215214D01*
X5593214Y-11215214D01*
X5621786Y-11229500D01*
X5636071Y-11243786D01*
X5650357Y-11272357D01*
X5650357Y-11358071D01*
X5636071Y-11386643D01*
X5621786Y-11400929D01*
X5593214Y-11415214D01*
X5550357Y-11415214D01*
X5736071Y-11215214D02*
X5850357Y-11215214D01*
X5778928Y-11115214D02*
X5778928Y-11372357D01*
X5793214Y-11400929D01*
X5821786Y-11415214D01*
X5850357Y-11415214D01*
X6178928Y-11215214D02*
X6178928Y-11515214D01*
X6178928Y-11229500D02*
X6207500Y-11215214D01*
X6264643Y-11215214D01*
X6293214Y-11229500D01*
X6307500Y-11243786D01*
X6321786Y-11272357D01*
X6321786Y-11358071D01*
X6307500Y-11386643D01*
X6293214Y-11400929D01*
X6264643Y-11415214D01*
X6207500Y-11415214D01*
X6178928Y-11400929D01*
X6493214Y-11415214D02*
X6464643Y-11400929D01*
X6450357Y-11372357D01*
X6450357Y-11115214D01*
X6736071Y-11415214D02*
X6736071Y-11258071D01*
X6721786Y-11229500D01*
X6693214Y-11215214D01*
X6636071Y-11215214D01*
X6607500Y-11229500D01*
X6736071Y-11400929D02*
X6707500Y-11415214D01*
X6636071Y-11415214D01*
X6607500Y-11400929D01*
X6593214Y-11372357D01*
X6593214Y-11343786D01*
X6607500Y-11315214D01*
X6636071Y-11300929D01*
X6707500Y-11300929D01*
X6736071Y-11286643D01*
X6836071Y-11215214D02*
X6950357Y-11215214D01*
X6878928Y-11115214D02*
X6878928Y-11372357D01*
X6893214Y-11400929D01*
X6921786Y-11415214D01*
X6950357Y-11415214D01*
X7164643Y-11400929D02*
X7136071Y-11415214D01*
X7078928Y-11415214D01*
X7050357Y-11400929D01*
X7036071Y-11372357D01*
X7036071Y-11258071D01*
X7050357Y-11229500D01*
X7078928Y-11215214D01*
X7136071Y-11215214D01*
X7164643Y-11229500D01*
X7178928Y-11258071D01*
X7178928Y-11286643D01*
X7036071Y-11315214D01*
X7436071Y-11415214D02*
X7436071Y-11115214D01*
X7436071Y-11400929D02*
X7407500Y-11415214D01*
X7350357Y-11415214D01*
X7321786Y-11400929D01*
X7307500Y-11386643D01*
X7293214Y-11358071D01*
X7293214Y-11272357D01*
X7307500Y-11243786D01*
X7321786Y-11229500D01*
X7350357Y-11215214D01*
X7407500Y-11215214D01*
X7436071Y-11229500D01*
X7550357Y-11529500D02*
X7564643Y-11515214D01*
X7593214Y-11472357D01*
X7607500Y-11443786D01*
X7621786Y-11400929D01*
X7636071Y-11329500D01*
X7636071Y-11272357D01*
X7621786Y-11200929D01*
X7607500Y-11158072D01*
X7593214Y-11129500D01*
X7564643Y-11086643D01*
X7550357Y-11072357D01*
X-1935324Y-11742676D02*
X-1935324Y-11608324D01*
X-2069676Y-11608324D01*
X-2069676Y-11742676D01*
X-1935324Y-11742676D01*
X-1463929Y-11811214D02*
X-1635357Y-11811214D01*
X-1549643Y-11811214D02*
X-1549643Y-11511214D01*
X-1578214Y-11554071D01*
X-1606786Y-11582643D01*
X-1635357Y-11596929D01*
X-1335357Y-11782643D02*
X-1321072Y-11796929D01*
X-1335357Y-11811214D01*
X-1349643Y-11796929D01*
X-1335357Y-11782643D01*
X-1335357Y-11811214D01*
X-1178214Y-11811214D02*
X-1121072Y-11811214D01*
X-1092500Y-11796929D01*
X-1078214Y-11782643D01*
X-1049643Y-11739786D01*
X-1035357Y-11682643D01*
X-1035357Y-11568357D01*
X-1049643Y-11539786D01*
X-1063929Y-11525500D01*
X-1092500Y-11511214D01*
X-1149643Y-11511214D01*
X-1178214Y-11525500D01*
X-1192500Y-11539786D01*
X-1206786Y-11568357D01*
X-1206786Y-11639786D01*
X-1192500Y-11668357D01*
X-1178214Y-11682643D01*
X-1149643Y-11696929D01*
X-1092500Y-11696929D01*
X-1063929Y-11682643D01*
X-1049643Y-11668357D01*
X-1035357Y-11639786D01*
X-849643Y-11511214D02*
X-821071Y-11511214D01*
X-792500Y-11525500D01*
X-778214Y-11539786D01*
X-763929Y-11568357D01*
X-749643Y-11625500D01*
X-749643Y-11696929D01*
X-763929Y-11754071D01*
X-778214Y-11782643D01*
X-792500Y-11796929D01*
X-821071Y-11811214D01*
X-849643Y-11811214D01*
X-878214Y-11796929D01*
X-892500Y-11782643D01*
X-906786Y-11754071D01*
X-921071Y-11696929D01*
X-921071Y-11625500D01*
X-906786Y-11568357D01*
X-892500Y-11539786D01*
X-878214Y-11525500D01*
X-849643Y-11511214D01*
X-621072Y-11811214D02*
X-621072Y-11611214D01*
X-621072Y-11639786D02*
X-606786Y-11625500D01*
X-578214Y-11611214D01*
X-535357Y-11611214D01*
X-506786Y-11625500D01*
X-492500Y-11654071D01*
X-492500Y-11811214D01*
X-492500Y-11654071D02*
X-478214Y-11625500D01*
X-449643Y-11611214D01*
X-406786Y-11611214D01*
X-378214Y-11625500D01*
X-363929Y-11654071D01*
X-363929Y-11811214D01*
X-221071Y-11811214D02*
X-221071Y-11611214D01*
X-221071Y-11639786D02*
X-206786Y-11625500D01*
X-178214Y-11611214D01*
X-135357Y-11611214D01*
X-106786Y-11625500D01*
X-92500Y-11654071D01*
X-92500Y-11811214D01*
X-92500Y-11654071D02*
X-78214Y-11625500D01*
X-49643Y-11611214D01*
X-6786Y-11611214D01*
X21786Y-11625500D01*
X36071Y-11654071D01*
X36071Y-11811214D01*
X621786Y-11496929D02*
X364643Y-11882643D01*
X1007500Y-11511214D02*
X1036071Y-11511214D01*
X1064643Y-11525500D01*
X1078928Y-11539786D01*
X1093214Y-11568357D01*
X1107500Y-11625500D01*
X1107500Y-11696929D01*
X1093214Y-11754071D01*
X1078928Y-11782643D01*
X1064643Y-11796929D01*
X1036071Y-11811214D01*
X1007500Y-11811214D01*
X978928Y-11796929D01*
X964643Y-11782643D01*
X950357Y-11754071D01*
X936071Y-11696929D01*
X936071Y-11625500D01*
X950357Y-11568357D01*
X964643Y-11539786D01*
X978928Y-11525500D01*
X1007500Y-11511214D01*
X1236071Y-11782643D02*
X1250357Y-11796929D01*
X1236071Y-11811214D01*
X1221786Y-11796929D01*
X1236071Y-11782643D01*
X1236071Y-11811214D01*
X1436071Y-11511214D02*
X1464643Y-11511214D01*
X1493214Y-11525500D01*
X1507500Y-11539786D01*
X1521786Y-11568357D01*
X1536071Y-11625500D01*
X1536071Y-11696929D01*
X1521786Y-11754071D01*
X1507500Y-11782643D01*
X1493214Y-11796929D01*
X1464643Y-11811214D01*
X1436071Y-11811214D01*
X1407500Y-11796929D01*
X1393214Y-11782643D01*
X1378928Y-11754071D01*
X1364643Y-11696929D01*
X1364643Y-11625500D01*
X1378928Y-11568357D01*
X1393214Y-11539786D01*
X1407500Y-11525500D01*
X1436071Y-11511214D01*
X1636071Y-11511214D02*
X1836071Y-11511214D01*
X1707500Y-11811214D01*
X2093214Y-11511214D02*
X1950357Y-11511214D01*
X1936071Y-11654071D01*
X1950357Y-11639786D01*
X1978928Y-11625500D01*
X2050357Y-11625500D01*
X2078928Y-11639786D01*
X2093214Y-11654071D01*
X2107500Y-11682643D01*
X2107500Y-11754071D01*
X2093214Y-11782643D01*
X2078928Y-11796929D01*
X2050357Y-11811214D01*
X1978928Y-11811214D01*
X1950357Y-11796929D01*
X1936071Y-11782643D01*
X2221786Y-11511214D02*
X2221786Y-11568357D01*
X2336071Y-11511214D02*
X2336071Y-11568357D01*
X2778928Y-11925500D02*
X2764643Y-11911214D01*
X2736071Y-11868357D01*
X2721786Y-11839786D01*
X2707500Y-11796929D01*
X2693214Y-11725500D01*
X2693214Y-11668357D01*
X2707500Y-11596929D01*
X2721786Y-11554071D01*
X2736071Y-11525500D01*
X2764643Y-11482643D01*
X2778928Y-11468357D01*
X2936071Y-11639786D02*
X2907500Y-11625500D01*
X2893214Y-11611214D01*
X2878928Y-11582643D01*
X2878928Y-11568357D01*
X2893214Y-11539786D01*
X2907500Y-11525500D01*
X2936071Y-11511214D01*
X2993214Y-11511214D01*
X3021786Y-11525500D01*
X3036071Y-11539786D01*
X3050357Y-11568357D01*
X3050357Y-11582643D01*
X3036071Y-11611214D01*
X3021786Y-11625500D01*
X2993214Y-11639786D01*
X2936071Y-11639786D01*
X2907500Y-11654071D01*
X2893214Y-11668357D01*
X2878928Y-11696929D01*
X2878928Y-11754071D01*
X2893214Y-11782643D01*
X2907500Y-11796929D01*
X2936071Y-11811214D01*
X2993214Y-11811214D01*
X3021786Y-11796929D01*
X3036071Y-11782643D01*
X3050357Y-11754071D01*
X3050357Y-11696929D01*
X3036071Y-11668357D01*
X3021786Y-11654071D01*
X2993214Y-11639786D01*
X3221786Y-11639786D02*
X3193214Y-11625500D01*
X3178928Y-11611214D01*
X3164643Y-11582643D01*
X3164643Y-11568357D01*
X3178928Y-11539786D01*
X3193214Y-11525500D01*
X3221786Y-11511214D01*
X3278928Y-11511214D01*
X3307500Y-11525500D01*
X3321786Y-11539786D01*
X3336071Y-11568357D01*
X3336071Y-11582643D01*
X3321786Y-11611214D01*
X3307500Y-11625500D01*
X3278928Y-11639786D01*
X3221786Y-11639786D01*
X3193214Y-11654071D01*
X3178928Y-11668357D01*
X3164643Y-11696929D01*
X3164643Y-11754071D01*
X3178928Y-11782643D01*
X3193214Y-11796929D01*
X3221786Y-11811214D01*
X3278928Y-11811214D01*
X3307500Y-11796929D01*
X3321786Y-11782643D01*
X3336071Y-11754071D01*
X3336071Y-11696929D01*
X3321786Y-11668357D01*
X3307500Y-11654071D01*
X3278928Y-11639786D01*
X3693214Y-11811214D02*
X3693214Y-11511214D01*
X3821786Y-11811214D02*
X3821786Y-11654071D01*
X3807500Y-11625500D01*
X3778928Y-11611214D01*
X3736071Y-11611214D01*
X3707500Y-11625500D01*
X3693214Y-11639786D01*
X4007500Y-11811214D02*
X3978928Y-11796929D01*
X3964643Y-11782643D01*
X3950357Y-11754071D01*
X3950357Y-11668357D01*
X3964643Y-11639786D01*
X3978928Y-11625500D01*
X4007500Y-11611214D01*
X4050357Y-11611214D01*
X4078928Y-11625500D01*
X4093214Y-11639786D01*
X4107500Y-11668357D01*
X4107500Y-11754071D01*
X4093214Y-11782643D01*
X4078928Y-11796929D01*
X4050357Y-11811214D01*
X4007500Y-11811214D01*
X4278928Y-11811214D02*
X4250357Y-11796929D01*
X4236071Y-11768357D01*
X4236071Y-11511214D01*
X4507500Y-11796929D02*
X4478928Y-11811214D01*
X4421786Y-11811214D01*
X4393214Y-11796929D01*
X4378928Y-11768357D01*
X4378928Y-11654071D01*
X4393214Y-11625500D01*
X4421786Y-11611214D01*
X4478928Y-11611214D01*
X4507500Y-11625500D01*
X4521786Y-11654071D01*
X4521786Y-11682643D01*
X4378928Y-11711214D01*
X4636071Y-11796929D02*
X4664643Y-11811214D01*
X4721786Y-11811214D01*
X4750357Y-11796929D01*
X4764643Y-11768357D01*
X4764643Y-11754071D01*
X4750357Y-11725500D01*
X4721786Y-11711214D01*
X4678928Y-11711214D01*
X4650357Y-11696929D01*
X4636071Y-11668357D01*
X4636071Y-11654071D01*
X4650357Y-11625500D01*
X4678928Y-11611214D01*
X4721786Y-11611214D01*
X4750357Y-11625500D01*
X4864643Y-11925500D02*
X4878928Y-11911214D01*
X4907500Y-11868357D01*
X4921786Y-11839786D01*
X4936071Y-11796929D01*
X4950357Y-11725500D01*
X4950357Y-11668357D01*
X4936071Y-11596929D01*
X4921786Y-11554071D01*
X4907500Y-11525500D01*
X4878928Y-11482643D01*
X4864643Y-11468357D01*
X5407500Y-11925500D02*
X5393214Y-11911214D01*
X5364643Y-11868357D01*
X5350357Y-11839786D01*
X5336071Y-11796929D01*
X5321786Y-11725500D01*
X5321786Y-11668357D01*
X5336071Y-11596929D01*
X5350357Y-11554071D01*
X5364643Y-11525500D01*
X5393214Y-11482643D01*
X5407500Y-11468357D01*
X5521786Y-11611214D02*
X5521786Y-11811214D01*
X5521786Y-11639786D02*
X5536071Y-11625500D01*
X5564643Y-11611214D01*
X5607500Y-11611214D01*
X5636071Y-11625500D01*
X5650357Y-11654071D01*
X5650357Y-11811214D01*
X5836071Y-11811214D02*
X5807500Y-11796929D01*
X5793214Y-11782643D01*
X5778928Y-11754071D01*
X5778928Y-11668357D01*
X5793214Y-11639786D01*
X5807500Y-11625500D01*
X5836071Y-11611214D01*
X5878928Y-11611214D01*
X5907500Y-11625500D01*
X5921786Y-11639786D01*
X5936071Y-11668357D01*
X5936071Y-11754071D01*
X5921786Y-11782643D01*
X5907500Y-11796929D01*
X5878928Y-11811214D01*
X5836071Y-11811214D01*
X6021786Y-11611214D02*
X6136071Y-11611214D01*
X6064643Y-11511214D02*
X6064643Y-11768357D01*
X6078928Y-11796929D01*
X6107500Y-11811214D01*
X6136071Y-11811214D01*
X6464643Y-11611214D02*
X6464643Y-11911214D01*
X6464643Y-11625500D02*
X6493214Y-11611214D01*
X6550357Y-11611214D01*
X6578928Y-11625500D01*
X6593214Y-11639786D01*
X6607500Y-11668357D01*
X6607500Y-11754071D01*
X6593214Y-11782643D01*
X6578928Y-11796929D01*
X6550357Y-11811214D01*
X6493214Y-11811214D01*
X6464643Y-11796929D01*
X6778928Y-11811214D02*
X6750357Y-11796929D01*
X6736071Y-11768357D01*
X6736071Y-11511214D01*
X7021786Y-11811214D02*
X7021786Y-11654071D01*
X7007500Y-11625500D01*
X6978928Y-11611214D01*
X6921786Y-11611214D01*
X6893214Y-11625500D01*
X7021786Y-11796929D02*
X6993214Y-11811214D01*
X6921786Y-11811214D01*
X6893214Y-11796929D01*
X6878928Y-11768357D01*
X6878928Y-11739786D01*
X6893214Y-11711214D01*
X6921786Y-11696929D01*
X6993214Y-11696929D01*
X7021786Y-11682643D01*
X7121786Y-11611214D02*
X7236071Y-11611214D01*
X7164643Y-11511214D02*
X7164643Y-11768357D01*
X7178928Y-11796929D01*
X7207500Y-11811214D01*
X7236071Y-11811214D01*
X7450357Y-11796929D02*
X7421786Y-11811214D01*
X7364643Y-11811214D01*
X7336071Y-11796929D01*
X7321786Y-11768357D01*
X7321786Y-11654071D01*
X7336071Y-11625500D01*
X7364643Y-11611214D01*
X7421786Y-11611214D01*
X7450357Y-11625500D01*
X7464643Y-11654071D01*
X7464643Y-11682643D01*
X7321786Y-11711214D01*
X7721786Y-11811214D02*
X7721786Y-11511214D01*
X7721786Y-11796929D02*
X7693214Y-11811214D01*
X7636071Y-11811214D01*
X7607500Y-11796929D01*
X7593214Y-11782643D01*
X7578928Y-11754071D01*
X7578928Y-11668357D01*
X7593214Y-11639786D01*
X7607500Y-11625500D01*
X7636071Y-11611214D01*
X7693214Y-11611214D01*
X7721786Y-11625500D01*
X7836071Y-11925500D02*
X7850357Y-11911214D01*
X7878928Y-11868357D01*
X7893214Y-11839786D01*
X7907500Y-11796929D01*
X7921786Y-11725500D01*
X7921786Y-11668357D01*
X7907500Y-11596929D01*
X7893214Y-11554071D01*
X7878928Y-11525500D01*
X7850357Y-11482643D01*
X7836071Y-11468357D01*
X-2007449Y-12171449D02*
X-1907500Y-12071500D01*
X-2007449Y-11971551D01*
X-2107398Y-12071500D01*
X-2007449Y-12171449D01*
X-1635357Y-11935786D02*
X-1621071Y-11921500D01*
X-1592500Y-11907214D01*
X-1521071Y-11907214D01*
X-1492500Y-11921500D01*
X-1478214Y-11935786D01*
X-1463929Y-11964357D01*
X-1463929Y-11992929D01*
X-1478214Y-12035786D01*
X-1649643Y-12207214D01*
X-1463929Y-12207214D01*
X-1335357Y-12178643D02*
X-1321072Y-12192929D01*
X-1335357Y-12207214D01*
X-1349643Y-12192929D01*
X-1335357Y-12178643D01*
X-1335357Y-12207214D01*
X-1135357Y-11907214D02*
X-1106786Y-11907214D01*
X-1078214Y-11921500D01*
X-1063929Y-11935786D01*
X-1049643Y-11964357D01*
X-1035357Y-12021500D01*
X-1035357Y-12092929D01*
X-1049643Y-12150071D01*
X-1063929Y-12178643D01*
X-1078214Y-12192929D01*
X-1106786Y-12207214D01*
X-1135357Y-12207214D01*
X-1163929Y-12192929D01*
X-1178214Y-12178643D01*
X-1192500Y-12150071D01*
X-1206786Y-12092929D01*
X-1206786Y-12021500D01*
X-1192500Y-11964357D01*
X-1178214Y-11935786D01*
X-1163929Y-11921500D01*
X-1135357Y-11907214D01*
X-849643Y-11907214D02*
X-821071Y-11907214D01*
X-792500Y-11921500D01*
X-778214Y-11935786D01*
X-763929Y-11964357D01*
X-749643Y-12021500D01*
X-749643Y-12092929D01*
X-763929Y-12150071D01*
X-778214Y-12178643D01*
X-792500Y-12192929D01*
X-821071Y-12207214D01*
X-849643Y-12207214D01*
X-878214Y-12192929D01*
X-892500Y-12178643D01*
X-906786Y-12150071D01*
X-921071Y-12092929D01*
X-921071Y-12021500D01*
X-906786Y-11964357D01*
X-892500Y-11935786D01*
X-878214Y-11921500D01*
X-849643Y-11907214D01*
X-621072Y-12207214D02*
X-621072Y-12007214D01*
X-621072Y-12035786D02*
X-606786Y-12021500D01*
X-578214Y-12007214D01*
X-535357Y-12007214D01*
X-506786Y-12021500D01*
X-492500Y-12050071D01*
X-492500Y-12207214D01*
X-492500Y-12050071D02*
X-478214Y-12021500D01*
X-449643Y-12007214D01*
X-406786Y-12007214D01*
X-378214Y-12021500D01*
X-363929Y-12050071D01*
X-363929Y-12207214D01*
X-221071Y-12207214D02*
X-221071Y-12007214D01*
X-221071Y-12035786D02*
X-206786Y-12021500D01*
X-178214Y-12007214D01*
X-135357Y-12007214D01*
X-106786Y-12021500D01*
X-92500Y-12050071D01*
X-92500Y-12207214D01*
X-92500Y-12050071D02*
X-78214Y-12021500D01*
X-49643Y-12007214D01*
X-6786Y-12007214D01*
X21786Y-12021500D01*
X36071Y-12050071D01*
X36071Y-12207214D01*
X621786Y-11892929D02*
X364643Y-12278643D01*
X1007500Y-11907214D02*
X1036071Y-11907214D01*
X1064643Y-11921500D01*
X1078928Y-11935786D01*
X1093214Y-11964357D01*
X1107500Y-12021500D01*
X1107500Y-12092929D01*
X1093214Y-12150071D01*
X1078928Y-12178643D01*
X1064643Y-12192929D01*
X1036071Y-12207214D01*
X1007500Y-12207214D01*
X978928Y-12192929D01*
X964643Y-12178643D01*
X950357Y-12150071D01*
X936071Y-12092929D01*
X936071Y-12021500D01*
X950357Y-11964357D01*
X964643Y-11935786D01*
X978928Y-11921500D01*
X1007500Y-11907214D01*
X1236071Y-12178643D02*
X1250357Y-12192929D01*
X1236071Y-12207214D01*
X1221786Y-12192929D01*
X1236071Y-12178643D01*
X1236071Y-12207214D01*
X1436071Y-11907214D02*
X1464643Y-11907214D01*
X1493214Y-11921500D01*
X1507500Y-11935786D01*
X1521786Y-11964357D01*
X1536071Y-12021500D01*
X1536071Y-12092929D01*
X1521786Y-12150071D01*
X1507500Y-12178643D01*
X1493214Y-12192929D01*
X1464643Y-12207214D01*
X1436071Y-12207214D01*
X1407500Y-12192929D01*
X1393214Y-12178643D01*
X1378928Y-12150071D01*
X1364643Y-12092929D01*
X1364643Y-12021500D01*
X1378928Y-11964357D01*
X1393214Y-11935786D01*
X1407500Y-11921500D01*
X1436071Y-11907214D01*
X1636071Y-11907214D02*
X1836071Y-11907214D01*
X1707500Y-12207214D01*
X1964643Y-12207214D02*
X2021786Y-12207214D01*
X2050357Y-12192929D01*
X2064643Y-12178643D01*
X2093214Y-12135786D01*
X2107500Y-12078643D01*
X2107500Y-11964357D01*
X2093214Y-11935786D01*
X2078928Y-11921500D01*
X2050357Y-11907214D01*
X1993214Y-11907214D01*
X1964643Y-11921500D01*
X1950357Y-11935786D01*
X1936071Y-11964357D01*
X1936071Y-12035786D01*
X1950357Y-12064357D01*
X1964643Y-12078643D01*
X1993214Y-12092929D01*
X2050357Y-12092929D01*
X2078928Y-12078643D01*
X2093214Y-12064357D01*
X2107500Y-12035786D01*
X2221786Y-11907214D02*
X2221786Y-11964357D01*
X2336071Y-11907214D02*
X2336071Y-11964357D01*
X2778928Y-12321500D02*
X2764643Y-12307214D01*
X2736071Y-12264357D01*
X2721786Y-12235786D01*
X2707500Y-12192929D01*
X2693214Y-12121500D01*
X2693214Y-12064357D01*
X2707500Y-11992929D01*
X2721786Y-11950071D01*
X2736071Y-11921500D01*
X2764643Y-11878643D01*
X2778928Y-11864357D01*
X2878928Y-11935786D02*
X2893214Y-11921500D01*
X2921786Y-11907214D01*
X2993214Y-11907214D01*
X3021786Y-11921500D01*
X3036071Y-11935786D01*
X3050357Y-11964357D01*
X3050357Y-11992929D01*
X3036071Y-12035786D01*
X2864643Y-12207214D01*
X3050357Y-12207214D01*
X3407500Y-12207214D02*
X3407500Y-11907214D01*
X3536071Y-12207214D02*
X3536071Y-12050071D01*
X3521786Y-12021500D01*
X3493214Y-12007214D01*
X3450357Y-12007214D01*
X3421786Y-12021500D01*
X3407500Y-12035786D01*
X3721786Y-12207214D02*
X3693214Y-12192929D01*
X3678928Y-12178643D01*
X3664643Y-12150071D01*
X3664643Y-12064357D01*
X3678928Y-12035786D01*
X3693214Y-12021500D01*
X3721786Y-12007214D01*
X3764643Y-12007214D01*
X3793214Y-12021500D01*
X3807500Y-12035786D01*
X3821786Y-12064357D01*
X3821786Y-12150071D01*
X3807500Y-12178643D01*
X3793214Y-12192929D01*
X3764643Y-12207214D01*
X3721786Y-12207214D01*
X3993214Y-12207214D02*
X3964643Y-12192929D01*
X3950357Y-12164357D01*
X3950357Y-11907214D01*
X4221786Y-12192929D02*
X4193214Y-12207214D01*
X4136071Y-12207214D01*
X4107500Y-12192929D01*
X4093214Y-12164357D01*
X4093214Y-12050071D01*
X4107500Y-12021500D01*
X4136071Y-12007214D01*
X4193214Y-12007214D01*
X4221786Y-12021500D01*
X4236071Y-12050071D01*
X4236071Y-12078643D01*
X4093214Y-12107214D01*
X4350357Y-12192929D02*
X4378928Y-12207214D01*
X4436071Y-12207214D01*
X4464643Y-12192929D01*
X4478928Y-12164357D01*
X4478928Y-12150071D01*
X4464643Y-12121500D01*
X4436071Y-12107214D01*
X4393214Y-12107214D01*
X4364643Y-12092929D01*
X4350357Y-12064357D01*
X4350357Y-12050071D01*
X4364643Y-12021500D01*
X4393214Y-12007214D01*
X4436071Y-12007214D01*
X4464643Y-12021500D01*
X4578928Y-12321500D02*
X4593214Y-12307214D01*
X4621786Y-12264357D01*
X4636071Y-12235786D01*
X4650357Y-12192929D01*
X4664643Y-12121500D01*
X4664643Y-12064357D01*
X4650357Y-11992929D01*
X4636071Y-11950071D01*
X4621786Y-11921500D01*
X4593214Y-11878643D01*
X4578928Y-11864357D01*
X5121786Y-12321500D02*
X5107500Y-12307214D01*
X5078928Y-12264357D01*
X5064643Y-12235786D01*
X5050357Y-12192929D01*
X5036071Y-12121500D01*
X5036071Y-12064357D01*
X5050357Y-11992929D01*
X5064643Y-11950071D01*
X5078928Y-11921500D01*
X5107500Y-11878643D01*
X5121786Y-11864357D01*
X5236071Y-12007214D02*
X5236071Y-12207214D01*
X5236071Y-12035786D02*
X5250357Y-12021500D01*
X5278928Y-12007214D01*
X5321786Y-12007214D01*
X5350357Y-12021500D01*
X5364643Y-12050071D01*
X5364643Y-12207214D01*
X5550357Y-12207214D02*
X5521786Y-12192929D01*
X5507500Y-12178643D01*
X5493214Y-12150071D01*
X5493214Y-12064357D01*
X5507500Y-12035786D01*
X5521786Y-12021500D01*
X5550357Y-12007214D01*
X5593214Y-12007214D01*
X5621786Y-12021500D01*
X5636071Y-12035786D01*
X5650357Y-12064357D01*
X5650357Y-12150071D01*
X5636071Y-12178643D01*
X5621786Y-12192929D01*
X5593214Y-12207214D01*
X5550357Y-12207214D01*
X5736071Y-12007214D02*
X5850357Y-12007214D01*
X5778928Y-11907214D02*
X5778928Y-12164357D01*
X5793214Y-12192929D01*
X5821786Y-12207214D01*
X5850357Y-12207214D01*
X6178928Y-12007214D02*
X6178928Y-12307214D01*
X6178928Y-12021500D02*
X6207500Y-12007214D01*
X6264643Y-12007214D01*
X6293214Y-12021500D01*
X6307500Y-12035786D01*
X6321786Y-12064357D01*
X6321786Y-12150071D01*
X6307500Y-12178643D01*
X6293214Y-12192929D01*
X6264643Y-12207214D01*
X6207500Y-12207214D01*
X6178928Y-12192929D01*
X6493214Y-12207214D02*
X6464643Y-12192929D01*
X6450357Y-12164357D01*
X6450357Y-11907214D01*
X6736071Y-12207214D02*
X6736071Y-12050071D01*
X6721786Y-12021500D01*
X6693214Y-12007214D01*
X6636071Y-12007214D01*
X6607500Y-12021500D01*
X6736071Y-12192929D02*
X6707500Y-12207214D01*
X6636071Y-12207214D01*
X6607500Y-12192929D01*
X6593214Y-12164357D01*
X6593214Y-12135786D01*
X6607500Y-12107214D01*
X6636071Y-12092929D01*
X6707500Y-12092929D01*
X6736071Y-12078643D01*
X6836071Y-12007214D02*
X6950357Y-12007214D01*
X6878928Y-11907214D02*
X6878928Y-12164357D01*
X6893214Y-12192929D01*
X6921786Y-12207214D01*
X6950357Y-12207214D01*
X7164643Y-12192929D02*
X7136071Y-12207214D01*
X7078928Y-12207214D01*
X7050357Y-12192929D01*
X7036071Y-12164357D01*
X7036071Y-12050071D01*
X7050357Y-12021500D01*
X7078928Y-12007214D01*
X7136071Y-12007214D01*
X7164643Y-12021500D01*
X7178928Y-12050071D01*
X7178928Y-12078643D01*
X7036071Y-12107214D01*
X7436071Y-12207214D02*
X7436071Y-11907214D01*
X7436071Y-12192929D02*
X7407500Y-12207214D01*
X7350357Y-12207214D01*
X7321786Y-12192929D01*
X7307500Y-12178643D01*
X7293214Y-12150071D01*
X7293214Y-12064357D01*
X7307500Y-12035786D01*
X7321786Y-12021500D01*
X7350357Y-12007214D01*
X7407500Y-12007214D01*
X7436071Y-12021500D01*
X7550357Y-12321500D02*
X7564643Y-12307214D01*
X7593214Y-12264357D01*
X7607500Y-12235786D01*
X7621786Y-12192929D01*
X7636071Y-12121500D01*
X7636071Y-12064357D01*
X7621786Y-11992929D01*
X7607500Y-11950071D01*
X7593214Y-11921500D01*
X7564643Y-11878643D01*
X7550357Y-11864357D01*
X-2247500Y-12297500D02*
X-1907500Y-12637500D01*
X-1907500Y-12297500D02*
X-2247500Y-12637500D01*
X-1907500Y-12467500D02*
G75*
G03X-1907500Y-12467500I-170000J0D01*
G01*
X-1649643Y-12303214D02*
X-1463929Y-12303214D01*
X-1563929Y-12417500D01*
X-1521071Y-12417500D01*
X-1492500Y-12431786D01*
X-1478214Y-12446071D01*
X-1463929Y-12474643D01*
X-1463929Y-12546071D01*
X-1478214Y-12574643D01*
X-1492500Y-12588929D01*
X-1521071Y-12603214D01*
X-1606786Y-12603214D01*
X-1635357Y-12588929D01*
X-1649643Y-12574643D01*
X-1335357Y-12574643D02*
X-1321072Y-12588929D01*
X-1335357Y-12603214D01*
X-1349643Y-12588929D01*
X-1335357Y-12574643D01*
X-1335357Y-12603214D01*
X-1063929Y-12403214D02*
X-1063929Y-12603214D01*
X-1135357Y-12288929D02*
X-1206786Y-12503214D01*
X-1021071Y-12503214D01*
X-849643Y-12303214D02*
X-821071Y-12303214D01*
X-792500Y-12317500D01*
X-778214Y-12331786D01*
X-763929Y-12360357D01*
X-749643Y-12417500D01*
X-749643Y-12488929D01*
X-763929Y-12546071D01*
X-778214Y-12574643D01*
X-792500Y-12588929D01*
X-821071Y-12603214D01*
X-849643Y-12603214D01*
X-878214Y-12588929D01*
X-892500Y-12574643D01*
X-906786Y-12546071D01*
X-921071Y-12488929D01*
X-921071Y-12417500D01*
X-906786Y-12360357D01*
X-892500Y-12331786D01*
X-878214Y-12317500D01*
X-849643Y-12303214D01*
X-621072Y-12603214D02*
X-621072Y-12403214D01*
X-621072Y-12431786D02*
X-606786Y-12417500D01*
X-578214Y-12403214D01*
X-535357Y-12403214D01*
X-506786Y-12417500D01*
X-492500Y-12446071D01*
X-492500Y-12603214D01*
X-492500Y-12446071D02*
X-478214Y-12417500D01*
X-449643Y-12403214D01*
X-406786Y-12403214D01*
X-378214Y-12417500D01*
X-363929Y-12446071D01*
X-363929Y-12603214D01*
X-221071Y-12603214D02*
X-221071Y-12403214D01*
X-221071Y-12431786D02*
X-206786Y-12417500D01*
X-178214Y-12403214D01*
X-135357Y-12403214D01*
X-106786Y-12417500D01*
X-92500Y-12446071D01*
X-92500Y-12603214D01*
X-92500Y-12446071D02*
X-78214Y-12417500D01*
X-49643Y-12403214D01*
X-6786Y-12403214D01*
X21786Y-12417500D01*
X36071Y-12446071D01*
X36071Y-12603214D01*
X621786Y-12288929D02*
X364643Y-12674643D01*
X1007500Y-12303214D02*
X1036071Y-12303214D01*
X1064643Y-12317500D01*
X1078928Y-12331786D01*
X1093214Y-12360357D01*
X1107500Y-12417500D01*
X1107500Y-12488929D01*
X1093214Y-12546071D01*
X1078928Y-12574643D01*
X1064643Y-12588929D01*
X1036071Y-12603214D01*
X1007500Y-12603214D01*
X978928Y-12588929D01*
X964643Y-12574643D01*
X950357Y-12546071D01*
X936071Y-12488929D01*
X936071Y-12417500D01*
X950357Y-12360357D01*
X964643Y-12331786D01*
X978928Y-12317500D01*
X1007500Y-12303214D01*
X1236071Y-12574643D02*
X1250357Y-12588929D01*
X1236071Y-12603214D01*
X1221786Y-12588929D01*
X1236071Y-12574643D01*
X1236071Y-12603214D01*
X1536071Y-12603214D02*
X1364643Y-12603214D01*
X1450357Y-12603214D02*
X1450357Y-12303214D01*
X1421786Y-12346071D01*
X1393214Y-12374643D01*
X1364643Y-12388929D01*
X1636071Y-12303214D02*
X1821786Y-12303214D01*
X1721786Y-12417500D01*
X1764643Y-12417500D01*
X1793214Y-12431786D01*
X1807500Y-12446071D01*
X1821786Y-12474643D01*
X1821786Y-12546071D01*
X1807500Y-12574643D01*
X1793214Y-12588929D01*
X1764643Y-12603214D01*
X1678928Y-12603214D01*
X1650357Y-12588929D01*
X1636071Y-12574643D01*
X2078928Y-12403214D02*
X2078928Y-12603214D01*
X2007500Y-12288929D02*
X1936071Y-12503214D01*
X2121786Y-12503214D01*
X2221786Y-12303214D02*
X2221786Y-12360357D01*
X2336071Y-12303214D02*
X2336071Y-12360357D01*
X2778928Y-12717500D02*
X2764643Y-12703214D01*
X2736071Y-12660357D01*
X2721786Y-12631786D01*
X2707500Y-12588929D01*
X2693214Y-12517500D01*
X2693214Y-12460357D01*
X2707500Y-12388929D01*
X2721786Y-12346071D01*
X2736071Y-12317500D01*
X2764643Y-12274643D01*
X2778928Y-12260357D01*
X3021786Y-12403214D02*
X3021786Y-12603214D01*
X2950357Y-12288929D02*
X2878928Y-12503214D01*
X3064643Y-12503214D01*
X3307500Y-12403214D02*
X3307500Y-12603214D01*
X3236071Y-12288929D02*
X3164643Y-12503214D01*
X3350357Y-12503214D01*
X3693214Y-12603214D02*
X3693214Y-12303214D01*
X3821786Y-12603214D02*
X3821786Y-12446071D01*
X3807500Y-12417500D01*
X3778928Y-12403214D01*
X3736071Y-12403214D01*
X3707500Y-12417500D01*
X3693214Y-12431786D01*
X4007500Y-12603214D02*
X3978928Y-12588929D01*
X3964643Y-12574643D01*
X3950357Y-12546071D01*
X3950357Y-12460357D01*
X3964643Y-12431786D01*
X3978928Y-12417500D01*
X4007500Y-12403214D01*
X4050357Y-12403214D01*
X4078928Y-12417500D01*
X4093214Y-12431786D01*
X4107500Y-12460357D01*
X4107500Y-12546071D01*
X4093214Y-12574643D01*
X4078928Y-12588929D01*
X4050357Y-12603214D01*
X4007500Y-12603214D01*
X4278928Y-12603214D02*
X4250357Y-12588929D01*
X4236071Y-12560357D01*
X4236071Y-12303214D01*
X4507500Y-12588929D02*
X4478928Y-12603214D01*
X4421786Y-12603214D01*
X4393214Y-12588929D01*
X4378928Y-12560357D01*
X4378928Y-12446071D01*
X4393214Y-12417500D01*
X4421786Y-12403214D01*
X4478928Y-12403214D01*
X4507500Y-12417500D01*
X4521786Y-12446071D01*
X4521786Y-12474643D01*
X4378928Y-12503214D01*
X4636071Y-12588929D02*
X4664643Y-12603214D01*
X4721786Y-12603214D01*
X4750357Y-12588929D01*
X4764643Y-12560357D01*
X4764643Y-12546071D01*
X4750357Y-12517500D01*
X4721786Y-12503214D01*
X4678928Y-12503214D01*
X4650357Y-12488929D01*
X4636071Y-12460357D01*
X4636071Y-12446071D01*
X4650357Y-12417500D01*
X4678928Y-12403214D01*
X4721786Y-12403214D01*
X4750357Y-12417500D01*
X4864643Y-12717500D02*
X4878928Y-12703214D01*
X4907500Y-12660357D01*
X4921786Y-12631786D01*
X4936071Y-12588929D01*
X4950357Y-12517500D01*
X4950357Y-12460357D01*
X4936071Y-12388929D01*
X4921786Y-12346071D01*
X4907500Y-12317500D01*
X4878928Y-12274643D01*
X4864643Y-12260357D01*
X5407500Y-12717500D02*
X5393214Y-12703214D01*
X5364643Y-12660357D01*
X5350357Y-12631786D01*
X5336071Y-12588929D01*
X5321786Y-12517500D01*
X5321786Y-12460357D01*
X5336071Y-12388929D01*
X5350357Y-12346071D01*
X5364643Y-12317500D01*
X5393214Y-12274643D01*
X5407500Y-12260357D01*
X5521786Y-12403214D02*
X5521786Y-12603214D01*
X5521786Y-12431786D02*
X5536071Y-12417500D01*
X5564643Y-12403214D01*
X5607500Y-12403214D01*
X5636071Y-12417500D01*
X5650357Y-12446071D01*
X5650357Y-12603214D01*
X5836071Y-12603214D02*
X5807500Y-12588929D01*
X5793214Y-12574643D01*
X5778928Y-12546071D01*
X5778928Y-12460357D01*
X5793214Y-12431786D01*
X5807500Y-12417500D01*
X5836071Y-12403214D01*
X5878928Y-12403214D01*
X5907500Y-12417500D01*
X5921786Y-12431786D01*
X5936071Y-12460357D01*
X5936071Y-12546071D01*
X5921786Y-12574643D01*
X5907500Y-12588929D01*
X5878928Y-12603214D01*
X5836071Y-12603214D01*
X6021786Y-12403214D02*
X6136071Y-12403214D01*
X6064643Y-12303214D02*
X6064643Y-12560357D01*
X6078928Y-12588929D01*
X6107500Y-12603214D01*
X6136071Y-12603214D01*
X6464643Y-12403214D02*
X6464643Y-12703214D01*
X6464643Y-12417500D02*
X6493214Y-12403214D01*
X6550357Y-12403214D01*
X6578928Y-12417500D01*
X6593214Y-12431786D01*
X6607500Y-12460357D01*
X6607500Y-12546071D01*
X6593214Y-12574643D01*
X6578928Y-12588929D01*
X6550357Y-12603214D01*
X6493214Y-12603214D01*
X6464643Y-12588929D01*
X6778928Y-12603214D02*
X6750357Y-12588929D01*
X6736071Y-12560357D01*
X6736071Y-12303214D01*
X7021786Y-12603214D02*
X7021786Y-12446071D01*
X7007500Y-12417500D01*
X6978928Y-12403214D01*
X6921786Y-12403214D01*
X6893214Y-12417500D01*
X7021786Y-12588929D02*
X6993214Y-12603214D01*
X6921786Y-12603214D01*
X6893214Y-12588929D01*
X6878928Y-12560357D01*
X6878928Y-12531786D01*
X6893214Y-12503214D01*
X6921786Y-12488929D01*
X6993214Y-12488929D01*
X7021786Y-12474643D01*
X7121786Y-12403214D02*
X7236071Y-12403214D01*
X7164643Y-12303214D02*
X7164643Y-12560357D01*
X7178928Y-12588929D01*
X7207500Y-12603214D01*
X7236071Y-12603214D01*
X7450357Y-12588929D02*
X7421786Y-12603214D01*
X7364643Y-12603214D01*
X7336071Y-12588929D01*
X7321786Y-12560357D01*
X7321786Y-12446071D01*
X7336071Y-12417500D01*
X7364643Y-12403214D01*
X7421786Y-12403214D01*
X7450357Y-12417500D01*
X7464643Y-12446071D01*
X7464643Y-12474643D01*
X7321786Y-12503214D01*
X7721786Y-12603214D02*
X7721786Y-12303214D01*
X7721786Y-12588929D02*
X7693214Y-12603214D01*
X7636071Y-12603214D01*
X7607500Y-12588929D01*
X7593214Y-12574643D01*
X7578928Y-12546071D01*
X7578928Y-12460357D01*
X7593214Y-12431786D01*
X7607500Y-12417500D01*
X7636071Y-12403214D01*
X7693214Y-12403214D01*
X7721786Y-12417500D01*
X7836071Y-12717500D02*
X7850357Y-12703214D01*
X7878928Y-12660357D01*
X7893214Y-12631786D01*
X7907500Y-12588929D01*
X7921786Y-12517500D01*
X7921786Y-12460357D01*
X7907500Y-12388929D01*
X7893214Y-12346071D01*
X7878928Y-12317500D01*
X7850357Y-12274643D01*
X7836071Y-12260357D01*
M02*
